<svg xmlns="http://www.w3.org/2000/svg" xmlns:xlink="http://www.w3.org/1999/xlink" width="1001.119" height="137.429" viewBox="0 0 1001.119 137.429">
  <defs>
    <clipPath id="clip-path">
      <path id="Path_756" data-name="Path 756" d="M1218.673,863.87H217.555V726.44H1218.508Z"/>
    </clipPath>
    <linearGradient id="linear-gradient" y1="0.5" x2="1" y2="0.5" gradientUnits="objectBoundingBox">
      <stop offset="0.011" stop-color="#8755d6"/>
      <stop offset="1" stop-color="#cd37ce"/>
    </linearGradient>
  </defs>
  <g id="Group_979" data-name="Group 979" transform="translate(-217.555 -726.44)">
    <g id="Group_977" data-name="Group 977">
      <g id="Group_974" data-name="Group 974">
        <path id="Path_702" data-name="Path 702" d="M1218.673,863.87H217.555V726.44H1218.508Z"/>
        <g id="Group_973" data-name="Group 973" clip-path="url(#clip-path)">
          <g id="Group_967" data-name="Group 967">
            <line id="Line_621" data-name="Line 621" x1="16.427" y1="25.411" transform="translate(938.181 524.943)" fill="none" stroke="#4b9d97" stroke-linecap="round" stroke-width="1.288"/>
            <line id="Line_622" data-name="Line 622" x1="46.406" y1="73.323" transform="translate(886.256 716.844)" fill="none" stroke="#93295b" stroke-linecap="round" stroke-width="1.288"/>
            <line id="Line_623" data-name="Line 623" x1="88.95" y1="137.318" transform="translate(844.514 622.708)" fill="none" stroke="#f6e852" stroke-linecap="round" stroke-width="1.288"/>
            <line id="Line_624" data-name="Line 624" x1="88.947" y1="137.321" transform="translate(909.09 688.801)" fill="none" stroke="#4b9d97" stroke-linecap="round" stroke-width="4.324"/>
            <line id="Line_625" data-name="Line 625" x1="88.525" y1="136.986" transform="translate(946.499 609.409)" fill="none" stroke="#fff" stroke-linecap="round" stroke-width="1.288"/>
            <line id="Line_626" data-name="Line 626" x1="88.525" y1="136.986" transform="translate(892.649 561.9)" fill="none" stroke="#da7930" stroke-linecap="round" stroke-width="5.766"/>
            <line id="Line_627" data-name="Line 627" x1="28.519" y1="44.128" transform="translate(956.568 691.844)" fill="none" stroke="#cd2f7c" stroke-linecap="round" stroke-width="6.441"/>
            <line id="Line_628" data-name="Line 628" x1="45.18" y1="69.916" transform="translate(939.967 566.82)" fill="none" stroke="#852a7c" stroke-linecap="round" stroke-width="1.288"/>
            <line id="Line_629" data-name="Line 629" x1="36.755" y1="58.88" transform="translate(850.757 685.575)" fill="none" stroke="#4b9d97" stroke-linecap="round" stroke-width="1.288"/>
            <line id="Line_630" data-name="Line 630" x1="49.77" y1="78.514" transform="translate(894.062 635.952)" fill="none" stroke="#ebb24f" stroke-linecap="round" stroke-width="2.838"/>
          </g>
          <g id="Group_972" data-name="Group 972">
            <g id="Group_970" data-name="Group 970">
              <path id="Path_703" data-name="Path 703" d="M438.972,841.208a31.45,31.45,0,0,0-12.318-11.489Q418.4,825.156,397.9,820.7q-14.6-3.131-19.868-5.918a19.473,19.473,0,0,1-7.916-7.224,19.735,19.735,0,0,1-2.655-10.334,21.169,21.169,0,0,1,6.969-16.025q6.969-6.564,17.919-6.56a32.9,32.9,0,0,1,23.186,9.456q10.078,9.459,15.222,30.031h5.476l-.5-44.713h-6.056l-7.466,10.7a51.8,51.8,0,0,0-14.434-9.125,39.788,39.788,0,0,0-14.683-2.737q-16.094,0-26.421,10.328t-10.328,26.5q0,15.513,10.369,23.974,7.383,5.972,27.707,10.784,18.5,4.314,24.8,7.341a21.993,21.993,0,0,1,9.208,7.467,18.179,18.179,0,0,1,2.883,9.427h11.233a44.663,44.663,0,0,0,.484-6.648A31.458,31.458,0,0,0,438.972,841.208Z" fill="#fff"/>
              <path id="Path_704" data-name="Path 704" d="M443.135,740.378h3.537v21.709h16v5.228h-16v34.152q0,4.433,1.953,6.791a6.168,6.168,0,0,0,4.963,2.358q3.591,0,6.125-3.579t2.956-11.82h3.538q-.316,10.626-4.488,15.769a13.289,13.289,0,0,1-10.823,5.143q-6.125,0-9.583-3.608a13.109,13.109,0,0,1-3.458-9.463V767.315h-8.606v-3.978a13.641,13.641,0,0,0,8.958-5.285Q442.761,751.743,443.135,740.378Z" fill="#fff"/>
              <path id="Path_705" data-name="Path 705" d="M486.679,787.952V791q3.116.27,4.155,1.19a3.267,3.267,0,0,1,1.039,2.581,13.775,13.775,0,0,1-.753,4.4l-6.946,20.959-9.352-25.268a3.354,3.354,0,0,1-.215-1.167,2.548,2.548,0,0,1,.77-2,4.4,4.4,0,0,1,2.884-.7h1.5v-3.051H463.681V791a5.96,5.96,0,0,1,2.982,1.19,6.493,6.493,0,0,1,1.7,2.67L481.1,829.07q-3.232,8.163-4.523,10.54a10.137,10.137,0,0,1-2.776,3.455,4.716,4.716,0,0,1-2.668,1.078c-.668,0-1.034-.294-1.1-.878-.177-.014-.354-.03-.528-.051-1.392.091-2.788.1-4.183.1a3.771,3.771,0,0,1-1.635-.415,6.326,6.326,0,0,0,1.516,3.178,5.484,5.484,0,0,0,4.318,1.841q3.689,0,6.913-3.5,3.188-3.455,6.352-12.678l12.418-36.2A6.232,6.232,0,0,1,500.649,791v-3.051Z" fill="#fff"/>
              <path id="Path_706" data-name="Path 706" d="M457.785,728.28v57.371a2.374,2.374,0,0,0,.672,1.816,3.569,3.569,0,0,0,2.408.845h3.908v3.169H443.812v-3.169h3.71a3.58,3.58,0,0,0,2.7-.929,3.64,3.64,0,0,0,.888-2.62V736.6a3.982,3.982,0,0,0-1.066-3.084,5.088,5.088,0,0,0-3.592-1.352H443.14V729Z" fill="#fff"/>
              <path id="Path_707" data-name="Path 707" d="M484.256,835.888H450.628q.252,10.723,4.01,15.134a13.9,13.9,0,0,0,10.975,4.962q9.823,0,15.787-11.176l3.257,1.4q-7.316,14.234-21.149,14.233a20.968,20.968,0,0,1-15.862-6.815q-6.439-6.818-6.439-17.441,0-11.426,6.339-18.467a20.187,20.187,0,0,1,15.611-7.042,19.873,19.873,0,0,1,11.777,3.508,21.166,21.166,0,0,1,7.468,10.074A34.436,34.436,0,0,1,484.256,835.888Zm-33.628-3.559h20.348a3.418,3.418,0,0,0,2.806-1.228,6.712,6.712,0,0,0,1-4.185,13.6,13.6,0,0,0-3.434-9.37,10.512,10.512,0,0,0-8.093-3.86q-5.213,0-8.846,4.661T450.628,832.329Z" fill="#fff"/>
              <path id="Path_708" data-name="Path 708" d="M398.625,802.8l6.186-.183v13.368a.99.99,0,0,0,.265.779,1.413,1.413,0,0,0,.962.331H407.8v1.245h-8.84v-1.245H400.6a1.418,1.418,0,0,0,1.07-.356,1.448,1.448,0,0,0,.34-1.037v-9.785a1.778,1.778,0,0,0-.531-1.4,2.3,2.3,0,0,0-1.575-.472h-1.277Zm4.312-9.271a1.928,1.928,0,0,1,1.874,1.89,1.87,1.87,0,0,1-1.858,1.841,1.8,1.8,0,0,1-1.318-.555,1.875,1.875,0,0,1,1.3-3.176Z" fill="#fff"/>
              <path id="Path_709" data-name="Path 709" d="M411.495,812.482a9.09,9.09,0,0,0,2.363,3.972,5,5,0,0,0,3.292,1.1,4.31,4.31,0,0,0,2.778-.789,2.464,2.464,0,0,0,.97-2,2.108,2.108,0,0,0-.357-1.219,2.149,2.149,0,0,0-.989-.78,23.651,23.651,0,0,0-3.274-.754,13.5,13.5,0,0,1-3.521-1.045,3.953,3.953,0,0,1-1.552-1.509,4.1,4.1,0,0,1-.557-2.09,4.761,4.761,0,0,1,1.147-3.1,5.085,5.085,0,0,1,4.135-1.775,6.185,6.185,0,0,1,3.754,1.277l1.1-1.161h.681l.432,5.539h-1.111a6.989,6.989,0,0,0-1.978-3.391,4.643,4.643,0,0,0-3.074-1.036,3.679,3.679,0,0,0-2.476.77,2.4,2.4,0,0,0-.9,1.883,1.983,1.983,0,0,0,.831,1.626,7.257,7.257,0,0,0,3.19,1.046,23.765,23.765,0,0,1,3.589.783,4.351,4.351,0,0,1,2.107,1.533,4.2,4.2,0,0,1,.748,2.527,4.468,4.468,0,0,1-1.619,3.481,5.99,5.99,0,0,1-4.11,1.426,6.864,6.864,0,0,1-4.285-1.526l-1.212,1.393h-.881l-.332-6.186Z" fill="#fff"/>
              <path id="Path_710" data-name="Path 710" d="M461.087,776.592h.461v2.625h2.082v.632h-2.082v4.131a1.2,1.2,0,0,0,.254.822.827.827,0,0,0,.646.285.976.976,0,0,0,.8-.433,2.651,2.651,0,0,0,.384-1.43h.461a3,3,0,0,1-.584,1.907,1.783,1.783,0,0,1-1.409.623,1.718,1.718,0,0,1-1.248-.437,1.521,1.521,0,0,1-.45-1.144v-4.324h-1.121v-.481a1.8,1.8,0,0,0,1.167-.639A3.62,3.62,0,0,0,461.087,776.592Z" fill="#fff"/>
              <path id="Path_711" data-name="Path 711" d="M464.7,775.492l2.44-.118v4.964a3.645,3.645,0,0,1,1.093-.987,2.493,2.493,0,0,1,1.237-.326,2.126,2.126,0,0,1,1.113.295,1.806,1.806,0,0,1,.657.818,3.251,3.251,0,0,1,.271,1.382v3.058a.549.549,0,0,0,.151.43.706.706,0,0,0,.474.134h.55v.515h-3.478v-.515h.386A.975.975,0,0,0,470.2,785a.521.521,0,0,0,.169-.423V781.52a1.858,1.858,0,0,0-.389-1.254,1.252,1.252,0,0,0-.994-.451,1.629,1.629,0,0,0-.879.254,2.012,2.012,0,0,0-.687.773,2.255,2.255,0,0,0-.282,1.1v2.571a.673.673,0,0,0,.144.487.65.65,0,0,0,.474.145h.55v.515h-3.4v-.515h.385a.806.806,0,0,0,.557-.155.628.628,0,0,0,.165-.477v-7.685a.8.8,0,0,0-.217-.615.888.888,0,0,0-.629-.2H464.7Z" fill="#fff"/>
              <path id="Path_712" data-name="Path 712" d="M479.508,782.482H474.9a3.356,3.356,0,0,0,.55,2.076,1.906,1.906,0,0,0,1.5.68,2.442,2.442,0,0,0,2.165-1.533l.446.193a3.143,3.143,0,0,1-2.9,1.952,2.874,2.874,0,0,1-2.175-.935,3.34,3.34,0,0,1-.883-2.392,3.638,3.638,0,0,1,.869-2.533,2.771,2.771,0,0,1,2.141-.965,2.724,2.724,0,0,1,1.615.481,2.9,2.9,0,0,1,1.024,1.381A4.727,4.727,0,0,1,479.508,782.482Zm-4.612-.488h2.79a.469.469,0,0,0,.385-.168.922.922,0,0,0,.138-.575,1.865,1.865,0,0,0-.471-1.285,1.441,1.441,0,0,0-1.11-.529,1.491,1.491,0,0,0-1.213.639A3.172,3.172,0,0,0,474.9,781.994Z" fill="#fff"/>
              <path id="Path_713" data-name="Path 713" d="M443.467,733.655h.3v1.7h1.349v.41h-1.349v2.676a.772.772,0,0,0,.165.532.536.536,0,0,0,.418.185.635.635,0,0,0,.517-.281,1.71,1.71,0,0,0,.249-.926h.3a1.929,1.929,0,0,1-.378,1.235,1.154,1.154,0,0,1-.913.4,1.116,1.116,0,0,1-.808-.283.987.987,0,0,1-.291-.742v-2.8H442.3v-.312a1.163,1.163,0,0,0,.755-.414A2.346,2.346,0,0,0,443.467,733.655Z" fill="#fff"/>
              <path id="Path_714" data-name="Path 714" d="M448.021,735.017a1.952,1.952,0,0,1,1.482.637,2.348,2.348,0,0,1,.6,1.678,2.588,2.588,0,0,1-.268,1.226,2.011,2.011,0,0,1-.766.8,2.061,2.061,0,0,1-1.071.294,1.88,1.88,0,0,1-1.441-.644,2.663,2.663,0,0,1,0-3.347A1.908,1.908,0,0,1,448.021,735.017Zm0,.331a1.014,1.014,0,0,0-.859.474,2.615,2.615,0,0,0-.337,1.5,2.71,2.71,0,0,0,.335,1.522,1.007,1.007,0,0,0,.861.481,1.034,1.034,0,0,0,.884-.481,2.8,2.8,0,0,0,.339-1.573,2.507,2.507,0,0,0-.334-1.466A1.05,1.05,0,0,0,448.021,735.348Z" fill="#fff"/>
              <g id="Group_968" data-name="Group 968">
                <path id="Path_715" data-name="Path 715" d="M444.4,798.829l.306-.2a1.218,1.218,0,0,1,.41.886.972.972,0,0,1-.2.626,1.63,1.63,0,0,1-.711.446,3.276,3.276,0,0,1,.73.912,2.235,2.235,0,0,1,.183.947,1.836,1.836,0,0,1-.339,1.2,1.075,1.075,0,0,1-.869.411,1.535,1.535,0,0,1-1.326-.938,6.626,6.626,0,0,1-.7-2.5H441.1a.912.912,0,0,0-.71.334,1.23,1.23,0,0,0-.3.847,1.629,1.629,0,0,0,.2.82c.1.164.2.246.29.246a.543.543,0,0,0,.257-.13.686.686,0,0,1,.388-.16.536.536,0,0,1,.4.16.564.564,0,0,1,.156.415.614.614,0,0,1-.186.456.649.649,0,0,1-.476.183,1.25,1.25,0,0,1-.989-.609,2.638,2.638,0,0,1-.449-1.6,2.153,2.153,0,0,1,.394-1.393,1.216,1.216,0,0,1,.968-.481h2.8a.978.978,0,0,0,.547-.121.36.36,0,0,0,.181-.312A.759.759,0,0,0,444.4,798.829Zm-2.16,1.793a4.443,4.443,0,0,0,.624,1.969,1.1,1.1,0,0,0,.929.431.924.924,0,0,0,.659-.223.768.768,0,0,0,.238-.586,1.5,1.5,0,0,0-.49-1.118,1.7,1.7,0,0,0-1.227-.473Z"/>
                <path id="Path_716" data-name="Path 716" d="M439.84,798.015l-.1-1.7a8.194,8.194,0,0,1,1.126-.153,2.426,2.426,0,0,1-.836-.813,2.012,2.012,0,0,1-.28-1.057,1.69,1.69,0,0,1,.2-.853,1.4,1.4,0,0,1,.632-.552,2.191,2.191,0,0,1,.967-.208h2.493a.526.526,0,0,0,.4-.125.605.605,0,0,0,.118-.421v-.361h.41v2.7h-.41v-.257a.823.823,0,0,0-.115-.5.418.418,0,0,0-.344-.142H441.9a2.022,2.022,0,0,0-1.061.219,1.02,1.02,0,0,0-.492.929,1.288,1.288,0,0,0,.5,1.031,1.965,1.965,0,0,0,1.3.413h1.9a.515.515,0,0,0,.4-.129.616.616,0,0,0,.118-.424v-.355h.41v2.712h-.41v-.356a.641.641,0,0,0-.11-.407.332.332,0,0,0-.273-.14h-3.307a.658.658,0,0,0-.5.178.713.713,0,0,0-.169.511v.263Z"/>
                <path id="Path_717" data-name="Path 717" d="M443.033,790.558a3,3,0,0,0,1.309-.779,1.645,1.645,0,0,0,.364-1.085,1.418,1.418,0,0,0-.26-.916.812.812,0,0,0-.659-.32.694.694,0,0,0-.4.118.7.7,0,0,0-.257.326,7.8,7.8,0,0,0-.249,1.079,4.454,4.454,0,0,1-.344,1.161,1.3,1.3,0,0,1-.5.512,1.353,1.353,0,0,1-.689.183,1.569,1.569,0,0,1-1.022-.378,1.676,1.676,0,0,1-.585-1.363,2.04,2.04,0,0,1,.421-1.238l-.382-.361v-.225l1.825-.142v.367a2.314,2.314,0,0,0-1.118.652,1.532,1.532,0,0,0-.341,1.013,1.215,1.215,0,0,0,.254.816.79.79,0,0,0,.621.3.654.654,0,0,0,.535-.274,2.387,2.387,0,0,0,.345-1.051,7.85,7.85,0,0,1,.258-1.183,1.443,1.443,0,0,1,.506-.7,1.385,1.385,0,0,1,.833-.246,1.472,1.472,0,0,1,1.147.534,1.971,1.971,0,0,1,.47,1.355,2.259,2.259,0,0,1-.5,1.412l.459.4v.29l-2.039.109Z"/>
                <path id="Path_718" data-name="Path 718" d="M439.84,786.068v-2.247h.378v.3a.545.545,0,0,0,.068.312.217.217,0,0,0,.183.093.7.7,0,0,0,.257-.054l2.9-1.155-2.751-1a1.464,1.464,0,0,0-.548.367,1.051,1.051,0,0,0-.107.558h-.378v-2.474h.378v.208a.725.725,0,0,0,.074.391.235.235,0,0,0,.2.107.664.664,0,0,0,.23-.05l2.9-1.164-2.575-.923a1.33,1.33,0,0,0-.438-.093.319.319,0,0,0-.278.142,1.1,1.1,0,0,0-.115.537h-.378v-1.994h.378a1.085,1.085,0,0,0,.232.563,1.306,1.306,0,0,0,.527.323l4.139,1.483v.322l-3.582,1.44,3.582,1.288v.317l-4.527,1.839a.626.626,0,0,0-.287.2.751.751,0,0,0-.084.371Z"/>
                <path id="Path_719" data-name="Path 719" d="M442.437,772.479v3.668a2.661,2.661,0,0,0,1.651-.437,1.513,1.513,0,0,0,.541-1.2,1.942,1.942,0,0,0-1.219-1.723l.153-.355a2.5,2.5,0,0,1,1.553,2.307,2.287,2.287,0,0,1-.744,1.73,2.657,2.657,0,0,1-1.9.7,2.9,2.9,0,0,1-2.014-.691,2.2,2.2,0,0,1-.769-1.7,2.163,2.163,0,0,1,.384-1.285,2.3,2.3,0,0,1,1.1-.814A3.763,3.763,0,0,1,442.437,772.479Zm-.388,3.668v-2.219a.371.371,0,0,0-.134-.306.73.73,0,0,0-.456-.109,1.489,1.489,0,0,0-1.023.374,1.15,1.15,0,0,0-.421.883,1.187,1.187,0,0,0,.509.965A2.519,2.519,0,0,0,442.049,776.147Z"/>
                <path id="Path_720" data-name="Path 720" d="M439.84,771.769l-.093-1.842h2.073a4.556,4.556,0,0,1-1.548-.711,1.265,1.265,0,0,1-.525-1.028.885.885,0,0,1,.255-.664.93.93,0,0,1,.681-.249.788.788,0,0,1,.535.167.53.53,0,0,1,.192.418.509.509,0,0,1-.165.4.623.623,0,0,1-.442.15.7.7,0,0,1-.34-.087.63.63,0,0,0-.169-.081c-.054,0-.082.034-.082.1a.806.806,0,0,0,.263.509,2.359,2.359,0,0,0,1.006.606,5.4,5.4,0,0,0,1.591.329h1.1a.336.336,0,0,0,.285-.132.773.773,0,0,0,.1-.448v-.651h.41v3.182h-.41v-.508a.634.634,0,0,0-.1-.389.3.3,0,0,0-.243-.131h-3.264a.784.784,0,0,0-.544.159.584.584,0,0,0-.172.453v.449Z"/>
              </g>
              <g id="Group_969" data-name="Group 969">
                <path id="Path_721" data-name="Path 721" d="M454.614,775.252v2.174a1.141,1.141,0,0,0,.806-.258.989.989,0,0,0,.265-.71,1.17,1.17,0,0,0-.6-1.021l.075-.21a1.618,1.618,0,0,1,.395,2.392,1.177,1.177,0,0,1-.929.417,1.272,1.272,0,0,1-.984-.41,1.44,1.44,0,0,1-.375-1.009,1.484,1.484,0,0,1,.187-.762,1.183,1.183,0,0,1,.536-.483A1.571,1.571,0,0,1,454.614,775.252Zm-.19,2.174v-1.315a.244.244,0,0,0-.065-.182.313.313,0,0,0-.223-.065.659.659,0,0,0-.5.223.744.744,0,0,0-.2.523.76.76,0,0,0,.248.572A1.077,1.077,0,0,0,454.424,777.426Z"/>
                <path id="Path_722" data-name="Path 722" d="M453.346,774.915v-1.493h.181a1.217,1.217,0,0,0,.044.38.122.122,0,0,0,.111.083.242.242,0,0,0,.118-.033l1.476-.8-1.431-.732a.19.19,0,0,0-.075-.017c-.13,0-.211.156-.243.466h-.181v-1.258h.181a.717.717,0,0,0,.085.3.48.48,0,0,0,.188.175l2.122,1.112v.176l-2.181,1.194a.378.378,0,0,0-.164.157.7.7,0,0,0-.05.29Z"/>
                <path id="Path_723" data-name="Path 723" d="M454.614,768.369v2.175a1.141,1.141,0,0,0,.806-.259.989.989,0,0,0,.265-.71,1.171,1.171,0,0,0-.6-1.021l.075-.21a1.619,1.619,0,0,1,.395,2.393,1.179,1.179,0,0,1-.929.416,1.268,1.268,0,0,1-.984-.41,1.438,1.438,0,0,1-.375-1.009,1.484,1.484,0,0,1,.187-.762,1.177,1.177,0,0,1,.536-.483A1.571,1.571,0,0,1,454.614,768.369Zm-.19,2.175v-1.316a.241.241,0,0,0-.065-.181.313.313,0,0,0-.223-.065.658.658,0,0,0-.5.222.744.744,0,0,0-.2.523.758.758,0,0,0,.248.572A1.082,1.082,0,0,0,454.424,770.544Z"/>
                <path id="Path_724" data-name="Path 724" d="M453.346,767.948l-.046-1.092h1.012a2.063,2.063,0,0,1-.755-.421.81.81,0,0,1-.257-.609.593.593,0,0,1,.125-.394.411.411,0,0,1,.332-.147.33.33,0,0,1,.355.346.34.34,0,0,1-.08.235.276.276,0,0,1-.217.089.3.3,0,0,1-.165-.051.278.278,0,0,0-.083-.049c-.026,0-.04.02-.04.062a.526.526,0,0,0,.128.3,1.155,1.155,0,0,0,.492.36,2.252,2.252,0,0,0,.777.194h.536a.153.153,0,0,0,.139-.078.531.531,0,0,0,.048-.265v-.386h.2v1.886h-.2v-.3a.439.439,0,0,0-.049-.231.141.141,0,0,0-.119-.077h-1.594a.336.336,0,0,0-.266.094.389.389,0,0,0-.083.269v.265Z"/>
                <path id="Path_725" data-name="Path 725" d="M453.346,765.022v-1.455h.181v.137a.552.552,0,0,0,.042.26.129.129,0,0,0,.119.07.14.14,0,0,0,.069-.02l1.5-.846-1.247-.628a.577.577,0,0,0-.261-.068.17.17,0,0,0-.154.094.973.973,0,0,0-.071.376h-.181v-1.264h.181a.555.555,0,0,0,.27.492l2.153,1.124a2.129,2.129,0,0,1,.754.574,1.05,1.05,0,0,1,.208.626.637.637,0,0,1-.109.39.325.325,0,0,1-.269.148.248.248,0,0,1-.2-.091.339.339,0,0,1-.077-.227.325.325,0,0,1,.066-.207.2.2,0,0,1,.161-.084.29.29,0,0,1,.08.013.227.227,0,0,0,.058.012c.043,0,.064-.033.064-.1a.564.564,0,0,0-.064-.241.741.741,0,0,0-.2-.251,6.384,6.384,0,0,0-.627-.41l-2.035,1.153a.419.419,0,0,0-.159.153.726.726,0,0,0-.071.27Z"/>
                <path id="Path_726" data-name="Path 726" d="M452.326,760.589v-.217h1.02v-.982h.245v.982H455.2a.413.413,0,0,0,.319-.12.43.43,0,0,0,.111-.3.494.494,0,0,0-.168-.376.9.9,0,0,0-.556-.182v-.217a1.031,1.031,0,0,1,.741.276.921.921,0,0,1,.241.664.911.911,0,0,1-.169.588.542.542,0,0,1-.444.212h-1.68v.528H453.4a.9.9,0,0,0-.248-.549A1.245,1.245,0,0,0,452.326,760.589Z"/>
                <path id="Path_727" data-name="Path 727" d="M451.9,758.885l-.046-1.151h1.928a1.633,1.633,0,0,1-.383-.515,1.373,1.373,0,0,1-.127-.584,1.162,1.162,0,0,1,.115-.524.747.747,0,0,1,.317-.31,1.083,1.083,0,0,1,.537-.128h1.188a.191.191,0,0,0,.167-.071.382.382,0,0,0,.052-.224v-.259h.2v1.64h-.2v-.181a.531.531,0,0,0-.055-.287.185.185,0,0,0-.164-.08H454.24a.641.641,0,0,0-.487.183.652.652,0,0,0-.175.469.891.891,0,0,0,.1.415.862.862,0,0,0,.3.323.761.761,0,0,0,.426.133h1a.234.234,0,0,0,.189-.068.354.354,0,0,0,.056-.223v-.26h.2v1.605h-.2v-.182a.435.435,0,0,0-.06-.262.219.219,0,0,0-.185-.078h-2.985a.288.288,0,0,0-.24.1.486.486,0,0,0-.078.3v.221Z"/>
                <path id="Path_728" data-name="Path 728" d="M453.346,754.812l-.029-1.209h2.151a.143.143,0,0,0,.125-.052.312.312,0,0,0,.054-.188v-.343h.2v1.727h-.2v-.321a.316.316,0,0,0-.057-.209.21.21,0,0,0-.167-.067h-1.575a.263.263,0,0,0-.226.1.516.516,0,0,0-.076.308v.25Zm-1.493-.843a.391.391,0,0,1,.091-.256.271.271,0,0,1,.214-.11.261.261,0,0,1,.208.107.387.387,0,0,1,.088.256.394.394,0,0,1-.089.257.265.265,0,0,1-.21.109.268.268,0,0,1-.211-.11A.391.391,0,0,1,451.853,753.969Z"/>
                <path id="Path_729" data-name="Path 729" d="M453.346,752.663l-.051-1.008a3.51,3.51,0,0,1,.55-.091,1.312,1.312,0,0,1-.408-.481,1.4,1.4,0,0,1-.137-.627,1.166,1.166,0,0,1,.1-.505.746.746,0,0,1,.308-.327.922.922,0,0,1,.473-.124H455.4a.229.229,0,0,0,.194-.074.419.419,0,0,0,.057-.249v-.215h.2v1.6h-.2v-.152a.573.573,0,0,0-.056-.3.189.189,0,0,0-.168-.085h-1.071a.849.849,0,0,0-.518.13.647.647,0,0,0-.24.551.832.832,0,0,0,.243.611.853.853,0,0,0,.633.244h.926a.229.229,0,0,0,.194-.075.432.432,0,0,0,.057-.252v-.21h.2v1.607h-.2v-.211a.441.441,0,0,0-.054-.241.156.156,0,0,0-.133-.083h-1.615a.29.29,0,0,0-.243.1.487.487,0,0,0-.083.3v.155Z"/>
                <path id="Path_730" data-name="Path 730" d="M453.487,746.282a.965.965,0,0,1-.27-.6.419.419,0,0,1,.086-.269.257.257,0,0,1,.208-.106.211.211,0,0,1,.164.072.258.258,0,0,1-.121.42c-.053.017-.08.047-.08.087a.369.369,0,0,0,.12.24,1.116,1.116,0,0,1,.274-.191.594.594,0,0,1,.249-.052.659.659,0,0,1,.41.136,1.115,1.115,0,0,1,.314.452,1.523,1.523,0,0,1,.136.6v.354a1.271,1.271,0,0,0,.064.5.211.211,0,0,0,.2.123.174.174,0,0,0,.16-.1.864.864,0,0,0,.056-.38l-.013-.8a1.708,1.708,0,0,1,.167-.873.516.516,0,0,1,.458-.268.648.648,0,0,1,.539.305,2.139,2.139,0,0,1,.309,1.267,2,2,0,0,1-.21,1.034.46.46,0,0,1-.371.266.365.365,0,0,1-.288-.171,1.3,1.3,0,0,1-.2-.571,1.166,1.166,0,0,1-.188.482.372.372,0,0,1-.308.162.4.4,0,0,1-.3-.131.3.3,0,1,0-.52-.041.645.645,0,0,1-.408.14.725.725,0,0,1-.608-.347,1.522,1.522,0,0,1-.246-.9,1.8,1.8,0,0,1,.053-.437A1.738,1.738,0,0,1,453.487,746.282Zm2.363.661a1.923,1.923,0,0,0,.136.851c.091.17.2.255.328.255a.316.316,0,0,0,.286-.192,1.508,1.508,0,0,0,.139-.719,1.822,1.822,0,0,0-.152-.839c-.1-.188-.215-.282-.339-.282a.3.3,0,0,0-.2.087.565.565,0,0,0-.145.279A2.393,2.393,0,0,0,455.85,746.943Zm-2.408.192a.669.669,0,0,0,.175.476.638.638,0,0,0,.49.188.7.7,0,0,0,.522-.188.717.717,0,0,0,.005-.958.686.686,0,0,0-.517-.186.65.65,0,0,0-.494.19A.663.663,0,0,0,453.442,747.135Z"/>
              </g>
            </g>
            <g id="Group_971" data-name="Group 971">
              <path id="Path_731" data-name="Path 731" d="M308.081,1085.743l1.362,52.837-6.17,23.909-10.181,12.8-7.623,6.376a2.051,2.051,0,0,1-1.794-2.356l-.548.311-4.262,2.426a4.042,4.042,0,0,1-.43-.479c-2.444-3.211,2.4-7.922,2.4-7.922l9.75-11.169,1.887-4.609-7.791,7.621-8.359,3.629-4.666,2.025a3.915,3.915,0,0,1-.011-1.467c.885-5.049,10.768-9.353,10.768-9.353l.5-3.739-.693.407-4.291,2.516-.005,0-.29.169c-.005-.012-.012-.024-.018-.036a7.085,7.085,0,0,1-.378-.9v0c-1.6-4.67,3.44-7.536,3.44-7.536l4.692-12.9.411-10.939c-3.582-6.4,1.737-33.387,1.737-33.387.044-5.072-3.789-9.6-3.789-9.6s-51.842-77.894-62.607-106.946c-8.421-22.725-17.368-95.372-17.368-95.372l32.038-42.218,3.356,88.663c-1.348,19.483,8.688,39.229,8.688,39.229C257.929,972.892,308.081,1085.743,308.081,1085.743Z" fill="#9e7d58"/>
              <path id="Path_732" data-name="Path 732" d="M347.224,979.3c-5.877-10.873.185-52.044,2.117-74.292.077-.889.149-1.75.211-2.573a32.346,32.346,0,0,0,.013-6.892c-2.005-5.7-6.048-10.2-3.682-16.08s5.547-11.562,6.844-17.789c.226-.887.439-1.753.649-2.617,3.578-14.647,6.961-29.448,17.308-41.179.307-.356.081-.738-.374-1.094a7.857,7.857,0,0,0-1.739-.931,21.34,21.34,0,0,0-2.037-.885c-6.976-2.613-15.734-2.035-23.776-3.436-.939-.083-1.863-.169-2.785-.259-11.926-1.161-23.507-3.31-34.011-9.951a26.985,26.985,0,0,1-2.46-1.15c-.266-.162-.412-.3-.434-.417-1.937-10.931-10.656-15.66-19.581-17.568-.81-.174-1.624-.325-2.433-.453-.779-.083-1.557-.174-2.336-.267s-1.558-.19-2.336-.29q-.919-.273-1.851-.493a32.421,32.421,0,0,0-13.984.945q-1.143.3-2.269.632-2.217.993-4.423,1.933-1.1.469-2.207.919c-6.674,3.277-14.5,3.441-21.252,7.2l-1.832.684c-12.771,4.764-21.855-.271-21.855-.271-30.064,56.783,5.445,137.827,19.264,159.954s8.75,53.855,8.75,53.855c-27.529,92.615-3.42,105.437,12.586,135.439,8.935,16.747,15.338,49.881,19.413,75.788h82.662l12.261-89.866C388.4,1046.775,347.224,979.3,347.224,979.3Z" fill="#e99e3b"/>
              <path id="Path_733" data-name="Path 733" d="M303.526,799.187c0,.329-.012.656-.024.989l0,.112s-57.376,2.925-29.256,99.383c8.3,28.47,29,47.63-5.126,118.518,0,0-12.642,22.295-10.775,35.317l-18.337-95.955s-24.651-84.1-26.081-113.072c-.713-14.444,5.516-42.855,21.974-53.509,0,0,.317-.19.908-.541a59.436,59.436,0,0,1,6.155-3.408q1.062-.513,2.146-.993c7.419-3.495,15.359-5.794,21.864-9.987a15.962,15.962,0,0,0,1.684-1.326q.747-.6,1.439-1.259a19.263,19.263,0,0,0,2.5-2.906q.746-.831,1.518-1.713c7.711-8.8,17.2-21.159,22.649-33.863a.955.955,0,0,0,.427-.029,5.515,5.515,0,0,0,1.082-.441c9.281,2.5,50.9,16.09,34.845,55.373l-7.656-5.818S320.1,778.444,303.526,799.187Z" fill="#9e7d58"/>
              <path id="Path_734" data-name="Path 734" d="M359.817,774.764s-1.158,3.044-.938,4.622c0,0-.023.038-.07.109a4.683,4.683,0,0,1-3.643,2.02s-.01,0-.014,0l0,.009c-.011.195-.179,3.973-2.629,4.048a1.2,1.2,0,0,0-.178-.015,3.192,3.192,0,0,0-1.472.317,3.9,3.9,0,0,0-1.824,1.969,8.751,8.751,0,0,1-.317,1.886,9.3,9.3,0,0,1-.733,1.843,10.292,10.292,0,0,1-1.243,1.633c-1.376,1.778-3.614,2.072-5.342,2.064-5.79-1.045-9.325-5.84-12.061-10.345q-.419-.6-.854-1.241c-1.451-2.148-3.054-4.7-4.809-7.718,0,0-9.764-12.321-6-22.144l1.231-1.723a2.358,2.358,0,0,1-2.21.963c-8.527-2.176-11.217-13.678-8.435-21.186,1.745-3.448,5.616-5.057,9.478-4.936,2.541.216,4.468,1.141,5.574,3.586,8.459-4.33-4.209-12.321-6.241-18.446-1.031-1.57-1.9-2.965-2.461-4s-.794-1.721-.557-1.868c1.141-.708,19.276,17.883,20.59,17.125,12.885-7.464,33-16.157,39.342-2.379.2.43,8.338,8.142-2.208,27.149a10.069,10.069,0,0,1-.589.885,33.316,33.316,0,0,0-3.022,4.494c-.009.182,2.747,9.09,2.218,16.51C369.787,778.65,359.475,770.583,359.817,774.764Z" fill="#9e7d58"/>
              <path id="Path_735" data-name="Path 735" d="M330.513,766.783c2.085-5.79,5.749-11.839,12.077-13.434,1.036-.262,2.083-.378,3.136-.539.441-.067.887-.127,1.32-.237l.138-.034c.063-.04.143-.089.266-.156-.871.48.39-.34.5-.452-.046.048.442-.83.264-.39a8.042,8.042,0,0,0,.665-2.5c.438-2.8.989-5.573,2.8-7.844a13.307,13.307,0,0,1,7.8-4.438c1.035-.217,2.075-.333,3.126-.447.344-.038,1.588-.333,1.774-.306.131-.287.413-.839.418-.855.109-.339.257-.941.227-.787.565-2.553,1.117-5.109,1.816-7.63a31.426,31.426,0,0,1,4.358-9.769c-8.21-7.736-25.176-.206-36.533,6.372-1.314.758-19.449-17.833-20.59-17.125-.237.147,0,.827.557,1.868s1.43,2.433,2.461,4c2.032,6.125,14.7,14.116,6.241,18.446-1.106-2.445-3.033-3.37-5.574-3.586-3.862-.121-7.733,1.488-9.478,4.936-2.782,7.508-.092,19.01,8.435,21.186a2.358,2.358,0,0,0,2.21-.963l-1.231,1.723c-3.766,9.823,6,22.144,6,22.144,1.713,2.949,3.279,5.438,4.7,7.555C328.454,777.924,328.625,772.028,330.513,766.783Z" fill="#723528" opacity="0.3"/>
              <path id="Path_736" data-name="Path 736" d="M370.166,744.141l-4.4-7.711-15.848-.495,13.938,3.517,2.2,5.446-2.925,3.679S371.951,749.256,370.166,744.141Z"/>
              <path id="Path_737" data-name="Path 737" d="M353.327,743.3s5.959,4.664,9.777,4.187l3.45,4.847-5-1.689s-.089,1.733-1.162,2.243C360.393,752.892,351.686,747.99,353.327,743.3Z"/>
              <path id="Path_738" data-name="Path 738" d="M365.754,770.633s-4.062-3.133-6.279-.05a2.853,2.853,0,0,0,3.628.883C365.347,770.353,363.954,770.865,365.754,770.633Z" fill="#5e2c1f"/>
              <path id="Path_739" data-name="Path 739" d="M358.809,779.495a4.683,4.683,0,0,1-3.643,2.02c-.008-.006-.01-.012-.018-.018-2.646-2.362-8.23-4.652-8.23-4.652l10.06.5C356.786,777.689,358.006,778.809,358.809,779.495Z" fill="#e63323"/>
              <path id="Path_740" data-name="Path 740" d="M352.525,785.573a1.2,1.2,0,0,0-.178-.015c-.646-2.47-5.429-8.713-5.429-8.713,7.39,1.743,8.174,4.413,8.23,4.652a.055.055,0,0,0,0,.019l0,.009C355.143,781.72,354.975,785.5,352.525,785.573Z" fill="#ae3634"/>
              <path id="Path_741" data-name="Path 741" d="M280.627,761s12.121-19.677,4.641-42.35c0,0-5.733-67.125,56.037-48.981,0,0,74.783,29.784,33.724,54.141,0,0-5.527-17.4-26.22-5.815l-4.752,5.061-7.7,3.876-15.335-13.647,11.814,16.426a17.136,17.136,0,0,0-8.395,9.166s-.308-12.1-7.555-11.876a7.35,7.35,0,0,0-.775.066c-4.155.559-7.827,3.082-8.578,7.715-.061.288-.115.588-.159.9a15.856,15.856,0,0,0-.15,2.068S292.084,760.3,280.627,761Z" fill="#ae3634"/>
              <path id="Path_742" data-name="Path 742" d="M372.537,1111.66c-5.778,3.138-9.154,8.136-11.507,13.8-.294.708-.571,1.427-.836,2.155q-.277.842-.543,1.684c-.177.562-.349,1.123-.518,1.687-1.82,5.74-1.892,12.165-5.672,17.271a16.3,16.3,0,0,1-1.2,1.638c-.256.509-.55,1.015-.858,1.522-1.543,2.539-3.458,5.144-2.692,8.584.825,2.953,4.28,4.961,6.623,2.856q.561-.534,1.067-1.109a22.139,22.139,0,0,0,2.623-3.77c.336-.6.651-1.214.934-1.847.163-.493.311-.993.449-1.5s.271-1.014.409-1.518c.937-3.595,2.426-7.043,5.552-9.142,3.215-2.445,7.264,1.1,8.816,4.321.269-1.041.4-2.321.686-3.391q.132-.849.237-1.7c.353-2.833.543-5.668,1.061-8.479.123-.88.249-1.744.371-2.588l1.365-9.356Z" fill="#5e2c1f"/>
              <path id="Path_743" data-name="Path 743" d="M389.753,1107.6l-4.784,52.638-8.9,23.031-11.6,11.536-8.312,5.447a2.054,2.054,0,0,1-1.51-2.55l-.579.247-4.514,1.915a4.153,4.153,0,0,1-.372-.527c-2.054-3.472,3.3-7.591,3.3-7.591l10.981-9.959,2.41-4.359-8.624,6.665-8.723,2.633-4.87,1.471a3.907,3.907,0,0,1,.16-1.46c1.465-4.911,11.781-8.04,11.781-8.04l.933-3.654-.737.324-4.553,2-.005,0-.308.134c0-.011-.01-.025-.013-.038a7.049,7.049,0,0,1-.272-.935v-.005c-1.049-4.823,4.291-7.085,4.291-7.085l6.158-12.271,1.679-10.817c-2.814-6.774,5.6-32.961,5.6-32.961.633-5.031-2.648-9.976-2.648-9.976s-42.446-83.388-49.765-113.492c-5.726-23.55-6.176-96.745-6.176-96.745l36.723-38.212s-5.087,64.637-6.564,83.4q-.041.531-.08,1.012c-.88,3.256-.275,6.658-1.08,9.821-.024.322-.048.644-.067.965-.769,12.052,2.012,23.7,3.7,29.469.1.341.2.658.286.953.98,3.546,4.181,5.869,5.359,9.454q.244.488.5,1C361.995,1018.446,389.753,1107.6,389.753,1107.6Z" fill="#9e7d58"/>
              <path id="Path_744" data-name="Path 744" d="M345.955,1054.791c-1.636-6.22-3.34-12.409-5.539-18.458a178.939,178.939,0,0,1-5.807-17.879A89.208,89.208,0,0,1,332.675,1008a114.305,114.305,0,0,1-5.228-17.284c-5.872-25.579-4.79-51.631-1.189-77.459,2.076-14.887,4.781-29.689,7.046-44.548l-23.518,24.471s.45,73.2,6.176,96.745c4.631,19.051,23.332,59.441,36.438,86.532C350.076,1069.3,347.879,1062.106,345.955,1054.791Z" fill="#723528" opacity="0.3"/>
              <path id="Path_745" data-name="Path 745" d="M345.669,1183.963c1.9-1.286,3.885-2.473,5.847-3.685A21.549,21.549,0,0,0,345.669,1183.963Z" fill="#756e80"/>
              <path id="Path_746" data-name="Path 746" d="M366.981,1113.3l.41.056c.265.044.658.1,1.15.193.988.18,2.387.479,4.045.917s3.571,1.027,5.587,1.77c1.007.369,2.042.777,3.08,1.227s2.081.94,3.113,1.462,2.043,1.1,3.013,1.723a21.957,21.957,0,0,1,2.757,2.035,10.336,10.336,0,0,1,2.2,2.558,4.573,4.573,0,0,1,.588,1.64,3.225,3.225,0,0,1-.22,1.714,4.193,4.193,0,0,1-1.867,1.9,8.619,8.619,0,0,1-1.722.731,11.725,11.725,0,0,1-1.14.289l-.407.079s.124-.074.354-.215.564-.346.98-.606a11.419,11.419,0,0,0,1.37-1.057,3.33,3.33,0,0,0,1.057-1.6,2.25,2.25,0,0,0-.584-1.845,10.085,10.085,0,0,0-2.014-1.848,29.7,29.7,0,0,0-2.627-1.687c-.934-.537-1.9-1.071-2.893-1.572s-1.986-1-2.975-1.48l-2.924-1.392-5.229-2.459c-1.532-.735-2.812-1.357-3.7-1.808-.449-.218-.8-.409-1.037-.528S366.981,1113.3,366.981,1113.3Z" fill="#ab3033"/>
              <path id="Path_747" data-name="Path 747" d="M366.169,1114.534l.43.1c.278.071.691.161,1.2.311,1.032.283,2.492.736,4.211,1.374a53.969,53.969,0,0,1,11.967,6.2,31.427,31.427,0,0,1,2.913,2.331,19.155,19.155,0,0,1,2.51,2.7,10.792,10.792,0,0,1,1.71,3.148,6.036,6.036,0,0,1,.164,3.337,5.531,5.531,0,0,1-.553,1.369c-.126.194-.247.383-.371.558s-.265.323-.392.479a8.139,8.139,0,0,1-1.53,1.291,9.7,9.7,0,0,1-1.093.621c-.26.125-.4.189-.4.189l.315-.308c.211-.189.495-.5.849-.879a10.315,10.315,0,0,0,1.08-1.483,4.9,4.9,0,0,0,.656-2.087,4.794,4.794,0,0,0-.495-2.409,10.279,10.279,0,0,0-1.67-2.417,23.207,23.207,0,0,0-2.387-2.275c-.874-.731-1.8-1.443-2.766-2.119s-1.942-1.34-2.921-1.977-1.964-1.241-2.92-1.825c-1.914-1.163-3.729-2.224-5.29-3.138l-3.784-2.228c-.461-.266-.815-.49-1.063-.635Z" fill="#ab3033"/>
              <path id="Path_748" data-name="Path 748" d="M321.068,734.706s-1.25-11.358-8.444-3.471c0,0,6.1-4.133,7.294,2.571,0,0-11.68.978-6.6,9.442,0,0-.365,3.429,2.023,3.762,0,0,2.409-4.776,3.52-3.969,0,0,1.062-5-3.578-2.8,0,0,.5-5.308,4.828-3.843Z" fill="#723528"/>
              <path id="Path_749" data-name="Path 749" d="M308.44,752.457a4.373,4.373,0,1,0,4.46-4.286A4.374,4.374,0,0,0,308.44,752.457Z" fill="#e63323"/>
              <path id="Path_750" data-name="Path 750" d="M310.191,749.048a5.584,5.584,0,0,0-.138,1.125,5.766,5.766,0,0,0,5.452,5.816,4.371,4.371,0,1,1-5.314-6.941Z" fill="#ae3634"/>
              <path id="Path_751" data-name="Path 751" d="M313.419,749.268s4.954,1.285,1.107,5.212A4.212,4.212,0,0,0,313.419,749.268Z" fill="#fffdef"/>
              <path id="Path_752" data-name="Path 752" d="M355.8,1175.371a21.883,21.883,0,0,1-4.9,2.535c-1.053-3.014,2.408-4.456,4.891-3.816C356.093,1174.285,356.013,1174.682,355.8,1175.371Z" fill="#ab3033"/>
              <path id="Path_753" data-name="Path 753" d="M348.529,1186.729l-4.87,1.471a3.907,3.907,0,0,1,.16-1.46,2.968,2.968,0,0,1,2.446-1.521C349,1184.963,349.017,1185.208,348.529,1186.729Z" fill="#ab3033"/>
              <path id="Path_754" data-name="Path 754" d="M354.066,1197.952l-4.944,2.16c-.144-.174.6-3.332,2.6-3.835C352.854,1195.989,354.441,1195.985,354.066,1197.952Z" fill="#ab3033"/>
              <path id="Path_755" data-name="Path 755" d="M355.891,1200.7s-.674-1.347,2.164-2.45c0,0,.49-.028.544.4Z" fill="#ab3033"/>
            </g>
          </g>
        </g>
      </g>
      <g id="Group_975" data-name="Group 975">
        <text id="BUMIST" transform="translate(540.716 817.105)" fill="#fff" font-size="56.413" font-family="SegoeUI, Segoe UI"><tspan x="0" y="0">BUMIST</tspan></text>
        <text id="RS" transform="translate(786.668 817.105)" fill="#fff" font-size="56.413" font-family="SegoeUI, Segoe UI"><tspan x="0" y="0">RS</tspan></text>
        <path id="Path_757" data-name="Path 757" d="M767.748,774.659l4.968,17.706h52.832l-49.761,9.45,4.968,15.291-13.007-9.45-13.007,9.45,5.1-15.688-16.022-8.755,18.873-.02Z" fill="url(#linear-gradient)"/>
      </g>
    </g>
  </g>
</svg>
