<svg xmlns="http://www.w3.org/2000/svg" xmlns:xlink="http://www.w3.org/1999/xlink" width="391.534" height="212.044" viewBox="0 0 391.534 212.044">
  <defs>
    <clipPath id="clip-path">
      <rect id="Rectangle_417" data-name="Rectangle 417" width="147.879" height="32.824" transform="translate(828.226 420.852)" fill="none"/>
    </clipPath>
    <clipPath id="clip-path-2">
      <rect id="Rectangle_420" data-name="Rectangle 420" width="147.879" height="32.823" transform="translate(828.226 451.368)" fill="none"/>
    </clipPath>
  </defs>
  <g id="Group_1109" data-name="Group 1109" transform="translate(-763.848 -390.072)">
    <g id="Group_987" data-name="Group 987">
      <g id="Group_982" data-name="Group 982">
        <g id="Group_980" data-name="Group 980">
          <path id="Path_759" data-name="Path 759" d="M774.934,464.662a8.764,8.764,0,0,0-.128-5.364c-.376-.932-1.807-2.223-2.776-1.832s-1.272,1.892-.726,3.245A8.764,8.764,0,0,0,774.934,464.662Z" fill="#f0ad3d"/>
          <path id="Path_760" data-name="Path 760" d="M776.35,469.069a7.454,7.454,0,0,0-3.5-3.054c-.816-.294-2.48-.1-2.794.779s.464,1.956,1.649,2.384A7.453,7.453,0,0,0,776.35,469.069Z" fill="#f0ad3d"/>
          <path id="Path_761" data-name="Path 761" d="M778.968,473.8a7.443,7.443,0,0,0-4.443-1.359c-.865.064-2.3.925-2.232,1.851s1.223,1.6,2.48,1.5A7.437,7.437,0,0,0,778.968,473.8Z" fill="#f0ad3d"/>
          <path id="Path_762" data-name="Path 762" d="M776.465,469.162a8.345,8.345,0,0,0,3.472-2.933c.461-.734.738-2.329.1-2.732s-1.752.2-2.422,1.266A8.341,8.341,0,0,0,776.465,469.162Z" fill="#f0ad3d"/>
          <path id="Path_763" data-name="Path 763" d="M778.664,473.956a8.043,8.043,0,0,0,3.539-2.89c.462-.733.709-2.347.029-2.775s-1.818.158-2.491,1.225A8.064,8.064,0,0,0,778.664,473.956Z" fill="#f0ad3d"/>
          <path id="Path_764" data-name="Path 764" d="M782.852,479.9a5.37,5.37,0,0,0,2.993-2.023c.354-.559.409-1.874-.27-2.3a1.68,1.68,0,0,0-2.192.75A5.383,5.383,0,0,0,782.852,479.9Z" fill="#f0ad3d"/>
          <path id="Path_765" data-name="Path 765" d="M782.6,480.043a6.462,6.462,0,0,0-3.417-1.467c-.7-.053-1.952.394-2,1.058s.8,1.268,1.822,1.345A6.462,6.462,0,0,0,782.6,480.043Z" fill="#f0ad3d"/>
        </g>
        <g id="Group_981" data-name="Group 981">
          <path id="Path_766" data-name="Path 766" d="M794.137,507.009a2.5,2.5,0,0,1-.865.568l-.152-.463.076.23-.077-.23a2.822,2.822,0,0,0,1.561-1.962c.537-1.769.167-4.279-1.1-7.461-1.741-4.363-5.147-9.87-10.123-16.367-5.782-7.547-7.385-12.471-8.449-15.73-.272-.834-.507-1.556-.762-2.146l.446-.193c.265.611.5,1.342.779,2.189,1.051,3.227,2.642,8.1,8.371,15.584,11.079,14.464,12.258,21.195,11.3,24.294A3.872,3.872,0,0,1,794.137,507.009Z" fill="#f0ad3d"/>
        </g>
      </g>
      <path id="Path_767" data-name="Path 767" d="M932.988,510.923c11.151-6.03,2.661-8.664-7.565-9.026,5.122-4.485,2.216-9.094-9.815-14.605-5.4-2.475-12.12-1.464-18.772,1.2-4.737-9.391-11.339-15.95-19.34-12.858-6.616,2.558-11.567,5.773-14.707,9.289q-2.988-1.263-6.443-2.4c-5.013-1.647-8.8-.686-11.594,1.84-9.733-5.886-19.67-9.512-25.715-5.964-10.512,6.171-12.072,11.708-5.558,17.514-10.225-.094-18.018,2.71-4.954,10.743-12.083-1.723-20.784-.89-15.851,6.182,11,15.768,65.293,20.558,106.147,15.232,25.675-.238,47.164-3.8,51.554-11.391C953.606,511.084,944.681,510.028,932.988,510.923Z" fill="#f0ad3d"/>
      <g id="Group_984" data-name="Group 984">
        <path id="Path_768" data-name="Path 768" d="M797.572,497.743a36.244,36.244,0,0,1,20.949,26.535,36.156,36.156,0,0,1-54.673-24.155A36.243,36.243,0,0,1,797.572,497.743Z" fill="#d9de4f"/>
        <g id="Group_983" data-name="Group 983">
          <line id="Line_631" data-name="Line 631" x2="48.288" y2="21.335" transform="translate(768.234 501.855)" fill="none" stroke="#fff" stroke-width="0.666"/>
          <line id="Line_632" data-name="Line 632" x1="8.102" y2="3.825" transform="translate(770.068 506.314)" fill="none" stroke="#fff" stroke-width="0.666"/>
          <line id="Line_633" data-name="Line 633" x1="9.987" y2="4.713" transform="translate(776.416 509.952)" fill="none" stroke="#fff" stroke-width="0.666"/>
          <line id="Line_634" data-name="Line 634" x1="16.693" y2="7.88" transform="translate(777.943 513.589)" fill="none" stroke="#fff" stroke-width="0.666"/>
          <line id="Line_635" data-name="Line 635" x1="16.24" y2="7.668" transform="translate(786.63 517.227)" fill="none" stroke="#fff" stroke-width="0.666"/>
          <line id="Line_636" data-name="Line 636" x1="9.044" y2="4.27" transform="translate(802.06 520.864)" fill="none" stroke="#fff" stroke-width="0.666"/>
          <line id="Line_637" data-name="Line 637" x1="2.627" y1="8.565" transform="translate(774.612 497.165)" fill="none" stroke="#fff" stroke-width="0.666"/>
          <line id="Line_638" data-name="Line 638" x1="4.095" y1="13.353" transform="translate(781.377 496.015)" fill="none" stroke="#fff" stroke-width="0.666"/>
          <line id="Line_639" data-name="Line 639" x1="5.127" y1="16.715" transform="translate(788.579 496.291)" fill="none" stroke="#fff" stroke-width="0.666"/>
          <line id="Line_640" data-name="Line 640" x1="5.266" y1="17.171" transform="translate(796.673 499.473)" fill="none" stroke="#fff" stroke-width="0.666"/>
          <line id="Line_641" data-name="Line 641" x1="4.525" y1="14.75" transform="translate(805.648 505.531)" fill="none" stroke="#fff" stroke-width="0.666"/>
        </g>
      </g>
      <g id="Group_986" data-name="Group 986">
        <path id="Path_769" data-name="Path 769" d="M829.014,488.271a40.039,40.039,0,0,1,4.32,37.1,39.946,39.946,0,0,1-37.417-54.413A40.04,40.04,0,0,1,829.014,488.271Z" fill="#d9de4f"/>
        <g id="Group_985" data-name="Group 985">
          <line id="Line_642" data-name="Line 642" x2="33.047" y2="48.058" transform="translate(799.038 475.131)" fill="none" stroke="#fff" stroke-width="0.735"/>
          <line id="Line_643" data-name="Line 643" x1="9.837" y1="1.099" transform="translate(795.96 483.984)" fill="none" stroke="#fff" stroke-width="0.735"/>
          <line id="Line_644" data-name="Line 644" x1="12.125" y1="1.355" transform="translate(799.308 491.922)" fill="none" stroke="#fff" stroke-width="0.735"/>
          <line id="Line_645" data-name="Line 645" x1="20.27" y1="2.265" transform="translate(796.797 499.207)" fill="none" stroke="#fff" stroke-width="0.735"/>
          <line id="Line_646" data-name="Line 646" x1="19.72" y1="2.203" transform="translate(802.983 507.464)" fill="none" stroke="#fff" stroke-width="0.735"/>
          <line id="Line_647" data-name="Line 647" x1="10.98" y1="1.227" transform="translate(817.357 516.634)" fill="none" stroke="#fff" stroke-width="0.735"/>
          <line id="Line_648" data-name="Line 648" y1="9.578" x2="2.494" transform="translate(805.261 474.418)" fill="none" stroke="#fff" stroke-width="0.735"/>
          <line id="Line_649" data-name="Line 649" y1="14.934" x2="3.89" transform="translate(810.895 477.256)" fill="none" stroke="#fff" stroke-width="0.735"/>
          <line id="Line_650" data-name="Line 650" y1="18.694" x2="4.868" transform="translate(816.53 481.691)" fill="none" stroke="#fff" stroke-width="0.735"/>
          <line id="Line_651" data-name="Line 651" y1="19.202" x2="5.001" transform="translate(822.164 489.377)" fill="none" stroke="#fff" stroke-width="0.735"/>
          <line id="Line_652" data-name="Line 652" y1="16.494" x2="4.294" transform="translate(827.801 500.279)" fill="none" stroke="#fff" stroke-width="0.735"/>
        </g>
      </g>
    </g>
    <g id="Group_989" data-name="Group 989">
      <path id="Path_770" data-name="Path 770" d="M780.818,534.219c-1.472-2.264.359-4.188,7.353-5.212a57.1,57.1,0,0,1,20.926,1.026c-14.151-6.856-30.65-16.485-15.586-17.6,4.7-.348,11.919,1.926,19.952,5.479-8.96-7.293-13.89-13.287-8.461-14.4,5.04-1.035,15.319,4.9,26.259,12.77-6.234-6.6-9.844-12.356-7.044-15.072,2.286-2.218,7.161.327,12.768,5.041-.25-4.145,1.492-6.648,5.467-6.146,3.739.473,6.768,5.271,8.931,11.028,3.587-8.929,13.061-14.388,22.619-11.677,11.226,3.183,2.207,24.586-2.815,34.762Z" fill="#99c355"/>
      <g id="Group_988" data-name="Group 988">
        <path id="Path_771" data-name="Path 771" d="M830.907,472.264s13.787,15.381,19.543,51.393" fill="none" stroke="#2d63c3" stroke-width="0.437"/>
        <path id="Path_772" data-name="Path 772" d="M846.111,480.158s8.117,18.988,7.052,40" fill="none" stroke="#2d63c3" stroke-width="0.437"/>
        <path id="Path_773" data-name="Path 773" d="M832.947,494.182s13.089,7.626,12.187,26.883" fill="none" stroke="#2d63c3" stroke-width="0.437"/>
        <path id="Path_774" data-name="Path 774" d="M829.341,469.268c-3.1,1.62-5.08,3.952-4.424,5.208s3.7.96,6.8-.661,5.08-3.951,4.423-5.208S832.44,467.647,829.341,469.268Z" fill="#2d63c3"/>
        <path id="Path_775" data-name="Path 775" d="M830.152,470.82c-.985.514-1.614,1.254-1.4,1.654s1.175.3,2.16-.21,1.613-1.256,1.4-1.654S831.136,470.3,830.152,470.82Z" fill="#0e1250"/>
        <path id="Path_776" data-name="Path 776" d="M845.46,478.91c-1.292.674-2.117,1.645-1.843,2.168s1.542.4,2.832-.274,2.116-1.646,1.841-2.168S846.749,478.235,845.46,478.91Z" fill="#2d63c3"/>
        <path id="Path_777" data-name="Path 777" d="M845.8,479.556c-.409.214-.672.522-.585.688s.489.128.9-.086.671-.523.584-.69S846.207,479.341,845.8,479.556Z" fill="#0e1250"/>
        <path id="Path_778" data-name="Path 778" d="M832.013,493.17c-1.38,1.274-2.079,2.76-1.563,3.319s2.053-.022,3.431-1.3,2.079-2.759,1.563-3.318S833.392,491.9,832.013,493.17Z" fill="#2d63c3"/>
        <path id="Path_779" data-name="Path 779" d="M832.65,493.86c-.437.405-.66.877-.5,1.054s.652-.007,1.09-.412.661-.875.5-1.053S833.088,493.456,832.65,493.86Z" fill="#0e1250"/>
      </g>
      <path id="Path_780" data-name="Path 780" d="M822.841,519.033c-.06-.049-.121-.092-.182-.135.032-.011.064-.022.1-.035.84-.329,1.381-.95,1.209-1.388s-.992-.528-1.83-.2c-.072.027-.141.059-.208.091.006-.033.013-.067.017-.1.135-.891-.132-1.67-.6-1.741s-.951.594-1.086,1.486c-.011.076-.019.152-.026.226-.025-.022-.05-.045-.077-.066-.7-.562-1.513-.721-1.808-.352s.039,1.122.743,1.684c.06.049.121.093.183.135l-.095.034c-.839.329-1.38.951-1.209,1.389s.992.528,1.829.2a1.891,1.891,0,0,0,.209-.092c-.006.034-.013.067-.017.1-.136.891.133,1.67.6,1.74s.953-.6,1.087-1.486c.012-.076.02-.15.025-.225.026.022.052.045.079.066.7.562,1.512.721,1.807.353S823.546,519.595,822.841,519.033Zm-2.008.607a.883.883,0,1,1,1.005-.739A.884.884,0,0,1,820.833,519.64Z" fill="#fff"/>
    </g>
    <g id="Group_995" data-name="Group 995">
      <g id="Group_990" data-name="Group 990">
        <path id="Path_781" data-name="Path 781" d="M824.453,594.034c-.087-2.287-.2-5.335-.289-7.621.059,1.572.224,5.818.29,7.446C824.451,593.917,824.451,593.975,824.453,594.034Z" fill="#f4c947"/>
      </g>
      <g id="Group_991" data-name="Group 991">
        <path id="Path_782" data-name="Path 782" d="M887.435,583.205q.159,4.219.319,8.438c.082,2.15-2.737,4.418-8.569,6.372-12.595,4.219-34.469,5.371-48.859,2.574-7.727-1.5-11.724-3.838-11.819-6.332l-.319-8.438c.094,2.494,4.091,4.83,11.819,6.332,14.389,2.8,36.264,1.645,48.859-2.574C884.7,587.624,887.516,585.356,887.435,583.205Z" fill="#f0ad3d"/>
      </g>
      <g id="Group_992" data-name="Group 992">
        <path id="Path_783" data-name="Path 783" d="M875.614,576.873c14.39,2.8,15.847,8.484,3.252,12.7s-34.47,5.371-48.859,2.574-15.844-8.484-3.249-12.7S861.224,574.076,875.614,576.873ZM833.921,590.84c11.919,2.317,30.038,1.361,40.471-2.133s9.227-8.206-2.692-10.523-30.035-1.361-40.468,2.134-9.228,8.205,2.689,10.522" fill="#f4c947"/>
      </g>
      <path id="Path_784" data-name="Path 784" d="M871.7,578.184c11.919,2.317,13.124,7.028,2.692,10.523s-28.552,4.45-40.471,2.133-13.121-7.028-2.689-10.522S859.783,575.868,871.7,578.184Z" fill="#f0ad3d"/>
      <path id="Path_785" data-name="Path 785" d="M831.232,581.367c10.433-3.494,28.551-4.449,40.468-2.133,5.932,1.153,9.207,2.9,9.718,4.794.6-2.287-2.7-4.48-9.718-5.844-11.917-2.316-30.035-1.361-40.468,2.134-5.241,1.756-7.543,3.818-7.027,5.729C824.621,584.449,826.939,582.8,831.232,581.367Z" fill="#e99e3b"/>
      <path id="Path_786" data-name="Path 786" d="M821.5,589.495v8.268a31.082,31.082,0,0,0,8.829,2.826A88.693,88.693,0,0,0,843.2,602v-8.425a89.062,89.062,0,0,1-13.189-1.426A32.347,32.347,0,0,1,821.5,589.495Z" fill="#e99e3b"/>
      <g id="Group_993" data-name="Group 993">
        <path id="Path_787" data-name="Path 787" d="M866.812,580.814l-3.158,1.058q1.89.523,1.778,1.26c-.07.491-.808,1-2.206,1.521l-3.253-.632q1.173-.449,1.023-.872c-.1-.286-.628-.52-1.586-.706a13.306,13.306,0,0,0-3.3-.2,12.042,12.042,0,0,0-3.129.56,3.445,3.445,0,0,0-.759.339c-.17.115-.254.232-.254.351-.014.244.573.557,1.768.94.714.228,1.226.412,1.543.551,1.108.484,1.594.969,1.448,1.46s-.9.963-2.262,1.42a26.356,26.356,0,0,1-5.933,1.177,26.933,26.933,0,0,1-6.076-.067l-3.793,1.272-3.032-.59,3.647-1.222q-2.4-.637-2.3-1.519t2.7-1.762l3.131.609c-1.108.407-1.615.777-1.526,1.108s.78.624,2.079.876a15.194,15.194,0,0,0,3.787.232,13.658,13.658,0,0,0,3.592-.642,6.289,6.289,0,0,0,.912-.371,1.27,1.27,0,0,0,.453-.345q.342-.535-1.624-1.2l-.48-.162q-2.4-.837-2.518-1.573t2.046-1.462a22.95,22.95,0,0,1,5.327-1.044,27.943,27.943,0,0,1,5.793.09l3.127-1.048Z" fill="#e99e3b"/>
      </g>
      <g id="Group_994" data-name="Group 994">
        <path id="Path_788" data-name="Path 788" d="M866.812,579.629l-3.158,1.058q1.89.523,1.778,1.26c-.07.491-.808,1-2.206,1.521l-3.253-.632q1.173-.447,1.023-.871t-1.586-.707a13.306,13.306,0,0,0-3.3-.2,12.042,12.042,0,0,0-3.129.56,3.445,3.445,0,0,0-.759.339c-.17.115-.254.232-.254.351-.014.245.573.557,1.768.94.714.228,1.226.412,1.543.551,1.108.483,1.594.97,1.448,1.46s-.9.962-2.262,1.42a26.356,26.356,0,0,1-5.933,1.177,26.876,26.876,0,0,1-6.076-.067l-3.793,1.272-3.032-.589,3.647-1.223q-2.4-.639-2.3-1.519t2.7-1.762l3.131.609c-1.108.407-1.615.777-1.526,1.108s.78.624,2.079.876a15.194,15.194,0,0,0,3.787.232,13.658,13.658,0,0,0,3.592-.642,6.17,6.17,0,0,0,.912-.372,1.248,1.248,0,0,0,.453-.344q.342-.535-1.624-1.2l-.48-.162q-2.4-.839-2.518-1.572t2.046-1.463A22.95,22.95,0,0,1,854.862,580a28.012,28.012,0,0,1,5.793.089l3.127-1.047Z" fill="#f4c947"/>
      </g>
    </g>
    <g id="Group_1043" data-name="Group 1043">
      <path id="Path_789" data-name="Path 789" d="M1145.7,520.264v-119.3a3.035,3.035,0,0,0-3.043-3.042H820.908a3.037,3.037,0,0,0-3.041,3.042v119.3Z" fill="#c2b29b"/>
      <g id="Group_997" data-name="Group 997">
        <rect id="Rectangle_404" data-name="Rectangle 404" width="269.423" height="124.636" transform="translate(860.718 403.535)" fill="#e5e5e5"/>
        <g id="Group_996" data-name="Group 996">
          <path id="Path_790" data-name="Path 790" d="M993.366,480.781a26.7,26.7,0,0,1-12.587-3.341l-2.265,8.875a31.69,31.69,0,0,0,12.882,3.262v7.191h7.5v-7.8c8.732-1.442,13.408-7.2,13.408-13.944,0-6.887-3.547-11.056-12.571-14.238-6.515-2.36-9.173-4.024-9.173-6.447,0-2.134,1.594-4.32,6.528-4.32a23.7,23.7,0,0,1,10.9,2.651l2.284-8.56a27.656,27.656,0,0,0-11.058-2.509v-6.665h-7.436v7.2c-8.124,1.5-12.812,6.743-12.812,13.479,0,7.358,5.521,11.16,13.645,13.882,5.675,1.889,8.115,3.705,8.115,6.592C1000.733,479.044,997.76,480.781,993.366,480.781Z" fill="#9db792"/>
          <path id="Path_791" data-name="Path 791" d="M1082.058,476.928a11.072,11.072,0,1,0-11.081-11.082A11.085,11.085,0,0,0,1082.058,476.928Z" fill="#9db792"/>
          <path id="Path_792" data-name="Path 792" d="M908.772,476.928A11.072,11.072,0,1,0,897.7,465.846,11.085,11.085,0,0,0,908.772,476.928Z" fill="#9db792"/>
          <path id="Path_793" data-name="Path 793" d="M873.126,504.624c6.244-.857,12.288,4.447,12.288,10.929,0,.02-.088.814-.088.838a2.8,2.8,0,0,0,2.8,2.94h214.595a3.168,3.168,0,0,0,2-1.261,3.621,3.621,0,0,0,.7-2.475,11.1,11.1,0,0,1,11.089-11.078,13.54,13.54,0,0,1,1.629.165,2.737,2.737,0,0,0,2.209-.675,2.773,2.773,0,0,0,.938-2.1V429.8a2.853,2.853,0,0,0-.958-2.13,2.756,2.756,0,0,0-2.257-.633,11.243,11.243,0,0,1-12.65-10.886l-2.7-.179,2.791-.605a2.8,2.8,0,0,0-2.791-3.005H888.129c-.766,0-1.462.732-1.993,1.283a3.842,3.842,0,0,0-.722,2.482,11.277,11.277,0,0,1-12.65,10.91,2.732,2.732,0,0,0-2.242.633,2.808,2.808,0,0,0-.966,2.13V501.9a2.968,2.968,0,0,0,1.147,2.085A3.286,3.286,0,0,0,873.126,504.624Zm208.932-55.458a16.69,16.69,0,1,1-16.68,16.68A16.693,16.693,0,0,1,1082.058,449.166ZM995.4,425.749a40.1,40.1,0,1,1-40.085,40.1A40.1,40.1,0,0,1,995.4,425.749Zm-86.631,23.417a16.69,16.69,0,1,1-16.668,16.68A16.7,16.7,0,0,1,908.772,449.166Z" fill="#cbcbcb"/>
        </g>
      </g>
      <g id="Group_999" data-name="Group 999">
        <rect id="Rectangle_405" data-name="Rectangle 405" width="269.431" height="124.634" transform="translate(830.195 390.072)" fill="#fff"/>
        <g id="Group_998" data-name="Group 998">
          <path id="Path_794" data-name="Path 794" d="M962.855,467.321a26.807,26.807,0,0,1-12.6-3.342L948,472.854a31.785,31.785,0,0,0,12.883,3.258V483.3h7.495v-7.8c8.732-1.44,13.413-7.193,13.413-13.941,0-6.892-3.545-11.059-12.581-14.245-6.5-2.353-9.166-4.02-9.166-6.444,0-2.133,1.591-4.319,6.536-4.319a23.676,23.676,0,0,1,10.9,2.653l2.281-8.563a27.7,27.7,0,0,0-11.064-2.509v-6.661h-7.435v7.2c-8.123,1.5-12.8,6.743-12.8,13.484,0,7.35,5.523,11.159,13.636,13.878,5.678,1.888,8.115,3.7,8.115,6.589C970.21,465.584,967.246,467.321,962.855,467.321Z" fill="#b7d5a9"/>
          <path id="Path_795" data-name="Path 795" d="M1051.542,463.467a11.074,11.074,0,1,0-11.08-11.085A11.09,11.09,0,0,0,1051.542,463.467Z" fill="#b7d5a9"/>
          <path id="Path_796" data-name="Path 796" d="M878.249,463.467a11.074,11.074,0,1,0-11.068-11.085A11.089,11.089,0,0,0,878.249,463.467Z" fill="#b7d5a9"/>
          <path id="Path_797" data-name="Path 797" d="M842.613,491.164c6.242-.856,12.278,4.442,12.278,10.931,0,.02-.084.808-.084.833a2.791,2.791,0,0,0,2.8,2.938h214.6a3.168,3.168,0,0,0,2-1.258,3.7,3.7,0,0,0,.7-2.481A11.092,11.092,0,0,1,1086,491.056a13.072,13.072,0,0,1,1.627.168,2.791,2.791,0,0,0,3.146-2.783V416.329a2.779,2.779,0,0,0-3.218-2.761,11.228,11.228,0,0,1-12.643-10.881l-2.7-.177L1075,401.9a2.808,2.808,0,0,0-.743-2.108,2.85,2.85,0,0,0-2.05-.9h-214.6c-.767,0-1.452.732-1.986,1.289a3.831,3.831,0,0,0-.73,2.478,11.263,11.263,0,0,1-12.641,10.9,2.784,2.784,0,0,0-3.212,2.761v72.112a2.973,2.973,0,0,0,1.153,2.084A3.3,3.3,0,0,0,842.613,491.164ZM1051.542,435.7a16.691,16.691,0,1,1-16.682,16.679A16.692,16.692,0,0,1,1051.542,435.7Zm-86.656-23.417a40.1,40.1,0,1,1-40.085,40.1A40.1,40.1,0,0,1,964.886,412.286ZM878.249,435.7a16.691,16.691,0,1,1-16.67,16.679A16.7,16.7,0,0,1,878.249,435.7Z" fill="#f1f1f1"/>
        </g>
      </g>
      <path id="Path_798" data-name="Path 798" d="M817.867,419.462v119.3a3.039,3.039,0,0,0,3.041,3.044h321.745a3.038,3.038,0,0,0,3.043-3.044v-119.3Z" fill="#948677"/>
      <rect id="Rectangle_406" data-name="Rectangle 406" width="147.879" height="46.909" transform="translate(828.226 484.553)" fill="#514742"/>
      <rect id="Rectangle_407" data-name="Rectangle 407" width="147.879" height="30.217" transform="translate(828.226 453.676)" fill="#706458"/>
      <g id="Group_1023" data-name="Group 1023">
        <g id="Group_1022" data-name="Group 1022" clip-path="url(#clip-path)">
          <g id="Group_1021" data-name="Group 1021">
            <path id="Rectangle_408" data-name="Rectangle 408" d="M7.036,0H129.927a7.033,7.033,0,0,1,7.033,7.033V78.566a7.033,7.033,0,0,1-7.033,7.033H7.036A7.036,7.036,0,0,1,0,78.564V7.036A7.036,7.036,0,0,1,7.036,0Z" transform="translate(833.885 429.368)" fill="#e5e7eb"/>
            <path id="Path_799" data-name="Path 799" d="M970.846,507.2a7.057,7.057,0,0,1-7.036,7.033H840.918a7.058,7.058,0,0,1-7.033-7.033V435.677a7.059,7.059,0,0,1,7.033-7.037H963.81a7.058,7.058,0,0,1,7.036,7.037Z" fill="#8e1d5b"/>
            <g id="Group_1008" data-name="Group 1008">
              <path id="Path_800" data-name="Path 800" d="M957.1,452.395a9.449,9.449,0,0,0,.015-18.9l-11.674-.013a9.449,9.449,0,0,0-.017,18.9Z" fill="#ebf5fd"/>
              <g id="Group_1007" data-name="Group 1007">
                <g id="Group_1000" data-name="Group 1000">
                  <path id="Path_801" data-name="Path 801" d="M946.068,451.244h0l0,0a8.041,8.041,0,0,1-5.744-2.42,8.112,8.112,0,1,1,5.746,2.423Zm.028-15.114a6.916,6.916,0,0,0-4.836,11.758,6.7,6.7,0,0,0,4.806,2.025l0,.668v-.663a6.895,6.895,0,0,0,.028-13.788Z" fill="#ae3634"/>
                </g>
                <g id="Group_1001" data-name="Group 1001">
                  <path id="Path_802" data-name="Path 802" d="M956.888,451.269h0a8.221,8.221,0,1,1,8.15-8.2A8.2,8.2,0,0,1,956.884,451.27Zm.023-15.11a6.892,6.892,0,0,0-.027,13.783l0,.66.007-.66a6.892,6.892,0,0,0,.016-13.783Z" fill="#ae3634"/>
                </g>
                <g id="Group_1002" data-name="Group 1002">
                  <path id="Path_803" data-name="Path 803" d="M946.068,451.031h0l-.014,0a2.383,2.383,0,0,1-1.668-.772c-1.286-1.3-2.086-4.071-2.076-7.251.012-4.554,1.652-8,3.786-8,2.161.013,3.777,3.451,3.766,8.018S948.219,451.034,946.068,451.031Zm.028-14.691c-1.013,0-2.446,2.539-2.459,6.681,0,3.177.841,5.46,1.689,6.3a1.056,1.056,0,0,0,.74.38h0c1.026,0,2.456-2.535,2.47-6.672S947.121,436.35,946.1,436.34Z" fill="#ae3634"/>
                </g>
                <g id="Group_1003" data-name="Group 1003">
                  <path id="Path_804" data-name="Path 804" d="M953.541,443.7l-14.929-.036V442.34l14.938.043Z" fill="#ae3634"/>
                </g>
                <g id="Group_1006" data-name="Group 1006">
                  <g id="Group_1004" data-name="Group 1004">
                    <path id="Path_805" data-name="Path 805" d="M952.317,440.172l-12.444-.026v-1.33l12.452.031Z" fill="#ae3634"/>
                  </g>
                  <g id="Group_1005" data-name="Group 1005">
                    <path id="Path_806" data-name="Path 806" d="M952.293,447.227l-12.439-.028v-1.335l12.446.035Z" fill="#ae3634"/>
                  </g>
                </g>
              </g>
            </g>
            <rect id="Rectangle_409" data-name="Rectangle 409" width="50.697" height="7.113" transform="translate(879.591 440.033)" fill="#e5e7eb"/>
            <g id="Group_1010" data-name="Group 1010">
              <path id="Path_807" data-name="Path 807" d="M848.661,465.949a2.317,2.317,0,0,1-2.307-2.32v-14.07a2.316,2.316,0,0,1,2.307-2.314h15.492a2.318,2.318,0,0,1,2.323,2.314v14.07a2.318,2.318,0,0,1-2.323,2.32Z" fill="#4a4f58"/>
              <g id="Group_1009" data-name="Group 1009">
                <path id="Path_808" data-name="Path 808" d="M864.153,447.565h-2.934v3.941h4.933v-1.947A2,2,0,0,0,864.153,447.565Z" fill="#eed98b"/>
                <path id="Path_809" data-name="Path 809" d="M853.836,458.78v-2.246h-7.161v4.25h5.166A2,2,0,0,0,853.836,458.78Z" fill="#eed98b"/>
                <path id="Path_810" data-name="Path 810" d="M851.841,451.9h-5.166v4.249h7.161v-2.254A2,2,0,0,0,851.841,451.9Z" fill="#eed98b"/>
                <path id="Path_811" data-name="Path 811" d="M854.213,453.739h4.612a2.38,2.38,0,0,1,2-2.2v-3.975h-8.664v3.969A2.378,2.378,0,0,1,854.213,453.739Z" fill="#eed98b"/>
                <rect id="Rectangle_410" data-name="Rectangle 410" width="4.593" height="4.597" transform="translate(854.221 454.129)" fill="#eed98b"/>
                <path id="Path_812" data-name="Path 812" d="M858.839,459.106H854.2a2.383,2.383,0,0,1-2.035,2.038v4.483h8.664v-4.494A2.366,2.366,0,0,1,858.839,459.106Z" fill="#eed98b"/>
                <path id="Path_813" data-name="Path 813" d="M859.194,458.78a2.008,2.008,0,0,0,2,2h4.955v-4.25h-6.958Z" fill="#eed98b"/>
                <path id="Path_814" data-name="Path 814" d="M861.219,451.9H861.2a2.006,2.006,0,0,0-2,1.995v2.254h6.958V451.9Z" fill="#eed98b"/>
                <path id="Path_815" data-name="Path 815" d="M851.778,447.565h-3.117a1.993,1.993,0,0,0-1.986,1.994v1.947h5.1Z" fill="#eed98b"/>
                <path id="Path_816" data-name="Path 816" d="M846.675,463.629a1.994,1.994,0,0,0,1.986,2h3.117v-4.464h-5.1Z" fill="#eed98b"/>
                <path id="Path_817" data-name="Path 817" d="M861.219,465.627h2.934a2,2,0,0,0,2-2v-2.466h-4.933Z" fill="#eed98b"/>
              </g>
            </g>
            <g id="Group_1020" data-name="Group 1020">
              <g id="Group_1011" data-name="Group 1011">
                <rect id="Rectangle_411" data-name="Rectangle 411" width="42.478" height="2.584" transform="translate(872.337 492.601) rotate(-0.148)" fill="#e5e7eb"/>
              </g>
              <g id="Group_1012" data-name="Group 1012">
                <rect id="Rectangle_412" data-name="Rectangle 412" width="25.332" height="1.292" transform="matrix(1, -0.005, 0.005, 1, 880.905, 486.021)" fill="#e5e7eb"/>
              </g>
              <g id="Group_1013" data-name="Group 1013">
                <rect id="Rectangle_413" data-name="Rectangle 413" width="7.641" height="1.291" transform="translate(844.336 482.422)" fill="#e5e7eb"/>
              </g>
              <g id="Group_1014" data-name="Group 1014">
                <rect id="Rectangle_414" data-name="Rectangle 414" width="60.46" height="2.585" transform="translate(844.336 504.674)" fill="#e5e7eb"/>
              </g>
              <g id="Group_1019" data-name="Group 1019">
                <g id="Group_1015" data-name="Group 1015">
                  <rect id="Rectangle_415" data-name="Rectangle 415" width="26.79" height="2.587" transform="translate(875.061 476.113)" fill="#e5e7eb"/>
                </g>
                <g id="Group_1016" data-name="Group 1016">
                  <path id="Path_818" data-name="Path 818" d="M844.336,478.7v-2.59h26.79l.009,2.587Z" fill="#e5e7eb"/>
                </g>
                <g id="Group_1017" data-name="Group 1017">
                  <rect id="Rectangle_416" data-name="Rectangle 416" width="26.799" height="2.589" transform="translate(905.773 476.112)" fill="#e5e7eb"/>
                </g>
                <g id="Group_1018" data-name="Group 1018">
                  <path id="Path_819" data-name="Path 819" d="M936.5,478.7v-2.587h26.793l.013,2.579Z" fill="#e5e7eb"/>
                </g>
              </g>
            </g>
          </g>
        </g>
      </g>
      <g id="Group_1040" data-name="Group 1040">
        <g id="Group_1039" data-name="Group 1039" clip-path="url(#clip-path-2)">
          <g id="Group_1038" data-name="Group 1038">
            <g id="Group_1034" data-name="Group 1034">
              <path id="Rectangle_418" data-name="Rectangle 418" d="M7.035,0h122.89a7.035,7.035,0,0,1,7.035,7.035V78.564a7.036,7.036,0,0,1-7.036,7.036H7.033A7.033,7.033,0,0,1,0,78.566V7.035A7.035,7.035,0,0,1,7.035,0Z" transform="translate(833.885 459.157)" fill="#e5e7eb"/>
              <path id="Path_820" data-name="Path 820" d="M833.885,466.922a7.055,7.055,0,0,1,7.033-7.035H963.81a7.058,7.058,0,0,1,7.036,7.035V538.45a7.061,7.061,0,0,1-7.036,7.038H840.918a7.058,7.058,0,0,1-7.033-7.038Z"/>
              <g id="Group_1024" data-name="Group 1024">
                <path id="Path_821" data-name="Path 821" d="M890.624,478.416c.268,0,.17-.4.548-.3.521.189.81.621,1.53.593.477-.356-.673-.653-.277-.887.211.082.352.23.552.294.108-.5-.157-.619-.275-.883,1.151-.06.768-1.539.569-2.346a2.808,2.808,0,0,1,1.238-.142c-.036-.65-.75-.587-1.108-.884.438.07.311-.448.825-.3.1-.448-.232-.429-.136-.885.494.084.344-.521.845-.44.339-.114,1.186.291,1.1-.286.135-.542-.6-.153-.692-.446-.326-.044-.262-.507-.692-.438-.608-.088-1.25.528-1.53.3.087-.745,1.22-.373,1.388-1.025-.285-.434-.9-.518-1.67-.446-.441-.172-1-.391-1.251,0-.114-.221-.439-.215-.689-.3-.56.4-1.922-.071-2.5.3-.644.012-1.413-.117-1.67.294-.016.317.377.954.132,1.025a24.5,24.5,0,0,1-2.488-.145c-1.4.2-2.043,1.164-3.484,1.32-.13.532.627.122.557.6-.4.346-1.147.343-1.519.725a.63.63,0,0,0-.974.446c.441-.129.427.225.684.283,0-.387.7-.387.7,0,.333-.081.948-.647.969.159-.591.056-1.429-.153-1.81.145.136.549.658.669,1.121.875.423.11.262-.4.689-.293a2.035,2.035,0,0,0,1.667.443,1.765,1.765,0,0,0,.281,1.325,2.513,2.513,0,0,0-.14,1.021c.553.287.647-.672.976-.144.076.528-.423.444-.836.444.111.658,1.055.449,1.245,1.03a6.887,6.887,0,0,0-.969.73c.385.194-.436.3-.276.735.993.715.223,2.386.966,3.374h.979c.4.025.24.629.69.591.146-.3.243-.633.557-.739-.161-1.11.688-1.12.556-2.2.357-.008.2-.574.551-.587.538.3.538-.35,1.118,0a5.4,5.4,0,0,1,.7-.584c.665-.177.962-.741,1.656-.879.058-.53,1.231-.66.837-1.177C891.588,479.044,891.005,478.454,890.624,478.416Zm1.392-.594c-.375-.257,0-.962.409-.876C892.354,477.309,892.055,477.434,892.016,477.822Zm.961-7.045c-.01.43-.313.543-.552.73a2.905,2.905,0,0,0-1.8-.293C891.091,470.611,892.4,470.863,892.977,470.777Z" fill="#333"/>
                <path id="Path_822" data-name="Path 822" d="M873.4,472.987v.874c.421-.107.5.152.822.14.065-.668.9-1.292,1.392-1.014.207.608-.721.015-.686.431.412.219-.484.262-.427.583.365-.087.5.065.427.44-.331.005-.42-.246-.84-.141.02.418-.468.289-.282.879.834-.109,1.432-.2,1.808.441-1.106.247-1.813-.582-2.495-.293-.119.707.834.286.83.891,1.054-.165,2.459.642,2.781-.448.361.045.593-.053.553-.443.1-.4-.65.109-.553-.292h.972c0-.781.845-.675.689-1.617.724-.023.794-.729,1.683-.591a.939.939,0,0,1,.957-.588c.179-.365-.306-.709,0-.732.582-.282,1.446.148,1.679-.73,0-.241-.4-.086-.42-.3-2.276.321-5.382-.427-7.789.588-.181.889.6.739.7,1.32-.9.079-.637-1.094-1.665-.882-.047.2-.211.284-.135.589-.224.012-.491-.024-.421.293C872.86,472.862,873.338,472.7,873.4,472.987Zm2.909,2.633c.072.076-.1.2-.139.15C876.091,475.694,876.271,475.579,876.308,475.62Z" fill="#333"/>
                <path id="Path_823" data-name="Path 823" d="M907.563,472.679c.081-.4.73-.21.564-.875a25.014,25.014,0,0,0-3.618-.3.9.9,0,0,0,.139.589A5.36,5.36,0,0,0,907.563,472.679Z" fill="#333"/>
                <path id="Path_824" data-name="Path 824" d="M902.156,473.418c-.027.359-.267.455,0,.74.563-.034.585-.662,1.245-.594-.034.655-.682.651-.688,1.323a1.016,1.016,0,0,0,.968.292c-.064.462.291.473.687.441a15.838,15.838,0,0,1,.425-1.619c.366.393.578.959,1.529.744.118-1.119-.73-1.191-1.108-1.758-.046.341-.376-.18-.566-.16a.641.641,0,0,1-.685-.287c.32-.389-.115-.866-.7-.736-.405.234.216.762-.144.875-.3-.688-1.619-1.384-1.669,0C901.526,473.112,902.054,473.033,902.156,473.418Z" fill="#333"/>
                <path id="Path_825" data-name="Path 825" d="M916.178,472.389c-.006-.926-1.295-.612-1.247.151C915.4,473,915.664,472.332,916.178,472.389Z" fill="#333"/>
                <path id="Path_826" data-name="Path 826" d="M923.969,473.271c1.087-.2,2.241.506,2.488-.444a2.1,2.1,0,0,0-2.35-.438C923.8,472.41,924.04,473.01,923.969,473.271Z" fill="#333"/>
                <path id="Path_827" data-name="Path 827" d="M952.033,482.089c.322-.053.259-.51.682-.439.731.014.634.908,1.531.724.183-.26-.124-.736.137-1.174-.369-.176-.907-.96-1.242-.289a1.039,1.039,0,0,0-.137-.735c-.76-.285-1.159-.939-2.363-.73-.159-.279-.541-.317-.7-.6-.9.129-1.106-.5-2.093-.3-.191.435.393.755,0,.891-.4-.064-.325-.641-.687-.737-.407.452-1.156.042-1.96.294-.5-.342-.449-1.269-1.515-1.031-.194.034-.044.444-.286.444a18.054,18.054,0,0,1-1.656-.869c-.069.123-.128.241-.279.275.172-.577-.337-.43-.705-.43.351-.353-.143-.335-.265-.6-.67.263-.621-.085-1.25-.144-.056.2-.353.123-.56.144-.134.274.416.5,0,.6-1.2-.2-2.715.254-3.751,0-.356-.1-.487-.544-.834-.446a2.479,2.479,0,0,1-1.53-.3c-.162-.054-.385.035-.549,0-.352-.072-.613-.468-1.388-.3.054-.373.408-.437.414-.875-.2-.431-.652-.594-.832-1.035a4.371,4.371,0,0,1-1.67.159c-.349-.125-.286-.669-.833-.6-.323.157-.444.512-.419,1.034-.688-.239-.437.516-.974.441-.264-.062-.11-.572-.553-.441a1.836,1.836,0,0,1-1.663.585c-.246.19-.378.495-.835.442-.194.184-.06.718-.424.732-.287.1-.96-.234-.824.3,0,.533.811.213.69.877-.514-.15-.643-.688-1.394-.58,0,.379.082.859-.272.877a1.244,1.244,0,0,1-.14-.877c-.54-.131-.224.631-.83.43-.219-.257-.193-.78-.839-.589a13.023,13.023,0,0,1-1.389,1.617c-.9.072-.829-.269-1.8-.3-.226.726.723.224.553.891a18.386,18.386,0,0,0-2.086,0c-.622.26-.963.833-1.667,1.023v-.883a1.16,1.16,0,0,1-.837-.14c.041.82.009,1.563-.83,1.465.044.546-.507.438-.828.588-.346.194.242.441-.144.59-.809.171-.863-1.069-.827-1.324a4.784,4.784,0,0,1,1.8.146c.371-.923-.779-1.394-1.66-1.465a1.338,1.338,0,0,0-1.113-.6,2.758,2.758,0,0,0-.7-.878h-1.253c-.372.279-.736.6-1.1.878-.067-.211-.185.06-.423,0-.5.558-1.121.976-1.663,1.476a3.442,3.442,0,0,1-.832,1.61c-.034-.174-.256-.12-.419-.142v.58c-.884.06-.973.931-1.257,1.623a2.41,2.41,0,0,1,.284,1.611c.129.392.873.162,1.113.442-.3.435-.562.6-.562,1.03.295-.069.259.21.278.444a8.112,8.112,0,0,0-1.248.288c-.127.263-.389.375-.284.884-.787-.251-.311.845-.97.734.026.172-.028.259-.142.293-.612-.069-.736.394-1.116.591-.336.081-.706.124-.676.586.176.2.592.144.961.156-.065.656.639.488.562,1.169-.141.19-.136.543-.429.582-.64-.35-1.214.14-2.076,0-.14.491.312,1.6-.283,1.623.1.429.422.632.283,1.32.646-.144.847.189,1.248.294.524-.284.6-.284,1.116,0a3.061,3.061,0,0,0,.692-2.061c.6-.182.51-1.122,1.249-1.176.581.367.829-.1,1.4-.142a2.8,2.8,0,0,0,0,2.2c.876-.081.328-.833.407-1.612a.15.15,0,0,1,0-.293v.293c.292.036.285.388.424.581a1.174,1.174,0,0,1,1.247.888c-.027.318-.347.312-.7.288-.019.516.49.464.7.74-.072-.668.374-.784.7-1.028.071-.331-.267-.208-.282-.446.256-.459.465.495.705,0-.384-.778-2.107-.908-1.672-2.051.416.67,1.2.986,1.672,1.609.075.117.2.465.264.6.11.182.344.353.289.58v.882c.178.2.6.143.969.152.241-.505-.248-1.237.134-1.768h.427a9.892,9.892,0,0,0-.148,1.169c.318-.051.189.432.421.6a1.875,1.875,0,0,0,1.811,0c.409.209-.367.76.264.734.581.107.033-.953.706-.734v.873c-.407.263-.125,1.243-.706,1.324a11.642,11.642,0,0,0-3.6-.583c-.408.114-.336.725-.7.881-.643-.7-1.9-.733-2.5-1.465.1-.513-.161-.629-.274-.889.319-.04.31-.394.135-.584a4.5,4.5,0,0,0-2.089.443,3.328,3.328,0,0,0-2.647.588.761.761,0,0,0-.818-.447c-.129.519-.623.625-.977.889-.377.682-.233,1.584-.556,2.2-.2.389-.948.788-1.252,1.181a3.368,3.368,0,0,1-.692,1.913v3.814a5.187,5.187,0,0,1,1.118,2.057c.628.4,1.062,1.022,1.937,1.177a6.842,6.842,0,0,1,1.946-.15c.285-.237.265-.789.833-.736.255.027.08.5.287.588.638-.089.876.237,1.378.3.239-.139.358-.411.84-.3.135,1.13-.3,1.654-.284,2.643.4.76,1.075,1.328.841,2.356a6.36,6.36,0,0,1,.554,2.055c-.34.667-.267,1.769-.554,2.5a4.724,4.724,0,0,1,1.25,2.347v1.323c.616.762.6,2.194,1.251,2.944,1.33-.1,2.005-.911,3.193-1.18a2.814,2.814,0,0,1,1.247-1.764c-.074-.568.251-.719.13-1.323.25-.131.364-.409.844-.3.008-1.7.584-2.806,1.672-3.373a14.24,14.24,0,0,0,0-4.113,7.994,7.994,0,0,0,.687-1.911,10.807,10.807,0,0,1,.97-.738c.66-1.012,1.264-2.1,1.949-3.081.1-.551.29-1.3-.143-1.621-.59-.086-.559.485-1.1.442h-1.255c-.063-1.005-.752-1.35-1.255-1.908.124-.966-.82-.788-.549-1.912-.242-.333-.673-.463-.837-.88.132-.441-.2-1.143,0-1.172.331.249.7,1.021.555,1.32.584.612.969,1.422,1.528,2.061.334.608.282,1.526.98,2.049A14.6,14.6,0,0,1,916.6,504.7c.19-.085.024-.563.277-.587.6-.1.853-.558,1.388-.735-.1-.64.411-.653.416-1.169-.237-.532-.951-.563-.831-1.479a1.221,1.221,0,0,0-1.116.3c-.11-.555-.621-.7-.556-1.468-.449.043-.393-.448-.683-.586.2-.076.346-.211.552-.292.761.505.533,2.069,1.945,1.9.056.29.389.278.273.739.68.075.771-.455,1.391-.434.144.091.144.328.422.291.964-.153,1.206.481,1.8.73-.233-.052-.257.113-.271.3.145.279.636.2.837.437-.071.458.246.519.129,1.031a5.68,5.68,0,0,1,.831,1.907,2.154,2.154,0,0,1,.707,1.027v.886c.173.2.6.142.963.142.185-.933.684-1.522.558-2.788h.561v-.587c.516.215.268-.4.686-.29-.031-.673.518-.74.7-1.182a2.64,2.64,0,0,1,1.25-.583c.314.4.314,1.132.845,1.326.041.344-.26.312-.152.729.155.474,1.1.106,1.394.436-.19.309.073.438-.143.884a1.1,1.1,0,0,1,.7.88c-.053.279-.4.267-.277.741.038.44.432.519.277,1.179a15.576,15.576,0,0,0,2.08,1.758c.039-.968-.654-1.16-.69-2.06a2.943,2.943,0,0,1-.978-1.026c.069-.477-.183-1.268.275-1.322.311.417.516.922,1.128,1.025a.824.824,0,0,1,.123.585c1.352-.182,1.687-1.457,1.535-3.231-.183-.139-.519-.139-.694-.286.175-.652-.672-.6-.285-1.035.418-.407.369.481.979.3.1-.628.8-.624,1.522-.589a6.94,6.94,0,0,0,1.258-2.2c.226.036.226-.138.409-.145.242-.6-.029-1.7.428-2.054-.3-.14-.428-.439-.428-.893-.23-.183-.532-.3-.551-.731-.06-.348.258-.32.142-.731.285.041.434-.028.409-.3.4-.182-.615-.875.286-.875.153.47.629.594.836,1.031a.916.916,0,0,0,.7,1.177c.826-.642-.037-2.258.408-3.374a3.551,3.551,0,0,1,1.113-.6,6.724,6.724,0,0,1,1.1-1.907c.2-1.185-.316-2.4,0-3.234-.19.84.323.938.422,1.471.026.908.071,1.788.7,2.053.259-.259-.113-.373,0-.876.381-.016.285.242.56,0,.014-.466-.377-.5-.275-1.03-.506-.105-.636-.6-.836-1.032-.053-.525.043-1.219-.417-1.318-.286.036-.037.647-.412.59-.235-1.081-1.182.674-1.546-.444.1-.34.356-.5.565-.733.16-.469.108-1.155.562-1.331.313.369.248-.209.682-.14a6.965,6.965,0,0,0,2.088.295c-.045.253.112.278.27.3.192-.2.617-.141.988-.152.065-.467-.255-.517-.143-1.029.278-.042.273-.389.55-.432.289.043.279.39.555.432-.054-.317.421-.8.557-.432a8.689,8.689,0,0,0-1.255,2.934c.1.4.4.555.562.879.069.565.17,1.1.557,1.319.342-.365.55-.887.976-1.173-.134-.732.435-.62.143-1.173.038-.3.367-.292.416-.589-.213-.176-.631-.131-.559-.584.136-1.293,1.045-1.012,2.081-.888.2-.222.181-.678.415-.874.817-.064,1.419-.471,1.941-.442C952.715,482.633,952.033,482.723,952.033,482.089Zm-46.68,1.615a1.777,1.777,0,0,0,1.1.581v1.472c-.307-.056.078-.864-.55-.586-.313.505-.119,1.542-.553,1.909-.469.051-.808-.069-1.119,0-.386.084-.475.43-.833.444.05-.182-.4-.513-.414-.147-.322-.048-.322-.4,0-.443a2.171,2.171,0,0,1-.552-1.468c.688.057.427,2.063,1.662,1.468.316-.6.526-1.3.833-1.918a3.694,3.694,0,0,0-.282-.879c.089-1.382,1.072-1.806,1.533-2.788.163-.02.239.038.275.15C906.344,482.508,905.221,482.443,905.353,483.7Zm1.522,1.019c-.007-.441.492-.36.834-.438C907.714,484.748,907.288,484.723,906.875,484.723Zm1.11-5.72c-.069-.081.11-.188.142-.153C908.2,478.932,908.025,479.044,907.985,479Zm2.505,21.156c-.076-.08.1-.2.138-.148C910.7,500.079,910.529,500.2,910.49,500.159Zm.138-18.223c-.077-.075.093-.189.136-.142C910.827,481.875,910.667,481.979,910.628,481.936Zm10.28-2.35c-.269-.061-.6-.048-.556-.441-.418-.028.13-.609,0,0C920.449,479.382,921.033,479.116,920.908,479.586Zm8.608-2.64c-.071-.075.108-.189.152-.152C929.735,476.875,929.554,476.984,929.516,476.946Zm.423-.152c-.076-.077.1-.186.13-.144C930.147,476.723,929.981,476.845,929.939,476.794Zm.414-.287c-.072-.078.1-.195.137-.156C930.564,476.431,930.387,476.539,930.353,476.507Zm6.257,18.5c.2-.28.3-.648.829-.58.012.225-.065.56.137.58C937.37,495.453,936.968,494.889,936.61,495.01Z" fill="#333"/>
                <path id="Path_828" data-name="Path 828" d="M887.289,512.349c-.246-.277-.412.062-.691.145-.224-.505-.759-.67-1.258-.887h-.964c-.253-.423-1.185-.128-1.258-.729-.37,0-.819.079-.829-.3.406-.686-.411-2.557-1.668-1.9a1.657,1.657,0,0,1-.833-1.331c-.725-.216-1.248-.65-1.957-.88-.175.059-.212.257-.408.3-.19-.529-.866-.553-.978-1.175-.441-.13-.288.379-.55.44-.325-.1-.367-.489-.7-.584-.128.254-.258.509-.7.436-.21.611-.767.855-1.1,1.329.026-.486-.177-.712-.57-.741-.351.157-.509.533-.967.592-.33-.717.142-1.4,0-2.356-.257-.511-1.175-.31-1.669-.587.137-.634.538-.99.425-1.9a3.826,3.826,0,0,1-1.391,0c-.256.319-.137,1.034-.56,1.169-1.858.105-.7-2.515-1.108-3.668.492-.123.779-.445,1.246-.586.764-.065.941.469,1.67.434-.014-.2-.034-.408.143-.434.664.035,1.555-.185,1.66.434-.056.853.311,1.251.974,1.332a2.837,2.837,0,0,1,0-1.475c-.157-.221-.392-.356-.423-.735a2.23,2.23,0,0,1,1.81-1.767,1.04,1.04,0,0,0,0-.873.913.913,0,0,0,.7-.152c-.343-.81.453-.629.274-1.616.465-.2.908-.409,1.389-.589.077-.46-.415-.329-.273-.88a6.967,6.967,0,0,1,1.954-.88c.089.4-.293.3-.293.584a4.151,4.151,0,0,0,1.54-.877c-.343-.226-1.034-.09-.974-.734.07-.408.521-.408.832-.586.054-.356-.255-.321-.148-.737.683.485,1.462-.71,1.946-.44-.317.788-.981,1.212-1.245,2.053.509.108.6-.25,1.108-.134.013.214-.063.553.137.578.143-.367.535.2.977,0-.065-.336-.274-.749,0-1.027-.508-.051-.641-.5-.834-.884a15.239,15.239,0,0,0,0-1.911c-.267-.273-.349-.01-.7,0,.023-.7-.631-.7-.689-1.315a.949.949,0,0,0,.139-.6c-.537-.314-.34-1.4-1.118-1.471-.075.221.171.765-.14.743-.286-.085-.908.181-.973-.155v-1.462c-.74.352-.6-.341-1.247-.438-.365.4-.3-.174-.694-.144-.335-.06-.3.261-.7.144.207,1.462-.376,2.284-.139,3.381-.237.039-.694-.417-.835,0,.141.413.458.088.56.29-.491.322-.491,1.134-.7,1.765a6.275,6.275,0,0,1-.552-1.765c-.28-.29-.27.064-.549.147-.125-.426-.212-.158-.57-.147a3.413,3.413,0,0,0-1.512-1.03c.215-.727-.495-.47-.425-1.034.3.074.267-.2.279-.438.462-.246.655-.767,1.107-1.023.311-.516.525-1.122,1.256-1.173.009-.264-.168-.313-.135-.59a9.858,9.858,0,0,0,2.075-.588,3.8,3.8,0,0,1,.139-1.465c-.165-.22-.528-.234-.686-.443.547-.051,1.019,0,1.242.293.264-.448.67.17,1.113,0-.192.744.636.407.549,1.03-.13,1.075-1.643.7-1.8,1.763.233.345.808.321,1.392.285.864.414,1.208,1.381,2.365,1.479-.313-.766.233-.745.142-1.62-.072-.383-.426-.443-.43-.884.53.038.676.467,1.121.587-.045-.383-.049-.736.409-.587-.091-.451.146-.532.137-.88-.372.1-.262-.3-.41-.443a6.807,6.807,0,0,1-1.257-.44c.049-.3.381-.283.43-.583-.186-.351-.609-.438-.568-1.031h-1.25c.075-.469-.372-.384-.411-.739a4.54,4.54,0,0,0-1.393.159c.086-.915-1.089-.626-1.255-.159.056-.545-.106-.856-.553-.882-.718.471-1.547,1.968-.7,2.794.209.081.715-.166.7.151a3.4,3.4,0,0,1-.7,1.03c-.349-.365.295-.32.143-.88a2.524,2.524,0,0,1-1.119-1.33c-.519.07-.436-.5-1.1-.294.056.354-.259.323-.142.733.477.2.3,1.369,0,1.621a.708.708,0,0,1-.267-.73c-.7-.111-.7.542-1.263.58a2.957,2.957,0,0,1-1.387-.881c.622-.11.837.2,1.387.151.3-.306-.065-.422,0-.88.768-.17,1.081-.828,1.808-1.024a3.127,3.127,0,0,1-.278-1.174H869.5c-.3.407-1,.407-1.12,1.015-.063-.214-.2-.362-.275-.583-.367,0-.868.141-.687-.432,1.027.219,2.25-.541,3.2-.891,0,.681,1.186.509,1.386.149a5.924,5.924,0,0,0-.278-1.035c-.817.117-1.215.678-2.084.738V474.3a.486.486,0,1,0-.415.879,12,12,0,0,1-1.934-.144c.2.762-.656.409-.7.883.345.183.43-.076.546.144a.573.573,0,0,1-.546.289c-.224-.837-1.328-.755-2.363-.731a2.145,2.145,0,0,1-.846,1.475c-.02.455.363.493.284,1.021a3.421,3.421,0,0,0,1.529-.437c-.289.8.758.173.832.59.1.4-.66-.109-.559.286,0,.8,1.526-.027,1.26,1.031.512-.329.68-.23,1.239,0h.141c-.039-.178.4-.508.421-.14-.025.17-.221.157-.421.14.038.371.6.833,0,1.033-.156-.031-.114-.272-.141-.443-1.234-.116-1.859-.873-3.325-.73-.429-.143-.443-.719-.976-.737-.067.417-.434.517-.83.587a1.052,1.052,0,0,0-.141-.741c-.532.035-.532.626-1.113.59-.527.112-.658-.17-1.109-.142-.156.032-.092.293-.281.293-.133-.008-.1-.18-.133-.293-.34.045-.53.229-.978.142-1.108-.729-3.252-.382-4.44-1.029a12.323,12.323,0,0,1-3.054.734c-.32.576.25.587.406,1.036.532-.07.876.059.978.44-.561-.206-.5.262-.694.439-.258-.127-.382-.381-.69-.439-.532.572-1.8.358-2.226,1.023.76-.023,1.037.47,1.107,1.184.745-.282,1.292.039,1.954-.159-.683,1.3-3.575.252-3.346,2.5.464.357.574.4.424,1.174.25.021.288-.182.547-.151.009.244-.067.564.139.6.2-.471.065.6.425.437a.725.725,0,0,1,1.244-.295c-.6.5-.816,1.388-1.516,1.762-.653.215-.865.858-1.679.883.122.47-.215.456-.271.733.638.087.867-.256,1.521-.143.158-.429.592-.552,1.113-.59a8.9,8.9,0,0,1,2.224-2.35h.288c.142-.139.037-.534.408-.437.007-.093.021-.182.13-.15-.005.089-.009.177-.13.15.06.648-.379.77-.558,1.169,1.144.136,1.421-.642,2.366-.732a6.487,6.487,0,0,0-.139-1.62c.633.136.672-.368,1.245-.3a4.221,4.221,0,0,1,.977,1.034c.878.3,1.634.726,1.525,2.064.667-.1.038-.823.565-.888a8.04,8.04,0,0,0,.41,3.381c-.422.38-.147.542,0,1.027,0,.29-.382.181-.275.591a27.866,27.866,0,0,0,0,4.256c.374.242.613.625.976.88.374.574.347,1.582.824,2.058-.166.027-.115.268-.133.44.574.22.706.909.969,1.469.427-.108.409.259.817.143.034-.622-.259-.486-.259-1.312-.084,0-.157-.132,0-.148v.148c.293-.08.249.207.259.43a4.876,4.876,0,0,1,1.13,1.181,3.628,3.628,0,0,0,.553,2.208c1.14.3,1.818,1.05,3.188.726a7.225,7.225,0,0,0,.559,1.034c.527-.118.669.177,1.111.142a1.511,1.511,0,0,0,.692.735v.445c.807.085.966.84,1.68,1.026.139-.194.13-.548.4-.585a6.76,6.76,0,0,0,.423,1.317c0,.3-.379.194-.274.593.068.751-.449.9-.552,1.467-.279,1.021.557,1.584,0,2.055.235.281.674.349.973.593-.116.208-.454.205-.7.291a1.675,1.675,0,0,0,1.245,1.913c.061.347-.255.316-.143.732.524.427.707,1.209,1.534,1.326a4.664,4.664,0,0,1,.692,2.051c-.143.188-.13.539-.264.735a.671.671,0,0,1,.264.584c-.374.663.169,1.434,0,2.357-.754.474-.405,2.116-.692,3.079.209.408.575-.256.692.151.126.721-.476.678-.692,1.027-.169.475.445.117.274.587-.265.358.154.717-.139,1.173.13,1,.6,1.512.293,2.35.4.348.358,1.176.828,1.472-.024.264.159.311.134.588a2.417,2.417,0,0,1,.828.438c.516-.086,1.434.239,1.523-.3a1.264,1.264,0,0,1-.831-.584c.1-.5-.555-.187-.418-.733-.037-.642.409-.756.418-1.325a.534.534,0,0,0,.563-.583c.072-.523-.485-.36-.422-.881.382-.457.946-1.9,0-2.058.934.248.9-.513,1.11-1.027.75.051,1-.411,1.53-.587.1-.687-.221-.937-.273-1.469h1.108c.013-.143.17-.115.28-.148.077-.362.118-.751.564-.74-.056-.827.515-1.005.825-1.468v-1.022c.263-.264.432-.618.69-.882.664-.21.664-.21,1.253-.44.058-.944.741-1.76.277-2.79a.748.748,0,0,0,.285-.74c.221.049.241-.135.411-.142.052-.49.414-.65.556-1.025.37-.385-.017-.713.413-.884-.094-.454.138-.537.138-.892A3.529,3.529,0,0,0,887.289,512.349Zm-6.4-24.387c.073.078-.1.188-.135.152C880.681,488.029,880.85,487.917,880.892,487.962Zm-10.7-11.455c.425.139-.15.384-.139.588C869.634,476.946,870.119,476.6,870.193,476.507Zm-.551.726c.438-.06.493.27.976.159,0,.578-.55.6-.976.724Zm-4.305.314c-.073-.091.1-.206.132-.155C865.54,477.462,865.368,477.572,865.337,477.547Zm-2.916,21.137c.025-.17.134-.079.134,0C862.533,498.848,862.421,498.768,862.421,498.684Zm.134.292c.332.054.309.457.553.586C862.942,499.94,862.433,499.41,862.555,498.976Z" fill="#333"/>
                <path id="Path_829" data-name="Path 829" d="M915.633,478.709c-.2-.674-.855-.867-.7-1.915.984-.088,1.351-.827,2.09-1.174.87.1,1.315-.264,1.387-1.02h-.692c-.035.116-.009.287-.146.287a8.787,8.787,0,0,0-2.639.883c.071.752-.675.661-.555,1.463-.168.317-.521.437-.549.883A10.056,10.056,0,0,0,915.2,479,.386.386,0,0,1,915.633,478.709Z" fill="#333"/>
                <path id="Path_830" data-name="Path 830" d="M938.83,476.062c.336-.234.5-.648.839-.883-.53-.071-.64-.671-1.114-.579-.065.005-.134.338-.28.287h-.836C937.259,475.956,938.434,475.6,938.83,476.062Z" fill="#333"/>
                <path id="Path_831" data-name="Path 831" d="M894.509,482.674c.018-.38.516-.231.692-.441.147-.748-.314-.844-.266-1.468-.616.2-.825-.1-1.4.146-.383-.09-.347-.615-.838-.585.176.71-.554.5-.554,1.023.394.121.369-.2.691-.149-.074.364-.535.321-.414.889.7-.2.542.5.976.585C893.513,482.367,894.369,482.521,894.509,482.674Z" fill="#333"/>
                <path id="Path_832" data-name="Path 832" d="M875.474,482.674c-.547-.156-.19-.379-.547-.738-.427.109-.42-.254-.84-.142-.2.282-.073.894-.688.739,0,.512.453.59.967.583C874.319,481.963,875.31,483.6,875.474,482.674Z" fill="#333"/>
                <path id="Path_833" data-name="Path 833" d="M899.938,487.962c-.193-.15-.439-.24-.568-.438.183-.872-.927-1.01-.411-1.767-.188-.149-.429-.237-.562-.443.2-.122.446-.215.421-.591a2.257,2.257,0,0,0-1.116.293c.107.8-.217,1.144-.137,1.918a2.374,2.374,0,0,0,.7.292c.055.522-.473.807-.7.586a1.762,1.762,0,0,0,.286,1.325c-.252.137-.751-.005-.709.44a9.9,9.9,0,0,1,2.228-.147C899.484,488.8,899.415,488.386,899.938,487.962Z" fill="#333"/>
                <path id="Path_834" data-name="Path 834" d="M896.171,488.552c.319-.16.853-.1,1.123-.3a3.034,3.034,0,0,1,0-1.318h-.7c0,.659-.317.182-.558.443C896.056,487.8,895.965,488.336,896.171,488.552Z" fill="#333"/>
                <path id="Path_835" data-name="Path 835" d="M943.828,492.807c.272.024.1.482.422.446.306-.372.255-1.1.825-1.175-.718-.111-1.182-.511-1.936-.589.1.695-.156,1.012-.144,1.622C943.373,493.5,943.339,492.723,943.828,492.807Z" fill="#333"/>
                <path id="Path_836" data-name="Path 836" d="M940.634,497.361c-.027.521.328.635.559.88a1.4,1.4,0,0,1,.834-1.029.693.693,0,0,1,.409.149c.435-.557,1.364-.614,1.814-1.176-.029-1.047-.311-1.832-.275-2.932H943.4c.173.689-.065,1.022.148,1.757-.106.034-.155.124-.148.3a3.862,3.862,0,0,0-1.244.873c-.486.265-1.377.112-1.4.889-.057.4.767-.114.705.287Z" fill="#333"/>
                <path id="Path_837" data-name="Path 837" d="M906.735,496.185c.042.413.46.119.828.447.1-.547-.21-.646-.688-.588C906.9,496.163,906.823,496.18,906.735,496.185Z" fill="#333"/>
                <path id="Path_838" data-name="Path 838" d="M937.718,501.185a1.39,1.39,0,0,1,.409.886c.582-.043.537-.729.562-1.337C938.343,500.415,937.861,500.849,937.718,501.185Z" fill="#333"/>
                <path id="Path_839" data-name="Path 839" d="M873.4,500.734v.594h.549A.543.543,0,0,0,873.4,500.734Z" fill="#333"/>
                <path id="Path_840" data-name="Path 840" d="M874.927,501.471a1.1,1.1,0,0,0-.147-.737h-.414C874.319,501.245,874.4,501.583,874.927,501.471Z" fill="#333"/>
                <path id="Path_841" data-name="Path 841" d="M875.053,501.328v.743c.3.053.374-.11.56-.156A.528.528,0,0,0,875.053,501.328Z" fill="#333"/>
                <path id="Path_842" data-name="Path 842" d="M874.78,503.681c.5-.084.674.17.987.3,0-.419.568-.274.962-.3-.2-.973-.962-.84-1.8-.885.1-.4-.288-.3-.288-.583-.3-.17-.761-.174-.834-.591h-2.079c-.065.281-.3.372-.28.741.566.048.566-.483,1.257-.292.585.113.65.777,1.245.875.338.094,1.007-.187,1.1.145C874.552,503.105,874.708,503.3,874.78,503.681Z" fill="#333"/>
                <path id="Path_843" data-name="Path 843" d="M876.169,502.071c-.044-.208-.349-.126-.556-.156C875.324,502.459,876.319,502.576,876.169,502.071Z" fill="#333"/>
                <path id="Path_844" data-name="Path 844" d="M938.275,503.681a2.84,2.84,0,0,0,.83.877c.177-.458.651-.58.564-1.32A.786.786,0,0,0,938.275,503.681Z" fill="#333"/>
                <path id="Path_845" data-name="Path 845" d="M934.938,504.117c.387-.083.387-.569.551-.879a.745.745,0,0,0-.551-.147C934.678,503.665,934.755,503.217,934.938,504.117Z" fill="#333"/>
                <path id="Path_846" data-name="Path 846" d="M873.252,503.382v.6c.465-.157.481.044.969-.147C874.319,503.238,873.7,503.407,873.252,503.382Z" fill="#333"/>
                <path id="Path_847" data-name="Path 847" d="M877,503.978c.5.033.96.029.829-.6H877Z" fill="#333"/>
                <path id="Path_848" data-name="Path 848" d="M891.588,503.978c0,.29-.371.183-.264.58h.546C891.913,504.229,891.837,504.007,891.588,503.978Z" fill="#333"/>
                <path id="Path_849" data-name="Path 849" d="M939.387,506.322c.289.32.391-.07.825,0-.042.346-.292.634.144.738a1.1,1.1,0,0,1,1.252-.592c.13-.674-.444-.606-.695-.88.037-.476-.162-.71-.557-.733-.194.188-.134.636-.144,1.025C939.756,505.633,939.618,505.971,939.387,506.322Z" fill="#333"/>
                <path id="Path_850" data-name="Path 850" d="M925.628,506.763c.2.869-.523,1.054,0,1.471.439.072.371-.393.7-.444A2.1,2.1,0,0,0,925.628,506.763Z" fill="#333"/>
                <path id="Path_851" data-name="Path 851" d="M934.794,510.734c.144.59.74.682.7,1.468.9-.221.774.658,1.669.436-.037-.346.4-.159.418-.436-.1-.037-.275-.005-.275-.155.456-.2.223-1.118.7-1.313-.323-.478.108-.979-.149-1.323a.636.636,0,0,0,.421-.732,1.585,1.585,0,0,0-1.255-.593C936.892,509.618,935.041,509.319,934.794,510.734Z" fill="#333"/>
                <path id="Path_852" data-name="Path 852" d="M932.152,509.7c-.2-.349-.644-.575-.541-1.02-.385.105-.285-.291-.56-.291.011.637-.34-.025-.7.137,0,1.718,1.954,1.368,1.672,3.38.68.076.878,1.046,1.52.733.326-.558-.285-1.2-.265-1.9A4.842,4.842,0,0,1,932.152,509.7Z" fill="#333"/>
                <path id="Path_853" data-name="Path 853" d="M939.948,510.878c-.037-.652-.883-.449-1.118-.883-.719.611-1.213,2.241-.141,2.788-.025-.42.033-.745.275-.878.31.282.327.745.837.444-.073-.612-.54-.813-.552-1.471A.5.5,0,0,0,939.948,510.878Z" fill="#333"/>
                <path id="Path_854" data-name="Path 854" d="M942.995,510.288c-.455-.3-1.565-.241-1.526.446C941.942,511.046,942.96,510.9,942.995,510.288Z" fill="#333"/>
                <path id="Path_855" data-name="Path 855" d="M944.527,510.878h-.975c-.126.213-.207.469-.557.442-.433.111-.26-.412-.685-.294.032.381-.546.11-.419.581.017.33.34-.184.682,0a14.165,14.165,0,0,1,1.954,1.474v.879c.739-.477.965.3,1.527.445.486-.022.332-.727.973-.588.326.2.691,1.114,1.251.588a.871.871,0,0,1-.426-.879c-.358-.351-.87-.545-1.107-1.032v-.447C945.675,512.011,945.388,511.146,944.527,510.878Z" fill="#333"/>
                <path id="Path_856" data-name="Path 856" d="M937.158,514.253c.074-.519-.483-.36-.411-.877a7.321,7.321,0,0,1-2.788-.593c-.117.26-.387.378-.265.878C935.017,513.681,935.652,514.435,937.158,514.253Z" fill="#333"/>
                <path id="Path_857" data-name="Path 857" d="M947.438,519.986c.056-.7-.242-1.015-.136-1.767-.275-.1-.32-.438-.557-.587-.043-1.126-.993-1.3-.826-2.641-.267.029-.311-.166-.561-.152-.358.6.14,2.128-.427,2.505-.535.189-.276-.486-.824-.3-.025-.41-.654-.176-.555-.731-.065-.469.682-.059.555-.584-.484-.567-1.906-.15-2.638-.445-.234.091.005.693-.276.731a5.264,5.264,0,0,0-1.392.446c-.177.438-.045,1.218-.552,1.326-.334-.353-.689.019-1.122,0-.266.094.038.82-.273.877-.289-.082-.265-.446-.553-.147-.348.372-.18,1.269-.691,1.468-.31.213-.933.094-1.121.437a3.391,3.391,0,0,1,.15,2.207c.26.1.359.4.409.732.078.671-.249.915-.141,1.614.419-.035.437.332.84.3.577-.267.917-.791,1.942-.593a2.987,2.987,0,0,1,2.64-.74,2.68,2.68,0,0,1,.831,1.333c.545-.28.373.337.979,0-.008.385.043.832-.144,1.024a4.367,4.367,0,0,0,2.781.587c.353-.266.61-.633,1.1-.741-.054-.754.667-.66.557-1.463.484-.038.369-.7.84-.74-.155-.518.233-.827.272-1.316a10.6,10.6,0,0,0-.41-2.644C947.794,519.787,947.559,520.419,947.438,519.986Z" fill="#333"/>
                <path id="Path_858" data-name="Path 858" d="M915.075,515.285a4.154,4.154,0,0,0-.561,1.473,2.272,2.272,0,0,0-1.248,1.03c-.113.5.2.566.139,1.02a3.419,3.419,0,0,1-.418.888c.3.66-.1,1.248.418,1.76.45.026.588-.264,1.109-.148a15.247,15.247,0,0,1,.561-1.612v-.735c.026-.17.149-.233.276-.3-.25-.648.255-1.254.282-2.351C915.114,516.317,915.645,515.218,915.075,515.285Z" fill="#333"/>
                <path id="Path_859" data-name="Path 859" d="M955.081,525.279c.024-.426.01-.81-.41-.734v1.168c-.112.427-.669.382-.562,1.032.933-.143.32.437.274.88.877-.049.914-1.006,1.259-1.619.209-.22.571-.262.692-.587C955.995,524.966,955.738,525.332,955.081,525.279Z" fill="#333"/>
                <path id="Path_860" data-name="Path 860" d="M953.55,527.035c-.116.311-.409.433-.409.882a.74.74,0,0,0-.56.148c-.24.291-.325.731-.694.876-.568.234-.741.88-.975,1.475.454-.24.751-.079,1.253,0,.128-.355.558-.393.416-1.031h.56c.036-.837,1.1-.6,1.1-1.468C954.2,527.427,953.834,527.285,953.55,527.035Z" fill="#333"/>
                <path id="Path_861" data-name="Path 861" d="M944.107,527.47c-.158.231.456.889.554,1.326.678-.065,1.115-.385.97-1.326C945.034,527.589,944.357,527.3,944.107,527.47Z" fill="#333"/>
                <path id="Path_862" data-name="Path 862" d="M881.167,532.027h.562C881.829,531.446,881.15,531.544,881.167,532.027Z" fill="#333"/>
              </g>
              <g id="Group_1033" data-name="Group 1033">
                <path id="Path_863" data-name="Path 863" d="M940.9,509.516a9.45,9.45,0,0,0-.012,18.9l11.672.013a9.449,9.449,0,0,0,.02-18.9Z" fill="#fff"/>
                <g id="Group_1032" data-name="Group 1032">
                  <g id="Group_1025" data-name="Group 1025">
                    <path id="Path_864" data-name="Path 864" d="M951.927,510.675h.009a8.015,8.015,0,0,1,5.74,2.419,8.113,8.113,0,1,1-5.749-2.419Zm-.033,15.105a6.91,6.91,0,0,0,4.843-11.755,6.675,6.675,0,0,0-4.8-2.027l-.009-.663V512a6.892,6.892,0,0,0-.033,13.782Z" fill="#85b6d7"/>
                  </g>
                  <g id="Group_1026" data-name="Group 1026">
                    <path id="Path_865" data-name="Path 865" d="M941.112,510.646h0a8.221,8.221,0,1,1-8.152,8.2A8.189,8.189,0,0,1,941.115,510.646Zm-.033,15.108a6.891,6.891,0,0,0,.036-13.781l0-.667-.012.664a6.893,6.893,0,0,0-.021,13.784Z" fill="#85b6d7"/>
                  </g>
                  <g id="Group_1027" data-name="Group 1027">
                    <path id="Path_866" data-name="Path 866" d="M951.927,510.884h0l.013-.009a2.36,2.36,0,0,1,1.666.782c1.291,1.289,2.087,4.066,2.081,7.242-.013,4.558-1.652,8-3.793,8s-3.771-3.452-3.766-8.019S949.774,510.875,951.927,510.884Zm-.033,14.682c1.02,0,2.45-2.534,2.472-6.673,0-3.174-.845-5.452-1.693-6.306a1.064,1.064,0,0,0-.737-.379h-.009c-1.023,0-2.457,2.54-2.466,6.672S950.876,525.566,951.894,525.566Z" fill="#85b6d7"/>
                  </g>
                  <g id="Group_1028" data-name="Group 1028">
                    <path id="Path_867" data-name="Path 867" d="M944.453,518.211l14.928.034v1.328l-14.939-.039Z" fill="#85b6d7"/>
                  </g>
                  <g id="Group_1031" data-name="Group 1031">
                    <g id="Group_1029" data-name="Group 1029">
                      <path id="Path_868" data-name="Path 868" d="M945.677,521.747l12.444.02v1.326l-12.446-.029Z" fill="#85b6d7"/>
                    </g>
                    <g id="Group_1030" data-name="Group 1030">
                      <path id="Path_869" data-name="Path 869" d="M945.7,514.684l12.443.031v1.328l-12.45-.03Z" fill="#85b6d7"/>
                    </g>
                  </g>
                </g>
              </g>
            </g>
            <g id="Group_1037" data-name="Group 1037">
              <g id="Group_1035" data-name="Group 1035">
                <rect id="Rectangle_419" data-name="Rectangle 419" width="42.471" height="2.585" transform="translate(917.911 473.611)" fill="#e5e7eb"/>
              </g>
              <g id="Group_1036" data-name="Group 1036">
                <path id="Path_870" data-name="Path 870" d="M960.382,466.881v2.585l-60.447-.026-.009-2.586Z" fill="#e5e7eb"/>
              </g>
            </g>
          </g>
        </g>
      </g>
      <g id="Group_1042" data-name="Group 1042">
        <rect id="Rectangle_421" data-name="Rectangle 421" width="147.876" height="91.55" transform="translate(987.433 439.912)" fill="#bd9c73"/>
        <rect id="Rectangle_422" data-name="Rectangle 422" width="137.105" height="85.566" transform="translate(992.82 440.513)" fill="#846440"/>
        <path id="Path_871" data-name="Path 871" d="M1047.014,436.323v43.683a5.382,5.382,0,0,0,5.385,5.382h17.947a5.382,5.382,0,0,0,5.384-5.382V436.323Z" fill="#6e4e2b"/>
        <rect id="Rectangle_423" data-name="Rectangle 423" width="17.947" height="43.684" transform="translate(1052.399 436.323)" fill="#5a3a1b"/>
        <g id="Group_1041" data-name="Group 1041">
          <path id="Path_872" data-name="Path 872" d="M1066.387,471.327a5.087,5.087,0,1,1-5.093-5.077A5.092,5.092,0,0,1,1066.387,471.327Z" fill="#9e7d58"/>
          <path id="Path_873" data-name="Path 873" d="M1056.213,471.327a2.268,2.268,0,0,0,2.841,2.84,4.114,4.114,0,1,0-2.841-2.84Z" fill="#bd9c73"/>
        </g>
      </g>
    </g>
    <g id="Group_1080" data-name="Group 1080">
      <g id="Group_1049" data-name="Group 1049">
        <g id="Group_1044" data-name="Group 1044">
          <path id="Path_874" data-name="Path 874" d="M1090.571,577.6c-.086-2.286-.2-5.335-.288-7.621.059,1.573.223,5.818.29,7.446C1090.57,577.484,1090.569,577.543,1090.571,577.6Z" fill="#f4c947"/>
        </g>
        <g id="Group_1045" data-name="Group 1045">
          <path id="Path_875" data-name="Path 875" d="M1153.553,566.772q.159,4.221.319,8.439c.082,2.149-2.737,4.418-8.569,6.371-12.594,4.219-34.468,5.371-48.858,2.574-7.727-1.5-11.725-3.837-11.819-6.332l-.32-8.437c.094,2.493,4.091,4.829,11.819,6.331,14.39,2.8,36.264,1.645,48.859-2.574C1150.816,571.191,1153.634,568.923,1153.553,566.772Z" fill="#f0ad3d"/>
        </g>
        <g id="Group_1046" data-name="Group 1046">
          <path id="Path_876" data-name="Path 876" d="M1141.733,560.44c14.39,2.8,15.846,8.485,3.251,12.7s-34.469,5.372-48.859,2.574-15.844-8.484-3.249-12.7S1127.343,557.643,1141.733,560.44Zm-41.693,13.967c11.919,2.317,30.038,1.362,40.47-2.132s9.227-8.206-2.691-10.524-30.036-1.36-40.469,2.134-9.227,8.205,2.69,10.522" fill="#f4c947"/>
        </g>
        <path id="Path_877" data-name="Path 877" d="M1137.819,561.751c11.918,2.318,13.124,7.028,2.691,10.524s-28.552,4.449-40.47,2.132-13.122-7.028-2.69-10.522S1125.9,559.435,1137.819,561.751Z" fill="#f0ad3d"/>
        <path id="Path_878" data-name="Path 878" d="M1097.35,564.935c10.433-3.495,28.551-4.45,40.469-2.133,5.931,1.152,9.207,2.9,9.718,4.793.595-2.287-2.7-4.479-9.718-5.844-11.918-2.316-30.036-1.361-40.469,2.134-5.241,1.756-7.543,3.818-7.026,5.729C1090.74,568.016,1093.057,566.373,1097.35,564.935Z" fill="#e99e3b"/>
        <path id="Path_879" data-name="Path 879" d="M1087.615,573.062v8.268a31.1,31.1,0,0,0,8.83,2.826,88.686,88.686,0,0,0,12.87,1.413v-8.424a89.21,89.21,0,0,1-13.19-1.427A32.361,32.361,0,0,1,1087.615,573.062Z" fill="#e99e3b"/>
        <g id="Group_1047" data-name="Group 1047">
          <path id="Path_880" data-name="Path 880" d="M1132.931,564.381l-3.159,1.059c1.26.349,1.855.769,1.778,1.259s-.808,1-2.206,1.521l-3.252-.632q1.172-.447,1.023-.871c-.1-.286-.629-.52-1.586-.707a13.359,13.359,0,0,0-3.3-.2,11.967,11.967,0,0,0-3.13.56,3.374,3.374,0,0,0-.759.339c-.169.114-.253.231-.253.35-.015.244.572.557,1.768.94.714.228,1.225.412,1.543.552,1.107.483,1.593.968,1.447,1.459s-.9.963-2.261,1.42a26.327,26.327,0,0,1-5.933,1.177,26.88,26.88,0,0,1-6.077-.067l-3.793,1.272-3.032-.59L1105.4,572q-2.4-.639-2.3-1.52t2.705-1.762l3.131.609q-1.661.61-1.526,1.108t2.08.876a15.232,15.232,0,0,0,3.786.233,13.712,13.712,0,0,0,3.593-.643,6.316,6.316,0,0,0,.911-.371,1.257,1.257,0,0,0,.453-.345q.344-.535-1.624-1.194l-.48-.163q-2.4-.837-2.517-1.572t2.046-1.463a22.927,22.927,0,0,1,5.327-1.044,27.93,27.93,0,0,1,5.792.09l3.127-1.047Z" fill="#e99e3b"/>
        </g>
        <g id="Group_1048" data-name="Group 1048">
          <path id="Path_881" data-name="Path 881" d="M1132.931,563.2l-3.159,1.058c1.26.35,1.855.77,1.778,1.261s-.808,1-2.206,1.52l-3.252-.632q1.172-.447,1.023-.871c-.1-.286-.629-.521-1.586-.707a13.4,13.4,0,0,0-3.3-.2,12.006,12.006,0,0,0-3.13.561,3.374,3.374,0,0,0-.759.339c-.169.114-.253.231-.253.35-.015.245.572.557,1.768.941.714.227,1.225.411,1.543.55,1.107.484,1.593.97,1.447,1.46s-.9.963-2.261,1.42a26.327,26.327,0,0,1-5.933,1.177,26.88,26.88,0,0,1-6.077-.067l-3.793,1.272-3.032-.589,3.648-1.222q-2.4-.639-2.3-1.52t2.705-1.762l3.131.609q-1.661.612-1.526,1.108t2.08.876a15.235,15.235,0,0,0,3.786.233,13.712,13.712,0,0,0,3.593-.643,6.316,6.316,0,0,0,.911-.371,1.258,1.258,0,0,0,.453-.345q.344-.535-1.624-1.195c-.216-.071-.376-.126-.48-.162q-2.4-.837-2.517-1.572t2.046-1.463a22.929,22.929,0,0,1,5.327-1.043,27.863,27.863,0,0,1,5.792.089l3.127-1.047Z" fill="#f4c947"/>
        </g>
      </g>
      <g id="Group_1055" data-name="Group 1055">
        <g id="Group_1050" data-name="Group 1050">
          <path id="Path_882" data-name="Path 882" d="M1090.314,566.444c-.087-2.286-.2-5.335-.289-7.621.059,1.573.223,5.818.29,7.446A1.745,1.745,0,0,0,1090.314,566.444Z" fill="#f4c947"/>
        </g>
        <g id="Group_1051" data-name="Group 1051">
          <path id="Path_883" data-name="Path 883" d="M1153.3,555.616q.159,4.219.318,8.437c.082,2.151-2.737,4.419-8.568,6.372-12.595,4.219-34.469,5.371-48.859,2.574-7.727-1.5-11.725-3.838-11.819-6.331l-.32-8.438c.095,2.493,4.092,4.829,11.82,6.331,14.389,2.8,36.264,1.645,48.858-2.574C1150.558,560.034,1153.377,557.766,1153.3,555.616Z" fill="#f0ad3d"/>
        </g>
        <g id="Group_1052" data-name="Group 1052">
          <path id="Path_884" data-name="Path 884" d="M1141.475,549.283c14.39,2.8,15.847,8.485,3.251,12.7s-34.469,5.372-48.858,2.574-15.844-8.484-3.25-12.7S1127.085,546.486,1141.475,549.283Zm-41.693,13.967c11.919,2.317,30.038,1.361,40.47-2.133s9.228-8.205-2.691-10.523-30.036-1.36-40.469,2.134-9.227,8.2,2.69,10.522" fill="#f4c947"/>
        </g>
        <path id="Path_885" data-name="Path 885" d="M1137.561,550.594c11.919,2.318,13.124,7.028,2.691,10.523s-28.552,4.45-40.47,2.133-13.122-7.028-2.69-10.522S1125.644,548.278,1137.561,550.594Z" fill="#f0ad3d"/>
        <path id="Path_886" data-name="Path 886" d="M1097.092,553.778c10.433-3.495,28.552-4.449,40.469-2.133,5.931,1.152,9.207,2.9,9.718,4.793.6-2.286-2.7-4.479-9.718-5.844-11.917-2.316-30.036-1.361-40.469,2.134-5.24,1.756-7.542,3.818-7.026,5.729C1090.482,556.859,1092.8,555.216,1097.092,553.778Z" fill="#e99e3b"/>
        <path id="Path_887" data-name="Path 887" d="M1087.358,561.905v8.268a31.081,31.081,0,0,0,8.829,2.826,88.684,88.684,0,0,0,12.87,1.413v-8.424a89.186,89.186,0,0,1-13.189-1.427A32.334,32.334,0,0,1,1087.358,561.905Z" fill="#e99e3b"/>
        <g id="Group_1053" data-name="Group 1053">
          <path id="Path_888" data-name="Path 888" d="M1132.673,553.224l-3.159,1.059c1.26.349,1.855.769,1.779,1.259s-.809,1-2.207,1.521l-3.252-.632q1.173-.447,1.023-.871c-.1-.286-.628-.52-1.586-.707a13.351,13.351,0,0,0-3.3-.2,11.974,11.974,0,0,0-3.13.56,3.393,3.393,0,0,0-.759.339c-.169.114-.253.231-.253.35-.014.245.573.557,1.768.94.714.228,1.225.412,1.543.551,1.107.484,1.594.969,1.448,1.46s-.9.963-2.262,1.42a26.313,26.313,0,0,1-5.933,1.177,26.871,26.871,0,0,1-6.076-.067l-3.794,1.272-3.032-.59,3.648-1.221q-2.4-.639-2.3-1.52t2.7-1.762l3.131.609q-1.662.61-1.527,1.108t2.08.876a15.239,15.239,0,0,0,3.787.233,13.715,13.715,0,0,0,3.592-.643,6.315,6.315,0,0,0,.911-.371,1.276,1.276,0,0,0,.454-.345q.342-.535-1.625-1.194c-.216-.072-.375-.127-.479-.163q-2.4-.837-2.518-1.573t2.046-1.462a22.941,22.941,0,0,1,5.327-1.043,27.861,27.861,0,0,1,5.792.089l3.127-1.047Z" fill="#e99e3b"/>
        </g>
        <g id="Group_1054" data-name="Group 1054">
          <path id="Path_889" data-name="Path 889" d="M1132.673,552.039l-3.159,1.059c1.26.349,1.855.769,1.779,1.259s-.809,1-2.207,1.521l-3.252-.632q1.173-.447,1.023-.871t-1.586-.707a13.353,13.353,0,0,0-3.3-.2,12.013,12.013,0,0,0-3.13.561,3.393,3.393,0,0,0-.759.339q-.253.171-.253.351c-.014.244.573.556,1.768.94.714.227,1.225.411,1.543.55,1.107.484,1.594.97,1.448,1.46s-.9.963-2.262,1.42a26.313,26.313,0,0,1-5.933,1.177,26.818,26.818,0,0,1-6.076-.067l-3.794,1.272-3.032-.589,3.648-1.222q-2.4-.639-2.3-1.52t2.7-1.762l3.131.609q-1.662.61-1.527,1.108t2.08.876a15.236,15.236,0,0,0,3.787.233,13.673,13.673,0,0,0,3.592-.643,6.2,6.2,0,0,0,.911-.371,1.253,1.253,0,0,0,.454-.345q.342-.535-1.625-1.2c-.216-.072-.375-.126-.479-.162q-2.4-.837-2.518-1.572t2.046-1.462a22.889,22.889,0,0,1,5.327-1.044,27.861,27.861,0,0,1,5.792.089l3.127-1.047Z" fill="#f4c947"/>
        </g>
      </g>
      <g id="Group_1061" data-name="Group 1061">
        <g id="Group_1056" data-name="Group 1056">
          <path id="Path_890" data-name="Path 890" d="M1091.536,554.609c-.086-2.286-.2-5.335-.288-7.62.059,1.572.223,5.818.29,7.446C1091.535,554.493,1091.534,554.551,1091.536,554.609Z" fill="#f4c947"/>
        </g>
        <g id="Group_1057" data-name="Group 1057">
          <path id="Path_891" data-name="Path 891" d="M1154.519,543.781q.159,4.219.318,8.438c.082,2.15-2.737,4.418-8.568,6.372-12.6,4.219-34.469,5.371-48.859,2.574-7.727-1.5-11.725-3.838-11.819-6.332l-.32-8.438c.095,2.493,4.092,4.829,11.819,6.332,14.39,2.8,36.265,1.644,48.859-2.575C1151.781,548.2,1154.6,545.931,1154.519,543.781Z" fill="#f0ad3d"/>
        </g>
        <g id="Group_1058" data-name="Group 1058">
          <path id="Path_892" data-name="Path 892" d="M1142.7,537.448c14.39,2.8,15.847,8.485,3.251,12.7s-34.469,5.372-48.859,2.575-15.844-8.484-3.249-12.7S1128.308,534.652,1142.7,537.448Zm-41.693,13.967c11.919,2.317,30.038,1.362,40.47-2.132s9.227-8.206-2.691-10.523-30.036-1.361-40.469,2.133-9.227,8.206,2.69,10.522" fill="#f4c947"/>
        </g>
        <path id="Path_893" data-name="Path 893" d="M1138.784,538.76c11.918,2.317,13.124,7.027,2.691,10.523s-28.552,4.449-40.47,2.132-13.122-7.027-2.69-10.522S1126.867,536.444,1138.784,538.76Z" fill="#f0ad3d"/>
        <path id="Path_894" data-name="Path 894" d="M1098.315,541.943c10.433-3.495,28.552-4.449,40.469-2.133,5.931,1.153,9.207,2.9,9.718,4.794.6-2.287-2.7-4.48-9.718-5.844-11.917-2.316-30.036-1.362-40.469,2.133-5.24,1.756-7.542,3.818-7.026,5.73C1091.7,545.025,1094.023,543.381,1098.315,541.943Z" fill="#e99e3b"/>
        <path id="Path_895" data-name="Path 895" d="M1088.58,550.071v8.267a31.1,31.1,0,0,0,8.83,2.827,88.7,88.7,0,0,0,12.87,1.412v-8.424a89.362,89.362,0,0,1-13.19-1.426A32.359,32.359,0,0,1,1088.58,550.071Z" fill="#e99e3b"/>
        <g id="Group_1059" data-name="Group 1059">
          <path id="Path_896" data-name="Path 896" d="M1133.9,541.39l-3.159,1.058c1.26.349,1.855.77,1.778,1.26s-.808,1-2.206,1.521l-3.252-.633q1.173-.447,1.023-.871c-.1-.286-.628-.52-1.586-.707a13.358,13.358,0,0,0-3.3-.2,12.016,12.016,0,0,0-3.13.56,3.441,3.441,0,0,0-.759.339c-.169.115-.253.232-.253.35-.014.245.573.558,1.768.941.714.228,1.225.411,1.543.551,1.107.483,1.593.969,1.448,1.459s-.9.963-2.262,1.421a26.382,26.382,0,0,1-5.933,1.176,26.888,26.888,0,0,1-6.077-.066l-3.793,1.271-3.031-.589,3.647-1.222c-1.6-.426-2.37-.933-2.3-1.52s.964-1.172,2.7-1.761l3.131.609q-1.662.611-1.527,1.108t2.08.876a15.229,15.229,0,0,0,3.786.232,13.67,13.67,0,0,0,3.593-.643,6.088,6.088,0,0,0,.911-.371,1.269,1.269,0,0,0,.453-.344q.344-.535-1.624-1.2c-.216-.072-.375-.127-.479-.162q-2.4-.839-2.518-1.573t2.046-1.462a22.939,22.939,0,0,1,5.327-1.044,27.934,27.934,0,0,1,5.792.089l3.127-1.047Z" fill="#e99e3b"/>
        </g>
        <g id="Group_1060" data-name="Group 1060">
          <path id="Path_897" data-name="Path 897" d="M1133.9,540.205l-3.159,1.058c1.26.349,1.855.77,1.778,1.26s-.808,1-2.206,1.521l-3.252-.632q1.173-.447,1.023-.872t-1.586-.706a13.309,13.309,0,0,0-3.3-.2,11.973,11.973,0,0,0-3.13.56,3.4,3.4,0,0,0-.759.339c-.169.115-.253.232-.253.351-.014.244.573.557,1.768.94.714.228,1.225.411,1.543.551,1.107.483,1.593.969,1.448,1.46s-.9.962-2.262,1.42a26.386,26.386,0,0,1-5.933,1.177,26.945,26.945,0,0,1-6.077-.067l-3.793,1.271-3.031-.588,3.647-1.223c-1.6-.426-2.37-.933-2.3-1.519s.964-1.173,2.7-1.762l3.131.608q-1.662.612-1.527,1.108t2.08.876a15.135,15.135,0,0,0,3.786.233,13.67,13.67,0,0,0,3.593-.643,6.194,6.194,0,0,0,.911-.371,1.247,1.247,0,0,0,.453-.344q.344-.535-1.624-1.2c-.216-.072-.375-.127-.479-.162q-2.4-.839-2.518-1.573t2.046-1.462a22.939,22.939,0,0,1,5.327-1.044,27.934,27.934,0,0,1,5.792.089l3.127-1.047Z" fill="#f4c947"/>
        </g>
      </g>
      <g id="Group_1067" data-name="Group 1067">
        <g id="Group_1062" data-name="Group 1062">
          <path id="Path_898" data-name="Path 898" d="M1091.114,544.678c-.087-2.286-.2-5.334-.289-7.62.059,1.572.224,5.818.29,7.446C1091.112,544.562,1091.112,544.62,1091.114,544.678Z" fill="#f4c947"/>
        </g>
        <g id="Group_1063" data-name="Group 1063">
          <path id="Path_899" data-name="Path 899" d="M1154.1,533.85q.159,4.22.318,8.438c.082,2.15-2.737,4.419-8.568,6.372-12.595,4.219-34.469,5.371-48.859,2.574-7.727-1.5-11.725-3.838-11.819-6.332l-.319-8.438c.094,2.494,4.091,4.829,11.819,6.332,14.389,2.8,36.264,1.645,48.859-2.575C1151.358,538.269,1154.177,536,1154.1,533.85Z" fill="#f0ad3d"/>
        </g>
        <g id="Group_1064" data-name="Group 1064">
          <path id="Path_900" data-name="Path 900" d="M1142.275,527.518c14.39,2.8,15.847,8.484,3.252,12.7s-34.47,5.372-48.859,2.575-15.844-8.484-3.25-12.7S1127.885,524.721,1142.275,527.518Zm-41.693,13.967c11.919,2.316,30.038,1.361,40.47-2.133s9.228-8.206-2.691-10.523-30.036-1.361-40.469,2.133-9.227,8.206,2.69,10.523" fill="#f4c947"/>
        </g>
        <path id="Path_901" data-name="Path 901" d="M1138.361,528.829c11.919,2.317,13.124,7.028,2.691,10.523s-28.551,4.449-40.47,2.133-13.122-7.028-2.69-10.523S1126.444,526.513,1138.361,528.829Z" fill="#f0ad3d"/>
        <path id="Path_902" data-name="Path 902" d="M1097.892,532.013c10.433-3.495,28.552-4.45,40.469-2.134,5.931,1.153,9.207,2.9,9.718,4.794.6-2.287-2.7-4.48-9.718-5.844-11.917-2.316-30.036-1.362-40.469,2.133-5.24,1.756-7.542,3.818-7.026,5.73C1091.282,535.094,1093.6,533.451,1097.892,532.013Z" fill="#e99e3b"/>
        <path id="Path_903" data-name="Path 903" d="M1088.158,540.14v8.267a31.045,31.045,0,0,0,8.829,2.827,88.819,88.819,0,0,0,12.87,1.413v-8.425a89.334,89.334,0,0,1-13.189-1.426A32.337,32.337,0,0,1,1088.158,540.14Z" fill="#e99e3b"/>
        <g id="Group_1065" data-name="Group 1065">
          <path id="Path_904" data-name="Path 904" d="M1133.473,531.459l-3.159,1.058c1.26.35,1.855.77,1.779,1.26s-.809,1-2.206,1.521l-3.253-.632q1.173-.447,1.023-.872c-.1-.286-.628-.52-1.586-.706a13.354,13.354,0,0,0-3.3-.2,12,12,0,0,0-3.129.56,3.376,3.376,0,0,0-.76.34c-.169.114-.253.231-.253.35-.014.244.573.557,1.768.94.714.228,1.225.411,1.543.551,1.107.483,1.594.969,1.448,1.46s-.9.962-2.262,1.42a26.422,26.422,0,0,1-5.933,1.177,26.932,26.932,0,0,1-6.076-.067l-3.794,1.271-3.031-.589,3.647-1.221q-2.4-.641-2.3-1.521t2.7-1.761l3.131.609c-1.108.407-1.615.777-1.527,1.108s.781.623,2.08.876a15.2,15.2,0,0,0,3.787.232,13.632,13.632,0,0,0,3.592-.643,6.21,6.21,0,0,0,.911-.37,1.275,1.275,0,0,0,.454-.345q.342-.535-1.625-1.2c-.216-.072-.375-.126-.479-.162q-2.4-.837-2.518-1.573t2.046-1.462a22.937,22.937,0,0,1,5.327-1.044,27.928,27.928,0,0,1,5.792.089l3.127-1.047Z" fill="#e99e3b"/>
        </g>
        <g id="Group_1066" data-name="Group 1066">
          <path id="Path_905" data-name="Path 905" d="M1133.473,530.274l-3.159,1.058c1.26.349,1.855.77,1.779,1.26s-.809,1-2.206,1.521l-3.253-.632q1.173-.447,1.023-.871t-1.586-.707a13.3,13.3,0,0,0-3.3-.2,12.039,12.039,0,0,0-3.129.56,3.425,3.425,0,0,0-.76.339c-.169.115-.253.232-.253.351-.014.244.573.557,1.768.941.714.227,1.225.41,1.543.55,1.107.483,1.594.969,1.448,1.46s-.9.963-2.262,1.42a26.314,26.314,0,0,1-5.933,1.177,26.932,26.932,0,0,1-6.076-.067l-3.794,1.271-3.031-.588,3.647-1.223q-2.4-.639-2.3-1.519t2.7-1.762l3.131.609c-1.108.407-1.615.777-1.527,1.107s.781.624,2.08.877a15.2,15.2,0,0,0,3.787.232,13.673,13.673,0,0,0,3.592-.642,6.431,6.431,0,0,0,.911-.371,1.264,1.264,0,0,0,.454-.345q.342-.535-1.625-1.2c-.216-.072-.375-.127-.479-.162q-2.4-.838-2.518-1.572t2.046-1.463a22.937,22.937,0,0,1,5.327-1.044,28,28,0,0,1,5.792.089l3.127-1.047Z" fill="#f4c947"/>
        </g>
      </g>
      <g id="Group_1073" data-name="Group 1073">
        <g id="Group_1068" data-name="Group 1068">
          <path id="Path_906" data-name="Path 906" d="M1086.546,533.567c-.086-2.286-.2-5.335-.288-7.621.059,1.573.223,5.818.29,7.446C1086.545,533.451,1086.544,533.509,1086.546,533.567Z" fill="#f4c947"/>
        </g>
        <g id="Group_1069" data-name="Group 1069">
          <path id="Path_907" data-name="Path 907" d="M1149.528,522.738q.159,4.221.319,8.439c.082,2.15-2.737,4.418-8.568,6.371-12.6,4.219-34.469,5.372-48.859,2.574-7.727-1.5-11.725-3.837-11.819-6.331l-.32-8.438c.094,2.493,4.091,4.829,11.819,6.331,14.39,2.8,36.264,1.645,48.859-2.574C1146.791,527.157,1149.61,524.889,1149.528,522.738Z" fill="#f0ad3d"/>
        </g>
        <g id="Group_1070" data-name="Group 1070">
          <path id="Path_908" data-name="Path 908" d="M1137.708,516.406c14.39,2.8,15.846,8.485,3.251,12.7s-34.469,5.372-48.859,2.574-15.844-8.484-3.249-12.7S1123.318,513.609,1137.708,516.406Zm-41.693,13.967c11.919,2.317,30.038,1.362,40.47-2.132s9.227-8.206-2.691-10.523-30.036-1.361-40.469,2.133-9.227,8.205,2.69,10.522" fill="#f4c947"/>
        </g>
        <path id="Path_909" data-name="Path 909" d="M1133.794,517.718c11.918,2.317,13.124,7.027,2.691,10.523s-28.552,4.449-40.47,2.132-13.122-7.027-2.69-10.522S1121.876,515.4,1133.794,517.718Z" fill="#f0ad3d"/>
        <path id="Path_910" data-name="Path 910" d="M1093.325,520.9c10.433-3.495,28.551-4.45,40.469-2.133,5.931,1.153,9.207,2.9,9.718,4.793.6-2.286-2.7-4.479-9.718-5.843-11.918-2.317-30.036-1.362-40.469,2.133-5.241,1.756-7.542,3.818-7.026,5.729C1086.715,523.982,1089.032,522.339,1093.325,520.9Z" fill="#e99e3b"/>
        <path id="Path_911" data-name="Path 911" d="M1083.59,529.028V537.3a31.07,31.07,0,0,0,8.83,2.826,88.684,88.684,0,0,0,12.87,1.413v-8.424a89.225,89.225,0,0,1-13.19-1.427A32.361,32.361,0,0,1,1083.59,529.028Z" fill="#e99e3b"/>
        <g id="Group_1071" data-name="Group 1071">
          <path id="Path_912" data-name="Path 912" d="M1128.906,520.348l-3.159,1.058c1.26.349,1.855.769,1.778,1.259s-.808,1-2.206,1.521l-3.252-.632q1.172-.447,1.023-.871c-.1-.286-.628-.52-1.586-.707a13.358,13.358,0,0,0-3.3-.2,11.965,11.965,0,0,0-3.13.56,3.393,3.393,0,0,0-.759.339c-.169.114-.253.231-.253.35-.014.245.572.558,1.768.941.714.227,1.225.411,1.543.551,1.107.483,1.593.968,1.448,1.459s-.9.963-2.262,1.42a26.325,26.325,0,0,1-5.933,1.177,26.824,26.824,0,0,1-6.077-.067l-3.793,1.272-3.032-.59,3.648-1.221c-1.6-.426-2.37-.933-2.3-1.52s.965-1.173,2.706-1.762l3.131.609q-1.662.61-1.527,1.108t2.08.876a15.233,15.233,0,0,0,3.786.233,13.712,13.712,0,0,0,3.593-.643,6.31,6.31,0,0,0,.911-.371,1.258,1.258,0,0,0,.453-.345q.344-.535-1.624-1.194c-.216-.072-.375-.127-.48-.163q-2.4-.837-2.517-1.572t2.046-1.463a22.94,22.94,0,0,1,5.327-1.043,27.863,27.863,0,0,1,5.792.089l3.127-1.047Z" fill="#e99e3b"/>
        </g>
        <g id="Group_1072" data-name="Group 1072">
          <path id="Path_913" data-name="Path 913" d="M1128.906,519.162l-3.159,1.059c1.26.349,1.855.77,1.778,1.26s-.808,1-2.206,1.52l-3.252-.632q1.172-.447,1.023-.871c-.1-.286-.628-.52-1.586-.707a13.358,13.358,0,0,0-3.3-.2,11.965,11.965,0,0,0-3.13.56,3.393,3.393,0,0,0-.759.339c-.169.114-.253.231-.253.351-.014.244.572.556,1.768.94.714.228,1.225.411,1.543.551,1.107.483,1.593.969,1.448,1.459s-.9.963-2.262,1.42a26.325,26.325,0,0,1-5.933,1.177,26.888,26.888,0,0,1-6.077-.066l-3.793,1.271-3.032-.589,3.648-1.222c-1.6-.426-2.37-.933-2.3-1.519s.965-1.173,2.706-1.762l3.131.608q-1.662.612-1.527,1.108t2.08.876a15.184,15.184,0,0,0,3.786.233,13.67,13.67,0,0,0,3.593-.643,6.2,6.2,0,0,0,.911-.371,1.247,1.247,0,0,0,.453-.345q.344-.535-1.624-1.2c-.216-.071-.375-.126-.48-.162q-2.4-.837-2.517-1.572t2.046-1.462a22.888,22.888,0,0,1,5.327-1.044,27.868,27.868,0,0,1,5.792.089l3.127-1.047Z" fill="#f4c947"/>
        </g>
      </g>
      <g id="Group_1079" data-name="Group 1079">
        <g id="Group_1074" data-name="Group 1074">
          <path id="Path_914" data-name="Path 914" d="M1092.079,521.687c-.087-2.286-.2-5.335-.289-7.621.059,1.573.224,5.818.29,7.446C1092.077,521.571,1092.077,521.629,1092.079,521.687Z" fill="#f4c947"/>
        </g>
        <g id="Group_1075" data-name="Group 1075">
          <path id="Path_915" data-name="Path 915" d="M1155.061,510.859q.159,4.219.319,8.437c.081,2.15-2.737,4.419-8.569,6.373-12.6,4.218-34.469,5.37-48.859,2.574-7.727-1.5-11.725-3.838-11.819-6.332l-.319-8.438c.094,2.493,4.091,4.829,11.819,6.331,14.389,2.8,36.264,1.645,48.859-2.574C1152.323,515.277,1155.142,513.009,1155.061,510.859Z" fill="#f0ad3d"/>
        </g>
        <g id="Group_1076" data-name="Group 1076">
          <path id="Path_916" data-name="Path 916" d="M1143.241,504.526c14.389,2.8,15.846,8.485,3.251,12.7s-34.47,5.372-48.859,2.574-15.844-8.484-3.25-12.7S1128.85,501.729,1143.241,504.526Zm-41.694,13.967c11.919,2.317,30.038,1.362,40.471-2.132s9.227-8.206-2.692-10.524-30.035-1.36-40.468,2.134-9.228,8.205,2.689,10.522" fill="#f4c947"/>
        </g>
        <path id="Path_917" data-name="Path 917" d="M1139.326,505.837c11.919,2.318,13.124,7.028,2.692,10.524s-28.552,4.449-40.471,2.132-13.121-7.027-2.689-10.522S1127.409,503.521,1139.326,505.837Z" fill="#f0ad3d"/>
        <path id="Path_918" data-name="Path 918" d="M1098.858,509.021c10.433-3.495,28.551-4.45,40.468-2.133,5.932,1.152,9.207,2.9,9.718,4.793.6-2.287-2.7-4.479-9.718-5.844-11.917-2.316-30.035-1.361-40.468,2.134-5.241,1.756-7.543,3.818-7.027,5.729C1092.247,512.1,1094.565,510.459,1098.858,509.021Z" fill="#e99e3b"/>
        <path id="Path_919" data-name="Path 919" d="M1089.123,517.148v8.268a31.077,31.077,0,0,0,8.829,2.827,88.835,88.835,0,0,0,12.87,1.412v-8.424a89.2,89.2,0,0,1-13.189-1.427A32.346,32.346,0,0,1,1089.123,517.148Z" fill="#e99e3b"/>
        <g id="Group_1077" data-name="Group 1077">
          <path id="Path_920" data-name="Path 920" d="M1134.438,508.467l-3.158,1.059c1.259.349,1.854.769,1.778,1.259s-.808,1-2.206,1.521l-3.253-.632q1.173-.447,1.024-.871c-.1-.286-.629-.52-1.587-.707a13.354,13.354,0,0,0-3.3-.2,11.959,11.959,0,0,0-3.129.56,3.383,3.383,0,0,0-.76.339c-.169.114-.253.231-.253.35-.014.245.573.558,1.768.941.714.228,1.226.411,1.543.551,1.108.483,1.594.968,1.448,1.459s-.9.963-2.262,1.42a26.3,26.3,0,0,1-5.933,1.177,26.873,26.873,0,0,1-6.076-.067l-3.794,1.272-3.031-.589,3.647-1.222q-2.4-.639-2.3-1.52t2.7-1.762l3.131.609q-1.662.61-1.526,1.108t2.079.876a15.2,15.2,0,0,0,3.787.233,13.661,13.661,0,0,0,3.592-.643,6.284,6.284,0,0,0,.912-.371,1.269,1.269,0,0,0,.453-.345q.342-.535-1.624-1.194c-.217-.072-.376-.127-.48-.163q-2.4-.837-2.518-1.572t2.046-1.463a22.95,22.95,0,0,1,5.327-1.044,27.94,27.94,0,0,1,5.793.09l3.127-1.047Z" fill="#e99e3b"/>
        </g>
        <g id="Group_1078" data-name="Group 1078">
          <path id="Path_921" data-name="Path 921" d="M1134.438,507.283l-3.158,1.058c1.259.349,1.854.769,1.778,1.26s-.808,1-2.206,1.52l-3.253-.631q1.173-.448,1.024-.872t-1.587-.707a13.354,13.354,0,0,0-3.3-.2,11.959,11.959,0,0,0-3.129.56,3.385,3.385,0,0,0-.76.339c-.169.115-.253.231-.253.351-.014.244.573.556,1.768.94.714.227,1.226.411,1.543.55,1.108.484,1.594.97,1.448,1.46s-.9.963-2.262,1.42a26.3,26.3,0,0,1-5.933,1.177,26.873,26.873,0,0,1-6.076-.067l-3.794,1.272-3.031-.589,3.647-1.222q-2.4-.639-2.3-1.52t2.7-1.761l3.131.608q-1.662.612-1.526,1.108t2.079.876a15.2,15.2,0,0,0,3.787.233,13.661,13.661,0,0,0,3.592-.643,6.284,6.284,0,0,0,.912-.371,1.258,1.258,0,0,0,.453-.345q.342-.535-1.624-1.195c-.217-.071-.376-.126-.48-.162q-2.4-.837-2.518-1.572t2.046-1.463a22.952,22.952,0,0,1,5.327-1.043,27.869,27.869,0,0,1,5.793.089l3.127-1.047Z" fill="#f4c947"/>
        </g>
      </g>
    </g>
    <g id="Group_1099" data-name="Group 1099">
      <g id="Group_1086" data-name="Group 1086">
        <g id="Group_1081" data-name="Group 1081">
          <path id="Path_922" data-name="Path 922" d="M1062.076,583.812c-.087-2.286-.2-5.335-.289-7.621.059,1.573.224,5.818.29,7.446C1062.074,583.7,1062.074,583.754,1062.076,583.812Z" fill="#f4c947"/>
        </g>
        <g id="Group_1082" data-name="Group 1082">
          <path id="Path_923" data-name="Path 923" d="M1125.058,572.984q.159,4.219.319,8.438c.082,2.15-2.737,4.418-8.569,6.372-12.595,4.218-34.469,5.371-48.859,2.574-7.727-1.5-11.724-3.838-11.819-6.332l-.319-8.438c.094,2.494,4.091,4.83,11.819,6.331,14.39,2.8,36.264,1.646,48.859-2.574C1122.32,577.4,1125.139,575.134,1125.058,572.984Z" fill="#f0ad3d"/>
        </g>
        <g id="Group_1083" data-name="Group 1083">
          <path id="Path_924" data-name="Path 924" d="M1113.238,566.651c14.389,2.8,15.846,8.485,3.251,12.7s-34.469,5.372-48.859,2.574-15.844-8.483-3.249-12.7S1098.847,563.855,1113.238,566.651Zm-41.694,13.968c11.919,2.316,30.038,1.361,40.471-2.133s9.227-8.206-2.692-10.523-30.035-1.361-40.468,2.133-9.228,8.205,2.689,10.523" fill="#f4c947"/>
        </g>
        <path id="Path_925" data-name="Path 925" d="M1109.323,567.963c11.919,2.317,13.124,7.028,2.692,10.523s-28.552,4.449-40.471,2.133-13.121-7.028-2.689-10.523S1097.406,565.647,1109.323,567.963Z" fill="#f0ad3d"/>
        <path id="Path_926" data-name="Path 926" d="M1068.855,571.146c10.433-3.495,28.551-4.449,40.468-2.133,5.932,1.153,9.207,2.9,9.718,4.793.6-2.286-2.7-4.479-9.718-5.843-11.917-2.316-30.035-1.362-40.468,2.133-5.241,1.756-7.543,3.818-7.027,5.73C1062.244,574.228,1064.562,572.584,1068.855,571.146Z" fill="#e99e3b"/>
        <path id="Path_927" data-name="Path 927" d="M1059.12,579.274v8.267a31.078,31.078,0,0,0,8.829,2.827,88.7,88.7,0,0,0,12.87,1.412v-8.424a89.2,89.2,0,0,1-13.189-1.427A32.313,32.313,0,0,1,1059.12,579.274Z" fill="#e99e3b"/>
        <g id="Group_1084" data-name="Group 1084">
          <path id="Path_928" data-name="Path 928" d="M1104.436,570.593l-3.159,1.058q1.89.523,1.778,1.26c-.07.49-.808,1-2.206,1.52l-3.252-.631q1.172-.449,1.023-.872c-.1-.286-.629-.52-1.587-.706a13.3,13.3,0,0,0-3.3-.2,12.01,12.01,0,0,0-3.129.56,3.4,3.4,0,0,0-.759.339c-.17.115-.254.232-.254.351-.014.244.573.557,1.768.94.714.228,1.226.411,1.543.551,1.108.483,1.594.969,1.448,1.459s-.9.964-2.262,1.421a26.362,26.362,0,0,1-5.933,1.176,26.879,26.879,0,0,1-6.076-.066l-3.793,1.271-3.032-.589,3.647-1.222q-2.4-.639-2.3-1.52t2.705-1.761l3.131.609c-1.108.407-1.615.777-1.526,1.107s.78.624,2.08.876a15.185,15.185,0,0,0,3.786.233,13.655,13.655,0,0,0,3.592-.643,6.178,6.178,0,0,0,.912-.371,1.27,1.27,0,0,0,.453-.344q.342-.537-1.624-1.2c-.217-.072-.376-.127-.48-.163q-2.4-.837-2.518-1.572t2.046-1.462a22.9,22.9,0,0,1,5.327-1.044,27.871,27.871,0,0,1,5.793.089l3.127-1.047Z" fill="#e99e3b"/>
        </g>
        <g id="Group_1085" data-name="Group 1085">
          <path id="Path_929" data-name="Path 929" d="M1104.436,569.408l-3.159,1.058q1.89.523,1.778,1.26c-.07.49-.808,1-2.206,1.521l-3.252-.632q1.172-.449,1.023-.872c-.1-.286-.629-.52-1.587-.706a13.3,13.3,0,0,0-3.3-.2,12.01,12.01,0,0,0-3.129.56,3.4,3.4,0,0,0-.759.339c-.17.115-.254.231-.254.351-.014.244.573.557,1.768.94.714.228,1.226.411,1.543.551,1.108.483,1.594.969,1.448,1.46s-.9.962-2.262,1.419a26.248,26.248,0,0,1-5.933,1.177,26.879,26.879,0,0,1-6.076-.066l-3.793,1.271-3.032-.589,3.647-1.222q-2.4-.639-2.3-1.519t2.705-1.762l3.131.608c-1.108.408-1.615.778-1.526,1.108s.78.624,2.08.876a15.185,15.185,0,0,0,3.786.233,13.655,13.655,0,0,0,3.592-.643,6.178,6.178,0,0,0,.912-.371,1.26,1.26,0,0,0,.453-.344q.342-.537-1.624-1.2c-.217-.072-.376-.127-.48-.162q-2.4-.839-2.518-1.573t2.046-1.462a22.9,22.9,0,0,1,5.327-1.044,27.943,27.943,0,0,1,5.793.089l3.127-1.047Z" fill="#f4c947"/>
        </g>
      </g>
      <g id="Group_1092" data-name="Group 1092">
        <g id="Group_1087" data-name="Group 1087">
          <path id="Path_930" data-name="Path 930" d="M1065.812,574.652c-.087-2.286-.2-5.335-.289-7.621.059,1.573.224,5.818.29,7.446C1065.81,574.536,1065.81,574.594,1065.812,574.652Z" fill="#f4c947"/>
        </g>
        <g id="Group_1088" data-name="Group 1088">
          <path id="Path_931" data-name="Path 931" d="M1128.794,563.824q.159,4.22.319,8.438c.082,2.15-2.737,4.418-8.569,6.371-12.595,4.219-34.469,5.371-48.859,2.574-7.727-1.5-11.724-3.837-11.819-6.331l-.319-8.438c.094,2.493,4.091,4.829,11.819,6.331,14.389,2.8,36.264,1.645,48.859-2.574C1126.056,568.242,1128.875,565.974,1128.794,563.824Z" fill="#f0ad3d"/>
        </g>
        <g id="Group_1089" data-name="Group 1089">
          <path id="Path_932" data-name="Path 932" d="M1116.974,557.491c14.389,2.8,15.846,8.485,3.251,12.7s-34.47,5.372-48.859,2.574-15.844-8.484-3.249-12.7S1102.583,554.694,1116.974,557.491Zm-41.694,13.967c11.919,2.317,30.038,1.362,40.471-2.132s9.227-8.206-2.692-10.524-30.035-1.36-40.468,2.134-9.227,8.205,2.689,10.522" fill="#f4c947"/>
        </g>
        <path id="Path_933" data-name="Path 933" d="M1113.059,558.8c11.919,2.318,13.124,7.028,2.692,10.524s-28.552,4.449-40.471,2.132-13.121-7.028-2.689-10.522S1101.142,556.486,1113.059,558.8Z" fill="#f0ad3d"/>
        <path id="Path_934" data-name="Path 934" d="M1072.591,561.986c10.433-3.495,28.551-4.449,40.468-2.133,5.932,1.153,9.207,2.9,9.718,4.793.6-2.286-2.7-4.479-9.718-5.844-11.917-2.316-30.035-1.361-40.468,2.134-5.241,1.756-7.543,3.818-7.027,5.729C1065.98,565.067,1068.3,563.424,1072.591,561.986Z" fill="#e99e3b"/>
        <path id="Path_935" data-name="Path 935" d="M1062.856,570.114v8.267a31.082,31.082,0,0,0,8.829,2.826,88.537,88.537,0,0,0,12.87,1.413V574.2a89.2,89.2,0,0,1-13.189-1.427A32.353,32.353,0,0,1,1062.856,570.114Z" fill="#e99e3b"/>
        <g id="Group_1090" data-name="Group 1090">
          <path id="Path_936" data-name="Path 936" d="M1108.172,561.432l-3.159,1.059q1.89.523,1.778,1.259c-.07.491-.808,1-2.206,1.521l-3.252-.632q1.172-.447,1.023-.871c-.1-.286-.629-.52-1.587-.707a13.356,13.356,0,0,0-3.3-.2,11.962,11.962,0,0,0-3.129.56,3.349,3.349,0,0,0-.759.339c-.17.114-.254.231-.254.35-.014.245.573.558,1.768.94.714.229,1.226.412,1.543.552,1.108.483,1.594.969,1.448,1.459s-.9.963-2.261,1.421a26.379,26.379,0,0,1-5.934,1.176,26.819,26.819,0,0,1-6.076-.067l-3.793,1.272-3.032-.589,3.647-1.222q-2.4-.639-2.3-1.52t2.7-1.762l3.131.609c-1.108.407-1.615.777-1.526,1.108s.78.624,2.08.876a15.23,15.23,0,0,0,3.786.233,13.667,13.667,0,0,0,3.592-.643,6.166,6.166,0,0,0,.912-.371,1.269,1.269,0,0,0,.453-.345q.342-.535-1.624-1.2c-.217-.072-.376-.126-.48-.162q-2.4-.837-2.518-1.572t2.046-1.462a22.9,22.9,0,0,1,5.327-1.044,27.873,27.873,0,0,1,5.793.089l3.127-1.048Z" fill="#e99e3b"/>
        </g>
        <g id="Group_1091" data-name="Group 1091">
          <path id="Path_937" data-name="Path 937" d="M1108.172,560.248l-3.159,1.058q1.89.523,1.778,1.26c-.07.49-.808,1-2.206,1.52l-3.252-.632q1.172-.447,1.023-.871c-.1-.286-.629-.52-1.587-.706a13.306,13.306,0,0,0-3.3-.2,12,12,0,0,0-3.129.561,3.349,3.349,0,0,0-.759.339c-.17.114-.254.231-.254.351-.014.244.573.557,1.768.94.714.228,1.226.411,1.543.551,1.108.483,1.594.969,1.448,1.459s-.9.963-2.261,1.42a26.323,26.323,0,0,1-5.934,1.177,26.936,26.936,0,0,1-6.076-.066l-3.793,1.271-3.032-.589,3.647-1.222q-2.4-.639-2.3-1.52t2.7-1.762l3.131.609c-1.108.408-1.615.777-1.526,1.108s.78.624,2.08.876a15.23,15.23,0,0,0,3.786.233,13.667,13.667,0,0,0,3.592-.643,6.166,6.166,0,0,0,.912-.371,1.257,1.257,0,0,0,.453-.344q.342-.537-1.624-1.2c-.217-.072-.376-.127-.48-.163q-2.4-.837-2.518-1.572t2.046-1.462a22.9,22.9,0,0,1,5.327-1.044,27.873,27.873,0,0,1,5.793.089l3.127-1.047Z" fill="#f4c947"/>
        </g>
      </g>
      <g id="Group_1098" data-name="Group 1098">
        <g id="Group_1093" data-name="Group 1093">
          <path id="Path_938" data-name="Path 938" d="M1062.817,563.669c-.087-2.286-.2-5.335-.289-7.621.059,1.573.223,5.818.29,7.446A1.674,1.674,0,0,0,1062.817,563.669Z" fill="#f4c947"/>
        </g>
        <g id="Group_1094" data-name="Group 1094">
          <path id="Path_939" data-name="Path 939" d="M1125.8,552.84q.159,4.221.318,8.439c.082,2.15-2.737,4.418-8.568,6.371-12.595,4.219-34.469,5.371-48.859,2.574-7.727-1.5-11.725-3.838-11.819-6.332l-.32-8.437c.095,2.493,4.092,4.829,11.82,6.331,14.389,2.8,36.264,1.645,48.858-2.574C1123.061,557.259,1125.88,554.99,1125.8,552.84Z" fill="#f0ad3d"/>
        </g>
        <g id="Group_1095" data-name="Group 1095">
          <path id="Path_940" data-name="Path 940" d="M1113.978,546.508c14.39,2.8,15.847,8.485,3.251,12.7s-34.469,5.372-48.858,2.574-15.845-8.484-3.25-12.7S1099.588,543.711,1113.978,546.508Zm-41.693,13.967c11.919,2.317,30.038,1.361,40.47-2.133s9.228-8.2-2.691-10.523-30.036-1.36-40.469,2.134-9.227,8.205,2.69,10.522" fill="#f4c947"/>
        </g>
        <path id="Path_941" data-name="Path 941" d="M1110.064,547.819c11.919,2.318,13.124,7.028,2.691,10.523s-28.551,4.45-40.47,2.133-13.121-7.027-2.69-10.522S1098.147,545.5,1110.064,547.819Z" fill="#f0ad3d"/>
        <path id="Path_942" data-name="Path 942" d="M1069.595,551c10.433-3.495,28.552-4.45,40.469-2.133,5.932,1.152,9.207,2.9,9.718,4.793.6-2.287-2.7-4.479-9.718-5.844-11.917-2.316-30.036-1.361-40.469,2.134-5.24,1.756-7.542,3.818-7.026,5.729C1062.985,554.084,1065.3,552.441,1069.595,551Z" fill="#e99e3b"/>
        <path id="Path_943" data-name="Path 943" d="M1059.861,559.13V567.4a31.051,31.051,0,0,0,8.829,2.826,88.694,88.694,0,0,0,12.87,1.413v-8.424a89.2,89.2,0,0,1-13.189-1.427A32.337,32.337,0,0,1,1059.861,559.13Z" fill="#e99e3b"/>
        <g id="Group_1096" data-name="Group 1096">
          <path id="Path_944" data-name="Path 944" d="M1105.176,550.449l-3.159,1.059c1.26.349,1.855.769,1.779,1.259s-.809,1-2.206,1.521l-3.253-.632q1.173-.447,1.023-.871c-.1-.286-.628-.52-1.586-.707a13.359,13.359,0,0,0-3.3-.2,12.016,12.016,0,0,0-3.13.559,3.438,3.438,0,0,0-.759.34c-.169.114-.253.231-.253.35-.014.244.573.558,1.768.941.714.227,1.225.411,1.543.55,1.107.484,1.594.969,1.448,1.46s-.9.963-2.262,1.42a26.3,26.3,0,0,1-5.933,1.177,26.872,26.872,0,0,1-6.076-.067l-3.794,1.272-3.031-.59,3.647-1.221q-2.4-.639-2.3-1.52t2.7-1.762l3.131.609q-1.662.61-1.527,1.108t2.08.876a15.234,15.234,0,0,0,3.787.233,13.71,13.71,0,0,0,3.592-.643,6.316,6.316,0,0,0,.911-.371,1.275,1.275,0,0,0,.454-.345q.342-.536-1.624-1.194c-.217-.072-.376-.127-.48-.163q-2.4-.837-2.518-1.572t2.046-1.463a22.937,22.937,0,0,1,5.327-1.044,27.929,27.929,0,0,1,5.792.09l3.127-1.047Z" fill="#e99e3b"/>
        </g>
        <g id="Group_1097" data-name="Group 1097">
          <path id="Path_945" data-name="Path 945" d="M1105.176,549.264l-3.159,1.059c1.26.349,1.855.769,1.779,1.26s-.809,1-2.206,1.52l-3.253-.632q1.173-.447,1.023-.871t-1.586-.707a13.306,13.306,0,0,0-3.3-.2,11.974,11.974,0,0,0-3.13.56,3.4,3.4,0,0,0-.759.339c-.169.114-.253.231-.253.351-.014.244.573.556,1.768.94.714.227,1.225.411,1.543.55,1.107.484,1.594.97,1.448,1.46s-.9.963-2.262,1.42a26.3,26.3,0,0,1-5.933,1.177,26.872,26.872,0,0,1-6.076-.067l-3.794,1.272-3.031-.589,3.647-1.222q-2.4-.639-2.3-1.52t2.7-1.761l3.131.608q-1.662.61-1.527,1.108t2.08.876a15.187,15.187,0,0,0,3.787.233,13.669,13.669,0,0,0,3.592-.643,6.206,6.206,0,0,0,.911-.371,1.252,1.252,0,0,0,.454-.345q.342-.535-1.624-1.195c-.217-.071-.376-.127-.48-.162q-2.4-.837-2.518-1.572t2.046-1.463a22.988,22.988,0,0,1,5.327-1.044,27.929,27.929,0,0,1,5.792.09l3.127-1.047Z" fill="#f4c947"/>
        </g>
      </g>
    </g>
    <g id="Group_1108" data-name="Group 1108">
      <path id="Path_946" data-name="Path 946" d="M950.821,549.106c24.945-.78,13.1-12.609,30.4-21.047,6.719-3.278,11.967,3.307,14.55,5.933l2.63,1.086c2.718,2.763,1.281,7.364-1.479,10.081l-4.25,4.183c-4.922,3.924-2.538,10.55-5.711,13.674a9.222,9.222,0,0,1-12.915-.113c-.107.117-.21.237-.325.35-3.6,3.54-20.626,6.016-24.643,2.794C941.42,559.906,946.453,549.242,950.821,549.106Z"/>
      <g id="Group_1102" data-name="Group 1102">
        <g id="Group_1101" data-name="Group 1101">
          <g id="Group_1100" data-name="Group 1100">
            <path id="Path_947" data-name="Path 947" d="M984.447,576.963s.19,1.558,7.755.838,18.487-3.643,18.487-3.643l-17.606.028S986.356,574.515,984.447,576.963Z" fill="#723528"/>
            <path id="Path_948" data-name="Path 948" d="M1004.794,575.282c3.6-.233,5.266,1.476,6.732,1.945a25.829,25.829,0,0,1,2.947,1.216c-.9-1.487-2.07-1.459-2.685-1.919s-.45-.223.829-.4c.726-.1,2.095,1.1,3.06,1.757a2.952,2.952,0,0,0,1.348.583,16.1,16.1,0,0,0-2.277-2.212,18.394,18.394,0,0,0-3.8-2.256,14.116,14.116,0,0,0-4.907.159C1004.124,574.536,1002.2,575.447,1004.794,575.282Z" fill="#723528"/>
            <path id="Path_949" data-name="Path 949" d="M1010.765,574.081a19.627,19.627,0,0,1,3.316.856c.352.231,1.858,1.625,1.858,1.625a3.621,3.621,0,0,1-1.676-.623A31.252,31.252,0,0,0,1010.765,574.081Z" fill="#dbc5a0"/>
          </g>
          <path id="Path_950" data-name="Path 950" d="M987.564,573.467s-6.953.867-6.22,4.979c.417,2.334,2.057,3.054,4.159,2.756,3.9-.558,8.306-1.4,8.306-1.4l1.59-6.556Z" fill="#8e1d5b"/>
        </g>
        <path id="Path_951" data-name="Path 951" d="M987.38,576.4l-3.17-22.782s-.287-4.887-2.031-4.632c-2.52.361-6.409,7.771-6.5,9.3-.182,3.12,4.332,19.17,4.913,22.368.4,2.2,2.349-.453,4.587-.862C989.35,579.04,987.38,576.4,987.38,576.4Z" fill="#8e1d5b"/>
      </g>
      <path id="Path_952" data-name="Path 952" d="M893.163,547.862l-6.781-11.884-7.933.505-3.928,1.16,8.783,1.3,5.606,11.1Z" fill="#723528"/>
      <path id="Path_953" data-name="Path 953" d="M885.338,534.094l-1.029.339-.478,1.334-6.41.272-5.06,1.4a.966.966,0,0,0,.387.5c.954.405,4.965.3,4.965.3s-.514-1.075-.083-1.344,5.391-.4,6.588-.332c2.062.112,3.159.535,3.047.269C887.095,536.441,885.338,534.094,885.338,534.094Z" fill="#bf305b"/>
      <path id="Path_954" data-name="Path 954" d="M926.951,570.3l-18.623,2.112-16.536-29.241-5.563,2.772L902.961,581.4s1.276,2.223,6.915,1.737c5.485-.473,27.683-1.785,30.14-2.7C945.838,578.262,926.364,575.448,926.951,570.3Z" fill="#948677"/>
      <path id="Path_955" data-name="Path 955" d="M998.059,540.107a14.527,14.527,0,0,1-1.53,1.268c-3.7,2.653-8.062,3.1-10.464,1.261a21.045,21.045,0,0,1-4.568,3.1,10.642,10.642,0,0,1-4.453.683c-2.6,1.844-4.123,9.262,1.8,12.176,3.557,1.751,4.182-2.432,3.754-5.332-.208-1.365-.324-2.889.037-3.486,1.268-2.086,2.2-2.1,3.8-2.4a5.714,5.714,0,0,1,4.254,1.559.827.827,0,0,0,.607.24,4.847,4.847,0,0,0,1.194-.87l4.123-4.058A4.977,4.977,0,0,0,998.059,540.107Z" fill="#723528"/>
      <path id="Path_956" data-name="Path 956" d="M908.07,541.583l-.229-9.49-1.921-2.287-5.124-3.008-3.827.664,6.693,5.064.42,9.958Z" fill="#723528"/>
      <path id="Path_957" data-name="Path 957" d="M907.557,530.015l-1.722-1.25-.536.415-4.751-3.061s-4.335-1.169-5.186-.187c-.271.316.425.852,1.385,1.577a8.565,8.565,0,0,0,1.233.8s.2-.74,1.925-1.012c.548-.086,3.936,2.193,5.1,2.783a13.393,13.393,0,0,1,3.022,2.407C908.313,532.129,907.557,530.015,907.557,530.015Z" fill="#bf305b"/>
      <path id="Path_958" data-name="Path 958" d="M945.676,585.676l-4.208-.173-34.154-2.429s-3.066.921-4.976-3.924c-2.721-6.894,1.157-41.291,1.157-41.291l5.059.116,2.492,32.473s23.974-7.66,29.412-5.768c6.35,2.208,10.006,5.223,18.019,13.552,3.53,3.668-1.146,6.841-1.146,6.841Z" fill="#c2b29b"/>
      <path id="Path_959" data-name="Path 959" d="M984.136,550.779s-5.772-7.214-10.581-2.885-21.625,17.825-26.715,19.387l-1.164,18.943c13.885.916,25.279-6.177,26.225-7.6C974.959,574.04,986.059,556.55,984.136,550.779Z" fill="#bf305b"/>
      <path id="Path_960" data-name="Path 960" d="M967.414,574.137c1.355-1.858,4.153-5.831,6.864-10.285,3.423-5.624,8.648-4.688,5.846.83a149.106,149.106,0,0,1-8.223,13.946c-.946,1.419-10.167,8.512-24.051,7.6l1.355-1.921C959.135,583.358,966.536,575.34,967.414,574.137Z" fill="#8e1d5b"/>
      <g id="Group_1104" data-name="Group 1104">
        <g id="Group_1103" data-name="Group 1103">
          <path id="Path_961" data-name="Path 961" d="M975.907,581.654s-2.09,2.239,7.358,1.286c6.71-.683,6.556-.214,23.1-4.488l-21.982.355S978.307,578.825,975.907,581.654Z" fill="#723528"/>
          <path id="Path_962" data-name="Path 962" d="M999,579.834c4.507-.33,6.573,1.583,8.4,2.089a32.918,32.918,0,0,1,3.676,1.329c-1.117-1.677-2.577-1.624-3.346-2.137s-.556-.244,1.041-.471c.906-.129,2.607,1.221,3.819,1.941a3.8,3.8,0,0,0,1.673.641,18.65,18.65,0,0,0-2.829-2.474,23.045,23.045,0,0,0-4.728-2.493,19.345,19.345,0,0,0-6.132.27C998.17,579,995.755,580.072,999,579.834Z" fill="#723528"/>
          <path id="Path_963" data-name="Path 963" d="M1006.472,578.356a26.335,26.335,0,0,1,4.134.914c.44.258,2.311,1.812,2.311,1.812a4.745,4.745,0,0,1-2.089-.68A39.58,39.58,0,0,0,1006.472,578.356Z" fill="#dbc5a0"/>
        </g>
        <path id="Path_964" data-name="Path 964" d="M980.835,577.9l3.124-25.753s-2.012-2.541-3.784-1.655c-1.891.945-5.673,3.546-5.673,3.546a88.6,88.6,0,0,0-4.021,16.785c-1.417,13-.73,13.292,4.021,14.422,4.964,1.183,13.965-.025,13.965-.025l1.995-7.361Z" fill="#bf305b"/>
      </g>
      <g id="Group_1107" data-name="Group 1107">
        <path id="Path_965" data-name="Path 965" d="M996.258,584.084a.2.2,0,0,0-.016-.033l.016-.994h41.184v.994a.057.057,0,0,1,0,.033l-.1.185a2.7,2.7,0,0,1-2.565,1.017h-35.84a2.709,2.709,0,0,1-2.567-1.017Z" fill="#d2dae8"/>
        <path id="Path_966" data-name="Path 966" d="M1006.184,584.25s.008.019,0,.028l-.1.15a1.673,1.673,0,0,1-.6.506h-6.261a2.855,2.855,0,0,1-2.469-.821l-.1-.152a.131.131,0,0,1-.019-.024l.009-.491h9.543Z" fill="#b8c1c7"/>
        <g id="Group_1105" data-name="Group 1105">
          <rect id="Rectangle_424" data-name="Rectangle 424" width="20.58" height="0.703" transform="translate(1011.742 583.286)" fill="#b8c1c7"/>
        </g>
        <g id="Group_1106" data-name="Group 1106">
          <path id="Path_967" data-name="Path 967" d="M1006.413,583.021l5.34-20.237a1.341,1.341,0,0,1,1.22-.967h28.9a.719.719,0,0,1,.71.967l-5.338,20.237Z" fill="#ced4d6"/>
          <path id="Path_968" data-name="Path 968" d="M1022.752,572.418a1.394,1.394,0,0,0,1.378,1.872,2.606,2.606,0,0,0,2.365-1.872,1.4,1.4,0,0,0-1.377-1.873A2.606,2.606,0,0,0,1022.752,572.418Z" fill="#b8c1c7"/>
        </g>
      </g>
    </g>
  </g>
</svg>
