<svg xmlns="http://www.w3.org/2000/svg" width="19" height="19" viewBox="0 0 19 19">
  <g id="Group_1641" data-name="Group 1641" transform="translate(-989.244 -389.54)">
    <g id="Group_127" data-name="Group 127" transform="translate(989.244 389.54)">
      <g id="H2ZhfH">
        <g id="Group_126" data-name="Group 126">
          <path id="Path_134" data-name="Path 134" d="M2555.263,397.488c0-1.967.045-3.935-.017-5.9a1.957,1.957,0,0,1,2.068-2.048q5.973.073,11.948,0a1.96,1.96,0,0,1,2.029,2.012q-.063,6.01,0,12.022a1.96,1.96,0,0,1-2.032,2.01q-6.01-.065-12.022,0a1.934,1.934,0,0,1-1.989-1.975C2555.3,401.57,2555.263,399.529,2555.263,397.488Zm1.251.076c0,1.943,0,3.887,0,5.83,0,.755.162.921.9.922q5.83.008,11.66,0c.784,0,.94-.161.941-.96q.006-5.794,0-11.587c0-.8-.156-.957-.942-.958q-5.793-.006-11.587,0c-.837,0-.975.143-.977,1Q2556.509,394.685,2556.514,397.564Z" transform="translate(-2555.244 -389.54)" fill="#fff"/>
          <path id="Path_135" data-name="Path 135" d="M2578.69,404.9c0,2.016-.044,4.033.017,6.047a1.96,1.96,0,0,1-2.068,2.05c-4.031-.048-8.064-.023-12.1-.013a1.837,1.837,0,0,1-1.751-.866.6.6,0,0,1,.144-.852.59.59,0,0,1,.8.057.837.837,0,0,1,.1.105.92.92,0,0,0,.792.3c3.983,0,7.966,0,11.948-.006.7,0,.852-.181.853-.972q.005-4.942,0-9.883c0-.639-.008-1.279,0-1.917a1.107,1.107,0,0,0-.326-.861c-.322-.329-.344-.658-.135-.912a.7.7,0,0,1,.995-.014,1.8,1.8,0,0,1,.718,1.539c-.009,1.77,0,3.54,0,5.31Z" transform="translate(-2559.708 -394)" fill="#fff"/>
          <path id="Path_136" data-name="Path 136" d="M2566.65,402.216h-1.306c-.91,0-1.82.01-2.73-.006-.47-.008-.677-.206-.694-.587-.02-.411.207-.645.7-.653.959-.016,1.918-.006,2.877-.006h1.088c.023-.209.06-.394.061-.579.006-1.033,0-2.066,0-3.1a3.011,3.011,0,0,1,.019-.515.612.612,0,0,1,1.213.006,3.122,3.122,0,0,1,.019.515q0,1.439,0,2.877v.793h1.307c.885,0,1.771-.01,2.656,0,.493.008.751.24.752.618s-.258.617-.748.623c-1.058.014-2.115,0-3.173.005h-.793v1.306c0,.885.009,1.771-.005,2.657-.008.492-.241.751-.62.752s-.615-.255-.622-.748c-.013-1.058,0-2.115-.005-3.173Z" transform="translate(-2559.252 -393.566)" fill="#fff"/>
        </g>
      </g>
    </g>
  </g>
</svg>
