<svg xmlns="http://www.w3.org/2000/svg" width="61.346" height="38.775" viewBox="0 0 61.346 38.775">
  <path id="Path_948" data-name="Path 948" d="M331.74,692.056v17.078a1.643,1.643,0,0,1-.525,1.193,1.483,1.483,0,0,1-1.193.477H318.478a6.558,6.558,0,0,1-2.194,2.862A6.989,6.989,0,0,1,312.945,715a8.282,8.282,0,0,1-2.147,2.2,7.116,7.116,0,0,1-2.719,1.192,7.412,7.412,0,0,1-6.2,2.862,7.9,7.9,0,0,1-3.34,1.05,8.628,8.628,0,0,1-3.386-.382,15.572,15.572,0,0,1-3.149-1.43,12.9,12.9,0,0,1-2.719-2.147l-7.632-7.537h-9.541a1.619,1.619,0,0,1-1.193-.477,1.793,1.793,0,0,1-.524-1.193V691.246a1.7,1.7,0,0,1,.524-1.241,1.485,1.485,0,0,1,1.193-.477h11.21l2.481-2.576q.381-.381,1.192-1.049a14.534,14.534,0,0,1,1.336-1,8.162,8.162,0,0,1,1.383-.668,13.887,13.887,0,0,1,1.622-.525,6.424,6.424,0,0,1,1.813-.143h3.1a8.305,8.305,0,0,1,4.818,1.479,8.444,8.444,0,0,1,4.818-1.479h4.484a10.768,10.768,0,0,1,1.765.143,8.965,8.965,0,0,1,1.526.382A5.531,5.531,0,0,1,315,684.8q.668.479,1.193.812a5.542,5.542,0,0,1,1.145,1.049c.412.477.763.858,1.049,1.145a14.555,14.555,0,0,1,1.1,1.288,14.523,14.523,0,0,0,1.1,1.288h9.445a1.617,1.617,0,0,1,1.193.477A1.8,1.8,0,0,1,331.74,692.056ZM275.5,707.417a1.462,1.462,0,0,0,1.479-.859,2.03,2.03,0,0,0,0-1.717,1.7,1.7,0,0,0-2.958,0,2.022,2.022,0,0,0,0,1.717A1.46,1.46,0,0,0,275.5,707.417Zm39.212-1.575q-.24-.333-1-1.287a18.3,18.3,0,0,1-1.1-1.479,9.41,9.41,0,0,0-1.05-1.288,7.8,7.8,0,0,1-1.1-1.431,4.425,4.425,0,0,0-1.1-1.241,5.656,5.656,0,0,1-1.192-1.288l-3.34,3.721a6.929,6.929,0,0,1-5.533,2.433,7.012,7.012,0,0,1-5.486-2.576,6.228,6.228,0,0,1-1.479-4.2,6.791,6.791,0,0,1,1.527-4.2l4.722-5.487a5.114,5.114,0,0,0-1.336-.429q-.764-.142-1.288-.191a8.436,8.436,0,0,0-1.478.048,4.462,4.462,0,0,1-1.336,0,5.735,5.735,0,0,0-4.2,1.765l-4.2,4.2H280.6v14.5h1.145l.525.047a5.446,5.446,0,0,1,.572.1,1.2,1.2,0,0,1,.429.238,2.873,2.873,0,0,0,.525.334l7.871,7.776q3.1,2.957,6.059,2.957a4.513,4.513,0,0,0,3.339-1.24,3.808,3.808,0,0,0,3.005-.191,3.447,3.447,0,0,0,1.908-2.289A4.164,4.164,0,0,0,309.367,714a4.886,4.886,0,0,0,.954-1.241,2.4,2.4,0,0,0,.382-1.335q.237.286,1.145.286a3.767,3.767,0,0,0,2.051-.572,3.6,3.6,0,0,0,1.336-1.432,3.207,3.207,0,0,0,.286-1.908A4.237,4.237,0,0,0,314.71,705.842Zm4.245,1.575h2.529V693.774h-2.433l-4.2-4.77a5.656,5.656,0,0,0-4.484-2.052h-4.484a4.835,4.835,0,0,0-3.864,1.813l-5.581,6.44a3.161,3.161,0,0,0,0,4.007,3.8,3.8,0,0,0,2.909,1.383,3.661,3.661,0,0,0,2.958-1.288l5.152-5.819a1.894,1.894,0,0,1,1.431-.573,1.594,1.594,0,0,1,1.24.716,1.711,1.711,0,0,1,.239,1.526l3.053,3.483q.81.954,2.194,2.814t1.718,2.242A7.46,7.46,0,0,1,318.955,707.417Zm7.681,0a1.517,1.517,0,0,0,1.478-.859,1.82,1.82,0,0,0,0-1.717,1.517,1.517,0,0,0-1.478-.859,1.618,1.618,0,0,0-1.527.859,1.664,1.664,0,0,0,0,1.717A1.618,1.618,0,0,0,326.636,707.417Z" transform="translate(-270.394 -683.556)" fill="#93278f"/>
</svg>
