<svg xmlns="http://www.w3.org/2000/svg" width="40.263" height="32.796" viewBox="0 0 40.263 32.796">
  <g id="Group_831" data-name="Group 831" transform="translate(-480.699 -686.545)">
    <path id="Path_945" data-name="Path 945" d="M498.122,695.964c0,6.638-4.2,10.1-8.785,10.1-4.831,0-8.638-3.612-8.638-9.566,0-5.661,3.465-9.956,8.882-9.956C495.047,686.545,498.122,690.547,498.122,695.964Zm-11.908.342c0,3.319,1.122,5.71,3.27,5.71,2.1,0,3.123-2.147,3.123-5.71,0-3.221-.878-5.71-3.172-5.71C487.239,690.6,486.214,693.134,486.214,696.306Zm3.514,23.035,18.2-32.8h4l-18.252,32.8Zm31.234-10.2c0,6.638-4.2,10.1-8.785,10.1-4.782,0-8.589-3.611-8.638-9.565,0-5.661,3.465-9.955,8.882-9.955C517.887,699.723,520.962,703.724,520.962,709.141Zm-11.859.342c-.049,3.318,1.073,5.71,3.221,5.71,2.1,0,3.123-2.147,3.123-5.71,0-3.221-.829-5.71-3.123-5.71C510.079,703.773,509.1,706.311,509.1,709.483Z" fill="#93278f"/>
  </g>
</svg>
