<svg xmlns="http://www.w3.org/2000/svg" width="89.726" height="95.276" viewBox="0 0 89.726 95.276">
  <g id="Group_99" data-name="Group 99" transform="translate(-2159.582 -3896.066)" opacity="0.2">
    <path id="Path_130" data-name="Path 130" d="M2214.963,3907.295c-5.21,3.031-10.472,5.993-16.043,8.547A72.069,72.069,0,0,0,2214.963,3907.295Z" fill="none"/>
    <path id="Path_131" data-name="Path 131" d="M2193.926,3980.113c5.209-3.03,10.472-5.993,16.043-8.547A72.114,72.114,0,0,0,2193.926,3980.113Z" fill="none"/>
    <path id="Path_132" data-name="Path 132" d="M2237.154,3935.62l-1.68-2.185c5.609-2.573-.975-6.2-2.48-9.394a15.342,15.342,0,0,1-8.832,3.311l-2.383,1.832c-4.328,3.327-8.5,6.694-12.62,10.039-2.679,2.021-5.318,4.134-7.928,6.4-.205-.4-.359-.994-.9-1.041,6.84-9.6,18.545-11.646,26.225-20.158l1.668,2.17c3.335-2.175,6.782-4.258,10.388-6.22,1.336-1.027,1.692-2.939,1.662-4.966-12.409,3.518-22.508,11.887-33.17,18.48,4.171-3.206,8.52-7.417,13.532-9.531,6.8-3.488,11.744-8.158,18.369-10.643.371-.116.753-.225,1.134-.334-.1-.918-.24-1.806-.362-2.594-.91-3.647-3.253-7.932-7.738-8.831l-1.788,1.374a12.717,12.717,0,0,1-2.539-3.389c-4.3,2.377-8.511,4.888-12.748,7.352a72.069,72.069,0,0,1-16.043,8.547c5.571-2.554,10.833-5.516,16.043-8.547,4.046-2.731,8-5.674,12.066-8.493-.866-1.4-1.794-2.536-3.254-2.663-2.452-.722-5.365,4.124-8.17,5.411-8.236,2.853-14.968,8.9-22.784,12.3-5.606,2.571-9.955,6.782-14.3,11-5.715,6.131-14.548,9.444-18.231,15.751-3.09,5.852,4.579,12.128,11.449,11.194l1.679,2.185c-5.609,2.573.976,6.205,2.481,9.4a15.34,15.34,0,0,1,8.831-3.312l2.384-1.832c4.327-3.326,8.5-6.693,12.619-10.038,2.679-2.022,5.318-4.134,7.929-6.4.205.4.359.994.9,1.041-6.84,9.6-18.546,11.647-26.226,20.159l-1.668-2.17c-3.334,2.174-6.781,4.257-10.387,6.22-1.336,1.027-1.693,2.938-1.662,4.966,12.409-3.519,22.507-11.888,33.169-18.481-4.171,3.207-8.519,7.418-13.531,9.531-6.8,3.489-11.745,8.159-18.369,10.643-.372.116-.754.225-1.135.335.1.917.24,1.805.363,2.594.91,3.647,3.253,7.932,7.738,8.83l1.788-1.374a12.723,12.723,0,0,1,2.539,3.39c4.3-2.377,8.51-4.889,12.748-7.353a72.114,72.114,0,0,1,16.043-8.547c-5.571,2.554-10.834,5.517-16.043,8.547-4.047,2.731-8,5.674-12.066,8.494.866,1.4,1.794,2.535,3.254,2.662,2.452.722,5.365-4.124,8.17-5.411,8.235-2.852,14.967-8.9,22.783-12.3,5.607-2.571,9.956-6.783,14.305-11,5.715-6.131,14.547-9.444,18.231-15.752C2251.692,3940.963,2244.023,3934.687,2237.154,3935.62Z" fill="#f0f"/>
  </g>
</svg>
