<svg xmlns="http://www.w3.org/2000/svg" width="46.595" height="51.531" viewBox="0 0 46.595 51.531">
  <g id="Group_832" data-name="Group 832" transform="translate(-677.85 -900.857)">
    <path id="Path_951" data-name="Path 951" d="M723.793,911.867a1.412,1.412,0,0,1,.652,1.223v32a1.326,1.326,0,0,1-.244.815,1.8,1.8,0,0,1-.653.53l-14.594,5.83a1.208,1.208,0,0,1-1.059,0l-14.024-5.585-14.024,5.585a1.023,1.023,0,0,1-.529.122,1.439,1.439,0,0,1-.816-.245,1.408,1.408,0,0,1-.652-1.223v-32a1.5,1.5,0,0,1,.245-.856,1.169,1.169,0,0,1,.652-.49l14.594-5.829a1.21,1.21,0,0,1,1.06,0l14.023,5.584,14.023-5.584A1.267,1.267,0,0,1,723.793,911.867ZM680.744,919.9V948.76l12.393-4.933v-28.9Zm13.861-4.973v28.9l13.086,5.259v-28.9Zm26.905,29.187V915.25l-12.352,4.934v28.9Z" fill="#93278f"/>
    <g id="Path_952" data-name="Path 952" fill="#93278f">
      <path d="M 703.7160034179688 938.833984375 C 703.0243530273438 938.833984375 702.3345336914062 938.63818359375 701.6658935546875 938.251953125 C 700.9595947265625 937.84130859375 700.46337890625 937.2864379882812 700.1879272460938 936.6007080078125 L 691.8857421875 919.02001953125 L 691.8837890625 919.0159912109375 L 691.8819580078125 919.0119018554688 C 691.3339233398438 917.8237915039062 691.0560302734375 916.3115234375 691.0560302734375 914.5170288085938 C 691.0560302734375 911.0504760742188 692.306884765625 908.0418701171875 694.77392578125 905.5748901367188 C 697.2398071289062 903.10791015625 700.2484130859375 901.8569946289062 703.7160034179688 901.8569946289062 C 707.1822509765625 901.8569946289062 710.190185546875 903.10791015625 712.65625 905.5750122070312 C 715.1238403320312 908.0415649414062 716.3609619140625 911.0515747070312 716.3330078125 914.5206298828125 C 716.3326416015625 916.3126220703125 716.05517578125 917.823486328125 715.50830078125 919.01123046875 L 715.5067138671875 919.0147705078125 L 715.5050048828125 919.0183715820312 L 707.22900390625 936.6283569335938 L 707.2238159179688 936.6393432617188 L 707.2183837890625 936.6502075195312 C 706.8900756835938 937.306884765625 706.3944091796875 937.8413696289062 705.7451782226562 938.2388305664062 C 705.09814453125 938.6339721679688 704.415771484375 938.833984375 703.7160034179688 938.833984375 Z" stroke="none"/>
      <path d="M 703.7160034179688 902.8569946289062 C 700.5079956054688 902.8569946289062 697.7630004882812 903.9990234375 695.4810180664062 906.281982421875 C 693.197998046875 908.5650024414062 692.0560302734375 911.3099975585938 692.0560302734375 914.5170288085938 C 692.0560302734375 916.1749877929688 692.301025390625 917.5330200195312 692.7899780273438 918.593017578125 L 701.1060180664062 936.2030029296875 C 701.2960205078125 936.6929931640625 701.6500244140625 937.0859985351562 702.166015625 937.385986328125 C 702.6820068359375 937.6840209960938 703.198974609375 937.833984375 703.7160034179688 937.833984375 C 704.2310180664062 937.833984375 704.7349853515625 937.6840209960938 705.2230224609375 937.385986328125 C 705.7130126953125 937.0859985351562 706.0789794921875 936.6929931640625 706.323974609375 936.2030029296875 L 714.5999755859375 918.593017578125 C 715.0880126953125 917.5330200195312 715.3330078125 916.1749877929688 715.3330078125 914.5170288085938 C 715.3599853515625 911.3099975585938 714.2329711914062 908.5650024414062 711.948974609375 906.281982421875 C 709.6669921875 903.9990234375 706.9210205078125 902.8569946289062 703.7160034179688 902.8569946289062 M 703.7160034179688 900.8569946289062 C 707.4572143554688 900.8569946289062 710.7030639648438 902.20654296875 713.3634643554688 904.8680419921875 C 716.0267944335938 907.5302734375 717.362548828125 910.779541015625 717.3330078125 914.5255126953125 C 717.3320922851562 916.4608154296875 717.0238037109375 918.1107177734375 716.4166870117188 919.429443359375 L 716.4100341796875 919.4436645507812 L 708.1128540039062 937.097412109375 C 707.6995239257812 937.9240112304688 707.07861328125 938.594970703125 706.267333984375 939.0916748046875 C 705.4601440429688 939.5846557617188 704.6024169921875 939.833984375 703.7160034179688 939.833984375 C 702.846435546875 939.833984375 701.9884033203125 939.593017578125 701.1657104492188 939.1178588867188 L 701.1607666015625 939.114990234375 C 700.26904296875 938.5965576171875 699.6339111328125 937.8861694335938 699.2717895507812 937.00244140625 L 690.973876953125 919.4307250976562 C 690.3562622070312 918.091796875 690.0560302734375 916.4844970703125 690.0560302734375 914.5170288085938 C 690.0560302734375 910.7755737304688 691.4054565429688 907.5291137695312 694.0668334960938 904.8677978515625 C 696.7269287109375 902.20654296875 699.9734497070312 900.8569946289062 703.7160034179688 900.8569946289062 Z" stroke="none" fill="#fff"/>
    </g>
    <path id="Path_953" data-name="Path 953" d="M709.545,914.517a5.845,5.845,0,1,0-1.712,4.117A5.617,5.617,0,0,0,709.545,914.517Z" fill="#fff"/>
  </g>
</svg>
