<svg xmlns="http://www.w3.org/2000/svg" width="33.78" height="33.779" viewBox="0 0 33.78 33.779">
  <g id="Group_311" data-name="Group 311" transform="translate(-47 12.2)">
    <path id="Path_314" data-name="Path 314" d="M33.684,22.488,23.337.567a.99.99,0,0,0-.9-.567h-10.6A2.513,2.513,0,0,0,11.1.1L.547,5.382A.99.99,0,0,0,0,6.268V32.789a.99.99,0,0,0,.99.99H22.1a.99.99,0,0,0,.99-.99V28.584l10.121-4.778a.99.99,0,0,0,.472-1.319ZM21.112,31.8H1.979V6.879L11.546,2.1l9.566,4.783Zm1.979-5.405V6.268a.99.99,0,0,0-.547-.885l-7.8-3.733,7.067.33L31.47,22.439Z" transform="translate(47 -12.2)" fill="#7ac943"/>
    <path id="Path_315" data-name="Path 315" d="M73.629,73.3a3.3,3.3,0,1,0,3.3-3.3A3.3,3.3,0,0,0,73.629,73.3Zm4.618,0a1.319,1.319,0,1,1-1.319-1.319A1.319,1.319,0,0,1,78.247,73.3ZM70,88.209a.99.99,0,0,0,.99.99H82.865a.99.99,0,0,0,0-1.979H70.99A.99.99,0,0,0,70,88.209Zm3.629-6.927a.99.99,0,0,0,0,1.979h6.6a.99.99,0,1,0,0-1.979Zm6.6,11.875h-6.6a.99.99,0,0,0,0,1.979h6.6a.99.99,0,0,0,0-1.979Z" transform="translate(-17.939 -76.554)" fill="#7ac943"/>
  </g>
</svg>
