<svg xmlns="http://www.w3.org/2000/svg" width="89.726" height="95.276" viewBox="0 0 89.726 95.276">
  <g id="Group_2" data-name="Group 2" transform="translate(-2159.582 -2163.249)" opacity="0.5">
    <path id="Path_4" data-name="Path 4" d="M2214.963,2174.478c-5.21,3.03-10.472,5.993-16.043,8.547A72.118,72.118,0,0,0,2214.963,2174.478Z" fill="#efcdc1"/>
    <path id="Path_5" data-name="Path 5" d="M2193.926,2247.3c5.209-3.031,10.472-5.993,16.043-8.547A72.083,72.083,0,0,0,2193.926,2247.3Z" fill="#efcdc1"/>
    <path id="Path_6" data-name="Path 6" d="M2237.154,2202.8l-1.68-2.185c5.609-2.573-.975-6.2-2.48-9.394a15.349,15.349,0,0,1-8.832,3.311l-2.383,1.832c-4.328,3.327-8.5,6.694-12.62,10.038-2.679,2.022-5.318,4.134-7.928,6.4-.205-.4-.359-.994-.9-1.041,6.84-9.6,18.545-11.647,26.225-20.158l1.668,2.17c3.335-2.175,6.782-4.258,10.388-6.22,1.336-1.028,1.692-2.939,1.662-4.967-12.409,3.519-22.508,11.888-33.17,18.481,4.171-3.206,8.52-7.417,13.532-9.531,6.8-3.489,11.744-8.159,18.369-10.643.371-.116.753-.225,1.134-.335-.1-.917-.24-1.8-.362-2.594-.91-3.647-3.253-7.931-7.738-8.83l-1.788,1.374a12.714,12.714,0,0,1-2.539-3.389c-4.3,2.377-8.511,4.888-12.748,7.352a72.118,72.118,0,0,1-16.043,8.547c5.571-2.554,10.833-5.517,16.043-8.547,4.046-2.731,8-5.674,12.066-8.494-.866-1.4-1.794-2.535-3.254-2.662-2.452-.722-5.365,4.124-8.17,5.411-8.236,2.853-14.968,8.9-22.784,12.3-5.606,2.572-9.955,6.783-14.3,10.995-5.715,6.131-14.548,9.444-18.231,15.752-3.09,5.852,4.579,12.127,11.449,11.194l1.679,2.185c-5.609,2.573.976,6.205,2.481,9.394a15.346,15.346,0,0,1,8.831-3.311l2.384-1.832c4.327-3.327,8.5-6.694,12.619-10.038,2.679-2.022,5.318-4.134,7.929-6.4.205.4.359.994.9,1.041-6.84,9.6-18.546,11.647-26.226,20.158l-1.668-2.17c-3.334,2.175-6.781,4.258-10.387,6.22-1.336,1.027-1.693,2.939-1.662,4.966,12.409-3.518,22.507-11.887,33.169-18.48-4.171,3.206-8.519,7.417-13.531,9.531-6.8,3.489-11.745,8.158-18.369,10.643-.372.116-.754.225-1.135.334.1.918.24,1.806.363,2.595.91,3.646,3.253,7.931,7.738,8.83l1.788-1.374a12.717,12.717,0,0,1,2.539,3.389c4.3-2.377,8.51-4.888,12.748-7.352a72.083,72.083,0,0,1,16.043-8.547c-5.571,2.554-10.834,5.516-16.043,8.547-4.047,2.731-8,5.674-12.066,8.494.866,1.4,1.794,2.535,3.254,2.662,2.452.722,5.365-4.124,8.17-5.411,8.235-2.853,14.967-8.9,22.783-12.3,5.607-2.571,9.956-6.782,14.305-10.995,5.715-6.131,14.547-9.443,18.231-15.751C2251.692,2208.145,2244.023,2201.87,2237.154,2202.8Z" fill="#c8d400"/>
  </g>
</svg>
