<svg xmlns="http://www.w3.org/2000/svg" width="37.607" height="33.585" viewBox="0 0 37.607 33.585">
  <g id="Group_164" data-name="Group 164" transform="translate(-736.342 -588.63)">
    <g id="Group_163" data-name="Group 163">
      <path id="Path_175" data-name="Path 175" d="M742.522,597.82a2.642,2.642,0,1,1-5.284,0H773.3a2.642,2.642,0,1,1-5.284,0" fill="none" stroke="#7ac943" stroke-linecap="round" stroke-linejoin="round" stroke-width="1.044"/>
      <path id="Path_176" data-name="Path 176" d="M747.652,597.82a2.642,2.642,0,1,1-5.284,0l1.486-8.586" fill="none" stroke="#7ac943" stroke-linecap="round" stroke-linejoin="round" stroke-width="1.044"/>
      <path id="Path_177" data-name="Path 177" d="M752.782,597.82a2.642,2.642,0,1,1-5.284,0l.755-8.586" fill="none" stroke="#7ac943" stroke-linecap="round" stroke-linejoin="round" stroke-width="1.044"/>
      <path id="Path_178" data-name="Path 178" d="M757.912,597.82a2.642,2.642,0,1,1-5.285,0v-8.586" fill="none" stroke="#7ac943" stroke-linecap="round" stroke-linejoin="round" stroke-width="1.044"/>
      <path id="Path_179" data-name="Path 179" d="M763.042,597.82a2.642,2.642,0,1,1-5.285,0v-8.586" fill="none" stroke="#7ac943" stroke-linecap="round" stroke-linejoin="round" stroke-width="1.044"/>
      <path id="Path_180" data-name="Path 180" d="M767.084,589.234l1.088,8.586a2.642,2.642,0,1,1-5.285,0l-.262-8.586" fill="none" stroke="#7ac943" stroke-linecap="round" stroke-linejoin="round" stroke-width="1.044"/>
      <path id="Path_181" data-name="Path 181" d="M737.238,597.82l2.976-8.586h30.573l2.514,8.586" fill="none" stroke="#7ac943" stroke-linecap="round" stroke-linejoin="round" stroke-width="1.044"/>
    </g>
    <line id="Line_178" data-name="Line 178" y2="8.833" transform="translate(739.807 600.463)" fill="none" stroke="#7ac943" stroke-linecap="round" stroke-linejoin="round" stroke-width="1.044"/>
    <line id="Line_179" data-name="Line 179" y2="8.833" transform="translate(745.01 600.463)" fill="none" stroke="#7ac943" stroke-linecap="round" stroke-linejoin="round" stroke-width="1.044"/>
    <line id="Line_180" data-name="Line 180" y2="8.833" transform="translate(765.6 600.463)" fill="none" stroke="#7ac943" stroke-linecap="round" stroke-linejoin="round" stroke-width="1.044"/>
    <line id="Line_181" data-name="Line 181" y2="8.833" transform="translate(770.802 600.463)" fill="none" stroke="#7ac943" stroke-linecap="round" stroke-linejoin="round" stroke-width="1.044"/>
    <path id="Path_182" data-name="Path 182" d="M773.3,609.3H736.864V612.3H773.3Z" fill="none" stroke="#7ac943" stroke-linecap="round" stroke-linejoin="round" stroke-width="1.044"/>
    <path id="Path_183" data-name="Path 183" d="M771.645,621.693h-32.98l1.062-2.648H770.6Z" fill="none" stroke="#7ac943" stroke-linecap="round" stroke-linejoin="round" stroke-width="1.044"/>
    <line id="Line_182" data-name="Line 182" x2="1.695" y2="6.74" transform="translate(739.88 612.304)" fill="none" stroke="#7ac943" stroke-linecap="round" stroke-linejoin="round" stroke-width="1.044"/>
    <line id="Line_183" data-name="Line 183" y1="6.599" x2="1.468" transform="translate(769.335 612.304)" fill="none" stroke="#7ac943" stroke-linecap="round" stroke-linejoin="round" stroke-width="1.044"/>
  </g>
</svg>
