<svg id="Group_2268" data-name="Group 2268" xmlns="http://www.w3.org/2000/svg" xmlns:xlink="http://www.w3.org/1999/xlink" width="488.872" height="389.64" viewBox="0 0 488.872 389.64">
  <defs>
    <clipPath id="clip-path">
      <path id="Path_3802" data-name="Path 3802" d="M201.726,60.494l-.255.238a19.149,19.149,0,0,1-19.4,4.051L182,64.758a19.145,19.145,0,0,0-23.883,10.38l-.308.7a19.146,19.146,0,0,1-16.021,11.4,19.147,19.147,0,0,0-17.629,18.949l-.008,1.269a19.14,19.14,0,0,1-9.932,16.646l-.118.065a19.145,19.145,0,0,0-8.429,24.217l.689,1.633A19.149,19.149,0,0,1,104.07,168.9l-.279.373a19.144,19.144,0,0,0,2.1,25.265l1.584,1.519a19.148,19.148,0,0,1,5.481,17.793l-.194.919a19.144,19.144,0,0,0,12.12,21.94l2.308.849a19.148,19.148,0,0,1,12.059,13.715l.327,1.438a19.147,19.147,0,0,0,19.9,14.852l2.508-.162a19.143,19.143,0,0,1,16.409,7.433l1.2,1.564a19.147,19.147,0,0,0,24.138,5.246l2.071-1.1a19.143,19.143,0,0,1,17.925,0l2.071,1.1a19.147,19.147,0,0,0,24.138-5.246l1.2-1.564a19.143,19.143,0,0,1,16.409-7.433l2.508.162a19.148,19.148,0,0,0,19.9-14.852l.327-1.438a19.149,19.149,0,0,1,12.057-13.715l2.309-.849a19.146,19.146,0,0,0,12.12-21.94l-.194-.919a19.145,19.145,0,0,1,5.481-17.793l1.584-1.519a19.143,19.143,0,0,0,2.1-25.265l-.278-.373a19.149,19.149,0,0,1-2.295-18.878l.689-1.633a19.145,19.145,0,0,0-8.429-24.217l-.119-.065a19.142,19.142,0,0,1-9.931-16.646l-.008-1.269a19.147,19.147,0,0,0-17.63-18.949,19.144,19.144,0,0,1-16.02-11.4l-.308-.7a19.145,19.145,0,0,0-23.883-10.38l-.073.025a19.147,19.147,0,0,1-19.394-4.051l-.255-.238a19.147,19.147,0,0,0-26.1,0" transform="translate(-99.995 -55.36)" fill="none"/>
    </clipPath>
    <clipPath id="clip-path-2">
      <rect id="Rectangle_2380" data-name="Rectangle 2380" width="488.872" height="389.64" fill="none"/>
    </clipPath>
  </defs>
  <g id="Group_2265" data-name="Group 2265" transform="translate(121.222 67.112)">
    <g id="Group_2264" data-name="Group 2264" clip-path="url(#clip-path)">
      <line id="Line_355" data-name="Line 355" x2="221.49" y2="342.77" transform="translate(111.044 -39.195)" fill="none" stroke="#19978a" stroke-linecap="round" stroke-width="0.188"/>
      <path id="Path_3793" data-name="Path 3793" d="M404.274,377.52a9.962,9.962,0,0,1-8.34-4.494L170.447,30.255a9.973,9.973,0,1,1,16.663-10.961L412.6,362.066a9.975,9.975,0,0,1-8.322,15.454" transform="translate(-85.388 -63.97)" fill="#751b7b"/>
      <path id="Path_3794" data-name="Path 3794" d="M385.975,379.164a9.963,9.963,0,0,1-8.364-4.528L154.119,31.866a9.973,9.973,0,0,1,16.708-10.894L394.319,363.744a9.975,9.975,0,0,1-8.344,15.42" transform="translate(-88.849 -63.621)" fill="#19978a"/>
      <path id="Path_3795" data-name="Path 3795" d="M429.815,382.653a19.921,19.921,0,0,1-16.676-8.983L187.638,30.9A19.939,19.939,0,0,1,220.953,8.982l225.5,342.772a19.943,19.943,0,0,1-16.637,30.9" transform="translate(-82.087 -67.112)" fill="#ee6212"/>
      <path id="Path_3796" data-name="Path 3796" d="M358.041,388.07a18.932,18.932,0,0,1-15.891-8.6L118.657,36.7A18.95,18.95,0,0,1,150.405,16L373.9,358.768a18.954,18.954,0,0,1-15.858,29.3" transform="translate(-96.686 -65.542)" fill="#f67d11"/>
      <path id="Path_3797" data-name="Path 3797" d="M328.734,377.52a9.963,9.963,0,0,1-8.364-4.528L96.876,30.221a9.973,9.973,0,0,1,16.708-10.894L337.079,362.1a9.975,9.975,0,0,1-8.344,15.42" transform="translate(-101.001 -63.97)" fill="#751b7b"/>
      <path id="Path_3798" data-name="Path 3798" d="M309.247,377.52a9.963,9.963,0,0,1-8.364-4.528L77.391,30.221A9.973,9.973,0,1,1,94.1,19.328L317.591,362.1a9.975,9.975,0,0,1-8.344,15.42" transform="translate(-105.137 -63.97)" fill="#fc9d2d"/>
      <path id="Path_3799" data-name="Path 3799" d="M289.754,377.52a9.963,9.963,0,0,1-8.364-4.528L57.885,30.221A9.973,9.973,0,1,1,74.592,19.328L298.1,362.1a9.975,9.975,0,0,1-8.344,15.42" transform="translate(-109.278 -63.97)" fill="#db0077"/>
      <path id="Path_3800" data-name="Path 3800" d="M270.421,378.689a10.962,10.962,0,0,1-9.2-4.978L37.731,30.94A10.968,10.968,0,1,1,56.107,18.959L279.6,361.728a10.97,10.97,0,0,1-9.178,16.961" transform="translate(-113.59 -64.144)" fill="#881050"/>
      <path id="Path_3801" data-name="Path 3801" d="M242.461,388.07a18.932,18.932,0,0,1-15.891-8.6L3.077,36.7A18.95,18.95,0,0,1,34.825,16l223.494,342.77a18.954,18.954,0,0,1-15.858,29.3" transform="translate(-121.222 -65.542)" fill="#38a960"/>
    </g>
  </g>
  <g id="Group_2267" data-name="Group 2267">
    <g id="Group_2266" data-name="Group 2266" clip-path="url(#clip-path-2)">
      <path id="Path_3803" data-name="Path 3803" d="M307.294,166.388a95.837,95.837,0,1,1-95.837-95.837,95.837,95.837,0,0,1,95.837,95.837" transform="translate(24.544 14.977)" fill="#050605"/>
    </g>
  </g>
  <text id="BUMIFIED" transform="translate(172.501 188.327)" fill="#fff" font-size="29" font-family="Karla-Bold, Karla" font-weight="700"><tspan x="0" y="0">BUMIFIED</tspan></text>
</svg>
