<svg xmlns="http://www.w3.org/2000/svg" width="39.23" height="33.513" viewBox="0 0 39.23 33.513">
  <g id="Group_22" data-name="Group 22" transform="translate(-6343.347 -512.087)">
    <path id="Path_28" data-name="Path 28" d="M6343.978,532.293l26.713,12.424a26.98,26.98,0,0,0,0-31.737l-26.713,12.425Z" fill="none" stroke="gray" stroke-linecap="round" stroke-linejoin="round" stroke-width="1.263"/>
    <path id="Path_29" data-name="Path 29" d="M6370.691,512.98s-4.716,4.432-4.716,16.663c0,11.591,4.716,15.074,4.716,15.074" fill="none" stroke="gray" stroke-linecap="round" stroke-linejoin="round" stroke-width="1.263"/>
    <line id="Line_37" data-name="Line 37" y1="5.759" transform="translate(6348.956 528.849)" fill="none" stroke="gray" stroke-linecap="round" stroke-linejoin="round" stroke-width="1.263"/>
    <path id="Path_30" data-name="Path 30" d="M6351.147,535.79v6.52h9.644v-2.2" fill="none" stroke="gray" stroke-linecap="round" stroke-linejoin="round" stroke-width="1.263"/>
    <line id="Line_38" data-name="Line 38" x1="1.858" y2="0.879" transform="translate(6354.931 523.504)" fill="none" stroke="gray" stroke-linecap="round" stroke-linejoin="round" stroke-width="1.263"/>
    <line id="Line_39" data-name="Line 39" x1="8.981" y2="4.247" transform="translate(6358.704 518.352)" fill="none" stroke="gray" stroke-linecap="round" stroke-linejoin="round" stroke-width="1.263"/>
    <path id="Path_31" data-name="Path 31" d="M6366.194,525.257s3.113.408,3.113,3.288-3.113,3.183-3.113,3.183" fill="none" stroke="gray" stroke-linecap="round" stroke-linejoin="round" stroke-width="1.263"/>
    <line id="Line_40" data-name="Line 40" x2="4.213" transform="translate(6377.732 528.058)" fill="none" stroke="gray" stroke-linecap="round" stroke-linejoin="round" stroke-width="1.263"/>
    <line id="Line_41" data-name="Line 41" y1="1.784" x2="2.524" transform="translate(6377.732 521.383)" fill="none" stroke="gray" stroke-linecap="round" stroke-linejoin="round" stroke-width="1.263"/>
    <line id="Line_42" data-name="Line 42" x1="2.524" y1="1.784" transform="translate(6377.732 533.266)" fill="none" stroke="gray" stroke-linecap="round" stroke-linejoin="round" stroke-width="1.263"/>
  </g>
</svg>
