<svg xmlns="http://www.w3.org/2000/svg" width="33.947" height="31.418" viewBox="0 0 33.947 31.418">
  <g id="Group_819" data-name="Group 819" transform="translate(-55.682 -528.886)">
    <path id="Path_923" data-name="Path 923" d="M67.755,553.214l-2.762,6.459,7.231-5.254,7.231,5.254-2.762-8.5,8.809-5.254H74.986l-2.594-8.063-2.93,8.063H56.314" fill="none" stroke="gray" stroke-linecap="round" stroke-linejoin="round" stroke-width="1.263"/>
    <path id="Path_924" data-name="Path 924" d="M83.552,529.518l1.286,3.957H89l-3.366,2.445,1.286,3.957-3.366-2.445-3.366,2.445,1.286-3.957-3.366-2.445h4.16Z" fill="none" stroke="gray" stroke-linecap="round" stroke-linejoin="round" stroke-width="1.263"/>
    <path id="Path_925" data-name="Path 925" d="M59.224,550.03l.687,2.114h2.223l-1.8,1.307.687,2.114-1.8-1.307-1.8,1.307.687-2.114-1.8-1.307h2.223Z" fill="none" stroke="gray" stroke-linecap="round" stroke-linejoin="round" stroke-width="0.675"/>
    <circle id="Ellipse_108" data-name="Ellipse 108" cx="2.79" cy="2.79" r="2.79" transform="translate(60.607 535.065)" fill="none" stroke="gray" stroke-linecap="round" stroke-linejoin="round" stroke-width="1.263"/>
    <g id="Group_818" data-name="Group 818">
      <line id="Line_838" data-name="Line 838" y2="6.225" transform="translate(85.107 550.714)" fill="none" stroke="gray" stroke-linecap="round" stroke-linejoin="round" stroke-width="1.092"/>
      <line id="Line_839" data-name="Line 839" x1="6.225" transform="translate(81.995 553.826)" fill="none" stroke="gray" stroke-linecap="round" stroke-linejoin="round" stroke-width="1.092"/>
    </g>
  </g>
</svg>
