<svg xmlns="http://www.w3.org/2000/svg" width="29.262" height="31.609" viewBox="0 0 29.262 31.609">
  <g id="Group_817" data-name="Group 817" transform="translate(-58.024 -975.187)">
    <path id="Path_922" data-name="Path 922" d="M86.655,992.149a13.577,13.577,0,0,1-1.11,5.423,14.5,14.5,0,0,1-2.972,4.475,14.129,14.129,0,0,1-9.9,4.117,13.946,13.946,0,0,1-5.454-1.112,12.887,12.887,0,0,1-4.442-3.005,16.757,16.757,0,0,1-3.006-4.475,11.661,11.661,0,0,1-1.11-5.423,13.65,13.65,0,0,1,1.469-6.238,14.27,14.27,0,0,1,4.116-4.933,2.327,2.327,0,0,1,1.764-.456,2.041,2.041,0,0,1,1.5.914,2.224,2.224,0,0,1,.458,1.732,2.152,2.152,0,0,1-.914,1.535,9.346,9.346,0,0,0-2.745,3.3,9.145,9.145,0,0,0-.979,4.146,9.02,9.02,0,0,0,.751,3.628,9.251,9.251,0,0,0,4.965,4.964,9.006,9.006,0,0,0,3.625.75,8.78,8.78,0,0,0,3.593-.75,10.442,10.442,0,0,0,3.005-1.993,8.226,8.226,0,0,0,1.993-2.971,10.264,10.264,0,0,0,.719-3.628A9.026,9.026,0,0,0,81,988a9.746,9.746,0,0,0-2.744-3.3,2.4,2.4,0,0,1-.915-1.535,2.17,2.17,0,0,1,.425-1.732,2.26,2.26,0,0,1,1.567-.914,2.227,2.227,0,0,1,1.732.456,13.951,13.951,0,0,1,5.585,11.171ZM75,978.137v11.695a2.343,2.343,0,0,1-2.32,2.317,2.334,2.334,0,0,1-1.665-.686,2.065,2.065,0,0,1-.686-1.631V978.137a2.235,2.235,0,0,1,.686-1.634,2.272,2.272,0,0,1,1.665-.685,2.172,2.172,0,0,1,1.634.685A2.422,2.422,0,0,1,75,978.137Z" fill="none" stroke="gray" stroke-linecap="round" stroke-linejoin="round" stroke-width="1.263"/>
  </g>
</svg>
