<svg xmlns="http://www.w3.org/2000/svg" width="35.217" height="40.724" viewBox="0 0 35.217 40.724">
  <g id="Group_965" data-name="Group 965" transform="translate(-54.874 -501.032)">
    <path id="Path_699" data-name="Path 699" d="M60.018,509.586l-4.513,4.9s1.946,22.411,1.946,23.579,1.245,1.167,1.245,1.167l6.614-.389" fill="none" stroke="gray" stroke-linecap="round" stroke-linejoin="round" stroke-width="1.263"/>
    <path id="Path_700" data-name="Path 700" d="M64.843,504.606l-5.758,11.828,9.493,23.813a1.634,1.634,0,0,0,2.024.7c1.313-.534,15.719-6.381,17.509-7.315s1.167-2.257,1.167-2.257l-9.649-23.034s-9.805-3.813-12.062-4.435S64.843,504.606,64.843,504.606Z" fill="none" stroke="gray" stroke-linecap="round" stroke-linejoin="round" stroke-width="1.263"/>
    <circle id="Ellipse_303" data-name="Ellipse 303" cx="2.764" cy="2.764" r="2.764" transform="translate(65.736 507.834)" fill="none" stroke="gray" stroke-linecap="round" stroke-linejoin="round" stroke-width="1.263"/>
    <circle id="Ellipse_304" data-name="Ellipse 304" cx="2.256" cy="2.256" r="2.256" transform="translate(67.061 520.484)" fill="none" stroke="gray" stroke-linecap="round" stroke-linejoin="round" stroke-width="1.263"/>
    <circle id="Ellipse_305" data-name="Ellipse 305" cx="2.256" cy="2.256" r="2.256" transform="translate(76.861 524.644)" fill="none" stroke="gray" stroke-linecap="round" stroke-linejoin="round" stroke-width="1.263"/>
    <path id="Path_701" data-name="Path 701" d="M68.5,510.053s-7-10.816-11.206-7.859c-1.79,3.035,5.293,7.044,5.293,7.044" fill="none" stroke="gray" stroke-linecap="round" stroke-linejoin="round" stroke-width="1.263"/>
    <line id="Line_620" data-name="Line 620" x1="6.185" y2="15.019" transform="translate(71.265 517.135)" fill="none" stroke="gray" stroke-linecap="round" stroke-linejoin="round" stroke-width="1.263"/>
  </g>
</svg>
