<svg xmlns="http://www.w3.org/2000/svg" width="29.264" height="29.291" viewBox="0 0 29.264 29.291">
  <g id="Group_695" data-name="Group 695" transform="translate(-1670.296 -2195.891)">
    <path id="Path_613" data-name="Path 613" d="M1698.922,2208.544v4.051a.752.752,0,0,1-.131.425.5.5,0,0,1-.359.228l-3.4.523a11.462,11.462,0,0,1-.686,1.666q.619.882,1.927,2.515a.594.594,0,0,1,.2.425.651.651,0,0,1-.164.425,18.037,18.037,0,0,1-1.8,1.992q-1.306,1.308-1.731,1.274a.785.785,0,0,1-.458-.163l-2.515-1.96a9.976,9.976,0,0,1-1.666.686,32.091,32.091,0,0,1-.523,3.4.618.618,0,0,1-.653.523h-4.05a.693.693,0,0,1-.458-.164.5.5,0,0,1-.2-.391l-.523-3.365a11.238,11.238,0,0,1-1.633-.686l-2.58,1.96a.7.7,0,0,1-.458.163.625.625,0,0,1-.457-.2,25.441,25.441,0,0,1-3.005-3.07.611.611,0,0,1-.131-.393.649.649,0,0,1,.163-.424c.174-.262.479-.664.915-1.209s.762-.98.98-1.306a9.555,9.555,0,0,1-.751-1.8l-3.332-.49a.5.5,0,0,1-.359-.228,1.016,1.016,0,0,1-.164-.425v-4.051a.648.648,0,0,1,.164-.425.6.6,0,0,1,.326-.228l3.4-.523a9.861,9.861,0,0,1,.719-1.666q-.751-1.046-1.96-2.515a.676.676,0,0,1-.2-.425.742.742,0,0,1,.163-.424,21.2,21.2,0,0,1,1.8-1.96q1.306-1.307,1.731-1.307a.943.943,0,0,1,.49.163l2.515,1.961a8.917,8.917,0,0,1,1.634-.686,25.6,25.6,0,0,1,.555-3.4.592.592,0,0,1,.654-.523h4.05a.652.652,0,0,1,.425.164.614.614,0,0,1,.228.392l.49,3.365a13.042,13.042,0,0,1,1.666.653l2.581-1.928a.557.557,0,0,1,.408-.163.814.814,0,0,1,.474.163,26.423,26.423,0,0,1,3.005,3.1.608.608,0,0,1,.131.391.752.752,0,0,1-.131.425q-.294.391-.947,1.209t-.98,1.307a9.9,9.9,0,0,1,.751,1.763l3.332.523a.614.614,0,0,1,.392.229A.527.527,0,0,1,1698.922,2208.544Zm-9.343,1.993a4.554,4.554,0,0,0-1.339-3.3,4.652,4.652,0,0,0-6.6,0,4.668,4.668,0,0,0-1.372,3.3,4.332,4.332,0,0,0,1.372,3.3,4.652,4.652,0,0,0,6.6,0A4.229,4.229,0,0,0,1689.579,2210.537Z" fill="none" stroke="gray" stroke-linecap="round" stroke-linejoin="round" stroke-width="1.263"/>
  </g>
</svg>
