<svg xmlns="http://www.w3.org/2000/svg" width="36.454" height="32.575" viewBox="0 0 36.454 32.575">
  <g id="Group_829" data-name="Group 829" transform="translate(-54.504 -301.54)">
    <g id="Group_828" data-name="Group 828">
      <path id="Path_934" data-name="Path 934" d="M60.577,310.527a2.541,2.541,0,1,1-5.081,0H90.175a2.541,2.541,0,0,1-5.082,0" fill="none" stroke="gray" stroke-linecap="round" stroke-linejoin="round" stroke-width="1.263"/>
      <path id="Path_935" data-name="Path 935" d="M65.51,310.527a2.541,2.541,0,1,1-5.081,0l1.429-8.257" fill="none" stroke="gray" stroke-linecap="round" stroke-linejoin="round" stroke-width="1.263"/>
      <path id="Path_936" data-name="Path 936" d="M70.443,310.527a2.541,2.541,0,1,1-5.081,0l.726-8.257" fill="none" stroke="gray" stroke-linecap="round" stroke-linejoin="round" stroke-width="1.263"/>
      <path id="Path_937" data-name="Path 937" d="M75.376,310.527a2.541,2.541,0,0,1-5.082,0V302.27" fill="none" stroke="gray" stroke-linecap="round" stroke-linejoin="round" stroke-width="1.263"/>
      <path id="Path_938" data-name="Path 938" d="M80.309,310.527a2.541,2.541,0,0,1-5.082,0V302.27" fill="none" stroke="gray" stroke-linecap="round" stroke-linejoin="round" stroke-width="1.263"/>
      <path id="Path_939" data-name="Path 939" d="M84.2,302.27l1.046,8.257a2.541,2.541,0,0,1-5.082,0l-.251-8.257" fill="none" stroke="gray" stroke-linecap="round" stroke-linejoin="round" stroke-width="1.263"/>
      <path id="Path_940" data-name="Path 940" d="M55.5,310.527l2.862-8.257h29.4l2.418,8.257" fill="none" stroke="gray" stroke-linecap="round" stroke-linejoin="round" stroke-width="1.263"/>
    </g>
    <line id="Line_843" data-name="Line 843" y2="8.494" transform="translate(57.967 313.068)" fill="none" stroke="gray" stroke-linecap="round" stroke-linejoin="round" stroke-width="1.263"/>
    <line id="Line_844" data-name="Line 844" y2="8.494" transform="translate(62.969 313.068)" fill="none" stroke="gray" stroke-linecap="round" stroke-linejoin="round" stroke-width="1.263"/>
    <line id="Line_845" data-name="Line 845" y2="8.494" transform="translate(82.769 313.068)" fill="none" stroke="gray" stroke-linecap="round" stroke-linejoin="round" stroke-width="1.263"/>
    <line id="Line_846" data-name="Line 846" y2="8.494" transform="translate(87.772 313.068)" fill="none" stroke="gray" stroke-linecap="round" stroke-linejoin="round" stroke-width="1.263"/>
    <path id="Path_941" data-name="Path 941" d="M90.175,321.561H55.136v2.894H90.175Z" fill="none" stroke="gray" stroke-linecap="round" stroke-linejoin="round" stroke-width="1.263"/>
    <path id="Path_942" data-name="Path 942" d="M88.582,333.483H56.868l1.021-2.546H87.576Z" fill="none" stroke="gray" stroke-linecap="round" stroke-linejoin="round" stroke-width="1.263"/>
    <line id="Line_847" data-name="Line 847" x2="1.63" y2="6.482" transform="translate(58.037 324.455)" fill="none" stroke="gray" stroke-linecap="round" stroke-linejoin="round" stroke-width="1.263"/>
    <line id="Line_848" data-name="Line 848" y1="6.346" x2="1.411" transform="translate(86.361 324.455)" fill="none" stroke="gray" stroke-linecap="round" stroke-linejoin="round" stroke-width="1.263"/>
  </g>
</svg>
