<svg xmlns="http://www.w3.org/2000/svg" width="25.61" height="29.263" viewBox="0 0 25.61 29.263">
  <g id="Group_1632" data-name="Group 1632" transform="translate(-60.22 -761.813)">
    <path id="Path_697" data-name="Path 697" d="M73.024,774.617h0a4.868,4.868,0,0,1-4.869-4.869v-2.435a4.869,4.869,0,0,1,9.739,0v2.435A4.869,4.869,0,0,1,73.024,774.617Z" fill="none" stroke="gray" stroke-linecap="round" stroke-linejoin="round" stroke-width="1.263"/>
    <path id="Path_698" data-name="Path 698" d="M68.352,778.27a.875.875,0,0,1,.709.388,4.861,4.861,0,0,0,7.927,0,.878.878,0,0,1,.709-.388h0a7.5,7.5,0,0,1,7.5,7.5v3.421a1.254,1.254,0,0,1-1.253,1.254H62.106a1.256,1.256,0,0,1-1.255-1.254v-3.421a7.5,7.5,0,0,1,7.5-7.5Z" fill="none" stroke="gray" stroke-linecap="round" stroke-linejoin="round" stroke-width="1.263"/>
  </g>
</svg>
