<svg xmlns="http://www.w3.org/2000/svg" width="37.263" height="31.101" viewBox="0 0 37.263 31.101">
  <g id="Group_826" data-name="Group 826" transform="translate(-54.024 -415.919)">
    <g id="Group_821" data-name="Group 821">
      <rect id="Rectangle_419" data-name="Rectangle 419" width="12.832" height="13.258" transform="translate(66.239 433.131)" fill="none" stroke="gray" stroke-linecap="round" stroke-linejoin="round" stroke-width="1.263"/>
      <line id="Line_840" data-name="Line 840" x2="12.832" transform="translate(66.239 437.522)" fill="none" stroke="gray" stroke-linecap="round" stroke-linejoin="round" stroke-width="1.263"/>
      <path id="Path_926" data-name="Path 926" d="M69.305,437.522v3.17H75.7v-3.17" fill="none" stroke="gray" stroke-linecap="round" stroke-linejoin="round" stroke-width="1.263"/>
    </g>
    <g id="Group_824" data-name="Group 824">
      <g id="Group_822" data-name="Group 822">
        <rect id="Rectangle_420" data-name="Rectangle 420" width="8.583" height="8.867" transform="translate(54.655 437.522)" fill="none" stroke="gray" stroke-linecap="round" stroke-linejoin="round" stroke-width="1.263"/>
        <line id="Line_841" data-name="Line 841" x2="8.583" transform="translate(54.655 440.459)" fill="none" stroke="gray" stroke-linecap="round" stroke-linejoin="round" stroke-width="1.263"/>
        <path id="Path_927" data-name="Path 927" d="M56.706,440.459v2.12h4.277v-2.12" fill="none" stroke="gray" stroke-linecap="round" stroke-linejoin="round" stroke-width="1.263"/>
      </g>
      <g id="Group_823" data-name="Group 823">
        <rect id="Rectangle_421" data-name="Rectangle 421" width="8.583" height="8.867" transform="translate(82.073 437.522)" fill="none" stroke="gray" stroke-linecap="round" stroke-linejoin="round" stroke-width="1.263"/>
        <line id="Line_842" data-name="Line 842" x2="8.583" transform="translate(82.073 440.459)" fill="none" stroke="gray" stroke-linecap="round" stroke-linejoin="round" stroke-width="1.263"/>
        <path id="Path_928" data-name="Path 928" d="M84.123,440.459v2.12H88.4v-2.12" fill="none" stroke="gray" stroke-linecap="round" stroke-linejoin="round" stroke-width="1.263"/>
      </g>
    </g>
    <g id="Group_825" data-name="Group 825">
      <path id="Path_929" data-name="Path 929" d="M57.409,434.608c.006-1.215.427-8.151,8.506-8.149" fill="none" stroke="gray" stroke-linecap="round" stroke-linejoin="round" stroke-width="1.263"/>
      <path id="Path_930" data-name="Path 930" d="M79.621,426.457s8.779.457,8.281,9.25" fill="none" stroke="gray" stroke-linecap="round" stroke-linejoin="round" stroke-width="1.263"/>
      <path id="Path_931" data-name="Path 931" d="M72.856,421.5a3.98,3.98,0,1,1-3.983,3.94A3.955,3.955,0,0,1,72.856,421.5Z" fill="none" stroke="gray" stroke-linecap="round" stroke-linejoin="round" stroke-width="1.263"/>
      <path id="Path_932" data-name="Path 932" d="M67.035,423.97a3.985,3.985,0,0,1-5.056-.88,3.86,3.86,0,0,1-.922-2.174,4.078,4.078,0,0,1,3.592-4.34,3.965,3.965,0,0,1,4.365,4" fill="none" stroke="gray" stroke-linecap="round" stroke-linejoin="round" stroke-width="1.263"/>
      <path id="Path_933" data-name="Path 933" d="M76.307,420.264a3.967,3.967,0,0,1,.925-2.289,3.86,3.86,0,0,1,2.754-1.411,3.808,3.808,0,0,1,2.8.877,3.983,3.983,0,0,1-.471,6.516,3.717,3.717,0,0,1-1.972.555" fill="none" stroke="gray" stroke-linecap="round" stroke-linejoin="round" stroke-width="1.263"/>
    </g>
  </g>
</svg>
