<svg xmlns="http://www.w3.org/2000/svg" width="30.316" height="25.264" viewBox="0 0 30.316 25.264">
  <g id="Group_813" data-name="Group 813" transform="translate(-57.497 -640.929)">
    <path id="Path_911" data-name="Path 911" d="M85.919,657.983V664.3a1.266,1.266,0,0,1-1.263,1.263h-24" fill="none" stroke="gray" stroke-linecap="round" stroke-linejoin="round" stroke-width="1.263"/>
    <path id="Path_912" data-name="Path 912" d="M60.655,646.613h24a1.267,1.267,0,0,1,1.263,1.264v5.052" fill="none" stroke="gray" stroke-linecap="round" stroke-linejoin="round" stroke-width="1.263"/>
    <path id="Path_913" data-name="Path 913" d="M58.129,646.613v16.422" fill="none" stroke="gray" stroke-linecap="round" stroke-linejoin="round" stroke-width="1.263"/>
    <path id="Path_914" data-name="Path 914" d="M60.655,641.561a2.527,2.527,0,0,0,0,5.053" fill="none" stroke="gray" stroke-linecap="round" stroke-linejoin="round" stroke-width="1.263"/>
    <line id="Line_834" data-name="Line 834" y1="3.79" transform="translate(58.129 644.087)" fill="none" stroke="gray" stroke-linecap="round" stroke-linejoin="round" stroke-width="1.263"/>
    <path id="Path_915" data-name="Path 915" d="M82.129,646.613v-3.789a1.264,1.264,0,0,0-1.263-1.264H60.655" fill="none" stroke="gray" stroke-linecap="round" stroke-linejoin="round" stroke-width="1.263"/>
    <path id="Path_916" data-name="Path 916" d="M58.129,663.035a2.533,2.533,0,0,0,2.526,2.525" fill="none" stroke="gray" stroke-linecap="round" stroke-linejoin="round" stroke-width="1.263"/>
    <path id="Path_917" data-name="Path 917" d="M78.34,657.983a2.526,2.526,0,0,1,0-5.053" fill="none" stroke="gray" stroke-linecap="round" stroke-linejoin="round" stroke-width="1.263"/>
    <path id="Path_918" data-name="Path 918" d="M78.34,657.983h7.579a1.263,1.263,0,0,0,1.263-1.264v-2.526a1.264,1.264,0,0,0-1.263-1.263H78.34" fill="none" stroke="gray" stroke-linecap="round" stroke-linejoin="round" stroke-width="1.263"/>
  </g>
</svg>
