<svg xmlns="http://www.w3.org/2000/svg" width="51.466" height="40.918" viewBox="0 0 51.466 40.918">
  <path id="Path_5282" data-name="Path 5282" d="M4919.863,1441.125h-49.686a.867.867,0,0,0-.889.847.3.3,0,0,0,0,.042v39.139a.868.868,0,0,0,.847.889h49.728a.869.869,0,0,0,.89-.847v-39.181a.869.869,0,0,0-.848-.889Zm-.89,39.138h-47.906V1442.9h47.906Zm-35.517-19.44a4.956,4.956,0,1,0-4.954-4.958,5.046,5.046,0,0,0,4.954,4.956Zm0-8.132a3.185,3.185,0,0,1,3.177,3.177,3.146,3.146,0,0,1-3.116,3.176h-.061a3.186,3.186,0,0,1-3.176-3.176,3.228,3.228,0,0,1,3.176-3.179Zm-7.942,24.014a.89.89,0,0,0,.572-.19l14.486-12.771,9.15,9.149a.9.9,0,0,0,1.271-1.271l-4.257-4.259,8.132-8.956,9.975,9.149a.9.9,0,0,0,1.208-1.334h0l-10.675-9.72a.815.815,0,0,0-.636-.254.882.882,0,0,0-.635.317l-8.7,9.53-4.194-4.194a.959.959,0,0,0-1.207-.063l-15.121,13.342a.9.9,0,0,0-.064,1.27h0A1.337,1.337,0,0,0,4875.514,1476.7Z" transform="translate(-4869.287 -1441.124)" fill="#98a4b4"/>
</svg>
