<svg xmlns="http://www.w3.org/2000/svg" width="16.391" height="23.293" viewBox="0 0 16.391 23.293">
  <g id="s_bag" transform="translate(-3090.154 -1384.982)">
    <path id="Path_67" data-name="Path 67" d="M3105.075,1407.775h-13.452a.969.969,0,0,1-.967-1.026l.855-14.539a.969.969,0,0,1,.967-.912h11.742a.97.97,0,0,1,.968.912l.855,14.539A.969.969,0,0,1,3105.075,1407.775Z" fill="none" stroke="#009e97" stroke-linecap="round" stroke-linejoin="round" stroke-width="1"/>
    <path id="Path_68" data-name="Path 68" d="M3102.226,1391.3h-7.754v-1.939a3.877,3.877,0,0,1,3.877-3.877h0a3.877,3.877,0,0,1,3.877,3.877Z" fill="none" stroke="#009e97" stroke-linecap="round" stroke-linejoin="round" stroke-width="1"/>
    <line id="Line_60" data-name="Line 60" x1="7.754" y2="7.754" transform="translate(3094.472 1396.144)" fill="none" stroke="#009e97" stroke-linecap="round" stroke-linejoin="round" stroke-width="1"/>
    <circle id="Ellipse_4" data-name="Ellipse 4" cx="1.454" cy="1.454" r="1.454" transform="translate(3094.472 1395.175)" fill="none" stroke="#009e97" stroke-linecap="round" stroke-linejoin="round" stroke-width="1"/>
    <circle id="Ellipse_5" data-name="Ellipse 5" cx="1.454" cy="1.454" r="1.454" transform="translate(3100.288 1400.99)" fill="none" stroke="#009e97" stroke-linecap="round" stroke-linejoin="round" stroke-width="1"/>
  </g>
</svg>
