<svg xmlns="http://www.w3.org/2000/svg" width="22.578" height="23.366" viewBox="0 0 22.578 23.366">
  <g id="Group_20" data-name="Group 20" transform="translate(-2461.449 -1626.606)">
    <path id="Path_94" data-name="Path 94" d="M2483.4,1634.933a4.969,4.969,0,0,0-6.4,1.939,2.142,2.142,0,0,0-4.264,0,2.142,2.142,0,0,0-4.265,0,2.142,2.142,0,0,0-4.265,0,2.043,2.043,0,0,1-2.132-1.939" fill="none" stroke="#009e97" stroke-linecap="round" stroke-linejoin="round" stroke-width="1"/>
    <path id="Path_95" data-name="Path 95" d="M2462.076,1634.933l2.222-7.051a.969.969,0,0,1,.932-.7h15.015a.969.969,0,0,1,.932.7l2.223,7.051" fill="none" stroke="#009e97" stroke-linecap="round" stroke-width="1"/>
    <path id="Path_96" data-name="Path 96" d="M2481.946,1636.872V1648.5a.97.97,0,0,1-.97.969H2464.5a.969.969,0,0,1-.969-.969v-11.631" fill="none" stroke="#009e97" stroke-linecap="round" stroke-linejoin="round" stroke-width="1"/>
    <line id="Line_75" data-name="Line 75" y2="13.57" transform="translate(2470.314 1635.903)" fill="none" stroke="#009e97" stroke-linecap="round" stroke-width="1"/>
    <line id="Line_76" data-name="Line 76" y2="0.969" transform="translate(2468.376 1641.718)" fill="none" stroke="#009e97" stroke-linecap="round" stroke-width="1"/>
    <line id="Line_77" data-name="Line 77" x1="2.908" y2="2.908" transform="translate(2473.222 1639.78)" fill="none" stroke="#009e97" stroke-linecap="round" stroke-width="1"/>
    <line id="Line_78" data-name="Line 78" x1="3.877" y2="3.877" transform="translate(2474.192 1641.718)" fill="none" stroke="#009e97" stroke-linecap="round" stroke-width="1"/>
    <line id="Line_79" data-name="Line 79" x1="1.167" y1="7.754" transform="translate(2477.968 1627.179)" fill="none" stroke="#009e97" stroke-linecap="round" stroke-width="1"/>
    <line id="Line_80" data-name="Line 80" x1="0.719" y1="7.754" transform="translate(2474.151 1627.179)" fill="none" stroke="#009e97" stroke-linecap="round" stroke-width="1"/>
    <line id="Line_81" data-name="Line 81" y1="7.754" x2="0.658" transform="translate(2470.605 1627.179)" fill="none" stroke="#009e97" stroke-linecap="round" stroke-width="1"/>
    <line id="Line_82" data-name="Line 82" y1="7.754" x2="1.248" transform="translate(2466.341 1627.179)" fill="none" stroke="#009e97" stroke-linecap="round" stroke-width="1"/>
  </g>
</svg>
