<svg xmlns="http://www.w3.org/2000/svg" width="22.324" height="21.354" viewBox="0 0 22.324 21.354">
  <g id="Group_15" data-name="Group 15" transform="translate(-2463.044 -1386.129)">
    <path id="Path_77" data-name="Path 77" d="M2463.544,1398.26a2.072,2.072,0,0,0,.65,1.454,6.784,6.784,0,0,0,8.394,0,2.075,2.075,0,0,0,.649-1.454" fill="none" stroke="#009e97" stroke-linecap="round" stroke-linejoin="round" stroke-width="1"/>
    <path id="Path_78" data-name="Path 78" d="M2473.237,1401.168a2.075,2.075,0,0,1-.649,1.454" fill="none" stroke="#009e97" stroke-linecap="round" stroke-linejoin="round" stroke-width="1"/>
    <path id="Path_79" data-name="Path 79" d="M2464.194,1402.622a2.072,2.072,0,0,1-.65-1.454" fill="none" stroke="#009e97" stroke-linecap="round" stroke-linejoin="round" stroke-width="1"/>
    <path id="Path_80" data-name="Path 80" d="M2463.544,1392.444a2.068,2.068,0,0,0,.65,1.454,6.784,6.784,0,0,0,8.394,0,2.071,2.071,0,0,0,.649-1.454" fill="none" stroke="#009e97" stroke-linecap="round" stroke-linejoin="round" stroke-width="1"/>
    <ellipse id="Ellipse_7" data-name="Ellipse 7" cx="4.846" cy="2.908" rx="4.846" ry="2.908" transform="translate(2463.544 1386.629)" fill="none" stroke="#009e97" stroke-linecap="round" stroke-linejoin="round" stroke-width="1"/>
    <path id="Path_81" data-name="Path 81" d="M2463.544,1395.352a2.07,2.07,0,0,0,.65,1.454,6.784,6.784,0,0,0,8.394,0,2.073,2.073,0,0,0,.649-1.454" fill="none" stroke="#009e97" stroke-linecap="round" stroke-linejoin="round" stroke-width="1"/>
    <path id="Path_82" data-name="Path 82" d="M2463.544,1404.076c0,1.609,2.171,2.907,4.847,2.907s4.846-1.3,4.846-2.907" fill="none" stroke="#009e97" stroke-linecap="round" stroke-linejoin="round" stroke-width="1"/>
    <path id="Path_83" data-name="Path 83" d="M2464.194,1402.622a6.784,6.784,0,0,0,8.394,0" fill="none" stroke="#009e97" stroke-linecap="round" stroke-linejoin="round" stroke-width="1"/>
    <path id="Path_84" data-name="Path 84" d="M2473.237,1404.076v-14.539" fill="none" stroke="#009e97" stroke-linecap="round" stroke-linejoin="round" stroke-width="1"/>
    <path id="Path_85" data-name="Path 85" d="M2463.544,1404.076v-14.539" fill="none" stroke="#009e97" stroke-linecap="round" stroke-linejoin="round" stroke-width="1"/>
    <path id="Path_86" data-name="Path 86" d="M2475.175,1404.076a2.068,2.068,0,0,0,.65,1.453,6.784,6.784,0,0,0,8.394,0,2.071,2.071,0,0,0,.649-1.453" fill="none" stroke="#009e97" stroke-linecap="round" stroke-linejoin="round" stroke-width="1"/>
    <path id="Path_87" data-name="Path 87" d="M2475.175,1398.26a2.072,2.072,0,0,0,.65,1.454,6.784,6.784,0,0,0,8.394,0,2.075,2.075,0,0,0,.649-1.454" fill="none" stroke="#009e97" stroke-linecap="round" stroke-linejoin="round" stroke-width="1"/>
    <ellipse id="Ellipse_8" data-name="Ellipse 8" cx="4.846" cy="2.908" rx="4.846" ry="2.908" transform="translate(2475.176 1392.444)" fill="none" stroke="#009e97" stroke-linecap="round" stroke-linejoin="round" stroke-width="1"/>
    <path id="Path_88" data-name="Path 88" d="M2475.175,1401.168a2.071,2.071,0,0,0,.65,1.454,6.784,6.784,0,0,0,8.394,0,2.074,2.074,0,0,0,.649-1.454" fill="none" stroke="#009e97" stroke-linecap="round" stroke-linejoin="round" stroke-width="1"/>
    <path id="Path_89" data-name="Path 89" d="M2484.868,1395.352v8.723" fill="none" stroke="#009e97" stroke-linecap="round" stroke-linejoin="round" stroke-width="1"/>
    <path id="Path_90" data-name="Path 90" d="M2475.176,1395.352v8.723" fill="none" stroke="#009e97" stroke-linecap="round" stroke-linejoin="round" stroke-width="1"/>
  </g>
</svg>
