<svg xmlns="http://www.w3.org/2000/svg" width="174.913" height="100" viewBox="0 0 174.913 100">
  <g id="Group_182" data-name="Group 182" transform="translate(-150.007 -289.719)">
    <path id="Path_265" data-name="Path 265" d="M193.074,321.941a.3.3,0,1,0,.5-.335l-14.977-22.212c-.2.073-.38.151-.569.228Z" fill="#a3195c"/>
    <path id="Path_266" data-name="Path 266" d="M172.157,289.851a.3.3,0,1,0-.5.334l5.759,8.54c.2-.059.4-.114.606-.171Z" fill="#a3195c"/>
    <path id="Path_267" data-name="Path 267" d="M172.393,306.383l36.1,55.726a.3.3,0,0,0,.5-.325l-36.344-56.107A5.009,5.009,0,0,1,172.393,306.383Z" fill="#009ee2"/>
    <path id="Path_268" data-name="Path 268" d="M170.044,301.655l-2.269-3.5a.3.3,0,0,0-.5.325l2.239,3.457C169.688,301.84,169.866,301.747,170.044,301.655Z" fill="#009ee2"/>
    <path id="Path_269" data-name="Path 269" d="M172.16,342.057a.3.3,0,1,0-.5.325l29.973,46.271a.3.3,0,0,0,.5-.325Z" fill="#93c01f"/>
    <path id="Path_270" data-name="Path 270" d="M198.328,319.388a.3.3,0,1,0-.5.325l7.61,11.775a.3.3,0,1,0,.5-.325Z" fill="#00a099"/>
    <path id="Path_271" data-name="Path 271" d="M201.713,369.148a1.335,1.335,0,0,0,.4-1.847l-10.921-16.9a1.336,1.336,0,1,0-2.244,1.45l10.922,16.9A1.335,1.335,0,0,0,201.713,369.148Z" fill="#e84e1b"/>
    <g id="Group_181" data-name="Group 181">
      <path id="Path_272" data-name="Path 272" d="M242.315,342.3a7.461,7.461,0,0,0,2.644-5.962,7.844,7.844,0,0,0-2.619-6.081,9.868,9.868,0,0,0-6.9-2.381h-11.1v31.734h13.609a10.606,10.606,0,0,0,7.452-2.6,8.591,8.591,0,0,0,2.837-6.635,8.266,8.266,0,0,0-1.563-5.05A8.562,8.562,0,0,0,242.315,342.3Zm-12.984-9.952h5.629a5.3,5.3,0,0,1,3.628,1.128,3.928,3.928,0,0,1,1.274,3.1,4.021,4.021,0,0,1-1.3,3.176,5.245,5.245,0,0,1-3.6,1.154h-5.629Zm12.285,21.467a5.917,5.917,0,0,1-4.109,1.324h-8.176v-9.858h8.176a5.936,5.936,0,0,1,4.088,1.324,5.132,5.132,0,0,1,.021,7.21Z" fill="#fff"/>
      <path id="Path_273" data-name="Path 273" d="M272.749,347.113a8.43,8.43,0,0,1-2.162,6.157,7.652,7.652,0,0,1-5.724,2.21,7.788,7.788,0,0,1-5.792-2.21,8.368,8.368,0,0,1-2.188-6.157V327.881h-5.1v18.895q0,6.16,3.632,9.76a14.054,14.054,0,0,0,18.8,0q3.625-3.6,3.628-9.76V327.881h-5.1Z" fill="#fff"/>
      <path id="Path_274" data-name="Path 274" d="M298.717,345.094,285.4,327.353h-1.78v32.262h5.1V339.661l9.134,11.974h1.732l9.088-11.927v19.908h5.1V327.353h-1.733Z" fill="#fff"/>
      <rect id="Rectangle_72" data-name="Rectangle 72" width="5.098" height="31.733" transform="translate(319.822 327.881)" fill="#fff"/>
    </g>
    <path id="Path_275" data-name="Path 275" d="M170.218,301.563l2.5,3.828c.037-.167.09-.316.115-.5a5.691,5.691,0,0,1,2.783-4.047l-.828-1.258A39.351,39.351,0,0,0,170.218,301.563Z" fill="#941d80"/>
    <path id="Path_276" data-name="Path 276" d="M170.044,301.655c-.178.092-.356.185-.532.28a34.113,34.113,0,0,0-4.348,2.785l2.853,4.376a4.883,4.883,0,0,0,4.376-2.713,5.009,5.009,0,0,0,.256-.706c.025-.092.044-.19.066-.286l-2.5-3.828Z" fill="#00a099"/>
    <path id="Path_277" data-name="Path 277" d="M187.214,296.756c-1.219.189-2.439.369-3.652.583-1.394.251-2.794.486-4.169.831-.463.115-.911.257-1.367.384-.2.057-.4.112-.606.171-.894.262-1.771.552-2.635.864l.828,1.258a13.742,13.742,0,0,1,2.411-1.225c.189-.077.374-.155.569-.228,2.776-1.034,6.047-1.677,8.669-2.566Z" fill="#ed7309"/>
    <path id="Path_278" data-name="Path 278" d="M159.62,309.991a9.682,9.682,0,0,0-1.927,3.623l9.716,14.9c-.425-3.247.66-6.235,1.5-9.247.417-1.5.93-2.978,1.4-4.469l-.23-.19c-.684.764-5.954-2.025-6.034-6.385.446.5,2.168,1,3.976.872l-2.853-4.376A32.371,32.371,0,0,0,159.62,309.991Z" fill="#f29102"/>
    <path id="Path_279" data-name="Path 279" d="M158.054,317.187c-.541,1.785-1.1,3.564-1.614,5.355l10.4,15.956c.37-.87.732-1.791,1.137-2.823a9.017,9.017,0,0,0,.532-2.34c.109-1.031-.019-1.939-1.374-2.185a3.937,3.937,0,0,1-1.656-1.084c.754.159,1.51.315,2.4.5a10.931,10.931,0,0,1-.47-2.055l-9.716-14.9A4.384,4.384,0,0,0,158.054,317.187Z" fill="#941d80"/>
    <path id="Path_280" data-name="Path 280" d="M193.177,389.614c0-3.87-1.5-6.59-3.829-9.972a6.44,6.44,0,0,0-4.494-2.669l8.244,12.642Z" fill="#f8b133"/>
    <path id="Path_281" data-name="Path 281" d="M156.289,323.056a37.012,37.012,0,0,0-.96,4.138,9.86,9.86,0,0,0,.213,4.826l7.947,12.187a22.832,22.832,0,0,0,3.355-5.709l-10.4-15.956C156.391,322.714,156.337,322.884,156.289,323.056Z" fill="#f8b133"/>
    <path id="Path_282" data-name="Path 282" d="M166.891,359.228c-.159-.069-.306-.131-.454-.194l.243.372C166.752,359.345,166.815,359.294,166.891,359.228Z" fill="#e4037d"/>
    <path id="Path_283" data-name="Path 283" d="M193.1,389.615l-8.244-12.642a10.427,10.427,0,0,1-1.265-.245,15.384,15.384,0,0,0-5.852-.365l8.68,13.313C188.6,389.647,190.769,389.616,193.1,389.615Z" fill="#e4037d"/>
    <path id="Path_284" data-name="Path 284" d="M155.819,332.715c1.068,2.324.454,4.368-1.149,6.267-.2.309-.419.645-.657,1l10.175,15.6c.018-.061.027-.119.048-.182a14.6,14.6,0,0,1,.745-1.681c.259-.547.545-1.086.93-1.848-1.077-.342-4.323-1.7-4.689-3.464-.344-1.644.933-2.584,1.873-3.706.143-.17.262-.331.394-.5l-7.947-12.187A7.329,7.329,0,0,0,155.819,332.715Z" fill="#e4037d"/>
    <path id="Path_285" data-name="Path 285" d="M150.424,346.451l21.074,32.32.1.013a4.208,4.208,0,0,1,3.638,3.249,14.473,14.473,0,0,0,.858,3.781l1.651,2.532c1.642,1.5,3.448,1.162,3.494,1.373,1.786,0,3.485-.021,5.181-.043l-8.68-13.313c-.632.059-1.266.134-1.9.212a7.382,7.382,0,0,1-7.29-2.951,4.6,4.6,0,0,1-.745-4.758c.238-.564.4-1.162.609-1.734a1.531,1.531,0,0,0-.828-2.183,10.8,10.8,0,0,1-1.827-1.185c-1.36-1.072-1.411-2.156-.185-3.39.323-.322.693-.619,1.109-.968l-.243-.372c-.269-.115-.528-.227-.775-.346a2.37,2.37,0,0,1-1.474-3.1l-10.175-15.6A27.965,27.965,0,0,0,150.424,346.451Z" fill="#a3195c"/>
    <path id="Path_286" data-name="Path 286" d="M177.742,388.346l-1.651-2.532A6.616,6.616,0,0,0,177.742,388.346Z" fill="#2fab67"/>
    <path id="Path_287" data-name="Path 287" d="M152.779,353.392c.732.213.977.576.7,1.351s-2.014,2.9-2.147,3.735c-.348,2.16,1.517,1.512,3.33,2.535-4.661-.342-4.124,4.752-.8,4.185,1.512-.063,2.207,1.852,1.889,3.236a15.341,15.341,0,0,0-.5,3.739,5.56,5.56,0,0,0,4.515,5.171,44.1,44.1,0,0,0,5.789.781c1.978.228,3.975.338,5.942.646l-21.074-32.32C149.6,349.005,149.816,351.553,152.779,353.392Z" fill="#2fab67"/>
  </g>
</svg>
