<svg xmlns="http://www.w3.org/2000/svg" xmlns:xlink="http://www.w3.org/1999/xlink" width="373.516" height="247.626" viewBox="0 0 373.516 247.626">
  <defs>
    <linearGradient id="linear-gradient" x1="0.506" y1="-0.187" x2="0.494" y2="1.152" gradientUnits="objectBoundingBox">
      <stop offset="0" stop-color="#b0d8ff"/>
      <stop offset="0.013" stop-color="#b2d9ff"/>
      <stop offset="0.123" stop-color="#c4e1ff"/>
      <stop offset="0.256" stop-color="#d0e6ff"/>
      <stop offset="0.435" stop-color="#d7eaff"/>
      <stop offset="0.85" stop-color="#daebff"/>
    </linearGradient>
    <clipPath id="clip-path">
      <path id="Path_321" data-name="Path 321" d="M847.834,405.685s-.972,16.82,4.372,16.7,6.861-2.429,6.861-2.429a4.309,4.309,0,0,1-4.432-4.19s2.732,2.429,4.432-.911-1.032-6.983-1.032-6.983-5.647-1.275-7.529-5.464C850.506,402.407,849.656,405.26,847.834,405.685Z" fill="#86553d"/>
    </clipPath>
    <clipPath id="clip-path-2">
      <path id="Path_331" data-name="Path 331" d="M876.05,459.941c-1.706-5.016-2.076-9.543-3-16.852-1.295-10.282-5.829-15.139-5.829-15.139-4.7-1.215-7.367.647-9.8,2.692s-3.562,5.323-6.4,10.018-4.129,11.5-.486,13.764,4.777,3.157,6.8,8.015a17.217,17.217,0,0,1,.951,3.477C861.864,466.691,870.11,467.442,876.05,459.941Z" fill="#ffab00"/>
    </clipPath>
    <clipPath id="clip-path-3">
      <path id="Path_431" data-name="Path 431" d="M791.093,452.231c5.353-4.427,11.8-9.1,13.79-15.724-5.522,3.946-9.581,9.55-13.473,15.127,1.949-3.685,2.664-4.166,4.942-8.231a36.213,36.213,0,0,0,4.465-14.357c-4.181,5.3-6.943,11.652-9.057,18.133,1.795-8.652,5.47-16.84,4.579-25.693a48.028,48.028,0,0,0-5.28,14.841c-.258,1.487-.455,2.867-.6,4.188a75.569,75.569,0,0,0-2.3-17.559,29.293,29.293,0,0,0-1.458,12.838,51.024,51.024,0,0,0,1.259,6.7,85.2,85.2,0,0,0-5.757-12.973,7.015,7.015,0,0,0-1.656-2.2,18.166,18.166,0,0,0-.133,6.651,32.7,32.7,0,0,0,4.46,11.733,23.01,23.01,0,0,0-8.412-4.993c2.1,5.689,8.891,9.678,14.408,11.688l-.016.022.023-.019.1.037Z" fill="none"/>
    </clipPath>
    <clipPath id="clip-path-4">
      <path id="Path_434" data-name="Path 434" d="M829.618,454.626l6.922-6.5s1.943,5.647,4.493,3.249,11.051-13.268,15.423-17.336,10.141,3.7,6.376,8.076-18.945,19-21.738,20.037-4.979.668-8.5-3.886C830.205,455.375,829.618,454.626,829.618,454.626Z" fill="#fe8e00"/>
    </clipPath>
    <clipPath id="clip-path-5">
      <path id="Path_437" data-name="Path 437" d="M835.731,497.9c1.051,5.829-9.07,40.556-9.453,40.763a6.727,6.727,0,0,1-8.926-1.66c1.71-3.211,3.594-21.281,5.27-34.715.945-7.561,1.822-13.653,2.564-14.812,2.064-3.217,8.317-1.883,8.317-1.883l25.858,11.18C851.213,497.967,835.731,497.9,835.731,497.9Z" fill="#0542bf"/>
    </clipPath>
    <clipPath id="clip-path-6">
      <path id="Path_440" data-name="Path 440" d="M883.174,493c-5.465,10.566-23.549,3.886-23.549,3.886l-.264-.114L833.5,485.593s-6.253-1.334-8.317,1.883c-.742,1.159-1.619,7.251-2.564,14.812-1.172,1.332-2.444,2.661-3.812,3.95-9.877,9.311-13.6,14.655-13.6,14.655s-6.478.161-7.125-6.072c0,0,26.07-37.971,26.636-38.862s2.509-7.042,18.379-2.671l15.867,4.371a65.18,65.18,0,0,0-.668-11.744c3.567.776,11.813,1.527,17.751-5.974a46.733,46.733,0,0,0,2.873,6.586C883.3,474.907,888.637,482.437,883.174,493Z" fill="#006dfe"/>
    </clipPath>
  </defs>
  <g id="Group_283" data-name="Group 283" transform="translate(-734.5 -315.488)">
    <g id="Group_282" data-name="Group 282">
      <path id="Path_288" data-name="Path 288" d="M838.969,447.279s-.3-9.29-1.822-11.476-3.218-1.943-3.461-4.736.3-5.708,3.461-5.769c0,0,.668-2.307-1.275-5.343s-.971-5.161,1.761-1.7a20.468,20.468,0,0,1,4.155,10.322c.338,2.975,3.556,15.241,3.556,15.241Z" fill="#86553d"/>
      <g id="Group_223" data-name="Group 223">
        <path id="Path_289" data-name="Path 289" d="M865.323,425.082a24.357,24.357,0,0,1-.117-6.281h-10.45l1.457,1.886a17.449,17.449,0,0,1,1.24,4.114C858.536,424.2,861.225,423.223,865.323,425.082Z" fill="#a6684c"/>
        <path id="Path_290" data-name="Path 290" d="M857.453,424.8a15.376,15.376,0,0,1-.025,5.841s8.683-.851,8.744-1.033c.034-.1-.506-1.988-.849-4.527C861.225,423.223,858.536,424.2,857.453,424.8Z" fill="#86553d"/>
      </g>
      <ellipse id="Ellipse_19" data-name="Ellipse 19" cx="40.845" cy="9.566" rx="40.845" ry="9.566" transform="translate(761.591 543.983)" style="mix-blend-mode: multiply;isolation: isolate"/>
      <ellipse id="Ellipse_20" data-name="Ellipse 20" cx="22.315" cy="6.805" rx="22.315" ry="6.805" transform="translate(847.264 537.711)" style="mix-blend-mode: multiply;isolation: isolate"/>
      <ellipse id="Ellipse_21" data-name="Ellipse 21" cx="106.928" cy="14.284" rx="106.928" ry="14.284" transform="translate(861.8 522.753)" style="mix-blend-mode: multiply;isolation: isolate"/>
      <g id="Group_224" data-name="Group 224">
        <rect id="Rectangle_111" data-name="Rectangle 111" width="85.378" height="122.901" transform="translate(994.773 318.852)" fill="#b0d8ff"/>
        <rect id="Rectangle_112" data-name="Rectangle 112" width="82.767" height="119.693" transform="translate(996.308 320.313)" fill="#ebf5ff"/>
        <path id="Path_291" data-name="Path 291" d="M1079.074,380h-40.825V320.313H1036.4V380H996.308v2.224H1036.4v57.785h1.852V382.22h40.825Z" fill="#daebff"/>
        <rect id="Rectangle_113" data-name="Rectangle 113" width="40.976" height="59.666" transform="translate(1017.182 350.394)" fill="none"/>
        <path id="Path_292" data-name="Path 292" d="M1059.085,350.394h19.989v-1.112h-19.989V320.313h-.927v28.969h-40.976V320.313h-.926v28.969H996.308v1.112h19.948v59.665H996.308v1.113h19.948v28.833h.926V411.172h40.976v28.833h.927V411.172h19.989v-1.113h-19.989Zm-.927,59.665h-40.976V350.394h40.976Z" fill="#daebff"/>
        <path id="Path_293" data-name="Path 293" d="M1037.137,320.313s-9.2,45.143-40.829,52.77c0,0,6.845,36.488,6.845,66.923h-6.845V320.313Z" fill="#daebff"/>
        <path id="Path_294" data-name="Path 294" d="M1038.273,320.313s9.2,45.143,40.829,52.77c0,0-6.845,36.488-6.845,66.923h6.845V320.313Z" fill="#daebff"/>
      </g>
      <path id="Path_295" data-name="Path 295" d="M998.058,488.441s3.205,9.828,10.852,14.456,19.737,2.085,26.916-1.985,14.49-10.3,15.918-15.549-9.651-4.773-9.651-4.773,5.739-5.776,8.419-10.116,1.1-9.532-5.843-7.634l-6.938,1.9s6.515-9.343,7.379-15.663-1.42-16.34-9.439-10.721-10.855,19.517-10.855,19.517a62.276,62.276,0,0,0-2.214-10.908c-1.558-4.7-6.253-4.834-9.3.93s-5.18,14.352-5.18,14.352-1.014-7.029-4.492-6.462-6.6,8.15-7.217,15.967S998.058,488.441,998.058,488.441Z" fill="#7bbdff"/>
      <rect id="Rectangle_114" data-name="Rectangle 114" width="370.354" height="2.58" transform="translate(737.662 498.942)" fill="#e2eefa"/>
      <g id="Group_230" data-name="Group 230">
        <g id="Group_226" data-name="Group 226">
          <g id="Group_225" data-name="Group 225">
            <path id="Path_296" data-name="Path 296" d="M1049.394,509.388c0,.09,0,.177-.011.267a.691.691,0,0,1-.006.076c-.005.073-.014.143-.025.213,0,.009,0,.014,0,.023-.014.087-.031.177-.05.261v.008c-.02.082-.043.167-.068.251s-.05.166-.081.247a7.553,7.553,0,0,1-2.921,3.353c-5.253,3.685-16.493,6.235-29.51,6.235-.261,0-.52,0-.778,0-.52-.006-1.035-.012-1.546-.026-2.561-.059-5.043-.216-7.4-.463l-.756-.082c-.5-.059-1-.118-1.493-.182l-.73-.1c-.385-.056-.768-.112-1.144-.171-1.33-.208-2.609-.447-3.831-.708q-1.627-.355-3.115-.765c-.152-.042-.3-.087-.447-.129a27.923,27.923,0,0,1-8.23-3.629,7.7,7.7,0,0,1-3.044-3.609c-.022-.07-.042-.143-.059-.217v-.008c-.019-.084-.036-.174-.05-.261a.061.061,0,0,1,0-.023c-.011-.07-.02-.14-.025-.213a.69.69,0,0,1-.006-.076c-.008-.09-.011-.177-.011-.267,0-6.035,14.627-10.928,32.672-10.928S1049.394,503.353,1049.394,509.388Z" fill="#ea9d03"/>
          </g>
        </g>
        <path id="Path_297" data-name="Path 297" d="M1049.345,527.451c-1.242,5.655-15.358,10.116-32.585,10.116-17.975,0-32.56-4.856-32.67-10.86,0-.025.079-4.96.079-4.98,0-.457-.022-1.2.031-1.876.992,2.945,5.172,5.475,11.274,7.236.146.042.295.087.447.128q1.483.411,3.114.765,1.839.4,3.831.71t4.124.536c2.361.246,4.843.4,7.4.464.512.014,1.026.021,1.546.024.259,0,.517,0,.779,0,16.682,0,30.446-4.184,32.43-9.587a3.911,3.911,0,0,1,.245,1.346C1049.393,521.75,1049.4,527.181,1049.345,527.451Z" fill="#ffc050"/>
        <path id="Path_298" data-name="Path 298" d="M1049.347,518.053c-.006.02-.009.04-.015.059-1.326,5.627-15.4,10.06-32.571,10.06-17.376,0-31.584-4.539-32.608-10.265a3.223,3.223,0,0,1-.061-.6c0-.025.078-4.961.078-4.98,0-.459-.022-1.2.031-1.878a7.7,7.7,0,0,0,3.044,3.609,27.923,27.923,0,0,0,8.23,3.629c.146.042.3.087.447.129q1.485.41,3.115.765,1.838.4,3.831.708c.376.059.759.115,1.144.171l.73.1c.492.064.99.126,1.493.182l.756.082c2.361.247,4.843.4,7.4.463.511.014,1.026.02,1.546.026.258,0,.517,0,.778,0,13.017,0,24.257-2.55,29.51-6.235a7.553,7.553,0,0,0,2.921-3.353,3.943,3.943,0,0,1,.244,1.347C1049.394,512.353,1049.406,517.784,1049.347,518.053Z" fill="#ffc050"/>
        <path id="Path_299" data-name="Path 299" d="M1049.394,518.784c0,.09,0,.177-.011.267a.692.692,0,0,1-.006.076c-.005.073-.014.143-.025.214,0,.008,0,.014,0,.022-.014.087-.031.177-.05.262v.008c-.02.082-.043.166-.068.247s-.05.169-.081.25c-1.985,5.4-15.749,9.588-32.431,9.588-.261,0-.52,0-.778,0-.52-.005-1.035-.011-1.546-.025-2.561-.059-5.043-.217-7.4-.464-.289-.031-.579-.062-.866-.1-.21-.023-.421-.048-.629-.076q-.751-.089-1.484-.194c-.385-.056-.768-.113-1.144-.172-1.33-.208-2.609-.447-3.831-.708q-1.627-.354-3.115-.765c-.152-.042-.3-.087-.447-.129-6.1-1.762-10.281-4.292-11.274-7.238-.022-.07-.042-.143-.059-.216v-.008c-.019-.085-.036-.175-.05-.262a.056.056,0,0,1,0-.022c-.011-.071-.02-.141-.025-.214a.692.692,0,0,1-.006-.076c-.008-.09-.011-.177-.011-.267a3.574,3.574,0,0,1,.106-.877c1.024,5.726,15.232,10.265,32.608,10.265,17.168,0,31.245-4.433,32.571-10.06A3.533,3.533,0,0,1,1049.394,518.784Z" fill="#ea9d03"/>
        <g id="Group_228" data-name="Group 228">
          <g id="Group_227" data-name="Group 227">
            <path id="Path_300" data-name="Path 300" d="M1049.394,491.024c0,.09,0,.177-.011.267a.673.673,0,0,1-.006.076c-.005.073-.014.144-.025.214,0,.008,0,.014,0,.022-.014.087-.031.177-.05.262v.008c-.02.081-.043.166-.068.25s-.05.166-.081.248a7.553,7.553,0,0,1-2.921,3.353c-5.253,3.685-16.493,6.234-29.51,6.234-.261,0-.52,0-.778,0-.52,0-1.035-.011-1.546-.025-2.561-.059-5.043-.216-7.4-.464-.253-.028-.506-.053-.756-.081-.5-.059-1-.118-1.493-.183l-.73-.1c-.385-.056-.768-.113-1.144-.172q-1.995-.312-3.831-.708-1.627-.354-3.115-.765c-.152-.042-.3-.087-.447-.129a27.871,27.871,0,0,1-8.23-3.629,7.7,7.7,0,0,1-3.044-3.609c-.022-.07-.042-.143-.059-.216v-.008c-.019-.085-.036-.175-.05-.262a.056.056,0,0,1,0-.022c-.011-.07-.02-.141-.025-.214a.673.673,0,0,1-.006-.076c-.008-.09-.011-.177-.011-.267,0-6.034,14.627-10.928,32.672-10.928S1049.394,484.99,1049.394,491.024Z" fill="#ea9d03"/>
          </g>
        </g>
        <g id="Group_229" data-name="Group 229">
          <path id="Path_301" data-name="Path 301" d="M994.215,481.971c0-4.154,10.065-7.521,22.48-7.521s22.481,3.367,22.481,7.521a2.572,2.572,0,0,1-.028.383v0c-.6,3.973-10.425,7.133-22.453,7.133s-21.834-3.155-22.449-7.124A2.637,2.637,0,0,1,994.215,481.971Z" fill="#ea9d03"/>
          <path id="Path_302" data-name="Path 302" d="M1016.737,500.752c-17.974,0-32.559-4.856-32.669-10.862,0-.023.077-4.956.077-4.979,0-.456-.02-1.2.032-1.874,1.921,5.709,15.836,9.864,32.518,9.864s30.447-4.182,32.431-9.584a3.919,3.919,0,0,1,.244,1.345c0,.275.012,5.7-.047,5.972C1048.08,496.292,1033.965,500.752,1016.737,500.752Z" fill="#ffc050"/>
          <path id="Path_303" data-name="Path 303" d="M1016.7,489.491c-12.019,0-21.834-3.155-22.449-7.124a2.637,2.637,0,0,1-.031-.4c0-4.154,10.065-7.521,22.48-7.521s22.481,3.367,22.481,7.521a2.572,2.572,0,0,1-.028.383v0C1038.543,486.331,1028.723,489.491,1016.7,489.491Z" fill="#ea9d03"/>
          <path id="Path_304" data-name="Path 304" d="M1016.7,489.491c-12.019,0-21.834-3.155-22.449-7.124a2.637,2.637,0,0,1-.031-.4c0-4.154,10.065-7.521,22.48-7.521s22.481,3.367,22.481,7.521a2.572,2.572,0,0,1-.028.383v0C1038.543,486.331,1028.723,489.491,1016.7,489.491Z" fill="#ea9d03"/>
          <path id="Path_305" data-name="Path 305" d="M1049.126,483.317c.031-.083.056-.167.081-.25s.048-.167.068-.25v0c.02-.089.036-.176.05-.265l0-.02c.011-.072.02-.143.026-.215,0-.026.005-.051.005-.077a2.591,2.591,0,0,0,.011-.264c0-6.038-14.63-10.931-32.675-10.931s-32.672,4.893-32.672,10.931c0,.087,0,.176.011.264a.668.668,0,0,0,.006.077c.005.072.014.143.025.215a.047.047,0,0,0,0,.02c.014.089.031.176.05.265v0c.02.083.043.167.068.25s.051.167.081.25c1.985,5.4,15.746,9.584,32.428,9.584S1047.142,488.719,1049.126,483.317Zm-54.911-1.346c0-4.154,10.065-7.521,22.48-7.521s22.481,3.367,22.481,7.521a2.572,2.572,0,0,1-.028.383v0c-.6,3.973-10.425,7.133-22.453,7.133s-21.834-3.155-22.449-7.124A2.637,2.637,0,0,1,994.215,481.971Z" fill="#ffe473"/>
          <path id="Path_306" data-name="Path 306" d="M1016.7,489.491c-12.019,0-21.834-3.155-22.449-7.124.362-1.8,10.412-5.5,22.451-5.5s21.741,3.183,22.451,5.483v0C1038.543,486.331,1028.723,489.491,1016.7,489.491Z" fill="#fcc13d"/>
        </g>
        <path id="Path_307" data-name="Path 307" d="M1049.345,509.087c-1.242,5.655-15.358,10.116-32.585,10.116-17.975,0-32.56-4.855-32.67-10.86,0-.024.079-4.959.079-4.98,0-.457-.022-1.2.031-1.876.992,2.945,5.172,5.475,11.274,7.237.146.041.295.086.447.128q1.483.41,3.114.765c1.226.266,2.505.505,3.831.709s2.707.391,4.124.537c2.361.246,4.843.4,7.4.463.512.014,1.026.021,1.546.025.259,0,.517,0,.779,0,16.682,0,30.446-4.184,32.43-9.587a3.913,3.913,0,0,1,.245,1.347C1049.393,503.387,1049.4,508.817,1049.345,509.087Z" fill="#ffc050"/>
        <path id="Path_308" data-name="Path 308" d="M1049.347,499.69c-.006.02-.009.039-.015.059-1.326,5.627-15.4,10.06-32.571,10.06-17.376,0-31.584-4.54-32.608-10.265a3.241,3.241,0,0,1-.061-.6c0-.026.078-4.961.078-4.981,0-.458-.022-1.2.031-1.878a7.7,7.7,0,0,0,3.044,3.609,27.871,27.871,0,0,0,8.23,3.629c.146.042.3.087.447.129q1.485.41,3.115.765c1.225.267,2.5.506,3.831.708.376.059.759.116,1.144.172l.73.1c.492.065.99.127,1.493.183.25.028.5.053.756.081,2.361.248,4.843.4,7.4.464.511.014,1.026.02,1.546.025.258,0,.517,0,.778,0,13.017,0,24.257-2.549,29.51-6.234a7.553,7.553,0,0,0,2.921-3.353,3.942,3.942,0,0,1,.244,1.346C1049.394,493.989,1049.406,499.42,1049.347,499.69Z" fill="#ffc050"/>
        <path id="Path_309" data-name="Path 309" d="M1049.394,500.42c0,.091,0,.178-.011.268a.712.712,0,0,1-.006.076c-.005.073-.014.143-.025.213,0,.009,0,.014,0,.023-.014.087-.031.177-.05.261v.008c-.02.082-.043.166-.068.248s-.05.168-.081.25c-1.985,5.4-15.749,9.587-32.431,9.587-.261,0-.52,0-.778,0-.52-.006-1.035-.012-1.546-.026-2.561-.059-5.043-.216-7.4-.463-.289-.031-.579-.062-.866-.1-.21-.022-.421-.048-.629-.076q-.751-.089-1.484-.194c-.385-.056-.768-.112-1.144-.171-1.33-.208-2.609-.447-3.831-.708q-1.627-.355-3.115-.765c-.152-.042-.3-.087-.447-.129-6.1-1.763-10.281-4.292-11.274-7.238-.022-.07-.042-.143-.059-.217v-.008c-.019-.084-.036-.174-.05-.261a.061.061,0,0,1,0-.023c-.011-.07-.02-.14-.025-.213a.711.711,0,0,1-.006-.076c-.008-.09-.011-.177-.011-.268a3.56,3.56,0,0,1,.106-.876c1.024,5.725,15.232,10.265,32.608,10.265,17.168,0,31.245-4.433,32.571-10.06A3.531,3.531,0,0,1,1049.394,500.42Z" fill="#ea9d03"/>
      </g>
      <g id="Group_233" data-name="Group 233">
        <g id="Group_232" data-name="Group 232">
          <rect id="Rectangle_115" data-name="Rectangle 115" width="98.501" height="143.148" transform="translate(886.038 374.759)" fill="url(#linear-gradient)"/>
          <g id="Group_231" data-name="Group 231">
            <path id="Path_310" data-name="Path 310" d="M886.037,529.514a6.171,6.171,0,0,0,6,6.329h86.5a5.726,5.726,0,0,0,3.281-1.03,6.4,6.4,0,0,0,2.721-5.3V517.908h-98.5Z" fill="#7bbdff"/>
          </g>
          <path id="Path_311" data-name="Path 311" d="M984.539,371.844a6.416,6.416,0,0,0-2.709-5.289,5.731,5.731,0,0,0-3.293-1.04h-86.5a6.172,6.172,0,0,0-6,6.329v2.915h98.5Z" fill="#fff"/>
        </g>
      </g>
      <path id="Path_312" data-name="Path 312" d="M849.534,397.245s1.579-6.315,9.412-6.254,15,5.526,15.848,12.509-1.761,13.054-4.372,15.058-5.161,2.854-11.355,1.4L849,419.12s-3.171.713-5.721-4.387c0,0,3.7,1.214,3.765-1.579s-1.822-3.582-2.247-8.2S846.5,397.185,849.534,397.245Z" fill="#42210b"/>
      <ellipse id="Ellipse_22" data-name="Ellipse 22" cx="25.543" cy="6.675" rx="25.543" ry="6.675" transform="translate(777.358 543.983)" fill="#153077"/>
      <g id="Group_235" data-name="Group 235">
        <path id="Path_313" data-name="Path 313" d="M804.93,479.222v-6.989h-4.619v2.7C801.371,475.3,803.161,476.324,804.93,479.222Z" fill="#191e56"/>
        <g id="Group_234" data-name="Group 234">
          <path id="Path_314" data-name="Path 314" d="M800.311,474.934v76.9h4.619v-72.61C803.161,476.324,801.371,475.3,800.311,474.934Z" fill="#054aa9"/>
        </g>
      </g>
      <g id="Group_239" data-name="Group 239">
        <g id="Group_238" data-name="Group 238">
          <g id="Group_236" data-name="Group 236">
            <path id="Path_315" data-name="Path 315" d="M802.9,455.718c-28.387,0-51.458,3.516-51.967,7.883h-.01v2.64c0,4.436,23.271,8.032,51.977,8.032s51.977-3.6,51.977-8.032v-2.492C854.878,459.313,831.607,455.718,802.9,455.718Z" fill="#7bbdff"/>
          </g>
          <g id="Group_237" data-name="Group 237">
            <ellipse id="Ellipse_23" data-name="Ellipse 23" cx="51.977" cy="8.031" rx="51.977" ry="8.031" transform="translate(750.924 455.718)" fill="#daebff"/>
          </g>
        </g>
      </g>
      <path id="Path_316" data-name="Path 316" d="M983.387,352.578h-96.2a6.171,6.171,0,0,0-6,6.328V534.424a6.169,6.169,0,0,0,6,6.328h96.2a6.17,6.17,0,0,0,6-6.328V358.906A6.172,6.172,0,0,0,983.387,352.578Zm-7.671,2.95a3.589,3.589,0,1,1-3.4,3.584A3.493,3.493,0,0,1,975.716,355.528Zm-80.768,2.487a1.788,1.788,0,0,1,1.3-.566H960.13a1.887,1.887,0,0,1,1.833,1.933,1.98,1.98,0,0,1-.537,1.366,1.779,1.779,0,0,1-1.3.566H896.244a1.883,1.883,0,0,1-1.832-1.932A1.983,1.983,0,0,1,894.948,358.015Zm89.591,171.5a6.4,6.4,0,0,1-2.721,5.3,5.724,5.724,0,0,1-3.28,1.031h-86.5a6.17,6.17,0,0,1-6-6.328V371.843a6.172,6.172,0,0,1,6-6.328h86.5a5.741,5.741,0,0,1,3.293,1.04,6.412,6.412,0,0,1,2.708,5.288Z" fill="#0542bf"/>
      <path id="Path_317" data-name="Path 317" d="M964.727,359.382a1.931,1.931,0,0,1-1.932,1.932H895.421a1.932,1.932,0,0,1,0-3.865h67.374A1.934,1.934,0,0,1,964.727,359.382Z" fill="#006dfe"/>
      <path id="Path_318" data-name="Path 318" d="M979.114,359.112a3.4,3.4,0,1,1-3.4-3.584A3.494,3.494,0,0,1,979.114,359.112Z" fill="#006dfe"/>
      <g id="Group_241" data-name="Group 241">
        <path id="Path_319" data-name="Path 319" d="M847.834,405.685s-.972,16.82,4.372,16.7,6.861-2.429,6.861-2.429a4.309,4.309,0,0,1-4.432-4.19s2.732,2.429,4.432-.911-1.032-6.983-1.032-6.983-5.647-1.275-7.529-5.464C850.506,402.407,849.656,405.26,847.834,405.685Z" fill="#86553d"/>
        <g id="Group_240" data-name="Group 240" clip-path="url(#clip-path)">
          <path id="Path_320" data-name="Path 320" d="M846.589,408.075s2.68.511,3.967-1.579c0,0,3.218,3.481,6.872,3.441,0,0,1.244,6.76-2.672,6.112,0,0,1.307,5.591,4.869,4.638l2.387-12.127L849.1,401.233l-4.777,3Z" fill="#a6684c"/>
        </g>
      </g>
      <path id="Path_322" data-name="Path 322" d="M861.132,411.029s1.275,3.7,0,5.4c0,0,3.218.789,3.947-2.307S863.257,410,861.132,411.029Z" fill="#a6684c"/>
      <path id="Path_323" data-name="Path 323" d="M836.479,449.465c0-.182-8.5-11.658-8.5-12.873s3.461-7.043,1.093-12.326-6.618-1.822-7.59.455-3.339,5.07.3,13.511a133.923,133.923,0,0,0,8.8,16.516Z" fill="#a6684c"/>
      <path id="Path_324" data-name="Path 324" d="M837.78,447.351l7.33-4.807a.779.779,0,0,1,1.206.652v2.275a.778.778,0,0,1-.189.509L840.94,452a.779.779,0,0,1-1.254-.1l-2.143-3.486A.78.78,0,0,1,837.78,447.351Z" fill="#cc6a00"/>
      <g id="Group_244" data-name="Group 244">
        <g id="Group_242" data-name="Group 242">
          <ellipse id="Ellipse_24" data-name="Ellipse 24" cx="15.654" cy="4.091" rx="15.654" ry="4.091" transform="translate(853.925 540.043)" fill="#153077"/>
          <path id="Path_325" data-name="Path 325" d="M871.889,522.2v-6.99h-4.62v2.7C868.33,518.27,870.12,519.3,871.889,522.2Z" fill="#054796"/>
          <path id="Path_326" data-name="Path 326" d="M895.241,498.13c0-3.083-11.26-5.582-25.149-5.582s-25.149,2.5-25.149,5.582v12.348c0,3.082,11.259,5.581,25.149,5.581s25.149-2.5,25.149-5.581a1.293,1.293,0,0,0-.037-.3Z" fill="#7bbdff"/>
          <ellipse id="Ellipse_25" data-name="Ellipse 25" cx="25.149" cy="5.582" rx="25.149" ry="5.582" transform="translate(844.943 492.548)" fill="#daebff"/>
        </g>
        <g id="Group_243" data-name="Group 243">
          <path id="Path_327" data-name="Path 327" d="M867.269,517.908v25.013h4.62V522.2C870.12,519.3,868.33,518.27,867.269,517.908Z" fill="#054aa9"/>
        </g>
      </g>
      <path id="Path_328" data-name="Path 328" d="M804.844,520.143l-5.647-4.25s-2.915,6.619-11.9,6.5c-.765-.01-1.473-.043-2.137-.09a8.366,8.366,0,0,0,5.416,4.826c4.746,1.473,9.245.644,11.608,2.486.152-.652.232-1.089.232-1.089A39.091,39.091,0,0,1,804.844,520.143Z" fill="#a6684c"/>
      <g id="Group_247" data-name="Group 247">
        <g id="Group_246" data-name="Group 246">
          <path id="Path_329" data-name="Path 329" d="M876.05,459.941c-1.706-5.016-2.076-9.543-3-16.852-1.295-10.282-5.829-15.139-5.829-15.139-4.7-1.215-7.367.647-9.8,2.692s-3.562,5.323-6.4,10.018-4.129,11.5-.486,13.764,4.777,3.157,6.8,8.015a17.217,17.217,0,0,1,.951,3.477C861.864,466.691,870.11,467.442,876.05,459.941Z" fill="#ffab00"/>
          <g id="Group_245" data-name="Group 245" clip-path="url(#clip-path-2)">
            <path id="Path_330" data-name="Path 330" d="M860.919,435.115l2.972,2.327s2.129,2.956-.179,5.446-10.747,14.231-10.747,14.231l-4.372-2.937,8.258-10.748Z" fill="#ef9300"/>
          </g>
        </g>
      </g>
      <path id="Path_332" data-name="Path 332" d="M785.159,522.3c-7.143-.509-8.73-2.888-10.007-1.407-1.4,1.619,6.132,10.362,9.411,11.7s9.169-1.822,8.926,1.093-3.947,5.759-3.947,5.759l.972,1.71s8.44-4.8,9.776-6.558a15.478,15.478,0,0,0,1.893-4.983c-2.363-1.842-6.862-1.013-11.608-2.486A8.366,8.366,0,0,1,785.159,522.3Z" fill="#de4d30"/>
      <path id="Path_333" data-name="Path 333" d="M825.125,538.461l-6.72-2.024s-6.561,8.667-10.714,13.665a8.184,8.184,0,0,0,5.532.179c4.62-1.19,6.883-6.068,12.381-6.583A13.776,13.776,0,0,1,825.125,538.461Z" fill="#a6684c"/>
      <path id="Path_334" data-name="Path 334" d="M807.691,550.1a36,36,0,0,1-2.847,3.174c-2.469,2.186-4.817,5.992,4.331,5.668s10.687-9.068,11.254-7.53,0,6.639,0,6.639h2.186a38.448,38.448,0,0,1,2.429-6.962,12.364,12.364,0,0,0,.647-7.125s-.034-.1-.087-.268c-5.5.515-7.761,5.393-12.381,6.583A8.184,8.184,0,0,1,807.691,550.1Z" fill="#de4d30"/>
      <rect id="Rectangle_116" data-name="Rectangle 116" width="58.615" height="40.434" rx="1.558" transform="translate(967.301 382.775)" fill="#b3d9ff"/>
      <rect id="Rectangle_117" data-name="Rectangle 117" width="57.374" height="39.043" rx="1.515" transform="translate(968.486 383.972)" fill="#feffff"/>
      <g id="Group_248" data-name="Group 248">
        <rect id="Rectangle_118" data-name="Rectangle 118" width="20.189" height="18.715" rx="1.333" transform="translate(989.178 400.72)" fill="#006dfe"/>
        <path id="Path_335" data-name="Path 335" d="M995.383,395.129c0,.123,0,.246,0,.369,0,1.674,0,3.348,0,5.022,0,.177-.045.228-.226.227-.927-.009-1.855,0-2.783,0,0-1.716.006-3.431,0-5.146a5.049,5.049,0,0,0-10.064-.558c-.078.706-.026,1.415-.036,2.123-.009.624-.005,1.248,0,1.871,0,.143-.021.2-.188.2-.89-.009-1.781-.006-2.671,0-.134,0-.177-.035-.177-.173.005-1.215-.03-2.431.011-3.644a7.87,7.87,0,0,1,2.854-5.942,7.665,7.665,0,0,1,5.863-1.889,7.888,7.888,0,0,1,6.653,4.583A7.423,7.423,0,0,1,995.383,395.129Z" fill="#006dfe"/>
        <path id="Path_336" data-name="Path 336" d="M998.6,412.212c0-.436-.005-.871,0-1.306a.248.248,0,0,0-.166-.263,2.1,2.1,0,0,1-1.263-2,2.177,2.177,0,0,1,3.419-1.764,2.173,2.173,0,0,1-.331,3.769.243.243,0,0,0-.162.264c.005.877,0,1.754.006,2.631,0,.141-.031.193-.183.188q-.574-.016-1.149,0c-.155.005-.181-.054-.179-.192.008-.441,0-.883,0-1.324Z" fill="#fff"/>
      </g>
      <g id="Group_251" data-name="Group 251">
        <g id="Group_249" data-name="Group 249">
          <rect id="Rectangle_119" data-name="Rectangle 119" width="85.818" height="2.122" transform="translate(802.435 345.484)" fill="#daebff"/>
          <rect id="Rectangle_120" data-name="Rectangle 120" width="1.554" height="10.212" transform="translate(812.846 347.237)" fill="#daebff"/>
          <rect id="Rectangle_121" data-name="Rectangle 121" width="1.554" height="10.212" transform="translate(875.803 347.237)" fill="#daebff"/>
        </g>
        <g id="Group_250" data-name="Group 250">
          <rect id="Rectangle_122" data-name="Rectangle 122" width="4.952" height="14.869" transform="translate(812.541 331.285)" fill="#b0d8ff"/>
          <rect id="Rectangle_123" data-name="Rectangle 123" width="4.952" height="14.869" transform="translate(818.262 331.285)" fill="#b0d8ff"/>
          <rect id="Rectangle_124" data-name="Rectangle 124" width="4.952" height="14.869" transform="translate(823.983 331.285)" fill="#b0d8ff"/>
          <rect id="Rectangle_125" data-name="Rectangle 125" width="4.952" height="14.869" transform="translate(829.705 331.285)" fill="#b0d8ff"/>
          <rect id="Rectangle_126" data-name="Rectangle 126" width="4.952" height="14.869" transform="translate(835.426 331.285)" fill="#b0d8ff"/>
          <rect id="Rectangle_127" data-name="Rectangle 127" width="4.952" height="14.869" transform="translate(841.147 331.285)" fill="#b0d8ff"/>
        </g>
        <rect id="Rectangle_128" data-name="Rectangle 128" width="33.38" height="30.508" transform="translate(851.198 315.488)" fill="#b0d8ff"/>
        <rect id="Rectangle_129" data-name="Rectangle 129" width="27.644" height="25.266" transform="translate(854.066 318.109)" fill="#daebff"/>
        <circle id="Ellipse_26" data-name="Ellipse 26" cx="6.89" cy="6.89" r="6.89" transform="translate(860.912 323.919)" fill="#ebf5ff"/>
      </g>
      <ellipse id="Ellipse_27" data-name="Ellipse 27" cx="6.055" cy="1.006" rx="6.055" ry="1.006" transform="translate(807.714 465.703)" fill="#9cc6f7"/>
      <g id="Group_252" data-name="Group 252">
        <path id="Path_337" data-name="Path 337" d="M820.082,446.713a26.278,26.278,0,0,0-7.05-.568,21.808,21.808,0,0,0-5.738.669c-.43.128-.534.253-.452.726q.1.574.184,1.15l.049.336c.163,1.111.3,2.225.461,3.337l.918,6.726c.089.652.157,1.309.271,1.956a32.463,32.463,0,0,0,.641,3.885,3.137,3.137,0,0,0,.084.356h0a2.179,2.179,0,0,0,1.626,1.526,9.5,9.5,0,0,0,5.464-.039,1.971,1.971,0,0,0,1.541-1.674l1.6-10.751c.01,0,.019.005.031.006.207-1.452.4-2.907.616-4.358l.129-.864c.076-.5.154-.994.237-1.489C820.8,447.029,820.6,446.841,820.082,446.713ZM819.57,450a13.7,13.7,0,0,0-.187,1.74c-.389,2.272-.6,4.57-.873,6.86q-.418,3.148-.839,6.3a6,6,0,0,1-2.7.45c-1.707-.036-3.439.244-5.1-.424-.04-.171-.1-.339-.119-.513q-.352-2.518-.7-5.039c-.2-1.838-.379-3.681-.716-5.5-.149-1.284-.283-2.57-.456-3.85-.057-.416-.124-.755.4-.826.561-.077.377.451.414.674.52,3.171,1,6.349,1.5,9.526a3.784,3.784,0,0,1,.239.892,13.521,13.521,0,0,1-.11-1.506c-.025-.278-.046-.557-.077-.834-.308-2.774-.606-5.549-.938-8.319-.057-.476.033-.6.48-.623a52.343,52.343,0,0,1,5.807-.1,26.906,26.906,0,0,1,3.386.273C819.444,449.257,819.713,449.383,819.57,450Z" fill="#fff"/>
        <path id="Path_338" data-name="Path 338" d="M810.666,462.136c.054.453.078.864.14,1.136C810.768,463,810.731,462.589,810.666,462.136Z" fill="#ebf9ff"/>
        <path id="Path_339" data-name="Path 339" d="M810.666,462.136a7.291,7.291,0,0,0-.132-.8c-.006-.1-.014-.191-.023-.286.008.112.016.225.023.338C810.59,461.641,810.632,461.894,810.666,462.136Z" fill="#ebf9ff"/>
        <path id="Path_340" data-name="Path 340" d="M810.433,460.29c.028.254.056.507.078.762C810.494,460.8,810.471,460.542,810.433,460.29Z" fill="#ebf9ff"/>
        <path id="Path_341" data-name="Path 341" d="M818.981,449.176a26.906,26.906,0,0,0-3.386-.273,52.343,52.343,0,0,0-5.807.1c-.447.028-.537.147-.48.623.332,2.77.63,5.545.938,8.319.031.277.052.556.077.834a13.521,13.521,0,0,0,.11,1.506c.038.252.061.506.078.762.009.1.017.191.023.286a7.291,7.291,0,0,1,.132.8c.065.453.1.864.14,1.136-.062-.272-.086-.683-.14-1.136-.034-.242-.076-.495-.132-.746-.007-.113-.015-.226-.023-.338-.022-.255-.05-.508-.078-.762a3.784,3.784,0,0,0-.239-.892c-.493-3.177-.976-6.355-1.5-9.526-.037-.223.147-.751-.414-.674-.521.071-.454.41-.4.826.173,1.28.307,2.566.456,3.85.337,1.818.514,3.661.716,5.5q.346,2.52.7,5.039c.024.174.079.342.119.513,1.663.668,3.395.388,5.1.424a6,6,0,0,0,2.7-.45q.42-3.148.839-6.3c.271-2.29.484-4.588.873-6.86a13.7,13.7,0,0,1,.187-1.74C819.713,449.383,819.444,449.257,818.981,449.176Z" fill="#7bbdff"/>
      </g>
      <g id="Group_255" data-name="Group 255">
        <path id="Path_342" data-name="Path 342" d="M953.55,392.694c.711.05,1.425-.035,2.137.067a4.3,4.3,0,0,1,3.575,3.826c.023.327.021.657.021.985q0,4.437,0,8.873c-.168.166-.383.115-.581.115q-5.069.006-10.138,0c-1.205,0-1.513.306-1.513,1.507q0,2.211,0,4.423a2.045,2.045,0,0,0,.041.541,1.006,1.006,0,0,0,.79.8,3.688,3.688,0,0,0,.812.069q5,0,10,0c.2,0,.413-.051.582.114,0,3.21.033,6.42-.007,9.63a4.26,4.26,0,0,1-4.191,4.1c-.522.01-1.044,0-1.566,0H914.207a4.32,4.32,0,0,1-4.391-3.672,4.5,4.5,0,0,1-.046-.779c0-8.712.02-17.424-.015-26.136a4.388,4.388,0,0,1,4.373-4.456,1.232,1.232,0,0,0,.135-.01,1.384,1.384,0,0,1,.755-.088c.259-.012.518-.009.778,0,.862-.025,1.723-.01,2.585-.011q4.168,0,8.336,0c.136,0,.273,0,.408.01,1.386-.014,2.772-.017,4.158,0,1.7-.019,3.4-.012,5.1,0,1.432-.007,2.863-.015,4.294,0,.726-.022,1.451-.008,2.177-.009q4.356,0,8.712,0a3.432,3.432,0,0,1,.442.01c.26-.007.52-.01.78,0A1.382,1.382,0,0,1,953.55,392.694Z" fill="#ffab00"/>
        <path id="Path_343" data-name="Path 343" d="M915.023,392.693h-.76q0-6.311.005-12.621c0-.446,0-.446.431-.446H953.1c.433,0,.434,0,.434.446q.006,6.311.011,12.621h-.756c-.154-.173-.11-.386-.11-.586q0-3.777,0-7.555c0-.09,0-.181,0-.272-.006-.417-.029-.445-.444-.447-.862-.005-1.724,0-2.587,0-9.687,0-19.375.013-29.063-.012-1.609-.005-3.219-.053-4.829-.056-.627,0-.628,0-.628.616q0,3.862,0,7.725A.816.816,0,0,1,915.023,392.693Z" fill="#00e698"/>
        <path id="Path_344" data-name="Path 344" d="M959.276,414.017q-5.444,0-10.887-.012a1.289,1.289,0,0,1-1.28-.591,1.312,1.312,0,0,1-.167-.645c0-1.69,0-3.38,0-5.07a1.146,1.146,0,0,1,1.281-1.245H958.8c.159,0,.318-.006.476-.009s.34.013.509.021a1.037,1.037,0,0,1,1.023,1.023q.016,2.7,0,5.408a1.031,1.031,0,0,1-1.039,1.074A1.371,1.371,0,0,0,959.276,414.017Z" fill="#de4d30"/>
        <path id="Path_345" data-name="Path 345" d="M952.05,392.693c-.93,0-1.86.012-2.789.011q-4.287,0-8.573-.009c-.163-.189-.119-.432-.15-.649a6.642,6.642,0,0,0-5.544-5.637,6.519,6.519,0,0,0-5.524,1.6,6.417,6.417,0,0,0-2.194,4.1,1.141,1.141,0,0,1-.142.587c-2.037,0-4.075.01-6.113.01-1.755,0-3.509-.007-5.264-.011a.522.522,0,0,1-.093-.386q-.006-1.77,0-3.539c0-.442.072-.5.517-.608a4.14,4.14,0,0,0,3.27-3.227c.025-.1.045-.2.068-.3a.315.315,0,0,1,.364-.275c.192.011.385,0,.578,0h26.878c.136,0,.272,0,.408,0,.5.005.549.042.659.534a4.082,4.082,0,0,0,3.244,3.283c.446.11.5.16.5.622q.006,1.736,0,3.47A.556.556,0,0,1,952.05,392.693Z" fill="#00e698"/>
        <path id="Path_346" data-name="Path 346" d="M952.05,392.693c0-1.338-.005-2.676.007-4.014,0-.233-.056-.324-.3-.373a4.147,4.147,0,0,1-3.475-3.524c-.05-.273-.158-.327-.417-.326q-8.589.008-17.177,0-5.375,0-10.748-.012c-.22,0-.318.046-.349.272A4.251,4.251,0,0,1,916,388.29c-.242.029-.241.174-.24.356q0,2.023,0,4.047h-.734c0-2.881.01-5.762,0-8.643,0-.29.061-.389.373-.388q18.477.041,36.954.066c.5,0,.447-.073.447.459q0,4.254-.006,8.507Z" fill="#00b77b"/>
        <path id="Path_347" data-name="Path 347" d="M927.134,392.694a6.785,6.785,0,0,1,13.434-1.008,4.755,4.755,0,0,1,.12,1.009H936.4a10.076,10.076,0,0,0-2.334-.706,2.08,2.08,0,0,1-.611-.2.482.482,0,0,1-.267-.507.452.452,0,0,1,.4-.406,1.311,1.311,0,0,1,1.366.376.453.453,0,0,0,.592.156c.315-.129.649-.2.974-.3.231-.07.255-.185.136-.373a2.332,2.332,0,0,0-1.265-1.077.471.471,0,0,1-.39-.54c.013-.237,0-.475,0-.713,0-.189-.066-.3-.275-.3a10.727,10.727,0,0,1-1.593-.066c-.225-.033-.336.065-.329.305.009.283,0,.567,0,.85a.5.5,0,0,1-.318.506,2.118,2.118,0,0,0-1.2,2.7.4.4,0,0,1,.026.3Z" fill="#00b77b"/>
        <path id="Path_348" data-name="Path 348" d="M931.317,392.7a2.2,2.2,0,0,1,1.172-3.1.3.3,0,0,0,.215-.328c-.01-.34.009-.681-.007-1.02-.011-.22.051-.3.282-.295.634.025,1.269.035,1.9.04.175,0,.243.058.235.237-.014.317,0,.635-.017.952-.01.194.028.3.244.362a2.371,2.371,0,0,1,1.467,1.282c.091.17.123.266-.125.328-.45.112-.892.258-1.331.407a.248.248,0,0,1-.353-.12,1.239,1.239,0,0,0-1.412-.487.376.376,0,0,0-.345.367.394.394,0,0,0,.32.425c.634.169,1.274.315,1.906.49a1.642,1.642,0,0,1,.927.458Z" fill="#00e698"/>
        <g id="Group_254" data-name="Group 254">
          <g id="Group_253" data-name="Group 253">
            <path id="Path_349" data-name="Path 349" d="M945.894,394.747c-.113,0-.226,0-.338,0-.16,0-.179-.1-.178-.223s-.005-.257.182-.254c.168,0,.337,0,.506,0s.337-.034.335.24-.17.239-.338.238Z" fill="#de4d30"/>
            <path id="Path_350" data-name="Path 350" d="M917.582,394.749c-.1,0-.2-.007-.3,0-.192.014-.221-.1-.22-.253s.042-.236.21-.229.338.005.507,0,.308-.008.308.236-.119.259-.3.246C917.717,394.745,917.649,394.749,917.582,394.749Z" fill="#de4d30"/>
            <path id="Path_351" data-name="Path 351" d="M931.777,394.27c.162.051.493-.154.462.288-.014.21-.152.218-.28.185-.245-.062-.581.2-.73-.168-.071-.174,0-.337.251-.307A2.874,2.874,0,0,0,931.777,394.27Z" fill="#de4d30"/>
            <path id="Path_352" data-name="Path 352" d="M911.617,423.747c.159-.009.244.045.273.2a1.168,1.168,0,0,0,.129.381c.141.235,0,.311-.181.395-.242.112-.23-.1-.278-.215a4.959,4.959,0,0,1-.149-.481C911.348,423.824,911.408,423.72,911.617,423.747Z" fill="#de4d30"/>
            <path id="Path_353" data-name="Path 353" d="M957.41,423.661c.26-.02.351.1.248.369-.048.126-.056.268-.112.389-.047.1-.048.32-.258.2-.144-.079-.358-.137-.215-.4a1.634,1.634,0,0,0,.136-.452C957.232,423.66,957.27,423.6,957.41,423.661Z" fill="#de4d30"/>
            <path id="Path_354" data-name="Path 354" d="M927.5,425.711c.1,0,.2,0,.306,0,.137-.006.213.043.212.193s-.021.278-.208.283c-.17,0-.34,0-.509,0-.189.007-.3-.049-.3-.266s.143-.218.3-.214C927.362,425.712,927.43,425.711,927.5,425.711Z" fill="#de4d30"/>
            <path id="Path_355" data-name="Path 355" d="M915.242,394.272c.15.058.493-.161.457.279,0,.034.005.082-.014.1-.242.211-.53.067-.8.09-.207.018-.147-.192-.18-.3s.061-.159.163-.163S915.1,394.272,915.242,394.272Z" fill="#de4d30"/>
            <path id="Path_356" data-name="Path 356" d="M936.971,426.189c-.112,0-.224,0-.337,0-.157,0-.18-.1-.178-.222s0-.256.18-.255a4.409,4.409,0,0,0,.539,0c.238-.028.25.137.27.291.027.22-.145.18-.272.189C937.106,426.194,937.039,426.189,936.971,426.189Z" fill="#de4d30"/>
            <path id="Path_357" data-name="Path 357" d="M955.258,394.283a3.087,3.087,0,0,1,.36.076c.114.035.28.03.21.253-.059.184-.13.267-.329.2a1.349,1.349,0,0,0-.361-.064c-.169-.005-.312,0-.3-.241S954.986,394.264,955.258,394.283Z" fill="#de4d30"/>
            <path id="Path_358" data-name="Path 358" d="M948.816,425.712c.139.058.446-.151.435.244,0,.15-.069.232-.223.233-.18,0-.36,0-.539,0-.116,0-.253-.01-.222-.172.023-.123-.016-.32.22-.3C948.588,425.717,948.689,425.712,948.816,425.712Z" fill="#de4d30"/>
            <path id="Path_359" data-name="Path 359" d="M913.537,426.126a2.675,2.675,0,0,1-.666-.235c-.085-.033-.071-.11-.013-.164.088-.082.057-.3.261-.247a5.614,5.614,0,0,1,.613.184c.179.066.052.216.058.325C913.8,426.137,913.675,426.128,913.537,426.126Z" fill="#de4d30"/>
            <path id="Path_360" data-name="Path 360" d="M939.337,426.19c-.233-.018-.561.109-.508-.338,0-.033-.01-.092,0-.1a2.577,2.577,0,0,1,.764-.042c.076,0,.152,0,.192.1C939.9,426.073,939.761,426.19,939.337,426.19Z" fill="#de4d30"/>
            <path id="Path_361" data-name="Path 361" d="M919.9,394.749c-.068,0-.136-.005-.2,0-.187.019-.263-.054-.26-.25,0-.181.075-.241.245-.231.135.008.272,0,.408,0,.165,0,.312-.015.313.233s-.117.261-.3.248C920.038,394.745,919.97,394.749,919.9,394.749Z" fill="#de4d30"/>
            <path id="Path_362" data-name="Path 362" d="M922.263,394.749c-.162-.044-.475.137-.444-.279.011-.142.062-.206.205-.2s.294,0,.442,0,.313-.026.317.228-.148.261-.329.252C922.4,394.747,922.341,394.749,922.263,394.749Z" fill="#de4d30"/>
            <path id="Path_363" data-name="Path 363" d="M924.6,394.749c-.079,0-.159-.005-.238,0-.191.016-.223-.093-.223-.253s.042-.237.212-.229c.147.007.294,0,.441,0,.168,0,.311-.011.312.235s-.121.26-.3.247C924.736,394.745,924.668,394.749,924.6,394.749Z" fill="#de4d30"/>
            <path id="Path_364" data-name="Path 364" d="M926.978,394.748c-.091,0-.182,0-.272,0-.155.006-.192-.084-.187-.217s-.017-.262.176-.26c.158,0,.317,0,.476,0s.31-.011.311.236-.123.257-.3.245c-.067-.005-.135,0-.2,0Z" fill="#de4d30"/>
            <path id="Path_365" data-name="Path 365" d="M929.4,394.27c.166.049.5-.146.46.294-.012.125-.058.186-.185.185-.181,0-.363-.008-.543,0s-.232-.077-.232-.244.061-.253.238-.238C929.212,394.275,929.292,394.27,929.4,394.27Z" fill="#de4d30"/>
            <path id="Path_366" data-name="Path 366" d="M934.047,394.749c-.157-.049-.475.145-.448-.274.009-.14.054-.21.2-.205s.295.005.442,0c.186-.008.329,0,.322.259s-.167.22-.323.222C934.184,394.75,934.127,394.749,934.047,394.749Z" fill="#de4d30"/>
            <path id="Path_367" data-name="Path 367" d="M936.429,394.749c-.148-.059-.471.157-.452-.267.007-.164.073-.22.228-.214s.34.011.509,0c.191-.011.226.091.225.252s-.042.24-.211.229C936.637,394.744,936.546,394.749,936.429,394.749Z" fill="#de4d30"/>
            <path id="Path_368" data-name="Path 368" d="M938.815,394.749c-.091,0-.181,0-.272,0-.155.005-.19-.087-.185-.218s-.014-.261.177-.26c.158,0,.317,0,.475,0s.31-.01.31.236-.123.257-.3.245C938.951,394.745,938.883,394.749,938.815,394.749Z" fill="#de4d30"/>
            <path id="Path_369" data-name="Path 369" d="M941.109,394.746c-.179-.017-.491.112-.429-.311.01-.069.017-.149.1-.151a7.119,7.119,0,0,1,.745,0c.143.01.1.153.105.248s-.007.21-.152.212C941.367,394.748,941.254,394.746,941.109,394.746Z" fill="#de4d30"/>
            <path id="Path_370" data-name="Path 370" d="M943.483,394.747c-.179-.015-.486.1-.424-.315.013-.089.038-.157.138-.158.226,0,.453-.008.679,0,.172.008.13.153.135.259s-.011.209-.154.21C943.744,394.748,943.63,394.747,943.483,394.747Z" fill="#de4d30"/>
            <path id="Path_371" data-name="Path 371" d="M948.218,394.747c-.165-.049-.5.149-.461-.292.011-.126.056-.186.184-.184.181,0,.362.007.542,0s.236.07.236.242-.062.252-.239.236C948.4,394.741,948.322,394.747,948.218,394.747Z" fill="#de4d30"/>
            <path id="Path_372" data-name="Path 372" d="M950.6,394.747c-.162-.053-.5.153-.461-.288.011-.124.055-.188.183-.186.18,0,.361.008.541,0s.233.069.233.24-.056.254-.235.237C950.783,394.741,950.7,394.747,950.6,394.747Z" fill="#de4d30"/>
            <path id="Path_373" data-name="Path 373" d="M952.979,394.747c-.162-.052-.5.153-.461-.288.011-.123.051-.188.181-.186.18,0,.361.008.541,0s.234.068.233.239-.053.256-.233.239C953.162,394.741,953.082,394.747,952.979,394.747Z" fill="#de4d30"/>
            <path id="Path_374" data-name="Path 374" d="M957.548,396.06c.022.159-.069.193-.154.225-.114.044-.227.049-.295-.077a3.931,3.931,0,0,0-.291-.495c-.137-.183.1-.2.172-.293s.153-.1.229.023A2.491,2.491,0,0,1,957.548,396.06Z" fill="#de4d30"/>
            <path id="Path_375" data-name="Path 375" d="M911.82,398.325c-.048.155.142.47-.273.44-.136-.01-.209-.047-.205-.2.005-.179.009-.359,0-.537s.074-.23.24-.23.256.049.24.23C911.813,398.122,911.82,398.212,911.82,398.325Z" fill="#de4d30"/>
            <path id="Path_376" data-name="Path 376" d="M911.817,400.681c-.035.173.143.517-.313.457-.088-.011-.156-.037-.157-.136,0-.226-.009-.451,0-.676.008-.172.154-.128.258-.134s.209.007.21.152C911.818,400.445,911.817,400.547,911.817,400.681Z" fill="#de4d30"/>
            <path id="Path_377" data-name="Path 377" d="M911.345,402.934c.015-.177-.1-.483.313-.422.089.013.156.038.158.137,0,.226.009.452,0,.677-.008.172-.153.128-.258.134s-.209-.008-.211-.152C911.344,403.2,911.345,403.082,911.345,402.934Z" fill="#de4d30"/>
            <path id="Path_378" data-name="Path 378" d="M911.82,405.394c-.056.152.153.475-.27.448-.136-.009-.213-.046-.208-.2s.005-.294,0-.44c-.006-.182-.01-.33.254-.324s.226.16.225.318Z" fill="#de4d30"/>
            <path id="Path_379" data-name="Path 379" d="M911.345,410.02c.017-.183-.109-.492.312-.43.088.012.157.035.159.135,0,.226.008.452,0,.677-.008.173-.152.129-.258.135s-.209,0-.211-.151C911.344,410.274,911.345,410.161,911.345,410.02Z" fill="#de4d30"/>
            <path id="Path_380" data-name="Path 380" d="M911.817,412.481c-.026.173.128.506-.318.439-.07-.01-.144-.021-.146-.105-.006-.246-.014-.493,0-.738.01-.145.148-.105.241-.108s.214-.011.22.137C911.82,412.218,911.817,412.33,911.817,412.481Z" fill="#de4d30"/>
            <path id="Path_381" data-name="Path 381" d="M911.818,419.572c-.016.181.107.488-.313.427-.088-.013-.157-.035-.158-.136,0-.226-.009-.452,0-.677.009-.172.153-.13.259-.136s.209.008.21.152C911.818,419.315,911.818,419.428,911.818,419.572Z" fill="#de4d30"/>
            <path id="Path_382" data-name="Path 382" d="M911.817,421.949c-.016.18.111.489-.311.429-.088-.012-.158-.035-.16-.135,0-.226-.008-.452,0-.678.007-.174.152-.131.257-.137s.21.005.212.151C911.818,421.692,911.817,421.8,911.817,421.949Z" fill="#de4d30"/>
            <path id="Path_383" data-name="Path 383" d="M915.714,425.712c.162.053.5-.155.465.287-.01.124-.051.19-.181.189-.181,0-.363-.006-.543,0s-.239-.065-.238-.239.053-.258.234-.242C915.53,425.717,915.61,425.712,915.714,425.712Z" fill="#de4d30"/>
            <path id="Path_384" data-name="Path 384" d="M918.036,425.711c.1,0,.2.005.3,0,.161-.009.221.067.216.223-.005.14-.038.249-.2.254-.191,0-.383,0-.574,0-.243,0-.159-.192-.187-.32-.045-.2.106-.148.205-.155C917.878,425.707,917.957,425.711,918.036,425.711Z" fill="#de4d30"/>
            <path id="Path_385" data-name="Path 385" d="M922.758,426.189c-.164-.048-.5.15-.461-.292.011-.125.06-.186.186-.185.182,0,.363.007.544,0s.233.074.234.243-.063.253-.239.238C922.943,426.184,922.863,426.189,922.758,426.189Z" fill="#de4d30"/>
            <path id="Path_386" data-name="Path 386" d="M911.817,414.869c-.023.17.123.491-.307.429-.068-.01-.151-.013-.154-.1a7.418,7.418,0,0,1,0-.746c.01-.144.151-.1.246-.109s.211,0,.215.149C911.819,414.607,911.817,414.72,911.817,414.869Z" fill="#de4d30"/>
            <path id="Path_387" data-name="Path 387" d="M929.905,425.714c.181.016.489-.109.429.312-.012.089-.037.157-.137.159-.226,0-.452.009-.678,0-.171-.008-.133-.151-.138-.258s.012-.209.154-.211C929.648,425.712,929.761,425.714,929.905,425.714Z" fill="#de4d30"/>
            <path id="Path_388" data-name="Path 388" d="M932.219,426.189c-.165-.05-.5.15-.462-.291.011-.125.055-.187.183-.186.181,0,.362.007.542,0s.234.073.235.243-.057.255-.236.239C932.4,426.184,932.323,426.189,932.219,426.189Z" fill="#de4d30"/>
            <path id="Path_389" data-name="Path 389" d="M946.367,426.189c-.149-.059-.47.157-.453-.265.007-.165.075-.219.228-.213.169.006.34.008.509,0,.188-.01.227.088.224.251s-.041.24-.21.229C946.575,426.184,946.484,426.189,946.367,426.189Z" fill="#de4d30"/>
            <path id="Path_390" data-name="Path 390" d="M953.524,425.714c.175.019.489-.113.429.31-.01.071-.02.149-.1.152a7.12,7.12,0,0,1-.745,0c-.143-.011-.1-.152-.107-.247s.008-.21.152-.212C953.262,425.713,953.376,425.714,953.524,425.714Z" fill="#de4d30"/>
            <path id="Path_391" data-name="Path 391" d="M925.173,425.712c.162.053.5-.155.465.288-.011.151-.08.193-.214.19-.17,0-.34-.008-.509,0s-.238-.065-.238-.238.053-.258.234-.242C924.989,425.717,925.069,425.712,925.173,425.712Z" fill="#de4d30"/>
            <path id="Path_392" data-name="Path 392" d="M934.593,425.711c.159.047.471-.138.444.274-.01.137-.055.208-.2.205s-.314-.006-.47,0c-.191.008-.291-.059-.292-.269,0-.227.143-.214.294-.211C934.437,425.712,934.5,425.711,934.593,425.711Z" fill="#de4d30"/>
            <path id="Path_393" data-name="Path 393" d="M941.716,425.711c.145.067.477-.165.456.262-.007.136-.07.212-.208.215s-.295,0-.443,0c-.171.005-.308,0-.308-.24s.132-.251.306-.24C941.576,425.714,941.632,425.711,941.716,425.711Z" fill="#de4d30"/>
            <path id="Path_394" data-name="Path 394" d="M943.959,426.191a1.111,1.111,0,0,1-.291-.021.213.213,0,0,1-.117-.312c.136-.294.414-.1.625-.139.112-.021.283-.072.316.146C944.555,426.279,944.261,426.181,943.959,426.191Z" fill="#de4d30"/>
            <path id="Path_395" data-name="Path 395" d="M920.437,425.711c.165.04.472-.129.441.279-.011.141-.062.2-.2.2-.157,0-.314-.006-.471,0-.2.008-.286-.068-.286-.274,0-.231.152-.206.3-.206Z" fill="#de4d30"/>
            <path id="Path_396" data-name="Path 396" d="M951.06,425.7c.217.066.553-.133.51.3,0,.022.006.051-.006.066-.208.266-.493.082-.741.117-.18.025-.215-.126-.2-.274C950.646,425.536,950.947,425.813,951.06,425.7Z" fill="#de4d30"/>
            <path id="Path_397" data-name="Path 397" d="M955.356,425.816c-.024-.079-.026-.15.045-.154a2.283,2.283,0,0,0,.634-.225c.2-.072.173.126.244.2.1.1.048.194-.066.24a4.421,4.421,0,0,1-.634.232C955.3,426.175,955.418,425.908,955.356,425.816Z" fill="#de4d30"/>
            <path id="Path_398" data-name="Path 398" d="M957.7,414.729c-.079.123.165.416-.205.439-.158.01-.266-.041-.269-.22,0-.135,0-.271,0-.406-.006-.187.016-.333.264-.334s.209.174.214.325C957.7,414.589,957.7,414.645,957.7,414.729Z" fill="#de4d30"/>
            <path id="Path_399" data-name="Path 399" d="M912.222,395.712c-.183.2-.194.5-.377.7-.079.086-.188-.02-.282-.041s-.1-.119-.081-.193a1.89,1.89,0,0,1,.325-.659c.046-.064.1-.1.165-.036S912.177,395.579,912.222,395.712Z" fill="#de4d30"/>
            <path id="Path_400" data-name="Path 400" d="M957.7,405.278c-.064.118.133.355-.142.424-.137.034-.258.015-.288-.181a3.845,3.845,0,0,1-.044-.5c-.005-.184.074-.262.261-.264s.222.1.214.258C957.693,405.092,957.7,405.171,957.7,405.278Z" fill="#de4d30"/>
            <path id="Path_401" data-name="Path 401" d="M957.7,402.941c-.035.143.069.322-.078.416a.253.253,0,0,1-.339-.046,1.141,1.141,0,0,1,.022-.824.258.258,0,0,1,.318-.021C957.777,402.589,957.663,402.785,957.7,402.941Z" fill="#de4d30"/>
            <path id="Path_402" data-name="Path 402" d="M914.064,394.479c.02.175-.019.274-.211.273a.949.949,0,0,0-.361.072c-.228.1-.294-.023-.352-.21-.073-.233.112-.2.225-.234a4.237,4.237,0,0,1,.46-.1C913.988,394.252,914.1,394.3,914.064,394.479Z" fill="#de4d30"/>
            <path id="Path_403" data-name="Path 403" d="M911.82,417.192c-.017.115.047.264-.04.376s-.21.051-.318.045-.117-.088-.118-.172c0-.135,0-.269,0-.4,0-.158-.029-.312.224-.317s.266.137.254.321C911.817,417.085,911.82,417.13,911.82,417.192Z" fill="#de4d30"/>
            <path id="Path_404" data-name="Path 404" d="M911.82,407.709c-.041.172.137.5-.3.455-.126-.013-.183-.062-.181-.187s0-.27,0-.4c0-.163-.017-.307.229-.312.265-.005.258.148.249.326C911.819,407.62,911.82,407.653,911.82,407.709Z" fill="#de4d30"/>
            <path id="Path_405" data-name="Path 405" d="M957.725,421.757c-.1.176.142.49-.26.489-.172,0-.3-.11-.223-.239.14-.225-.2-.665.268-.7C957.867,421.286,957.595,421.632,957.725,421.757Z" fill="#de4d30"/>
            <path id="Path_406" data-name="Path 406" d="M957.7,400.581c-.045.15.141.468-.274.427-.093-.009-.164-.061-.163-.139a5.543,5.543,0,0,1,.043-.729c.015-.112.142-.081.227-.084a.142.142,0,0,1,.167.16Z" fill="#de4d30"/>
            <path id="Path_407" data-name="Path 407" d="M957.7,398.2c-.076.121.164.414-.209.433-.236.012-.224-.154-.2-.3.032-.223-.231-.534.166-.652.155-.046.264.025.248.215C957.689,397.987,957.7,398.078,957.7,398.2Z" fill="#de4d30"/>
            <path id="Path_408" data-name="Path 408" d="M957.7,417.07c0,.089,0,.179,0,.269.005.137-.046.206-.194.208s-.231-.048-.225-.212.006-.314,0-.471.015-.284.23-.276.187.146.189.28C957.7,416.935,957.7,417,957.7,417.07Z" fill="#de4d30"/>
            <path id="Path_409" data-name="Path 409" d="M957.7,419.409v.3c0,.117-.073.148-.177.156-.174.014-.291-.069-.23-.23.083-.218-.316-.587.17-.655C957.852,418.927,957.627,419.28,957.7,419.409Z" fill="#de4d30"/>
          </g>
        </g>
        <path id="Path_410" data-name="Path 410" d="M933.885,380.265q9.237,0,18.474-.007c.341,0,.451.077.436.43-.03.679-.018,1.36,0,2.04.005.243-.047.336-.316.332q-1.632-.027-3.266,0a.467.467,0,0,1-.474-.292,4.078,4.078,0,0,1-.494-1.508c-.021-.212-.1-.262-.294-.259-.6.01-1.2,0-1.8,0q-13.065,0-26.129-.007c-.3,0-.428.053-.454.39a3.609,3.609,0,0,1-.48,1.406.4.4,0,0,1-.4.242q-1.684-.021-3.369,0c-.24,0-.308-.075-.3-.311.016-.612.006-1.224.006-1.837s0-.615.631-.615Z" fill="#00b77b"/>
        <path id="Path_411" data-name="Path 411" d="M932.315,383.032a5.652,5.652,0,0,1,3.186,0Z" fill="#00b77b"/>
        <path id="Path_412" data-name="Path 412" d="M949.053,410.2a1.742,1.742,0,0,1,1.734-1.757,1.722,1.722,0,0,1,1.731,1.822,2.154,2.154,0,0,1-2.114.665A1.934,1.934,0,0,1,949.053,410.2Z" fill="#ffab00"/>
        <path id="Path_413" data-name="Path 413" d="M949.053,410.2a2.715,2.715,0,0,0,2.64.545c.312-.1.526-.361.825-.48a1.733,1.733,0,0,1-3.465-.065Z" fill="#ffab00"/>
      </g>
      <rect id="Rectangle_130" data-name="Rectangle 130" width="80.956" height="13.417" rx="0.947" transform="translate(895.003 434.813)" fill="#feffff"/>
      <rect id="Rectangle_131" data-name="Rectangle 131" width="80.956" height="13.417" rx="0.947" transform="translate(895.003 455.294)" fill="#feffff"/>
      <rect id="Rectangle_132" data-name="Rectangle 132" width="80.956" height="13.417" rx="0.947" transform="translate(895.003 475.776)" fill="#feffff"/>
      <rect id="Rectangle_133" data-name="Rectangle 133" width="80.956" height="13.417" rx="0.947" transform="translate(895.003 496.257)" fill="#feffff"/>
      <g id="Group_256" data-name="Group 256">
        <circle id="Ellipse_28" data-name="Ellipse 28" cx="24.877" cy="24.877" r="24.877" transform="translate(766.614 364.591)" fill="#7bbdff"/>
        <circle id="Ellipse_29" data-name="Ellipse 29" cx="22.8" cy="22.8" r="22.8" transform="translate(768.691 366.668)" fill="#daebff"/>
        <path id="Path_414" data-name="Path 414" d="M791.491,390.181a.714.714,0,0,1-.48-.185l-12.372-11.252a.714.714,0,0,1,.96-1.056l11.9,10.824,9.155-8a.713.713,0,1,1,.939,1.074l-9.634,8.42A.713.713,0,0,1,791.491,390.181Z" fill="#054aa9"/>
        <rect id="Rectangle_134" data-name="Rectangle 134" width="1.494" height="3.922" transform="translate(790.713 406.914)" fill="#054aa9"/>
        <rect id="Rectangle_135" data-name="Rectangle 135" width="1.494" height="3.922" transform="translate(790.713 368.1)" fill="#054aa9"/>
        <rect id="Rectangle_136" data-name="Rectangle 136" width="1.494" height="3.922" transform="translate(774.014 388.721) rotate(90)" fill="#054aa9"/>
        <rect id="Rectangle_137" data-name="Rectangle 137" width="1.494" height="3.922" transform="translate(812.828 388.721) rotate(90)" fill="#054aa9"/>
        <line id="Line_242" data-name="Line 242" x2="6.039" y2="18.162" transform="translate(791.491 389.919)" fill="none" stroke="#de4d30" stroke-linecap="round" stroke-linejoin="round" stroke-width="0.178"/>
        <circle id="Ellipse_30" data-name="Ellipse 30" cx="2.63" cy="2.63" r="2.63" transform="translate(788.861 386.837)" fill="#7bbdff"/>
        <circle id="Ellipse_31" data-name="Ellipse 31" cx="1.549" cy="1.549" r="1.549" transform="translate(789.942 387.918)" fill="#ffab00"/>
      </g>
      <g id="Group_274" data-name="Group 274">
        <g id="Group_272" data-name="Group 272">
          <g id="Group_257" data-name="Group 257">
            <path id="Path_415" data-name="Path 415" d="M790.859,452.424c4.063-5.833,8.241-11.785,14.024-15.917-2.015,6.721-8.626,11.432-14.024,15.917" fill="#09ca8b"/>
            <path id="Path_416" data-name="Path 416" d="M790.366,451.758c2.286-8.016,5.288-16.167,10.451-22.712a35.026,35.026,0,0,1-4.341,14.136c-2.436,4.347-3.148,4.864-5.495,9.26" fill="#09ca8b"/>
            <path id="Path_417" data-name="Path 417" d="M789.22,451.313a32.92,32.92,0,0,1-8.8-17.339,18.166,18.166,0,0,1,.133-6.651,7.026,7.026,0,0,1,1.656,2.2,96.854,96.854,0,0,1,8.773,22.919" fill="#09ca8b"/>
            <path id="Path_418" data-name="Path 418" d="M790.325,451.619c-1.239-5.377-3.016-10.34-3.619-15.825a29.293,29.293,0,0,1,1.458-12.838c2.537,9.44,2.511,19.36,2.218,29.13" fill="#09ca8b"/>
            <path id="Path_419" data-name="Path 419" d="M790.981,452.442c-5.535-2-12.4-6-14.514-11.728,7.569,2.736,9.689,6.347,14.514,11.728" fill="#09ca8b"/>
            <path id="Path_420" data-name="Path 420" d="M790.366,451.758a57.781,57.781,0,0,1,.693-15.431,48.028,48.028,0,0,1,5.28-14.841c1.045,10.386-4.2,19.852-5.315,30.231" fill="#09ca8b"/>
          </g>
          <g id="Group_271" data-name="Group 271">
            <g id="Group_270" data-name="Group 270" clip-path="url(#clip-path-3)">
              <g id="Group_269" data-name="Group 269">
                <g id="Group_268" data-name="Group 268">
                  <g id="Group_258" data-name="Group 258">
                    <path id="Path_421" data-name="Path 421" d="M782,450.394a26.584,26.584,0,0,1,7.025-2.12,28.535,28.535,0,0,1,7.3.462c.291.04.336-.38.093-.481-4.39-1.81-10.8-.938-14.666,1.765-.223.157.027.464.25.374Z" fill="#00b77b"/>
                  </g>
                  <g id="Group_259" data-name="Group 259">
                    <path id="Path_422" data-name="Path 422" d="M782.518,448.592c5.726-2.189,11.245-2.056,17.066-.379a.1.1,0,0,0,.066-.2c-5.333-2.285-11.973-1.884-17.216.409-.113.049-.028.211.084.168Z" fill="#00b77b"/>
                  </g>
                  <g id="Group_260" data-name="Group 260">
                    <path id="Path_423" data-name="Path 423" d="M778.453,447.006a34.464,34.464,0,0,1,12.058-2.84,29.453,29.453,0,0,1,5.635.374c2.108.347,4.069,1.083,6.127,1.608.207.053.392-.243.178-.362-3.505-1.949-8.227-2.384-12.164-2.211a25.923,25.923,0,0,0-11.921,3.258.1.1,0,0,0,.087.173Z" fill="#00b77b"/>
                  </g>
                  <g id="Group_261" data-name="Group 261">
                    <path id="Path_424" data-name="Path 424" d="M782.937,450.931a23.223,23.223,0,0,1,14.487-1.072c.1.022.154-.12.052-.154a20.4,20.4,0,0,0-14.639,1.026c-.132.058-.032.257.1.2Z" fill="#00b77b"/>
                  </g>
                  <g id="Group_262" data-name="Group 262">
                    <path id="Path_425" data-name="Path 425" d="M786.4,451.56a21.537,21.537,0,0,1,9.859-.281c.129.021.162-.183.042-.223a16.266,16.266,0,0,0-9.952.259c-.151.048-.1.291.051.245Z" fill="#00b77b"/>
                  </g>
                  <g id="Group_263" data-name="Group 263">
                    <path id="Path_426" data-name="Path 426" d="M779.082,445.349c8.85-3.349,19.293-2.309,28.153.339a.1.1,0,0,0,.067-.2c-4.614-2.13-10.2-2.395-15.2-2.435a32.342,32.342,0,0,0-13.077,2.176c-.079.033-.019.148.059.118Z" fill="#00b77b"/>
                  </g>
                  <g id="Group_264" data-name="Group 264">
                    <path id="Path_427" data-name="Path 427" d="M779.183,439.981c4.056-1.69,8.935-1.839,13.261-1.494a38.572,38.572,0,0,1,12.489,3.19c.116.051.179-.137.063-.188a38.687,38.687,0,0,0-13.117-3.234c-4.153-.267-8.9-.108-12.76,1.6-.084.037-.02.163.064.128Z" fill="#00b77b"/>
                  </g>
                  <g id="Group_265" data-name="Group 265">
                    <path id="Path_428" data-name="Path 428" d="M779.3,438.35a44.617,44.617,0,0,1,29.2,3.077c.17.078.316-.213.147-.3a42.216,42.216,0,0,0-29.374-2.889c-.069.018-.047.127.023.11Z" fill="#00b77b"/>
                  </g>
                  <g id="Group_266" data-name="Group 266">
                    <path id="Path_429" data-name="Path 429" d="M784.1,433.006a.033.033,0,0,0,.021-.062.033.033,0,0,0-.021.062Z" fill="#00b77b"/>
                  </g>
                  <g id="Group_267" data-name="Group 267">
                    <path id="Path_430" data-name="Path 430" d="M777.159,434.506c8.363-4.38,19.482-6.109,27.661-.512.1.072.246-.078.15-.17-3.584-3.444-9.427-3.881-14.118-3.544a32.235,32.235,0,0,0-13.723,4.167c-.036.021-.008.079.03.059Z" fill="#00b77b"/>
                  </g>
                </g>
              </g>
            </g>
          </g>
        </g>
        <g id="Group_273" data-name="Group 273">
          <ellipse id="Ellipse_32" data-name="Ellipse 32" cx="9.199" cy="0.791" rx="9.199" ry="0.791" transform="translate(779.685 460.803)" fill="#9cc6f7"/>
          <rect id="Rectangle_138" data-name="Rectangle 138" width="16.076" height="13.445" transform="translate(781.289 448.078)" fill="#d1e0f5"/>
          <rect id="Rectangle_139" data-name="Rectangle 139" width="3.159" height="13.445" transform="translate(794.207 448.078)" fill="#9cc6f7"/>
        </g>
      </g>
      <g id="Group_276" data-name="Group 276">
        <path id="Path_432" data-name="Path 432" d="M829.618,454.626l6.922-6.5s1.943,5.647,4.493,3.249,11.051-13.268,15.423-17.336,10.141,3.7,6.376,8.076-18.945,19-21.738,20.037-4.979.668-8.5-3.886C830.205,455.375,829.618,454.626,829.618,454.626Z" fill="#fe8e00"/>
        <g id="Group_275" data-name="Group 275" clip-path="url(#clip-path-4)">
          <path id="Path_433" data-name="Path 433" d="M830.316,452.8s3.765,7.675,7.772,7.137,25.962-23.975,25.962-23.975l2.123,6.8-13.208,14.353-16.486,8.258-4.857-1.628-3.47-7.021Z" fill="#ef7d00"/>
        </g>
      </g>
      <g id="Group_278" data-name="Group 278">
        <path id="Path_435" data-name="Path 435" d="M835.731,497.9c1.051,5.829-9.07,40.556-9.453,40.763a6.727,6.727,0,0,1-8.926-1.66c1.71-3.211,3.594-21.281,5.27-34.715.945-7.561,1.822-13.653,2.564-14.812,2.064-3.217,8.317-1.883,8.317-1.883l25.858,11.18C851.213,497.967,835.731,497.9,835.731,497.9Z" fill="#0542bf"/>
        <g id="Group_277" data-name="Group 277" clip-path="url(#clip-path-5)">
          <path id="Path_436" data-name="Path 436" d="M821.289,496.726s16.273,2.834,11.5,26.879l10.848-22.75s16.192-1.7,16.6-1.781,1.619-5.505,1.619-5.505L830.923,481.1l-9.715,5.021Z" fill="#003ba3"/>
        </g>
      </g>
      <g id="Group_280" data-name="Group 280">
        <path id="Path_438" data-name="Path 438" d="M883.174,493c-5.465,10.566-23.549,3.886-23.549,3.886l-.264-.114L833.5,485.593s-6.253-1.334-8.317,1.883c-.742,1.159-1.619,7.251-2.564,14.812-1.172,1.332-2.444,2.661-3.812,3.95-9.877,9.311-13.6,14.655-13.6,14.655s-6.478.161-7.125-6.072c0,0,26.07-37.971,26.636-38.862s2.509-7.042,18.379-2.671l15.867,4.371a65.18,65.18,0,0,0-.668-11.744c3.567.776,11.813,1.527,17.751-5.974a46.733,46.733,0,0,0,2.873,6.586C883.3,474.907,888.637,482.437,883.174,493Z" fill="#006dfe"/>
        <g id="Group_279" data-name="Group 279" clip-path="url(#clip-path-6)">
          <path id="Path_439" data-name="Path 439" d="M800.311,520.893s18.1-21.95,22.962-31.7,43.36,7.834,52.777,1.835,2.71-25.65,2.71-25.65l11.912,16.594-9.483,23.478-46.744-3.962-19.309,13.719-8.32,7.546Z" fill="#0047f9"/>
        </g>
      </g>
      <rect id="Rectangle_140" data-name="Rectangle 140" width="22.224" height="9.826" transform="translate(734.5 420.007)" fill="#daebff"/>
      <rect id="Rectangle_141" data-name="Rectangle 141" width="22.224" height="9.826" transform="translate(743.486 429.833)" fill="#ebf5ff"/>
      <rect id="Rectangle_142" data-name="Rectangle 142" width="22.224" height="9.826" transform="translate(1064.545 462.407)" fill="#daebff"/>
      <rect id="Rectangle_143" data-name="Rectangle 143" width="22.224" height="9.826" transform="translate(1073.532 472.233)" fill="#ebf5ff"/>
      <path id="Path_441" data-name="Path 441" d="M828.244,453.44l7.682-6.052a1.07,1.07,0,0,1,1.558.255l1.278,1.951a1.071,1.071,0,0,1-.189,1.392l-7.286,6.39a1.071,1.071,0,0,1-1.571-.173l-1.674-2.289A1.072,1.072,0,0,1,828.244,453.44Z" fill="#e57200"/>
      <g id="Group_281" data-name="Group 281">
        <path id="Path_442" data-name="Path 442" d="M813.61,422.386l10.829,13.78a1.12,1.12,0,0,0,1.607.151l5.151-4.458a1.07,1.07,0,0,0,.15-1.468l-9.919-12.873a1.119,1.119,0,0,0-1.449-.277l-6.06,3.55A1.074,1.074,0,0,0,813.61,422.386Z" fill="#054aa9"/>
        <path id="Path_443" data-name="Path 443" d="M814.334,422.018l10.629,13.78a1.085,1.085,0,0,0,1.577.151l5.055-4.457a1.085,1.085,0,0,0,.148-1.469l-9.736-12.873a1.086,1.086,0,0,0-1.422-.277l-5.947,3.55A1.086,1.086,0,0,0,814.334,422.018Z" fill="#7bbdff"/>
        <path id="Path_444" data-name="Path 444" d="M815.106,421.41l6.322-3.892,9.7,12.945-5.466,4.646Z" fill="#fff"/>
      </g>
    </g>
  </g>
</svg>
