<svg xmlns="http://www.w3.org/2000/svg" width="45.607" height="39.654" viewBox="0 0 45.607 39.654">
  <g id="GFbawG" transform="translate(-278.263 -910.208)">
    <g id="Group_834" data-name="Group 834">
      <path id="Path_955" data-name="Path 955" d="M285.646,913.951v9.855c1.413-.274,2.647-.459,3.842-.788.252-.069.5-.666.508-1.023.043-2.734.058-5.47.005-8.2a1.328,1.328,0,0,1,1.155-1.536c2.2-.6,4.365-1.338,6.576-1.9a5.213,5.213,0,0,1,2.486,0c2.322.6,4.606,1.342,7.032,2.068-.743,1.181-1.395,2.285-2.134,3.327-.132.187-.65.216-.951.147-.945-.217-1.871-.515-2.943-.821v29.741c.339-.066.647-.1.939-.188,4.1-1.222,8.192-2.472,12.3-3.658a1.175,1.175,0,0,0,1.008-1.366c-.044-2.523-.017-5.047-.017-7.611l4.028-.759c.075.136.179.237.179.338.019,3.55.057,7.1.02,10.649a2.105,2.105,0,0,1-1.643,2.055c-6.082,1.846-12.162,3.7-18.259,5.5a3.59,3.59,0,0,1-1.91-.114q-8.794-2.587-17.568-5.25c-1.562-.471-2.031-1.108-2.032-2.762q-.012-11.694,0-23.387a2.369,2.369,0,0,1,2.052-2.744C282.025,915.008,283.734,914.513,285.646,913.951Z" fill="#93278f"/>
      <path id="Path_956" data-name="Path 956" d="M307.337,920.493a8.118,8.118,0,0,1,8.169-8.262,8.283,8.283,0,0,1,8.364,8.263,8.431,8.431,0,0,1-8.3,8.27A8.282,8.282,0,0,1,307.337,920.493Zm7.446.412-1.837-1.591-1.164,1.146,2.665,2.969,4.988-4.973-1.455-1.266Z" fill="#93278f"/>
    </g>
  </g>
</svg>
