<svg xmlns="http://www.w3.org/2000/svg" width="206.848" height="94.773" viewBox="0 0 206.848 94.773">
  <g id="Group_43" data-name="Group 43" transform="translate(-6793.106 -427.767)">
    <path id="Path_53" data-name="Path 53" d="M6999.954,517.493a4.863,4.863,0,0,1-4.623,5.047h-197.6a4.863,4.863,0,0,1-4.623-5.047v-84.68a4.863,4.863,0,0,1,4.623-5.046h197.6a4.863,4.863,0,0,1,4.623,5.046Z" fill="#39b54a"/>
    <g id="Group_42" data-name="Group 42">
      <g id="Group_41" data-name="Group 41">
        <path id="Path_54" data-name="Path 54" d="M6871.917,457.3h8.768a5.085,5.085,0,0,1,5.07,5.07V476.95a5.085,5.085,0,0,1-5.07,5.07h-8.768a5.085,5.085,0,0,1-5.07-5.07V462.372a5.085,5.085,0,0,1,5.07-5.07Z" fill="#fff"/>
        <path id="Path_55" data-name="Path 55" d="M6883.854,503.78h-15.106a4.027,4.027,0,0,1-4.014-4.014v-44.26a4.026,4.026,0,0,1,4.014-4.014h15.106a3.994,3.994,0,0,1,.528.035V448.27a1.748,1.748,0,0,1,1.743-1.743h0a1.749,1.749,0,0,1,1.743,1.743v5.493a1.733,1.733,0,0,1-.142.687,4.013,4.013,0,0,1,.142,1.056v44.26a4.027,4.027,0,0,1-4.014,4.014ZM6871.917,457.3h8.768a5.085,5.085,0,0,1,5.07,5.07V476.95a5.085,5.085,0,0,1-5.07,5.07h-8.768a5.085,5.085,0,0,1-5.07-5.07V462.372a5.085,5.085,0,0,1,5.07-5.07Z" fill="#d1e187"/>
        <g id="Group_40" data-name="Group 40">
          <path id="Path_56" data-name="Path 56" d="M6891.418,458.23l9.639-.038c3.515.447,5.139,3.077,4.991,6.9-.267,3.857-2.454,5.742-6.106,6.073l-3.5-.07.1,10.581h-5.123V458.23Zm5.177,2.4c2.38-.341,4.207.32,4.331,4.067-.079,3.345-1.856,4.191-4.331,4.014v-8.081Z" fill="#fff"/>
          <path id="Path_57" data-name="Path 57" d="M6915,457.939l6.1-.028-.045,2.619-4.781-.021c-2.758.512-2.14,3.455-2.274,5.581l6.431-.12.022,3.215-6.231-.067-.03,7.786c.245,2.018,1.307,3.034,3.1,3.151l3.423-.037,1.044.022-.033,2.431-1.069.041-6.506-.07c-2.242-.076-4.052-1.187-4.885-4.644l-.16-15.105c.092-3.1,2.137-4.615,5.89-4.754Z" fill="#fff"/>
          <path id="Path_58" data-name="Path 58" d="M6923.345,464.568c-.385-5.06,2.435-6.2,5.863-6.6,4.013-.238,6.533,1.435,7.025,5.7l-4.737-.013c-.3-2.154-1.976-2.981-3.509-1.956-2.185,2.673,4.634,7.378,6.678,9.122,3.535,2.8,2.936,10.543-2.507,11.979l-3.32.118c-3.371.08-5.378-2.05-5.959-6l4.773-.084c.26,1.686.98,2.734,2.507,2.66,2.376-.452,3.03-2.544,1.34-5.214-3.539-3.005-7.728-5.823-8.154-9.717Z" fill="#fff"/>
          <path id="Path_59" data-name="Path 59" d="M6839.436,457.174h5.017l.053,1.558c3.031-1.31,5.317-2.236,7.712-.08,4.282-2.022,7.52-1.791,9.125,1.962l.224,21.066h-5.059V461.586c-.375-1.721-1.737-2.015-3.38-1.9v22h-5.176V461.586c-.375-1.721-1.737-2.015-3.38-1.9v22h-5.136V457.174Z" fill="#fff"/>
          <path id="Path_60" data-name="Path 60" d="M6939.046,482.3h5.2v-12.94h4.331V482.3h5.044V463.811c-.1-3.757-2.989-6.111-7.078-6.127-4.665-.041-7.325,2.171-7.5,5.915v18.7Zm5.2-19.806c.171-1.381.62-1.937,2.139-2.086,1.539.04,2.087.928,2.192,2.3v3.749h-4.331V462.49Z" fill="#fff"/>
        </g>
        <path id="Path_61" data-name="Path 61" d="M6870.887,467.165c.867,2.029,2.048,2.961,3.479,3.018a20.08,20.08,0,0,1-7.161,3.327,22.863,22.863,0,0,1-4.557-.9,11.784,11.784,0,0,0,8.239-5.44Z" fill="#81211c" stroke="#cc8b5d" stroke-width="1.386"/>
        <path id="Path_62" data-name="Path 62" d="M6880.6,461.936l10.458,5.282c-5.326,7.007-14.307,7.191-23.873,6.285a18.841,18.841,0,0,0,13.415-11.567Z" fill="#eb2026" stroke="#cc8b5d" stroke-width="1.386"/>
      </g>
    </g>
  </g>
</svg>
