<svg xmlns="http://www.w3.org/2000/svg" width="206.848" height="94.773" viewBox="0 0 206.848 94.773">
  <g id="Group_45" data-name="Group 45" transform="translate(-6793.106 -599.911)">
    <path id="Path_63" data-name="Path 63" d="M6999.954,689.637a4.863,4.863,0,0,1-4.623,5.047h-197.6a4.863,4.863,0,0,1-4.623-5.047v-84.68a4.863,4.863,0,0,1,4.623-5.046h197.6a4.863,4.863,0,0,1,4.623,5.046Z" fill="#00a99d"/>
    <g id="zMajKs">
      <g id="Group_44" data-name="Group 44">
        <path id="Path_64" data-name="Path 64" d="M6849.4,655.274c2.518-2.212,4.57-3.22,7.205-3.033,2.09.15,4.2.042,6.3.022a5.766,5.766,0,0,0,2.065-.2c.438-.18.683-.828,1.015-1.266-.41-.3-.785-.785-1.236-.873a13.064,13.064,0,0,0-2.443-.076c-4.669,0-9.337.009-14.006-.009-1.1,0-2.19-.1-3.953-.2,2.466-2.123,4.484-3.1,7.117-3.019,4.431.143,8.87.049,13.305.029a8.706,8.706,0,0,0,2.414-.248c.3-.089.6-.773.578-1.172a1.225,1.225,0,0,0-.81-.859,18,18,0,0,0-2.79-.129q-10.329-.012-20.659,0h-4.07c2.1-2.248,3.969-3.227,6.454-3.2,6.886.062,13.774-.057,20.658.066,2.111.038,3.148-.652,3.741-2.683,1.044-3.579,2.323-7.091,3.541-10.617,1.66-4.806,4.83-7.211,9.955-7.219,8.167-.012,16.335.153,24.5.233,2.917.028,5.84-.07,8.752.061,4.123.186,6.1,2.61,5.067,6.5-.95,3.587-2.309,7.067-3.509,10.655-4.021-2.847-4.029-2.867-2.6-7.177.22-.664.457-1.322.666-1.99.961-3.075.571-3.671-2.783-3.709q-15.228-.168-30.457-.218c-3.244-.011-3.714.368-4.768,3.487q-6.6,19.537-13.153,39.091c-.951,2.841-.458,3.61,2.562,3.647,10.386.127,20.773.151,31.159.252,2.163.021,3.563-.85,4.136-2.973a12.587,12.587,0,0,0,.467-1.315c.632-4.271,3.263-6.757,7.694-8.267-1.405,4.4-2.339,8.7-4.511,12.465-1.885,3.263-5.19,4.508-8.966,4.455-6.884-.1-13.768-.148-20.652-.214q-5.076-.048-10.152-.084c-.817-.007-1.64.04-2.45-.042-3.971-.406-5.805-2.986-4.668-6.832,1.024-3.462,2.317-6.843,3.437-10.277.929-2.846.823-3.01-2.08-3.047C6857.7,655.238,6853.914,655.274,6849.4,655.274Z" fill="#fff"/>
        <path id="Path_65" data-name="Path 65" d="M6918.735,648.529c-7.542,4.5-14.63,8.758-21.759,12.943-.607.357-1.761.578-2.176.249-.448-.354-.348-1.427-.435-2.192-.024-.207.155-.432.217-.656,1.206-4.283,1.205-4.274-3.1-4.3-2.913-.021-5.828-.026-8.74-.126-2.576-.088-3.076-.789-2.333-3.308.659-2.231,1.487-4.411,2.2-6.627a3.608,3.608,0,0,1,3.921-2.755c3.728.083,7.465-.03,11.187.16,2,.1,3.039-.579,3.455-2.494a14.943,14.943,0,0,1,.98-2.981c1.063-2.336,2.443-2.667,4.236-.841C6910.461,639.746,6914.427,644,6918.735,648.529Z" fill="#fff"/>
        <path id="Path_66" data-name="Path 66" d="M6950.668,645.2h-29.681a8.249,8.249,0,0,1,1.385-1.695q6.007-3.9,12.1-7.673c.616-.379,1.7-.785,2.162-.506,4.842,2.925,9.6,5.986,14.384,9.01Z" fill="#fff"/>
        <path id="Path_67" data-name="Path 67" d="M6953.172,644.043c-1.574-.971-3.036-1.854-4.48-2.766-3.447-2.175-6.939-4.287-10.306-6.58a3.565,3.565,0,0,0-4.663-.039c-4.034,2.758-8.234,5.275-12.373,7.881-.677.426-1.384.8-2.11,1.223-.977-3.457-.959-3.627,1.483-5.2,4.407-2.836,8.876-5.576,13.249-8.463a3.268,3.268,0,0,1,4.108,0c4.378,2.878,8.783,5.725,13.281,8.409C6953.529,639.8,6954.157,641.368,6953.172,644.043Z" fill="#fff"/>
        <path id="Path_68" data-name="Path 68" d="M6935.914,664.165q-6.456,0-12.91,0a7.558,7.558,0,0,1-2.417-.127,2.094,2.094,0,0,1-1.014-1.434c-.055-.276.6-.917,1.02-1.014a10.966,10.966,0,0,1,2.43-.093q12.909,0,25.819,0a10.775,10.775,0,0,1,2.429.1c.424.1,1.086.757,1.025,1.021a2.141,2.141,0,0,1-1.055,1.419,7.623,7.623,0,0,1-2.418.129Q6942.368,664.172,6935.914,664.165Z" fill="#fff"/>
        <path id="Path_69" data-name="Path 69" d="M6920.948,653.205a37.954,37.954,0,0,1,.034-3.817c.084-.836.394-2.29.763-2.343a20.85,20.85,0,0,1,4.766.077c.193.017.45.779.455,1.2.04,3.357.017,6.714.034,10.071.006,1.116-.445,1.755-1.618,1.756l-2.778,0c-1.158,0-1.652-.606-1.64-1.735.019-1.736.005-3.473.005-5.209Z" fill="#fff"/>
        <path id="Path_70" data-name="Path 70" d="M6943.122,653.311c0,1.621-.042,3.243.013,4.862.05,1.517-.7,1.939-2.11,2.023-3.672.219-3.941.034-3.959-3.647-.012-2.431.1-4.868-.031-7.292-.113-2.047.782-2.7,2.662-2.489a12.9,12.9,0,0,0,1.736.02c1.143-.027,1.7.495,1.683,1.661-.023,1.62-.005,3.241-.005,4.862Z" fill="#fff"/>
        <path id="Path_71" data-name="Path 71" d="M6934.941,653.491c0,1.165.015,2.329,0,3.494-.049,3.213-.165,3.23-3.37,3.221-1.775-.005-2.51-.591-2.45-2.419.1-3.024.087-6.055.013-9.081-.055-2.258,1.5-1.947,2.856-1.913,1.3.032,2.992-.5,2.945,1.808-.034,1.63-.007,3.26-.007,4.89Z" fill="#fff"/>
        <path id="Path_72" data-name="Path 72" d="M6951.05,653.315c0,1.514-.095,3.035.024,4.539.18,2.268-1.192,2.383-2.864,2.334-1.55-.046-3.085.181-2.978-2.226.134-3.022.117-6.057.006-9.08-.091-2.461,1.556-2.1,3.04-2.1,1.4,0,2.933-.255,2.789,2C6950.97,650.283,6951.048,651.8,6951.05,653.315Z" fill="#fff"/>
      </g>
    </g>
  </g>
</svg>
