<svg xmlns="http://www.w3.org/2000/svg" width="60" height="38" viewBox="0 0 60 38">
  <path id="Path_946" data-name="Path 946" d="M1131.392,692.4v34.164a1.761,1.761,0,0,1-.56,1.331,2.164,2.164,0,0,1-1.4.585h-56.018a1.858,1.858,0,0,1-1.4-.585,2.1,2.1,0,0,1-.616-1.331V692.4a1.844,1.844,0,0,1,.616-1.384,1.794,1.794,0,0,1,1.4-.532h56.018a2.089,2.089,0,0,1,1.4.532A1.6,1.6,0,0,1,1131.392,692.4Zm-3.977,24.692V701.876a7.925,7.925,0,0,1-5.658-2.235,7.15,7.15,0,0,1-2.353-5.375h-36.02a7.153,7.153,0,0,1-2.352,5.375,7.928,7.928,0,0,1-5.658,2.235v15.219a7.8,7.8,0,0,1,5.658,2.235,7.43,7.43,0,0,1,2.352,5.375h36.02a7.149,7.149,0,0,1,2.353-5.375A7.921,7.921,0,0,1,1127.415,717.095Zm-16.021-7.61a15.053,15.053,0,0,1-.617,4.2,13.674,13.674,0,0,1-1.9,3.992,10.221,10.221,0,0,1-3.137,2.979,8.531,8.531,0,0,1-4.314,1.171,7.321,7.321,0,0,1-4.313-1.171,13.078,13.078,0,0,1-3.193-2.979,10.151,10.151,0,0,1-1.849-3.992,31.24,31.24,0,0,1-.672-4.2,9.6,9.6,0,0,1,.672-4.2,27.467,27.467,0,0,1,1.849-3.991,8.127,8.127,0,0,1,3.193-2.98,8.351,8.351,0,0,1,4.313-1.171,9.991,9.991,0,0,1,4.314,1.171,6.912,6.912,0,0,1,3.137,2.98q.951,1.863,1.9,3.991A7.279,7.279,0,0,1,1111.394,709.485Zm-15.966,7.61h11.988v-2.874h-4.033v-13.3h-3.529l-4.65,4.1,2.409,2.341a8.908,8.908,0,0,0,1.737-1.649h.056v8.514h-3.978Z" transform="translate(-1071.397 -690.483)" fill="#93278f"/>
</svg>
