<svg xmlns="http://www.w3.org/2000/svg" width="27.36" height="24.452" viewBox="0 0 27.36 24.452">
  <g id="Group_1122" data-name="Group 1122" transform="translate(-2040.492 -598.001)">
    <g id="Group_177" data-name="Group 177">
      <path id="Path_220" data-name="Path 220" d="M2045.067,604.762a1.9,1.9,0,1,1-3.805,0h25.97a1.9,1.9,0,1,1-3.806,0" fill="none" stroke="#4d4d4d" stroke-linecap="round" stroke-linejoin="round" stroke-width="1.001"/>
      <path id="Path_221" data-name="Path 221" d="M2048.761,604.762a1.9,1.9,0,1,1-3.8,0l1.07-6.183" fill="none" stroke="#4d4d4d" stroke-linecap="round" stroke-linejoin="round" stroke-width="1.001"/>
      <path id="Path_222" data-name="Path 222" d="M2052.456,604.762a1.9,1.9,0,0,1-3.806,0l.544-6.183" fill="none" stroke="#4d4d4d" stroke-linecap="round" stroke-linejoin="round" stroke-width="1.001"/>
      <path id="Path_223" data-name="Path 223" d="M2056.15,604.762a1.9,1.9,0,1,1-3.806,0v-6.183" fill="none" stroke="#4d4d4d" stroke-linecap="round" stroke-linejoin="round" stroke-width="1.001"/>
      <path id="Path_224" data-name="Path 224" d="M2059.844,604.762a1.9,1.9,0,1,1-3.806,0v-6.183" fill="none" stroke="#4d4d4d" stroke-linecap="round" stroke-linejoin="round" stroke-width="1.001"/>
      <path id="Path_225" data-name="Path 225" d="M2062.754,598.579l.784,6.183a1.9,1.9,0,0,1-3.806,0l-.188-6.183" fill="none" stroke="#4d4d4d" stroke-linecap="round" stroke-linejoin="round" stroke-width="1.001"/>
      <path id="Path_226" data-name="Path 226" d="M2041.262,604.762l2.143-6.183h22.016l1.811,6.183" fill="none" stroke="#4d4d4d" stroke-linecap="round" stroke-linejoin="round" stroke-width="1.001"/>
    </g>
    <line id="Line_188" data-name="Line 188" y2="6.361" transform="translate(2043.112 606.665)" fill="none" stroke="#4d4d4d" stroke-linecap="round" stroke-linejoin="round" stroke-width="1.001"/>
    <line id="Line_189" data-name="Line 189" y2="6.361" transform="translate(2046.859 606.665)" fill="none" stroke="#4d4d4d" stroke-linecap="round" stroke-linejoin="round" stroke-width="1.001"/>
    <line id="Line_190" data-name="Line 190" y2="6.361" transform="translate(2061.686 606.665)" fill="none" stroke="#4d4d4d" stroke-linecap="round" stroke-linejoin="round" stroke-width="1.001"/>
    <line id="Line_191" data-name="Line 191" y2="6.361" transform="translate(2065.432 606.665)" fill="none" stroke="#4d4d4d" stroke-linecap="round" stroke-linejoin="round" stroke-width="1.001"/>
    <path id="Path_227" data-name="Path 227" d="M2067.232,613.025h-26.239v2.167h26.239Z" fill="none" stroke="#4d4d4d" stroke-linecap="round" stroke-linejoin="round" stroke-width="1.001"/>
    <path id="Path_228" data-name="Path 228" d="M2066.039,621.953h-23.75l.765-1.907h22.231Z" fill="none" stroke="#4d4d4d" stroke-linecap="round" stroke-linejoin="round" stroke-width="1.001"/>
    <line id="Line_192" data-name="Line 192" x2="1.22" y2="4.854" transform="translate(2043.165 615.192)" fill="none" stroke="#4d4d4d" stroke-linecap="round" stroke-linejoin="round" stroke-width="1.001"/>
    <line id="Line_193" data-name="Line 193" y1="4.752" x2="1.057" transform="translate(2064.375 615.192)" fill="none" stroke="#4d4d4d" stroke-linecap="round" stroke-linejoin="round" stroke-width="1.001"/>
  </g>
</svg>
