<svg xmlns="http://www.w3.org/2000/svg" width="20.286" height="21.274" viewBox="0 0 20.286 21.274">
  <g id="Group_176" data-name="Group 176" transform="translate(-2043.969 -646.576)">
    <path id="Path_218" data-name="Path 218" d="M2054.112,656.719h0a3.857,3.857,0,0,1-3.857-3.857v-1.929a3.858,3.858,0,0,1,7.715,0v1.929A3.857,3.857,0,0,1,2054.112,656.719Z" fill="none" stroke="#f7931e" stroke-linecap="round" stroke-linejoin="round" stroke-width="1.001"/>
    <path id="Path_219" data-name="Path 219" d="M2050.41,657.706a.691.691,0,0,1,.562.308,3.852,3.852,0,0,0,6.28,0,.694.694,0,0,1,.562-.308h0a5.939,5.939,0,0,1,5.939,5.941v2.71a.993.993,0,0,1-.992.993h-17.3a.994.994,0,0,1-.994-.993v-2.71a5.941,5.941,0,0,1,5.941-5.941Z" fill="none" stroke="#f7931e" stroke-linecap="round" stroke-linejoin="round" stroke-width="1.001"/>
  </g>
</svg>
