<svg xmlns="http://www.w3.org/2000/svg" width="89.726" height="95.276" viewBox="0 0 89.726 95.276">
  <g id="Group_31" data-name="Group 31" transform="translate(-2159.582 -781.231)" opacity="0.2">
    <path id="Path_53" data-name="Path 53" d="M2214.963,792.46c-5.21,3.031-10.472,5.994-16.043,8.548A72.12,72.12,0,0,0,2214.963,792.46Z" fill="none"/>
    <path id="Path_54" data-name="Path 54" d="M2193.926,865.278c5.209-3.03,10.472-5.993,16.043-8.547A72.119,72.119,0,0,0,2193.926,865.278Z" fill="none"/>
    <path id="Path_55" data-name="Path 55" d="M2237.154,820.786l-1.68-2.186c5.609-2.573-.975-6.2-2.48-9.394a15.349,15.349,0,0,1-8.832,3.312l-2.383,1.832c-4.328,3.326-8.5,6.693-12.62,10.038-2.679,2.021-5.318,4.134-7.928,6.4-.205-.4-.359-.994-.9-1.041,6.84-9.6,18.545-11.646,26.225-20.158l1.668,2.17c3.335-2.174,6.782-4.257,10.388-6.22,1.336-1.027,1.692-2.938,1.662-4.966-12.409,3.518-22.508,11.888-33.17,18.48,4.171-3.206,8.52-7.417,13.532-9.531,6.8-3.488,11.744-8.158,18.369-10.643.371-.116.753-.224,1.134-.334-.1-.918-.24-1.806-.362-2.594-.91-3.647-3.253-7.932-7.738-8.831l-1.788,1.374a12.7,12.7,0,0,1-2.539-3.389c-4.3,2.377-8.511,4.888-12.748,7.352a72.12,72.12,0,0,1-16.043,8.548c5.571-2.554,10.833-5.517,16.043-8.548,4.046-2.731,8-5.674,12.066-8.493-.866-1.4-1.794-2.535-3.254-2.663-2.452-.722-5.365,4.124-8.17,5.411-8.236,2.853-14.968,8.9-22.784,12.3-5.606,2.571-9.955,6.783-14.3,10.995-5.715,6.131-14.548,9.444-18.231,15.751-3.09,5.852,4.579,12.128,11.449,11.194l1.679,2.185c-5.609,2.573.976,6.205,2.481,9.4a15.34,15.34,0,0,1,8.831-3.312l2.384-1.832c4.327-3.326,8.5-6.693,12.619-10.038,2.679-2.021,5.318-4.134,7.929-6.4.205.4.359.994.9,1.041-6.84,9.6-18.546,11.647-26.226,20.159l-1.668-2.17c-3.334,2.174-6.781,4.257-10.387,6.22-1.336,1.027-1.693,2.938-1.662,4.966,12.409-3.519,22.507-11.888,33.169-18.481-4.171,3.207-8.519,7.418-13.531,9.532-6.8,3.488-11.745,8.158-18.369,10.643-.372.116-.754.224-1.135.334.1.917.24,1.8.363,2.594.91,3.647,3.253,7.932,7.738,8.831l1.788-1.374a12.7,12.7,0,0,1,2.539,3.389c4.3-2.377,8.51-4.888,12.748-7.353a72.119,72.119,0,0,1,16.043-8.547c-5.571,2.554-10.834,5.517-16.043,8.547-4.047,2.731-8,5.675-12.066,8.494.866,1.4,1.794,2.535,3.254,2.662,2.452.723,5.365-4.124,8.17-5.41,8.235-2.853,14.967-8.9,22.783-12.3,5.607-2.571,9.956-6.783,14.305-10.995,5.715-6.131,14.547-9.444,18.231-15.752C2251.692,826.128,2244.023,819.852,2237.154,820.786Z" fill="#93278f"/>
  </g>
</svg>
