<svg xmlns="http://www.w3.org/2000/svg" width="17.673" height="17.673" viewBox="0 0 17.673 17.673">
  <g id="Group_534" data-name="Group 534" transform="translate(-8727.02 -1903.644)">
    <circle id="Ellipse_34" data-name="Ellipse 34" cx="8.836" cy="8.836" r="8.836" transform="translate(8727.02 1903.644)" fill="#00d2ff"/>
    <g id="Group_533" data-name="Group 533">
      <path id="Path_651" data-name="Path 651" d="M8735.393,1914.222v-.439a2.307,2.307,0,0,1,.112-.784,1.258,1.258,0,0,1,.352-.518,2.948,2.948,0,0,1,.633-.409,3.3,3.3,0,0,0,.538-.325.781.781,0,0,0,.34-.683.71.71,0,0,0-.28-.574,1.175,1.175,0,0,0-.762-.227,1.362,1.362,0,0,0-.886.255.973.973,0,0,0-.354.677h-1.349a2.143,2.143,0,0,1,.7-1.53,2.656,2.656,0,0,1,1.828-.575,3.154,3.154,0,0,1,1.345.263,2.1,2.1,0,0,1,.871.713,1.745,1.745,0,0,1,.307,1.009,1.591,1.591,0,0,1-.288.965,2.442,2.442,0,0,1-.9.7,3.38,3.38,0,0,0-.558.341.925.925,0,0,0-.282.348,1.194,1.194,0,0,0-.082.474v.318Zm.681,2.281a.882.882,0,0,1-.65-.247.816.816,0,0,1-.25-.6.844.844,0,0,1,.25-.622.869.869,0,0,1,.645-.25.928.928,0,0,1,.664.25.817.817,0,0,1,.263.617.8.8,0,0,1-.263.608A.926.926,0,0,1,8736.073,1916.5Z" fill="#fff"/>
    </g>
  </g>
</svg>
