<svg xmlns="http://www.w3.org/2000/svg" width="52.772" height="31.701" viewBox="0 0 52.772 31.701">
  <path id="Path_947" data-name="Path 947" d="M509.616,944.967a.984.984,0,0,1-.247.641.676.676,0,0,1-.641.246H482.357a1.27,1.27,0,0,1-.394-.049.479.479,0,0,1-.247-.2l-.148-.2a.846.846,0,0,1-.1-.345c-.033-.2-.033-.3,0-.3V928.257H476.2a1.6,1.6,0,0,1-1.233-.542,1.86,1.86,0,0,1-.517-1.208,1.685,1.685,0,0,1,.37-1.158l8.823-10.549a1.735,1.735,0,0,1,1.331-.591,1.893,1.893,0,0,1,1.38.591l8.774,10.549a1.706,1.706,0,0,1,.443,1.183,1.543,1.543,0,0,1-.542,1.183,2,2,0,0,1-1.232.542h-5.274v10.549h15.822a.851.851,0,0,1,.691.295l4.387,5.324A.858.858,0,0,1,509.616,944.967Zm17.6-11.436a1.766,1.766,0,0,1-.394,1.134l-8.774,10.548a1.828,1.828,0,0,1-1.381.641,1.677,1.677,0,0,1-1.33-.641l-8.824-10.548a1.8,1.8,0,0,1-.394-1.158,1.672,1.672,0,0,1,.542-1.208,1.7,1.7,0,0,1,1.232-.542h5.275V921.209H497.293a.8.8,0,0,1-.69-.346l-4.387-5.274a.879.879,0,0,1-.2-.567.776.776,0,0,1,.247-.566,1.056,1.056,0,0,1,.641-.3h26.42a1.118,1.118,0,0,1,.345.049.483.483,0,0,1,.247.2l.148.246a1.657,1.657,0,0,1,.1.3,1.5,1.5,0,0,1,.049.345v16.464h5.275a1.7,1.7,0,0,1,1.232.542A1.538,1.538,0,0,1,527.213,933.531Z" transform="translate(-474.444 -914.16)" fill="#93278f"/>
</svg>
