<svg xmlns="http://www.w3.org/2000/svg" width="44.793" height="33.625" viewBox="0 0 44.793 33.625">
  <path id="Path_949" data-name="Path 949" d="M1123.793,941.635v2.821H1079V910.831h2.783v30.8Zm-2.822-27.276v9.484a.683.683,0,0,1-.392.665.657.657,0,0,1-.783-.157l-2.665-2.664L1103.3,935.521a.669.669,0,0,1-1.018,0l-5.1-5.1-9.092,9.132-4.193-4.233,12.814-12.775a.594.594,0,0,1,.471-.235.71.71,0,0,1,.509.235l5.095,5.095,10.15-10.151-2.626-2.664a.666.666,0,0,1,.47-1.175h9.523a.644.644,0,0,1,.47.2A.688.688,0,0,1,1120.971,914.359Z" transform="translate(-1079 -910.831)" fill="#93278f"/>
</svg>
