<svg xmlns="http://www.w3.org/2000/svg" width="242.358" height="222.451" viewBox="0 0 242.358 222.451">
  <path id="Path_943" data-name="Path 943" d="M1051.929,418.173v23.309a3.918,3.918,0,0,1-.9,2.492,3.568,3.568,0,0,1-1.812,1.351l-19.689,3.168a59.176,59.176,0,0,1-4.072,9.5q4.3,6.108,11.317,14.49a4.873,4.873,0,0,1,.9,2.711,3.09,3.09,0,0,1-.9,2.265,94.238,94.238,0,0,1-10.413,11.311q-7.695,7.464-9.5,7.469a4.546,4.546,0,0,1-2.94-.9l-14.485-11.312a48.3,48.3,0,0,1-9.728,3.844q-1.362,13.57-2.944,19.683a3.718,3.718,0,0,1-3.844,2.94H959.374a3.877,3.877,0,0,1-2.487-.9,2.773,2.773,0,0,1-1.133-2.254L952.815,488.1a59.633,59.633,0,0,1-9.505-4.072l-14.936,11.312a3.209,3.209,0,0,1-2.379.9,5,5,0,0,1-2.825-.9q-18.108-16.968-18.1-20.369a3.636,3.636,0,0,1,.9-2.264q1.133-1.8,5.209-6.783t5.879-7.7a60.492,60.492,0,0,1-4.524-10.408l-19.237-2.94a3.9,3.9,0,0,1-2.035-1.132,3.375,3.375,0,0,1-.9-2.493V417.716a3.632,3.632,0,0,1,.9-2.254A3.487,3.487,0,0,1,893.3,414.1l19.466-3.168q1.579-4.305,4.072-9.5-4.306-6.108-11.317-14.48a4.925,4.925,0,0,1-.9-2.721,3.894,3.894,0,0,1,.9-2.483,110.6,110.6,0,0,1,10.413-11.093q7.686-7.464,9.956-7.469a4.937,4.937,0,0,1,2.716.9l14.48,11.322a65.506,65.506,0,0,1,9.733-4.082q1.355-13.57,2.939-19.455a3.4,3.4,0,0,1,3.62-2.94h23.537a3.88,3.88,0,0,1,2.488.9,3.55,3.55,0,0,1,1.356,2.264l2.944,19.227a76.269,76.269,0,0,1,9.505,3.853l14.708-11.093a4.2,4.2,0,0,1,5.2,0q18.33,16.983,18.328,20.369a4.412,4.412,0,0,1-.9,2.265l-5.432,6.783a78.91,78.91,0,0,0-5.656,7.7,81.9,81.9,0,0,1,4.3,10.408l19.232,2.722a4.08,4.08,0,0,1,2.041,1.35A5.457,5.457,0,0,1,1051.929,418.173Zm-48.425,11.54a32.449,32.449,0,1,0-9.5,22.852A31.158,31.158,0,0,0,1003.5,429.713Zm129.211-73.541V373.82q0,2.04-18.785,4.072a31.421,31.421,0,0,1-3.62,6.564q6.331,14.256,6.336,17.42a1.314,1.314,0,0,1-.452.913q-15.388,8.82-15.612,8.819-1.139,0-5.884-5.879t-6.565-8.6c-1.658.148-2.939.228-3.848.228s-2.185-.08-3.843-.228a72.949,72.949,0,0,1-6.565,8.6q-4.975,5.885-5.427,5.879t-15.841-8.819c-.457-.308-.68-.605-.68-.913q0-3.159,6.56-17.42a41.148,41.148,0,0,1-3.844-6.564q-18.785-2.041-18.785-4.072V356.172q0-2.041,18.785-3.853a31.111,31.111,0,0,1,3.844-6.555q-6.562-14.256-6.56-17.429c0-.3.223-.6.68-.9l11.764-6.793a36.526,36.526,0,0,1,3.848-2.036q.9,0,5.656,5.889t6.565,8.372l3.843-.228,3.848.228a114.517,114.517,0,0,1,11.541-14.033l.908-.228q.447,0,15.612,8.829a1.314,1.314,0,0,1,.452.9q0,3.173-6.336,17.429a38.869,38.869,0,0,1,3.62,6.555Q1132.714,354.135,1132.715,356.172Zm0,129.434v17.648q0,2.041-18.785,3.854a31.1,31.1,0,0,1-3.62,6.554q6.331,14.256,6.336,17.43a1.294,1.294,0,0,1-.452.9q-15.388,9.059-15.612,9.058-1.139,0-5.884-6.118l-6.565-8.372c-1.658.149-2.939.228-3.848.228s-2.185-.079-3.843-.228a94.239,94.239,0,0,1-6.565,8.372q-4.975,5.884-5.656,6.118-.231,0-15.612-9.058c-.457-.3-.68-.6-.68-.9q0-3.174,6.56-17.43a40.626,40.626,0,0,1-3.844-6.554q-18.785-1.818-18.785-3.854V485.606q0-2.04,18.785-4.071a31.187,31.187,0,0,1,3.844-6.565q-6.562-14.256-6.56-17.42c0-.307.223-.6.68-.9l11.764-6.793a34.3,34.3,0,0,1,3.848-2.036q.9,0,5.656,5.879,4.752,5.9,6.565,8.6l3.843-.229,3.848.229a107.924,107.924,0,0,1,11.541-14.252l.908-.228q.447,0,15.612,8.829a1.278,1.278,0,0,1,.452.9q0,3.174-6.336,17.42a38.973,38.973,0,0,1,3.62,6.565Q1132.714,483.575,1132.715,485.606Zm-32.133-120.615a15.123,15.123,0,0,0-4.98-11.312,15.858,15.858,0,0,0-22.629,0,14.849,14.849,0,0,0-4.866,11.431,15.97,15.97,0,0,0,4.866,11.421,15.45,15.45,0,0,0,11.312,4.757,16.227,16.227,0,0,0,11.545-4.757A14.643,14.643,0,0,0,1100.582,364.991Zm0,129.444a15.836,15.836,0,0,0-4.98-11.54,14.821,14.821,0,0,0-11.317-4.757,17.312,17.312,0,0,0-11.312,4.757,14.22,14.22,0,0,0-4.752,11.54,16.218,16.218,0,0,0,16.064,16.059,16.217,16.217,0,0,0,11.545-4.747A14.391,14.391,0,0,0,1100.582,494.435Z" transform="translate(-890.357 -318.602)" fill="#fff" style="mix-blend-mode: soft-light;isolation: isolate"/>
</svg>
