<svg xmlns="http://www.w3.org/2000/svg" width="15.233" height="15.237" viewBox="0 0 15.233 15.237">
  <path id="Icon_ionic-ios-settings" data-name="Icon ionic-ios-settings" d="M18.475,12.116a1.96,1.96,0,0,1,1.257-1.829,7.77,7.77,0,0,0-.94-2.265,1.986,1.986,0,0,1-.8.171A1.956,1.956,0,0,1,16.206,5.44a7.746,7.746,0,0,0-2.261-.94,1.958,1.958,0,0,1-3.657,0,7.77,7.77,0,0,0-2.265.94A1.956,1.956,0,0,1,6.233,8.193a1.922,1.922,0,0,1-.8-.171A7.941,7.941,0,0,0,4.5,10.292a1.96,1.96,0,0,1,0,3.657,7.77,7.77,0,0,0,.94,2.265A1.957,1.957,0,0,1,8.026,18.8a7.815,7.815,0,0,0,2.265.94,1.955,1.955,0,0,1,3.649,0,7.77,7.77,0,0,0,2.265-.94,1.959,1.959,0,0,1,2.582-2.582,7.815,7.815,0,0,0,.94-2.265A1.969,1.969,0,0,1,18.475,12.116Zm-6.323,3.169a3.173,3.173,0,1,1,3.173-3.173A3.173,3.173,0,0,1,12.152,15.286Z" transform="translate(-4.5 -4.5)" fill="#fff"/>
</svg>
