<svg xmlns="http://www.w3.org/2000/svg" width="48.661" height="39.654" viewBox="0 0 48.661 39.654">
  <g id="Group_833" data-name="Group 833" transform="translate(-875.952 -910.208)">
    <path id="Path_954" data-name="Path 954" d="M924.613,912.029v28.8a2.721,2.721,0,0,1-.1.757.762.762,0,0,1-.4.5,1.759,1.759,0,0,0-.454.3,1.128,1.128,0,0,1-.656.2l-.656.051h-1.311a7.213,7.213,0,0,1-14.426,0h-10.8a7.213,7.213,0,0,1-14.426,0H878.2a5.3,5.3,0,0,1-.6-.051,1.643,1.643,0,0,1-.656-.2l-.454-.3a1.619,1.619,0,0,1-.4-.5,1,1,0,0,1-.1-.757,1.713,1.713,0,0,1,.5-1.261,1.9,1.9,0,0,1,1.262-.554V927.968a6.9,6.9,0,0,1,.1-.957l.151-1.06a1.785,1.785,0,0,1,.4-.857l.654-.857,5.55-5.55a4.245,4.245,0,0,1,1.411-.908,4.393,4.393,0,0,1,1.666-.353h4.489v-5.4a1.79,1.79,0,0,1,.556-1.312,1.575,1.575,0,0,1,1.261-.505h28.8a1.721,1.721,0,0,1,1.263.505A1.962,1.962,0,0,1,924.613,912.029Zm-43.23,16.192h10.794v-7.214h-4.438a.828.828,0,0,0-.607.252l-5.5,5.5a.823.823,0,0,0-.252.6Zm10.794,14.427a3.609,3.609,0,0,0-1.059-2.572,3.2,3.2,0,0,0-2.522-1.059,3.725,3.725,0,0,0-2.523,1.059,3.568,3.568,0,0,0-1.11,2.572,2.974,2.974,0,0,0,1.11,2.522,4.423,4.423,0,0,0,2.523,1.059,3.616,3.616,0,0,0,3.581-3.581Zm25.222,0a3.609,3.609,0,0,0-1.059-2.572,3.2,3.2,0,0,0-2.522-1.059,3.725,3.725,0,0,0-2.523,1.059,3.568,3.568,0,0,0-1.11,2.572,2.976,2.976,0,0,0,1.11,2.522,4.423,4.423,0,0,0,2.523,1.059,3.616,3.616,0,0,0,3.581-3.581Z" fill="#93278f"/>
  </g>
</svg>
