<svg xmlns="http://www.w3.org/2000/svg" width="16.495" height="14.098" viewBox="0 0 16.495 14.098">
  <path id="Path_1631" data-name="Path 1631" d="M7.617-11.612v10.8a.612.612,0,0,1-.2.444A.552.552,0,0,1,6.978-.2a.772.772,0,0,1-.444-.178l-3.3-3.3H.639a.575.575,0,0,1-.444-.2A.722.722,0,0,1,0-4.315v-3.8a.575.575,0,0,1,.2-.444.722.722,0,0,1,.444-.2H3.232l3.3-3.3a.6.6,0,0,1,.444-.178.6.6,0,0,1,.444.178A.669.669,0,0,1,7.617-11.612Zm3.8,5.4a2.532,2.532,0,0,1-.426,1.4,2.293,2.293,0,0,1-1.119.923.485.485,0,0,1-.249.053.642.642,0,0,1-.444-.178A.545.545,0,0,1,9-4.474a.575.575,0,0,1,.107-.355.919.919,0,0,1,.3-.249,2.793,2.793,0,0,0,.337-.213,1.126,1.126,0,0,0,.284-.373.906.906,0,0,0,.107-.55,4.792,4.792,0,0,0-.107-.568.452.452,0,0,0-.284-.355.692.692,0,0,1-.337-.231.714.714,0,0,0-.3-.231Q8.931-7.671,9-7.955a.664.664,0,0,1,.178-.462.524.524,0,0,1,.444-.178.485.485,0,0,1,.249.053,2.293,2.293,0,0,1,1.119.923A2.532,2.532,0,0,1,11.417-6.215Zm2.539,0A5.008,5.008,0,0,1,13.1-3.409a4.838,4.838,0,0,1-2.219,1.864.627.627,0,0,1-.249.053.631.631,0,0,1-.462-.2A.552.552,0,0,1,10-2.131a.627.627,0,0,1,.373-.586,4.657,4.657,0,0,0,.764-.444,3.736,3.736,0,0,0,1.136-1.332,3.73,3.73,0,0,0,.408-1.722,3.73,3.73,0,0,0-.408-1.722,3.736,3.736,0,0,0-1.136-1.332,4.657,4.657,0,0,0-.764-.444A.627.627,0,0,1,10-10.3a.642.642,0,0,1,.178-.444.575.575,0,0,1,.444-.2.669.669,0,0,1,.266.053A4.861,4.861,0,0,1,13.1-9.02,5.141,5.141,0,0,1,13.956-6.215Zm2.539,0a7.475,7.475,0,0,1-1.261,4.19A7.383,7.383,0,0,1,11.879.781a.627.627,0,0,1-.249.053.575.575,0,0,1-.444-.2.722.722,0,0,1-.2-.444.675.675,0,0,1,.391-.586L11.825-.6q.444-.249.817-.5a6.48,6.48,0,0,0,1.9-2.255,6.017,6.017,0,0,0,.675-2.859,6.63,6.63,0,0,0-.675-2.859,6.013,6.013,0,0,0-1.9-2.255,6.8,6.8,0,0,0-.817-.5.852.852,0,0,0-.231-.107.578.578,0,0,1-.213-.107.675.675,0,0,1-.391-.586.575.575,0,0,1,.2-.444.722.722,0,0,1,.444-.2.627.627,0,0,1,.249.053A7.531,7.531,0,0,1,15.235-10.4,7.42,7.42,0,0,1,16.5-6.215Z" transform="translate(0 13.264)" fill="#df3831"/>
</svg>
