<svg xmlns="http://www.w3.org/2000/svg" width="10.282" height="15.474" viewBox="0 0 10.282 15.474">
  <path id="Path_298" data-name="Path 298" d="M.45,1.278q-.18.2-.324.144T0,1.1V-13.7q0-.252.126-.324t.324.144L7.578-6.75a.946.946,0,0,1,.144.18v-6.8a.651.651,0,0,1,.18-.45.583.583,0,0,1,.45-.2h1.3a.62.62,0,0,1,.45.2.56.56,0,0,1,.18.45V.774a.651.651,0,0,1-.18.45.583.583,0,0,1-.45.2h-1.3a.62.62,0,0,1-.45-.2.56.56,0,0,1-.18-.45V-6.048a.76.76,0,0,1-.144.2Z" transform="translate(0.002 14.04)" fill="#333"/>
</svg>
