<svg xmlns="http://www.w3.org/2000/svg" width="105" height="105" viewBox="0 0 105 105">
  <g id="Group_257" data-name="Group 257" transform="translate(0 -1028.362)">
    <circle id="Ellipse_4" data-name="Ellipse 4" cx="52.5" cy="52.5" r="52.5" transform="translate(0 1028.362)" fill="#50b748"/>
    <path id="Path_298" data-name="Path 298" d="M44.848,84.915q1.5-.292,2.988-.673,2.517-.7,4.955-1.652t4.776-2.128a52.3,52.3,0,0,0,4.537-2.6q2.2-1.413,4.248-3.039a52.3,52.3,0,0,0,3.933-3.456q1.874-1.821,3.558-3.822a52.3,52.3,0,0,0,3.167-4.163q1.477-2.157,2.733-4.452t2.273-4.708a52.3,52.3,0,0,0,1.8-4.912q.663-2.188,1.132-4.427L53.872,13.8A28.331,28.331,0,0,0,13.809,53.876Z" transform="translate(18.464 1046.828)" fill="#10a711"/>
    <path id="Path_299" data-name="Path 299" d="M30.351,2a28.344,28.344,0,1,1-20.04,8.309A28.234,28.234,0,0,1,30.351,2ZM43.257,21.623a2.194,2.194,0,0,0-1.141.451L26.2,34.018l-7.381-7.381c-1.6-1.668-4.749,1.481-3.082,3.082l8.717,8.717a2.254,2.254,0,0,0,2.843.2L44.729,25.564c1.467-1.068.563-3.916-1.251-3.942a2.181,2.181,0,0,0-.221,0Z" transform="translate(21.957 1050.328)" fill="#fff"/>
  </g>
</svg>
