<svg xmlns="http://www.w3.org/2000/svg" width="40.798" height="21.274" viewBox="0 0 40.798 21.274">
  <g id="Group_182" data-name="Group 182" transform="translate(-2033.713 -698.734)">
    <g id="Group_179" data-name="Group 179">
      <path id="Path_229" data-name="Path 229" d="M2054.329,708.878h0a3.858,3.858,0,0,1-3.858-3.858v-1.928a3.858,3.858,0,1,1,7.715,0v1.928A3.857,3.857,0,0,1,2054.329,708.878Z" fill="none" stroke="#f7931e" stroke-linecap="round" stroke-linejoin="round" stroke-width="1.001"/>
      <path id="Path_230" data-name="Path 230" d="M2050.627,709.865a.692.692,0,0,1,.562.308,3.852,3.852,0,0,0,6.28,0,.692.692,0,0,1,.562-.308h0a5.94,5.94,0,0,1,5.94,5.94v2.71a.993.993,0,0,1-.992.993h-17.3a.993.993,0,0,1-.993-.993V715.8a5.941,5.941,0,0,1,5.94-5.94Z" fill="none" stroke="#f7931e" stroke-linecap="round" stroke-linejoin="round" stroke-width="1.001"/>
    </g>
    <g id="Group_180" data-name="Group 180">
      <path id="Path_231" data-name="Path 231" d="M2065.4,708.276h0a3.464,3.464,0,0,1-3.465-3.464V703.08a3.464,3.464,0,1,1,6.929,0v1.732A3.463,3.463,0,0,1,2065.4,708.276Z" fill="none" stroke="#f7931e" stroke-linecap="round" stroke-linejoin="round" stroke-width="0.899"/>
      <path id="Path_232" data-name="Path 232" d="M2062.077,709.163h0a.622.622,0,0,1,.505.276,3.459,3.459,0,0,0,5.64,0,.62.62,0,0,1,.5-.276h0a5.334,5.334,0,0,1,5.334,5.335v2.433a.892.892,0,0,1-.891.892h-6.4" fill="none" stroke="#f7931e" stroke-linecap="round" stroke-linejoin="round" stroke-width="0.899"/>
    </g>
    <g id="Group_181" data-name="Group 181">
      <path id="Path_233" data-name="Path 233" d="M2042.823,708.276h0a3.464,3.464,0,0,0,3.464-3.464V703.08a3.464,3.464,0,1,0-6.929,0v1.732A3.464,3.464,0,0,0,2042.823,708.276Z" fill="none" stroke="#f7931e" stroke-linecap="round" stroke-linejoin="round" stroke-width="0.899"/>
      <path id="Path_234" data-name="Path 234" d="M2046.148,709.163h0a.622.622,0,0,0-.505.276,3.458,3.458,0,0,1-5.639,0,.623.623,0,0,0-.505-.276h0a5.334,5.334,0,0,0-5.335,5.335v2.433a.893.893,0,0,0,.892.892h6.4" fill="none" stroke="#f7931e" stroke-linecap="round" stroke-linejoin="round" stroke-width="0.899"/>
    </g>
  </g>
</svg>
