<svg xmlns="http://www.w3.org/2000/svg" width="56.52" height="35.697" viewBox="0 0 56.52 35.697">
  <g id="Group_1628" data-name="Group 1628" transform="translate(39 -33)">
    <g id="_x37_7_Essential_Icons" transform="translate(-51 7)">
      <path id="Video_Camera" d="M66.214,26.3,53.646,34.4V31.949A5.967,5.967,0,0,0,47.7,26H17.949A5.967,5.967,0,0,0,12,31.949v23.8A5.967,5.967,0,0,0,17.949,61.7H47.7a5.967,5.967,0,0,0,5.949-5.949V53.293L66.214,61.4a1.52,1.52,0,0,0,2.305-1.264V27.487A1.438,1.438,0,0,0,66.214,26.3ZM50.671,55.747A2.983,2.983,0,0,1,47.7,58.722H17.949a2.983,2.983,0,0,1-2.975-2.975v-23.8a2.983,2.983,0,0,1,2.975-2.975H47.7a2.983,2.983,0,0,1,2.975,2.975Zm14.874,1.71-11.9-7.66V37.9l11.9-7.66Z" fill="#98a4b4"/>
    </g>
  </g>
</svg>
