<svg xmlns="http://www.w3.org/2000/svg" width="60" height="38" viewBox="0 0 60 38">
  <path id="Path_944" data-name="Path 944" d="M925.3,690.483a5.386,5.386,0,0,1,3.53,1.2,3.535,3.535,0,0,1,1.456,2.79V724.5a3.454,3.454,0,0,1-1.456,2.79,5.726,5.726,0,0,1-3.53,1.2H875.27a5.526,5.526,0,0,1-3.529-1.2,3.331,3.331,0,0,1-1.457-2.79V694.469a3.45,3.45,0,0,1,1.457-2.79,5.725,5.725,0,0,1,3.529-1.2Zm-50.026,3.189a1.051,1.051,0,0,0-.672.221.879.879,0,0,0-.336.576v5.536H926.3v-5.536a.7.7,0,0,0-.28-.576,1.147,1.147,0,0,0-.729-.221ZM925.3,725.294a1.306,1.306,0,0,0,.729-.221.55.55,0,0,0,.28-.576V709.483H874.262V724.5a.744.744,0,0,0,.336.576.885.885,0,0,0,.672.221Zm-47-3.144v-3.189h8.011v3.189Zm11.988,0v-3.189h11.989v3.189Z" transform="translate(-870.282 -690.483)" fill="#93278f"/>
</svg>
