<svg width="47" height="43" viewBox="0 0 47 43" fill="none" xmlns="http://www.w3.org/2000/svg">
<path d="M25.2959 42.026C25.2959 42.4721 25.6428 42.819 26.0889 42.819H33.5228C33.9688 42.819 34.3157 42.4721 34.3157 42.026V38.0117H25.2959V42.026Z" fill="#26AAE3"/>
<path d="M46.7056 14.7694C46.4578 14.3729 46.0118 14.0756 45.5162 13.9765C44.8719 13.8773 44.2276 14.1251 43.8312 14.6703L40.5602 19.2793C40.6594 19.3785 40.7089 19.4776 40.7585 19.5767C41.6506 20.8652 41.5514 22.5998 40.5107 23.7893L40.3124 24.0866C38.9743 25.623 37.4876 27.0602 35.9512 28.3487L34.6131 29.3399C34.1671 29.6868 33.5723 29.6373 33.2254 29.1912C32.8785 28.7452 32.9281 28.1505 33.3741 27.8036L34.6627 26.7628C36.1494 25.5734 37.5371 24.1857 38.8257 22.7485L39.0735 22.5007C39.5195 22.0051 39.5691 21.2617 39.1726 20.7166C38.9248 20.3696 38.6274 20.1714 38.2309 20.0723C37.8345 20.0227 37.438 20.0723 37.1406 20.3201L29.9545 25.3256C29.1615 25.8708 28.5668 26.6637 28.319 27.6053L25.6924 36.08H35.0096L41.2541 32.2639C42.3444 31.6197 43.1373 30.5294 43.4347 29.3399L46.9534 16.2066C47.0525 15.6615 47.003 15.2155 46.7056 14.7694Z" fill="#26AAE3"/>
<path d="M18.6051 27.6053C18.3078 26.7133 17.7626 25.8708 16.9697 25.3256L9.83309 20.3201C9.48617 20.0723 9.13925 20.0227 8.74277 20.0723C8.3463 20.1218 7.99938 20.3696 7.80114 20.7166C7.40467 21.2617 7.45423 22.0051 7.90026 22.5007L8.14806 22.7485C9.38705 24.1857 10.7747 25.5238 12.3111 26.7628L13.5996 27.8036C13.7978 27.9523 13.9465 28.2001 13.9465 28.4478C13.9961 28.6956 13.897 28.9434 13.7483 29.1912C13.5996 29.3895 13.3518 29.5382 13.104 29.5382C12.8562 29.5877 12.6084 29.4886 12.3606 29.3399L11.0721 28.2992C9.48617 27.0106 7.99938 25.5734 6.71083 24.0371L6.46304 23.7893C5.42229 22.5998 5.32317 20.8652 6.21524 19.5767C6.2648 19.4776 6.36392 19.3785 6.41348 19.2793L3.14255 14.6703C2.74607 14.1251 2.1018 13.8773 1.45752 13.9765C0.961928 14.0756 0.565452 14.3234 0.268094 14.7694C0.0202966 15.1659 -0.0788225 15.6615 0.0698561 16.1571L3.58858 29.2904C3.9355 30.5294 4.67889 31.5701 5.7692 32.2144L12.0137 36.0305H21.3309L18.6051 27.6053Z" fill="#26AAE3"/>
<path d="M12.5591 42.026C12.5591 42.4721 12.906 42.819 13.352 42.819H20.786C21.232 42.819 21.6285 42.4721 21.6285 42.026V38.0117H12.5591V42.026Z" fill="#26AAE3"/>
<path d="M34.3653 10.9031C34.3653 4.85684 29.4589 0 23.4622 0C17.4655 0 12.5591 4.90639 12.5591 10.9031C12.5591 16.9494 17.4655 21.8062 23.4622 21.8062C29.4589 21.8062 34.3653 16.8998 34.3653 10.9031ZM24.156 8.87116C24.3047 8.87116 24.4534 9.01984 24.4534 9.16852V10.0606C24.4534 10.2093 24.3047 10.3579 24.156 10.3579H21.0833C21.0833 10.5562 21.0338 10.7049 21.0338 10.8535C21.0338 11.0022 21.0338 11.1509 21.0833 11.3491H24.156C24.3047 11.3491 24.4534 11.4978 24.4534 11.6465V12.5386C24.4534 12.6872 24.3047 12.8359 24.156 12.8359H21.5789C22.1241 13.8271 23.0657 14.4218 24.0569 14.4218C24.7507 14.4218 25.4446 14.1245 25.9897 13.5793C26.0888 13.4802 26.2871 13.4802 26.3862 13.5793L27.3774 14.5209C27.4269 14.5705 27.4765 14.6696 27.4765 14.7192C27.4765 14.8183 27.4269 14.8679 27.3774 14.9174C26.4853 15.9582 25.2959 16.4538 24.0569 16.4538C22.025 16.4538 20.1417 15.0165 19.3983 12.8855H18.308C18.1593 12.8855 18.0106 12.7368 18.0106 12.5881V11.6961C18.0106 11.5474 18.1593 11.3987 18.308 11.3987H19.1009C19.1009 11.25 19.1009 11.0518 19.1009 10.9031C19.1009 10.7544 19.1009 10.6057 19.1009 10.4075H18.308C18.1593 10.4075 18.0106 10.2588 18.0106 10.1101V9.21807C18.0106 9.0694 18.1593 8.92072 18.308 8.92072H19.3983C20.1417 6.78966 22.025 5.35243 24.0569 5.35243C25.2959 5.35243 26.4853 5.84803 27.4269 6.78966C27.4765 6.83922 27.5261 6.93834 27.5261 6.9879C27.5261 7.08701 27.4765 7.13657 27.4269 7.18613L26.4358 8.12777C26.3366 8.22688 26.1384 8.22688 26.0393 8.12777C25.4941 7.58261 24.8003 7.28525 24.1065 7.28525C23.1153 7.28525 22.1736 7.87997 21.6285 8.87116H24.156Z" fill="#26AAE3"/>
</svg>
