<svg width="44" height="44" viewBox="0 0 44 44" fill="none" xmlns="http://www.w3.org/2000/svg">
<path d="M28.3138 11.9067C27.1456 12.3878 25.9085 12.7314 24.6028 12.8001C24.053 12.8689 23.5032 13.1438 23.0909 13.5561L0.274892 36.3034C-2.0481e-08 36.5783 -0.0687229 36.9906 0.0687229 37.4029C1.37446 40.4955 3.57359 42.6259 6.5974 43.9316C6.94101 44.0691 7.42207 44.0003 7.69697 43.7254L15.1878 36.2347C15.1878 35.9598 15.119 35.6849 15.119 35.3413C15.119 29.3624 20.4794 24.7579 26.046 25.3764L30.4443 20.9782C30.8566 20.5658 31.1315 20.016 31.2002 19.4663C31.2689 18.1605 31.6125 16.8548 32.0936 15.6865C30.2381 14.9993 28.9323 13.7623 28.3138 11.9067Z" fill="#6B3C98"/>
<path d="M43.845 4.41545L42.8142 5.44629C42.608 5.65246 42.2644 5.65246 42.0582 5.44629L41.9208 5.30885L32.6432 14.449C31.0626 13.8992 30.0317 12.8684 29.4819 11.2877L38.7595 2.07887L38.6221 1.94142C38.4159 1.73525 38.4159 1.39164 38.6221 1.18547L39.6529 0.154627C39.8591 -0.0515422 40.2027 -0.0515422 40.4089 0.154627L43.845 3.59077C44.0512 3.86566 44.0512 4.20928 43.845 4.41545Z" fill="#6B3C98"/>
<path d="M28.5888 27.4372V27.9183C28.5888 28.2619 28.2451 28.6055 27.9015 28.6055C27.5579 28.6055 27.2143 28.3306 27.2143 27.9183V26.9562C26.802 26.8187 26.3209 26.75 25.8398 26.75V43.9995C26.3209 43.9307 26.802 43.862 27.2143 43.7933V42.8312C27.2143 42.4875 27.4892 42.1439 27.9015 42.1439C28.2451 42.1439 28.5888 42.4188 28.5888 42.8312V43.3122C31.6813 42.0065 33.8117 38.914 33.8117 35.4091C33.8117 31.7668 31.6813 28.743 28.5888 27.4372ZM28.5888 40.0135C28.5888 40.3571 28.2451 40.7008 27.9015 40.7008C27.5579 40.7008 27.2143 40.4259 27.2143 40.0135V38.7078C27.2143 38.3642 27.4892 38.0206 27.9015 38.0206C28.2451 38.0206 28.5888 38.3642 28.5888 38.7078V40.0135ZM28.5888 35.9589C28.5888 36.3025 28.2451 36.6461 27.9015 36.6461C27.5579 36.6461 27.2143 36.3025 27.2143 35.9589V34.7219C27.2143 34.3782 27.4892 34.0346 27.9015 34.0346C28.2451 34.0346 28.5888 34.3782 28.5888 34.7219V35.9589ZM28.5888 31.9729C28.5888 32.3166 28.2451 32.6602 27.9015 32.6602C27.5579 32.6602 27.2143 32.3853 27.2143 31.9729V30.6672C27.2143 30.3236 27.4892 29.98 27.9015 29.98C28.2451 29.98 28.5888 30.2549 28.5888 30.6672V31.9729Z" fill="#6B3C98"/>
<path d="M16.562 35.3404C16.562 38.914 18.6924 41.9378 21.785 43.2435V42.7624C21.785 42.4188 22.1286 42.0752 22.4722 42.0752C22.8158 42.0752 23.1594 42.3501 23.1594 42.7624V43.7246C23.5717 43.862 24.0528 43.9307 24.5339 43.9307V26.75C24.0528 26.8187 23.5717 26.8874 23.1594 26.9562V27.9183C23.1594 28.2619 22.8845 28.6055 22.4722 28.6055C22.1286 28.6055 21.785 28.3306 21.785 27.9183V27.4372C18.6924 28.743 16.562 31.7668 16.562 35.3404ZM21.7162 38.7765C21.7162 38.4329 22.0598 38.0893 22.4035 38.0893C22.7471 38.0893 23.0907 38.4329 23.0907 38.7765V40.0822C23.0907 40.4259 22.8158 40.7695 22.4035 40.7695C22.0598 40.7695 21.7162 40.4946 21.7162 40.0822V38.7765ZM21.7162 34.7219C21.7162 34.3782 22.0598 34.0346 22.4035 34.0346C22.7471 34.0346 23.0907 34.3782 23.0907 34.7219V36.0276C23.0907 36.3712 22.8158 36.7148 22.4035 36.7148C22.0598 36.7148 21.7162 36.3712 21.7162 36.0276V34.7219ZM21.7162 30.6672C21.7162 30.3236 22.0598 29.98 22.4035 29.98C22.7471 29.98 23.0907 30.2549 23.0907 30.6672V31.9729C23.0907 32.3166 22.8158 32.6602 22.4035 32.6602C22.0598 32.6602 21.7162 32.3853 21.7162 31.9729V30.6672Z" fill="#6B3C98"/>
</svg>
