<svg width="48" height="49" viewBox="0 0 48 49" fill="none" xmlns="http://www.w3.org/2000/svg">
<path d="M36.5285 12.4969C36.5285 10.0253 35.7956 7.60913 34.4224 5.55402C33.0492 3.49891 31.0975 1.89714 28.814 0.951278C26.5305 0.00541471 24.0177 -0.242066 21.5936 0.240131C19.1694 0.722328 16.9427 1.91255 15.1949 3.66027C13.4472 5.408 12.257 7.63474 11.7748 10.0589C11.2926 12.4831 11.5401 14.9958 12.4859 17.2793C13.4318 19.5628 15.0336 21.5146 17.0887 22.8878C19.1438 24.2609 21.5599 24.9939 24.0316 24.9939C27.3448 24.9901 30.5213 23.6722 32.8641 21.3294C35.2069 18.9866 36.5248 15.8102 36.5285 12.4969ZM24.6382 11.3139C26.8816 12.4647 29.4237 13.7688 29.4237 16.268C29.4237 18.3924 27.7773 20.0164 25.3611 20.4537V21.9945H22.7021V20.4241C20.371 19.9056 18.6395 18.0639 18.6395 15.8712H21.2984C21.2984 16.9795 22.55 17.9158 24.0316 17.9158C25.3481 17.9158 26.7648 17.4001 26.7648 16.268C26.7648 15.3932 24.9129 14.4431 23.425 13.68C21.1816 12.5291 18.6395 11.2251 18.6395 8.72589C18.6395 6.60148 20.2859 4.9775 22.7022 4.54017V2.99934H25.3611V4.56977C27.6922 5.08831 29.4237 6.92995 29.4237 9.12266H26.7648C26.7648 8.01442 25.5132 7.07809 24.0316 7.07809C22.7151 7.07809 21.2984 7.59378 21.2984 8.72589C21.2984 9.60069 23.1503 10.5508 24.6382 11.3139Z" fill="#FF773D"/>
<path d="M21.9673 30.7676V37.6808H19.5115L23.5626 41.7319L27.6137 37.6808H25.158V30.7676H21.9673Z" fill="#FF773D"/>
<path d="M45.3411 46.3412H2.79833V36.769H0.139404V47.6706C0.139391 47.8452 0.17377 48.0181 0.240576 48.1794C0.307383 48.3407 0.40531 48.4873 0.528765 48.6107C0.652219 48.7342 0.798783 48.8321 0.960087 48.8989C1.12139 48.9657 1.29427 49.0001 1.46887 49.0001H46.6705C46.8451 49.0001 47.018 48.9657 47.1793 48.8989C47.3406 48.8321 47.4872 48.7342 47.6106 48.6107C47.7341 48.4873 47.832 48.3407 47.8988 48.1794C47.9656 48.0181 48 47.8452 48 47.6706V36.769H45.3411V46.3412Z" fill="#FF773D"/>
</svg>
