<svg width="49" height="40" viewBox="0 0 49 40" fill="none" xmlns="http://www.w3.org/2000/svg">
<path d="M24.4721 7.99121C20.5719 7.99121 17.9219 11.0317 17.9219 14.7834C17.9219 18.5341 20.5719 21.5761 24.4721 21.5761C28.3707 21.5761 31.0212 18.5341 31.0212 14.7834C31.0217 11.0317 28.3712 7.99121 24.4721 7.99121Z" fill="#3BC5AC"/>
<path d="M24.4707 23.1351C24.4533 23.1351 24.4364 23.1318 24.4179 23.1318V23.1378C18.1027 23.1927 12.999 28.1295 12.999 34.219C13.0866 36.0087 13.7223 38.0154 14.7561 39.1623C15.7469 40.3217 33.8106 40.2363 34.1859 39.1623C35.2197 38.0159 35.8543 36.0087 35.9424 34.219C35.9424 28.1295 30.8393 23.1927 24.5234 23.1378V23.1318C24.5066 23.1318 24.4881 23.1351 24.4707 23.1351Z" fill="#3BC5AC"/>
<path d="M37.472 13.5855C41.3711 13.5855 44.0206 10.5429 44.0206 6.79221C44.0206 3.04154 41.3711 0 37.472 0C33.5718 0 30.9224 3.04154 30.9224 6.79221C30.9224 10.5429 33.5718 13.5855 37.472 13.5855Z" fill="#3BC5AC"/>
<path d="M11.474 0C7.57381 0 4.92383 3.04154 4.92383 6.79221C4.92383 10.5429 7.57381 13.5855 11.474 13.5855C15.3726 13.5855 18.0226 10.5429 18.0226 6.79221C18.0226 3.04154 15.3726 0 11.474 0Z" fill="#3BC5AC"/>
<path d="M37.5241 15.147V15.1416C37.5072 15.1416 37.4898 15.1438 37.4708 15.1438C37.4534 15.1438 37.436 15.1416 37.4186 15.1416V15.147C35.7322 15.1606 34.134 15.5266 32.6951 16.1661C32.322 18.7384 30.9163 20.8652 28.8911 22.1192C33.3281 23.6636 36.6861 27.4306 37.5154 32.009C42.2656 32.0051 46.9962 31.7158 47.1854 31.1715C48.2192 30.0246 48.8539 28.0179 48.9425 26.2283C48.9436 20.1392 43.8399 15.2014 37.5241 15.147Z" fill="#3BC5AC"/>
<path d="M11.4271 32.009C12.2575 27.4312 15.6155 23.6636 20.0524 22.1192C18.0278 20.8652 16.6264 18.7384 16.2528 16.1683C14.8123 15.5272 13.2124 15.1606 11.525 15.147V15.1416C11.5075 15.1416 11.4896 15.1438 11.4722 15.1438C11.4548 15.1438 11.4374 15.1416 11.4189 15.1416V15.147C5.10311 15.2014 0 20.1392 0 26.2283C0.0886409 28.0179 0.723266 30.024 1.75759 31.1715C2.24321 31.7398 6.83133 32.0084 11.4271 32.009Z" fill="#3BC5AC"/>
</svg>
