<svg width="12" height="21" viewBox="0 0 12 21" fill="none" xmlns="http://www.w3.org/2000/svg">
<path d="M12 0.75V7.5C12 7.69891 11.921 7.88968 11.7803 8.03033C11.6397 8.17098 11.4489 8.25 11.25 8.25H6.75V0H11.25C11.4489 0 11.6397 0.0790176 11.7803 0.21967C11.921 0.360322 12 0.551088 12 0.75ZM5.25 0H0.750002C0.55109 0 0.360325 0.0790176 0.219673 0.21967C0.0790203 0.360322 2.51811e-06 0.551088 2.51811e-06 0.75V7.5C2.51811e-06 7.69891 0.0790203 7.88968 0.219673 8.03033C0.360325 8.17098 0.55109 8.25 0.750002 8.25H5.25V0ZM12 15C12 16.1867 11.6481 17.3467 10.9888 18.3334C10.3295 19.3201 9.39246 20.0891 8.2961 20.5433C7.19975 20.9974 5.99335 21.1162 4.82946 20.8847C3.66557 20.6532 2.59648 20.0818 1.75736 19.2426C0.918246 18.4035 0.346802 17.3344 0.115291 16.1705C-0.11622 15.0067 0.00259969 13.8003 0.456725 12.7039C0.910851 11.6075 1.67989 10.6705 2.66658 10.0112C3.65328 9.35189 4.81331 9 6 9C7.5913 9 9.11742 9.63214 10.2426 10.7574C11.3679 11.8826 12 13.4087 12 15ZM8.7825 12.9675C8.64198 12.8278 8.45189 12.7494 8.25375 12.7494C8.05561 12.7494 7.86552 12.8278 7.725 12.9675L5.37 15.3225L4.38 13.8225C4.3281 13.7347 4.25883 13.6584 4.17643 13.5983C4.09404 13.5382 4.00025 13.4955 3.9008 13.4729C3.80135 13.4502 3.69832 13.4481 3.59803 13.4667C3.49774 13.4852 3.40228 13.524 3.31749 13.5807C3.23271 13.6374 3.16038 13.7108 3.10492 13.7964C3.04947 13.882 3.01206 13.978 2.99498 14.0786C2.9779 14.1791 2.9815 14.2821 3.00558 14.3812C3.02966 14.4803 3.07369 14.5735 3.135 14.655L4.635 16.905C4.69631 16.9969 4.77718 17.0742 4.87183 17.1313C4.96648 17.1883 5.07257 17.2237 5.1825 17.235H5.25C5.34871 17.2356 5.44655 17.2167 5.53793 17.1793C5.62931 17.142 5.71242 17.087 5.7825 17.0175L8.7825 14.0175C8.91992 13.8773 8.99689 13.6888 8.99689 13.4925C8.99689 13.2962 8.91992 13.1077 8.7825 12.9675Z" fill="#6B3C98"/>
</svg>
