<svg width="19" height="19" viewBox="0 0 19 19" fill="none" xmlns="http://www.w3.org/2000/svg">
<path d="M14.4613 4.96111C14.4613 3.9799 14.1703 3.02072 13.6252 2.20487C13.0801 1.38902 12.3052 0.753139 11.3987 0.377644C10.4922 0.00214956 9.49467 -0.096097 8.53231 0.0953286C7.56995 0.286754 6.68596 0.759254 5.99214 1.45308C5.29832 2.1469 4.82582 3.03089 4.63439 3.99325C4.44297 4.95561 4.54121 5.95312 4.91671 6.85965C5.2922 7.76617 5.92808 8.54099 6.74393 9.08613C7.55978 9.63126 8.51896 9.92222 9.50018 9.92222C10.8155 9.92072 12.0765 9.39756 13.0066 8.46749C13.9366 7.53743 14.4598 6.27642 14.4613 4.96111ZM9.74098 4.49147C10.6316 4.94833 11.6408 5.46601 11.6408 6.45817C11.6408 7.30153 10.9872 7.94623 10.0279 8.11984V8.73153H8.97239V8.10809C8.04695 7.90224 7.35958 7.17113 7.35958 6.30066H8.41513C8.41513 6.74061 8.91199 7.11232 9.50017 7.11232C10.0228 7.11232 10.5852 6.9076 10.5852 6.45817C10.5852 6.11089 9.85003 5.73371 9.25937 5.43075C8.36875 4.9739 7.35959 4.45622 7.35959 3.46406C7.35959 2.6207 8.0132 1.976 8.9724 1.80238V1.1907H10.028V1.81413C10.9534 2.01999 11.6408 2.7511 11.6408 3.62157H10.5852C10.5852 3.18161 10.0884 2.8099 9.50018 2.8099C8.97755 2.8099 8.41514 3.01462 8.41514 3.46406C8.41514 3.81134 9.15032 4.18852 9.74098 4.49147Z" fill="#3BC5AC"/>
<path d="M8.86651 11.3999V14.1443H7.8916L9.49985 15.7526L11.1081 14.1443H10.1332V11.3999H8.86651Z" fill="#3BC5AC"/>
<path d="M17.9444 17.9445H1.05556V14.1445H1.52459e-09V18.4723C-5.26665e-06 18.5416 0.0136425 18.6103 0.040164 18.6743C0.0666854 18.7383 0.105561 18.7965 0.154571 18.8455C0.20358 18.8945 0.261764 18.9334 0.3258 18.9599C0.389835 18.9864 0.458468 19.0001 0.527778 19.0001H18.4722C18.5415 19.0001 18.6102 18.9864 18.6742 18.9599C18.7382 18.9334 18.7964 18.8945 18.8454 18.8455C18.8944 18.7965 18.9333 18.7383 18.9598 18.6743C18.9864 18.6103 19 18.5416 19 18.4723V14.1445H17.9444V17.9445Z" fill="#3BC5AC"/>
</svg>
