<svg width="20" height="19" viewBox="0 0 20 19" fill="none" xmlns="http://www.w3.org/2000/svg">
<path d="M10.7642 17.8835C10.7642 18.0733 10.9118 18.221 11.1016 18.221H14.265C14.4548 18.221 14.6024 18.0733 14.6024 17.8835V16.1753H10.7642V17.8835Z" fill="#4FBAE9"/>
<path d="M19.875 6.28501C19.7695 6.11629 19.5797 5.98976 19.3688 5.94758C19.0947 5.9054 18.8205 6.01085 18.6518 6.24283L17.2599 8.20414C17.3021 8.24632 17.3232 8.2885 17.3443 8.33067C17.7239 8.879 17.6817 9.61713 17.2388 10.1233L17.1545 10.2498C16.5851 10.9036 15.9524 11.5152 15.2986 12.0635L14.7292 12.4853C14.5394 12.6329 14.2863 12.6118 14.1387 12.422C13.9911 12.2322 14.0122 11.9791 14.202 11.8315L14.7503 11.3886C15.383 10.8825 15.9735 10.292 16.5218 9.68039L16.6272 9.57495C16.817 9.36405 16.8381 9.04771 16.6694 8.81573C16.564 8.6681 16.4374 8.58375 16.2687 8.54157C16.1 8.52048 15.9313 8.54157 15.8047 8.64701L12.7468 10.777C12.4094 11.009 12.1563 11.3465 12.0508 11.7472L10.9331 15.3534H14.8979L17.5552 13.7295C18.0191 13.4554 18.3566 12.9914 18.4831 12.4853L19.9804 6.8966C20.0226 6.66462 20.0015 6.47481 19.875 6.28501Z" fill="#4FBAE9"/>
<path d="M7.91715 11.7472C7.79061 11.3675 7.55863 11.009 7.2212 10.777L4.18433 8.64701C4.0367 8.54157 3.88908 8.52048 3.72036 8.54157C3.55165 8.56266 3.40402 8.6681 3.31967 8.81573C3.15095 9.04771 3.17204 9.36405 3.36184 9.57495L3.46729 9.68039C3.99453 10.292 4.58503 10.8614 5.2388 11.3886L5.78712 11.8315C5.87148 11.8948 5.93475 12.0002 5.93475 12.1057C5.95584 12.2111 5.91366 12.3166 5.85039 12.422C5.78712 12.5064 5.68167 12.5696 5.57623 12.5696C5.47078 12.5907 5.36533 12.5485 5.25989 12.4853L4.71156 12.0424C4.0367 11.4941 3.40402 10.8825 2.8557 10.2287L2.75025 10.1233C2.30738 9.61713 2.2652 8.879 2.64481 8.33067C2.6659 8.2885 2.70807 8.24632 2.72916 8.20414L1.33727 6.24283C1.16855 6.01085 0.89439 5.9054 0.620228 5.94758C0.409335 5.98976 0.24062 6.0952 0.114084 6.28501C0.00863695 6.45372 -0.0335418 6.66462 0.0297263 6.87551L1.52707 12.4642C1.6747 12.9914 1.99104 13.4343 2.455 13.7085L5.11226 15.3323H9.07706L7.91715 11.7472Z" fill="#4FBAE9"/>
<path d="M5.34424 17.8835C5.34424 18.0733 5.49186 18.221 5.68167 18.221H8.84507C9.03488 18.221 9.20359 18.0733 9.20359 17.8835V16.1753H5.34424V17.8835Z" fill="#4FBAE9"/>
<path d="M14.6236 4.63966C14.6236 2.06676 12.5357 0 9.9839 0C7.43208 0 5.34424 2.08785 5.34424 4.63966C5.34424 7.21256 7.43208 9.27932 9.9839 9.27932C12.5357 9.27932 14.6236 7.19147 14.6236 4.63966ZM10.2791 3.775C10.3424 3.775 10.4057 3.83826 10.4057 3.90153V4.28114C10.4057 4.34441 10.3424 4.40768 10.2791 4.40768H8.97161C8.97161 4.49203 8.95052 4.5553 8.95052 4.61857C8.95052 4.68184 8.95052 4.74511 8.97161 4.82946H10.2791C10.3424 4.82946 10.4057 4.89273 10.4057 4.956V5.33561C10.4057 5.39888 10.3424 5.46214 10.2791 5.46214H9.1825C9.41448 5.88393 9.81518 6.137 10.237 6.137C10.5322 6.137 10.8275 6.01047 11.0595 5.77848C11.1016 5.73631 11.186 5.73631 11.2282 5.77848L11.65 6.17918C11.671 6.20027 11.6921 6.24245 11.6921 6.26354C11.6921 6.30572 11.671 6.32681 11.65 6.3479C11.2703 6.79077 10.7642 7.00167 10.237 7.00167C9.37231 7.00167 8.57091 6.39008 8.25457 5.48323H7.7906C7.72734 5.48323 7.66407 5.41997 7.66407 5.3567V4.97709C7.66407 4.91382 7.72734 4.85055 7.7906 4.85055H8.12803C8.12803 4.78728 8.12803 4.70293 8.12803 4.63966C8.12803 4.57639 8.12803 4.51312 8.12803 4.42877H7.7906C7.72734 4.42877 7.66407 4.3655 7.66407 4.30223V3.92262C7.66407 3.85935 7.72734 3.79608 7.7906 3.79608H8.25457C8.57091 2.88924 9.37231 2.27765 10.237 2.27765C10.7642 2.27765 11.2703 2.48854 11.671 2.88924C11.6921 2.91033 11.7132 2.95251 11.7132 2.9736C11.7132 3.01578 11.6921 3.03687 11.671 3.05796L11.2493 3.45866C11.2071 3.50083 11.1227 3.50083 11.0805 3.45866C10.8486 3.22667 10.5533 3.10014 10.2581 3.10014C9.83627 3.10014 9.43557 3.35321 9.20359 3.775H10.2791Z" fill="#4FBAE9"/>
</svg>
