<svg width="19" height="19" viewBox="0 0 19 19" fill="none" xmlns="http://www.w3.org/2000/svg">
<path d="M12.2265 5.1416C11.722 5.34933 11.1878 5.49771 10.624 5.52739C10.3866 5.55706 10.1492 5.67577 9.9711 5.85382L0.118704 15.6765C-8.84411e-09 15.7953 -0.0296759 15.9733 0.0296759 16.1514C0.593518 17.4868 1.54315 18.4067 2.84889 18.9706C2.99727 19.0299 3.205 19.0002 3.3237 18.8815L6.55838 15.6469C6.55838 15.5282 6.5287 15.4095 6.5287 15.2611C6.5287 12.6793 8.84342 10.691 11.2472 10.9581L13.1464 9.05882C13.3245 8.88077 13.4432 8.64336 13.4729 8.40595C13.5025 7.84211 13.6509 7.27827 13.8586 6.77378C13.0574 6.47702 12.4936 5.94285 12.2265 5.1416Z" fill="#6B3C98"/>
<path d="M18.9332 1.90668L18.4881 2.35182C18.3991 2.44084 18.2507 2.44084 18.1616 2.35182L18.1023 2.29246L14.096 6.23936C13.4135 6.00195 12.9684 5.55681 12.731 4.87427L16.7372 0.897696L16.6779 0.838344C16.5888 0.749317 16.5888 0.600937 16.6779 0.511909L17.123 0.0667708C17.212 -0.0222569 17.3604 -0.0222569 17.4494 0.0667708L18.9332 1.55057C19.0222 1.66927 19.0222 1.81765 18.9332 1.90668Z" fill="#6B3C98"/>
<path d="M12.3452 11.848V12.0558C12.3452 12.2041 12.1969 12.3525 12.0485 12.3525C11.9001 12.3525 11.7517 12.2338 11.7517 12.0558V11.6403C11.5737 11.5809 11.3659 11.5513 11.1582 11.5513V18.9999C11.3659 18.9702 11.5737 18.9406 11.7517 18.9109V18.4954C11.7517 18.3471 11.8704 18.1987 12.0485 18.1987C12.1969 18.1987 12.3452 18.3174 12.3452 18.4954V18.7032C13.6807 18.1393 14.6006 16.8039 14.6006 15.2904C14.6006 13.7176 13.6807 12.4119 12.3452 11.848ZM12.3452 17.2787C12.3452 17.4271 12.1969 17.5755 12.0485 17.5755C11.9001 17.5755 11.7517 17.4568 11.7517 17.2787V16.7149C11.7517 16.5665 11.8704 16.4181 12.0485 16.4181C12.1969 16.4181 12.3452 16.5665 12.3452 16.7149V17.2787ZM12.3452 15.5278C12.3452 15.6762 12.1969 15.8246 12.0485 15.8246C11.9001 15.8246 11.7517 15.6762 11.7517 15.5278V14.9937C11.7517 14.8453 11.8704 14.6969 12.0485 14.6969C12.1969 14.6969 12.3452 14.8453 12.3452 14.9937V15.5278ZM12.3452 13.8066C12.3452 13.955 12.1969 14.1034 12.0485 14.1034C11.9001 14.1034 11.7517 13.9847 11.7517 13.8066V13.2428C11.7517 13.0944 11.8704 12.946 12.0485 12.946C12.1969 12.946 12.3452 13.0647 12.3452 13.2428V13.8066Z" fill="#6B3C98"/>
<path d="M7.15186 15.2608C7.15186 16.8039 8.07181 18.1096 9.40722 18.6735V18.4658C9.40722 18.3174 9.5556 18.169 9.70398 18.169C9.85236 18.169 10.0007 18.2877 10.0007 18.4658V18.8812C10.1788 18.9406 10.3865 18.9702 10.5943 18.9702V11.5513C10.3865 11.5809 10.1788 11.6106 10.0007 11.6403V12.0558C10.0007 12.2041 9.88204 12.3525 9.70398 12.3525C9.5556 12.3525 9.40722 12.2338 9.40722 12.0558V11.848C8.07181 12.4119 7.15186 13.7176 7.15186 15.2608ZM9.37755 16.7446C9.37755 16.5962 9.52593 16.4478 9.67431 16.4478C9.82269 16.4478 9.97107 16.5962 9.97107 16.7446V17.3084C9.97107 17.4568 9.85236 17.6052 9.67431 17.6052C9.52593 17.6052 9.37755 17.4865 9.37755 17.3084V16.7446ZM9.37755 14.9937C9.37755 14.8453 9.52593 14.6969 9.67431 14.6969C9.82269 14.6969 9.97107 14.8453 9.97107 14.9937V15.5575C9.97107 15.7059 9.85236 15.8543 9.67431 15.8543C9.52593 15.8543 9.37755 15.7059 9.37755 15.5575V14.9937ZM9.37755 13.2428C9.37755 13.0944 9.52593 12.946 9.67431 12.946C9.82269 12.946 9.97107 13.0647 9.97107 13.2428V13.8066C9.97107 13.955 9.85236 14.1034 9.67431 14.1034C9.52593 14.1034 9.37755 13.9847 9.37755 13.8066V13.2428Z" fill="#6B3C98"/>
</svg>
