<svg width="19" height="19" viewBox="0 0 19 19" fill="none" xmlns="http://www.w3.org/2000/svg">
<path d="M18.8987 11.5341L17.6081 10.103L16.1774 11.3936C16.0162 11.5392 16.0032 11.7878 16.1487 11.9491C16.2943 12.1107 16.5429 12.1233 16.7045 11.9778L17.1655 11.562C16.6396 15.2084 13.3067 17.823 9.61312 17.4305C9.39717 17.4069 9.20364 17.5638 9.18043 17.7798C9.15762 17.9961 9.31417 18.1896 9.53012 18.2124C9.80469 18.2419 10.0777 18.2561 10.3483 18.2561C14.134 18.2561 17.4094 15.4558 17.9471 11.6536L18.3145 12.0608C18.392 12.1469 18.4994 12.191 18.6068 12.191C18.7008 12.191 18.7948 12.1575 18.8699 12.0895C19.0312 11.9439 19.0442 11.6953 18.8987 11.5341Z" fill="#4FBAE9"/>
<path d="M9.99121 9.20475V9.59811H18.2517V9.20475C18.2517 7.29737 16.952 5.68776 15.1918 5.21535C15.9789 4.8216 16.5209 4.00695 16.5209 3.06841C16.5209 1.74516 15.4443 0.668945 14.1214 0.668945C12.7982 0.668945 11.722 1.74516 11.722 3.06841C11.722 4.00695 12.2636 4.82121 13.0507 5.21535C11.2905 5.68816 9.99121 7.29737 9.99121 9.20475Z" fill="#4FBAE9"/>
<path d="M10.8209 1.595L9.56173 0.136439C9.41972 -0.0279809 9.17152 -0.0464675 9.00709 0.0955284C8.84267 0.237534 8.82418 0.486127 8.96618 0.650557L9.30447 1.04234C5.15457 0.735518 1.48968 3.81313 1.09357 7.97483C1.07312 8.19117 1.23164 8.38314 1.44799 8.40398C1.46057 8.40516 1.47316 8.40555 1.48575 8.40555C1.68636 8.40555 1.85747 8.25293 1.87713 8.04957C2.23509 4.28279 5.57664 1.50532 9.33947 1.83456L8.84817 2.25859C8.68375 2.40059 8.66566 2.64879 8.80766 2.81322C8.88555 2.9033 8.99529 2.94972 9.10543 2.94972C9.19669 2.94972 9.28834 2.91825 9.36229 2.85413L10.8209 1.595Z" fill="#4FBAE9"/>
<path d="M5.20055 13.9868C5.98765 13.5931 6.5297 12.7784 6.5297 11.8399C6.5297 10.5166 5.45308 9.44043 4.13023 9.44043C2.80698 9.44043 1.73076 10.5166 1.73076 11.8399C1.73076 12.7784 2.27241 13.5927 3.05952 13.9868C1.29925 14.4596 0 16.0689 0 17.9762V18.3696H8.26046V17.9762C8.26046 16.0689 6.96081 14.4592 5.20055 13.9868Z" fill="#4FBAE9"/>
</svg>
