<svg width="18" height="21" viewBox="0 0 18 21" fill="none" xmlns="http://www.w3.org/2000/svg">
<path d="M16.1526 14.43C15.4733 15.6044 14.497 16.5794 13.3216 17.257C12.1461 17.9346 10.8131 18.2908 9.45639 18.29C8.09967 18.2892 6.76707 17.9313 5.59249 17.2523C4.4179 16.5733 3.44271 15.5971 2.7649 14.4219C2.0871 13.2466 1.73055 11.9136 1.73109 10.5569C1.73164 9.20019 2.08925 7.86751 2.768 6.69278C3.44674 5.51806 4.42272 4.54266 5.59785 3.86461C6.77297 3.18656 8.10586 2.82974 9.46258 2.83V4.08L12.3126 2.19L9.46258 0V1.08C7.8013 1.0813 6.16959 1.5196 4.73125 2.3509C3.29292 3.1822 2.09858 4.37724 1.26812 5.81606C0.437669 7.25488 0.00032693 8.88685 1.83223e-07 10.5481C-0.000326563 12.2094 0.436374 13.8416 1.26626 15.2807C2.09615 16.7199 3.29002 17.9154 4.72803 18.7472C6.16604 19.5791 7.79757 20.018 9.45886 20.02C11.1201 20.0219 12.7527 19.5868 14.1927 18.7584C15.6326 17.9299 16.8293 16.7372 17.6626 15.3L16.1526 14.43Z" fill="#3BC5AC"/>
<path d="M7.45264 4.84997C6.04249 5.36991 4.87882 6.40016 4.19183 7.73691C3.50483 9.07366 3.34454 10.6196 3.74266 12.0688C4.14078 13.5181 5.06831 14.7652 6.34178 15.5634C7.61526 16.3616 9.14193 16.6528 10.6198 16.3794C12.0977 16.106 13.4191 15.2879 14.3228 14.0869C15.2264 12.8859 15.6464 11.3896 15.4997 9.89379C15.353 8.39801 14.6502 7.01177 13.5305 6.00926C12.4107 5.00676 10.9555 4.46101 9.45264 4.47997C8.76978 4.48858 8.09339 4.61372 7.45264 4.84997ZM11.2926 8.76997H10.5226C10.7304 9.06267 10.8454 9.41109 10.8526 9.76997C10.8353 10.2086 10.6741 10.6293 10.394 10.9672C10.1139 11.3051 9.7304 11.5416 9.30264 11.64L11.1726 13.08L10.5426 13.8L7.75264 11.74V10.82H8.75264C9.01786 10.82 9.27221 10.7146 9.45975 10.5271C9.64728 10.3395 9.75264 10.0852 9.75264 9.81997C9.75264 9.55475 9.64728 9.3004 9.45975 9.11286C9.27221 8.92533 9.01786 8.81997 8.75264 8.81997H7.62264V7.84997H11.2926V8.76997Z" fill="#3BC5AC"/>
</svg>
