<svg width="22" height="12" viewBox="0 0 22 12" fill="none" xmlns="http://www.w3.org/2000/svg">
<path fill-rule="evenodd" clip-rule="evenodd" d="M10.9961 0C6.6104 0 2.69305 2.1189 0.106586 5.43694C0.0375304 5.52497 0 5.63363 0 5.74551C0 5.8574 0.0375304 5.96604 0.106586 6.05408C2.69305 9.37211 6.6104 11.4988 10.9961 11.4988C15.3794 11.4988 19.3045 9.37191 21.8934 6.05408C21.9625 5.96604 22 5.8574 22 5.74551C22 5.63363 21.9625 5.52497 21.8934 5.43694C19.3045 2.1191 15.3794 0 10.9961 0ZM10.2462 1.17958C12.846 1.17958 14.941 3.23481 14.941 5.77286C14.941 8.31087 12.846 10.3661 10.2462 10.3661C7.64634 10.3661 5.55913 8.31087 5.55913 5.77286C5.55913 3.23481 7.64634 1.17958 10.2462 1.17958Z" fill="#3BC5AC"/>
<path fill-rule="evenodd" clip-rule="evenodd" d="M10.2493 3.57275C9.02929 3.57275 8.02002 4.55811 8.02002 5.77074C8.02002 6.98527 9.03024 7.96872 10.2493 7.96872C11.4684 7.96872 12.4786 6.98527 12.4786 5.77074C12.4786 4.55811 11.4693 3.57275 10.2493 3.57275Z" fill="#3BC5AC"/>
</svg>
