<svg width="19" height="21" viewBox="0 0 19 21" fill="none" xmlns="http://www.w3.org/2000/svg">
<path d="M9.94027 11.9746H8.97559V18.3289H9.94027V11.9746Z" fill="#6B3C98"/>
<path d="M12.1633 18.2031H6.77368V20.2164H12.1633V18.2031Z" fill="#6B3C98"/>
<path d="M3.12476 0V6.56402C3.12476 10.0662 5.95588 12.8974 9.45809 12.8974C12.9603 12.8974 15.7914 10.0662 15.7914 6.56402V0H3.12476ZM11.8488 9.73068L9.45809 8.01104L7.08833 9.73068L7.9901 6.9415L5.62034 5.22185H8.55632L9.45809 2.43267L10.3599 5.22185H13.2958L10.9261 6.9415L11.8488 9.73068Z" fill="#6B3C98"/>
<path d="M15.7072 6.41713L15.4766 5.82994C16.1476 5.55731 16.7348 5.13789 17.2172 4.6136C17.8883 3.85864 18.1609 2.15996 18.2657 1.38402H15.5395V0.754883H18.9997L18.9368 1.13237C18.9368 1.19528 18.9159 1.25819 18.8949 1.36305C18.7691 2.18093 18.4964 4.11029 17.6785 5.03303C17.1333 5.6412 16.4622 6.10257 15.7072 6.41713Z" fill="#6B3C98"/>
<path d="M3.29249 6.41713C2.51656 6.10257 1.86645 5.6412 1.32119 5.03303C0.503311 4.08932 0.209713 2.18093 0.104857 1.36305C0.0838852 1.25819 0.083885 1.19528 0.0629137 1.13237L0 0.754883H3.46026V1.38402H0.733996C0.838852 2.15996 1.13245 3.85864 1.78256 4.6136C2.2649 5.13789 2.83113 5.55731 3.52318 5.82994L3.29249 6.41713Z" fill="#6B3C98"/>
</svg>
