<svg xmlns="http://www.w3.org/2000/svg" width="15.981" height="15.981" viewBox="0 0 15.981 15.981">
  <g id="Group_335" data-name="Group 335" transform="translate(-2719.819 -470.862)">
    <circle id="Ellipse_30" data-name="Ellipse 30" cx="7.99" cy="7.99" r="7.99" transform="translate(2719.819 470.862)" fill="#0071bc"/>
    <path id="Path_575" data-name="Path 575" d="M2728.565,483.8v-4.527h1.529l.22-1.758h-1.749v-.984a1.466,1.466,0,0,1,.053-.519.608.608,0,0,1,.07-.175q.167-.308.879-.308h.817v-1.573a11.137,11.137,0,0,0-1.353-.079,2.071,2.071,0,0,0-1.951,1,2.476,2.476,0,0,0-.334,1.292v1.344h-1.512v1.758h1.512V483.8Z" fill="#fff"/>
  </g>
</svg>
