<svg xmlns="http://www.w3.org/2000/svg" xmlns:xlink="http://www.w3.org/1999/xlink" width="15.981" height="15.981" viewBox="0 0 15.981 15.981">
  <defs>
    <linearGradient id="linear-gradient" x1="0.146" y1="0.854" x2="0.854" y2="0.146" gradientUnits="objectBoundingBox">
      <stop offset="0" stop-color="red"/>
      <stop offset="0.148" stop-color="#e50018"/>
      <stop offset="0.461" stop-color="#a40056"/>
      <stop offset="0.493" stop-color="#9e005d"/>
      <stop offset="0.674" stop-color="#bf573c"/>
      <stop offset="1" stop-color="#ff0"/>
    </linearGradient>
  </defs>
  <g id="Group_336" data-name="Group 336" transform="translate(-2741.83 -470.862)">
    <circle id="Ellipse_31" data-name="Ellipse 31" cx="7.99" cy="7.99" r="7.99" transform="translate(2741.83 470.862)" fill="url(#linear-gradient)"/>
    <path id="Path_576" data-name="Path 576" d="M2754.21,476.2a1.734,1.734,0,0,0-1.749-1.749h-5.282a1.741,1.741,0,0,0-1.749,1.749v5.282a1.733,1.733,0,0,0,1.749,1.749h5.282a1.726,1.726,0,0,0,1.749-1.749Zm-4.377.448a2,2,0,0,0-.694.123,2.958,2.958,0,0,0-.624.317h-2.2v-.44a1.291,1.291,0,0,1,1.309-1.309h4.386a1.313,1.313,0,0,1,.945.378,1.246,1.246,0,0,1,.391.931v.44h-2.215a3.385,3.385,0,0,0-.615-.317A1.878,1.878,0,0,0,2749.833,476.65Zm2.18,5.722h-4.386a1.241,1.241,0,0,1-.931-.391,1.29,1.29,0,0,1-.378-.927v-3.516h1.749a3.039,3.039,0,0,0-.317.615,1.97,1.97,0,0,0-.123.7,2.082,2.082,0,0,0,.176.853,2.342,2.342,0,0,0,.466.694,2.118,2.118,0,0,0,.7.475,2.178,2.178,0,0,0,.861.176,2.131,2.131,0,0,0,1.543-.651,2.409,2.409,0,0,0,.461-.694,2.078,2.078,0,0,0,.176-.853,1.97,1.97,0,0,0-.123-.7,3.708,3.708,0,0,0-.3-.615h1.758v3.516a1.27,1.27,0,0,1-.391.927A1.289,1.289,0,0,1,2752.013,482.372Zm-2.18-4.834a1.292,1.292,0,0,1,.928.378,1.256,1.256,0,0,1,.391.94,1.243,1.243,0,0,1-.391.936,1.3,1.3,0,0,1-.928.374,1.315,1.315,0,0,1-.949-.374,1.247,1.247,0,0,1-.387-.936,1.26,1.26,0,0,1,.387-.94A1.306,1.306,0,0,1,2749.833,477.538Zm1.758-.888h.87v-.87h-.87Z" fill="#fff"/>
  </g>
</svg>
