<svg xmlns="http://www.w3.org/2000/svg" width="26.575" height="12.854" viewBox="0 0 26.575 12.854">
  <g id="Group_334" data-name="Group 334" transform="translate(-2566.352 -472.425)">
    <path id="Path_574" data-name="Path 574" d="M2566.352,478.851a6.135,6.135,0,0,1,.523-2.5,6.8,6.8,0,0,1,1.367-2.052,6.147,6.147,0,0,1,2.053-1.368,6.379,6.379,0,0,1,2.483-.5H2586.5a6.29,6.29,0,0,1,2.483.5,6.289,6.289,0,0,1,3.42,3.42,6.6,6.6,0,0,1,.523,2.5,5.771,5.771,0,0,1-.523,2.5,7.022,7.022,0,0,1-1.368,2.034,6.492,6.492,0,0,1-2.052,1.386,5.684,5.684,0,0,1-2.483.5h-13.723a6.407,6.407,0,0,1-4.536-1.89,6.738,6.738,0,0,1-1.367-2.034A6.374,6.374,0,0,1,2566.352,478.851ZM2586.5,484a4.974,4.974,0,0,0,2-.414,5.086,5.086,0,0,0,2.735-2.736,4.741,4.741,0,0,0,.4-2,5.666,5.666,0,0,0-.4-2,4.527,4.527,0,0,0-1.1-1.638,5.881,5.881,0,0,0-1.638-1.1,5.028,5.028,0,0,0-4,0,5.875,5.875,0,0,0-1.639,1.1,4.539,4.539,0,0,0-1.1,1.638,5.909,5.909,0,0,0-.414,2,4.26,4.26,0,0,0,.414,2,6.23,6.23,0,0,0,1.1,1.638,4.75,4.75,0,0,0,1.639,1.1A5.132,5.132,0,0,0,2586.5,484Z" fill="gray"/>
  </g>
</svg>
