<svg xmlns="http://www.w3.org/2000/svg" width="15.981" height="15.981" viewBox="0 0 15.981 15.981">
  <g id="Group_338" data-name="Group 338" transform="translate(-2698.459 -470.862)">
    <circle id="Ellipse_32" data-name="Ellipse 32" cx="7.99" cy="7.99" r="7.99" transform="translate(2698.459 470.862)" fill="#29abe2"/>
    <g id="Group_337" data-name="Group 337">
      <path id="Path_577" data-name="Path 577" d="M2704.718,482.669a5.393,5.393,0,0,0,3.557-1.3,5.787,5.787,0,0,0,1.59-2.36,5.3,5.3,0,0,0,.325-1.744v-.333a3.419,3.419,0,0,0,.53-.462,3.86,3.86,0,0,0,.427-.539h-.008a3.2,3.2,0,0,1-1.077.308v-.025a1.932,1.932,0,0,0,.4-.308,2.5,2.5,0,0,0,.428-.735,3.938,3.938,0,0,1-.8.35,2.636,2.636,0,0,1-.436.111,2.008,2.008,0,0,0-1.394-.6,1.92,1.92,0,0,0-1.359.547,1.878,1.878,0,0,0-.581,1.376,2.109,2.109,0,0,0,.051.436,6.717,6.717,0,0,1-.838-.094,6.6,6.6,0,0,1-1.855-.769,5.975,5.975,0,0,1-1.282-1.146,1.957,1.957,0,0,0,.2,2.206,1.505,1.505,0,0,0,.376.35v.009a1.973,1.973,0,0,1-.846-.222,1.847,1.847,0,0,0,1.248,1.812,1.305,1.305,0,0,0,.265.086c0,.011-.071.028-.214.051l-.222.008h-.069a2.573,2.573,0,0,1-.342-.025,1.878,1.878,0,0,0,.8,1.026,1.85,1.85,0,0,0,1,.308,3.743,3.743,0,0,1-.547.367,3.83,3.83,0,0,1-1.779.462,4.356,4.356,0,0,1-.521-.026A5.336,5.336,0,0,0,2704.718,482.669Z" fill="#fff"/>
    </g>
  </g>
</svg>
