<svg xmlns="http://www.w3.org/2000/svg" width="18.546" height="18.546" viewBox="0 0 18.546 18.546">
  <g id="Group_3091" data-name="Group 3091" transform="translate(-188.34 -1077.02)">
    <path id="Path_4080" data-name="Path 4080" d="M191.818,1090.543h.773v-6.182h-.773a3.091,3.091,0,0,0,0,6.182Z" fill="none" stroke="#4d4d4d" stroke-linecap="round" stroke-linejoin="round" stroke-width="0.773"/>
    <path id="Path_4081" data-name="Path 4081" d="M203.409,1090.543h-.773v-6.182h.773a3.091,3.091,0,1,1,0,6.182Z" fill="none" stroke="#4d4d4d" stroke-linecap="round" stroke-linejoin="round" stroke-width="0.773"/>
    <path id="Path_4082" data-name="Path 4082" d="M191.818,1084.361V1083.2a5.8,5.8,0,1,1,11.591,0v1.159" fill="none" stroke="#4d4d4d" stroke-linecap="round" stroke-linejoin="round" stroke-width="0.773"/>
    <path id="Path_4083" data-name="Path 4083" d="M203.409,1090.543a2.831,2.831,0,0,1-3.091,3.091" fill="none" stroke="#4d4d4d" stroke-linecap="round" stroke-linejoin="round" stroke-width="0.773"/>
    <path id="Path_4084" data-name="Path 4084" d="M199.159,1095.179h-1.545a1.159,1.159,0,1,1,0-2.318h1.545a1.159,1.159,0,1,1,0,2.318Z" fill="none" stroke="#4d4d4d" stroke-linecap="round" stroke-linejoin="round" stroke-width="0.773"/>
  </g>
</svg>
