<svg xmlns="http://www.w3.org/2000/svg" width="18.546" height="18.506" viewBox="0 0 18.546 18.506">
  <g id="Group_3083" data-name="Group 3083" transform="translate(-187.113 -564.061)">
    <path id="Path_4092" data-name="Path 4092" d="M202.727,582.18H190.045a1,1,0,0,1-1-1v-8.273h14.682v8.273A1,1,0,0,1,202.727,582.18Z" fill="none" stroke="#4d4d4d" stroke-width="0.773"/>
    <path id="Path_4093" data-name="Path 4093" d="M205.273,572.907H187.5v-2.091a1,1,0,0,1,1-1h15.773a1,1,0,0,1,1,1Z" fill="none" stroke="#4d4d4d" stroke-width="0.773"/>
    <path id="Path_4094" data-name="Path 4094" d="M194.926,565.7,196,569.461l-3.495-1.748a1.715,1.715,0,0,1-.446-2.747l0-.005A1.716,1.716,0,0,1,194.926,565.7Z" fill="none" stroke="#4d4d4d" stroke-linecap="round" stroke-linejoin="round" stroke-width="0.773"/>
    <path id="Path_4095" data-name="Path 4095" d="M197.267,565.7l-1.074,3.758,3.5-1.748a1.715,1.715,0,0,0,.446-2.747l-.005-.005A1.716,1.716,0,0,0,197.267,565.7Z" fill="none" stroke="#4d4d4d" stroke-linecap="round" stroke-linejoin="round" stroke-width="0.773"/>
    <line id="Line_412" data-name="Line 412" y2="11.977" transform="translate(196 570.203)" fill="none" stroke="#4d4d4d" stroke-linejoin="round" stroke-width="0.773"/>
  </g>
</svg>
