<svg xmlns="http://www.w3.org/2000/svg" width="18.545" height="14.296" viewBox="0 0 18.545 14.296">
  <g id="Group_3084" data-name="Group 3084" transform="translate(-187.204 -611.885)">
    <path id="Path_4088" data-name="Path 4088" d="M193.386,623.862h5.023V613.044a.775.775,0,0,0-.773-.773h-9.273a.775.775,0,0,0-.772.773v10.818h1.931" fill="none" stroke="#4d4d4d" stroke-linecap="round" stroke-linejoin="round" stroke-width="0.773"/>
    <path id="Path_4089" data-name="Path 4089" d="M204.2,623.862h1.159V621.59a.772.772,0,0,0-.294-.6L203.045,620l-.348-2.4a.764.764,0,0,0-.765-.688h-3.523v6.955h1.931" fill="none" stroke="#4d4d4d" stroke-linecap="round" stroke-linejoin="round" stroke-width="0.773"/>
    <path id="Path_4090" data-name="Path 4090" d="M200.341,623.862a1.932,1.932,0,1,0,1.932-1.932A1.932,1.932,0,0,0,200.341,623.862Z" fill="none" stroke="#4d4d4d" stroke-linecap="round" stroke-width="0.773"/>
    <path id="Path_4091" data-name="Path 4091" d="M189.523,623.862a1.932,1.932,0,1,0,1.932-1.932A1.932,1.932,0,0,0,189.523,623.862Z" fill="none" stroke="#4d4d4d" stroke-linecap="round" stroke-width="0.773"/>
  </g>
</svg>
