<svg xmlns="http://www.w3.org/2000/svg" width="17" height="18.546" viewBox="0 0 17 18.546">
  <g id="Group_3086" data-name="Group 3086" transform="translate(-186.25 -747.111)">
    <path id="Path_4077" data-name="Path 4077" d="M202.864,765.27H186.637l.109-.765a5.409,5.409,0,0,1,5.355-4.644l2.649-.773,2.65.773a5.409,5.409,0,0,1,5.355,4.644Z" fill="none" stroke="#4d4d4d" stroke-linecap="round" stroke-linejoin="round" stroke-width="0.773"/>
    <path id="Path_4078" data-name="Path 4078" d="M194.364,756h0a3.165,3.165,0,0,1-3.146-2.815l-.241-2.17a3.165,3.165,0,0,1,3.146-3.515h.482a3.165,3.165,0,0,1,3.146,3.515l-.241,2.17A3.165,3.165,0,0,1,194.364,756Z" fill="none" stroke="#4d4d4d" stroke-linecap="round" stroke-linejoin="round" stroke-width="0.773"/>
  </g>
</svg>
